<?xml version="1.0" encoding="utf-8"?>
<!-- Generator: Adobe Illustrator 17.0.0, SVG Export Plug-In . SVG Version: 6.00 Build 0)  -->
<!DOCTYPE svg PUBLIC "-//W3C//DTD SVG 1.1//EN" "http://www.w3.org/Graphics/SVG/1.1/DTD/svg11.dtd">
<svg version="1.1" xmlns="http://www.w3.org/2000/svg" xmlns:xlink="http://www.w3.org/1999/xlink" x="0px" y="0px" width="1024px"
	 height="768px" viewBox="0 0 1024 768" enable-background="new 0 0 1024 768" xml:space="preserve">
<g id="Capa_1">
	<path fill="none" stroke="#000000" stroke-width="4" stroke-miterlimit="10" d="M321.884,272.943
		c0.378,14.303,7.859,42.738,14.685,55.271c5.083,9.333,20.37,24.636,28.553,31.348c6.819,5.592,22.156,14.557,30.185,18.149
		c7.021,3.141,22.258,6.148,29.369,9.074c8.037,3.307,22.228,13.823,30.185,17.324c6.861,3.019,21.195,7.699,28.553,9.074
		c9.845,1.841,30.004,3.404,39.974,2.475c8.374-0.78,24.811-5.127,32.632-8.249c7.812-3.119,22.914-10.08,31.001-12.374
		c4.913-1.394,13.765-3.911,18.764-4.95c7.272-1.51,21.414-6.791,27.737-10.724c5.165-3.213,13.993-11.851,17.948-16.499
		c4.796-5.637,13.31-17.962,16.316-24.748c4.308-9.723,10.254-30.599,10.605-41.247c0.309-9.358-2.482-28.083-4.895-37.123
		c-2.073-7.765-8.411-22.646-12.237-29.698c-3.946-7.273-13.124-21.199-18.763-27.223c-5.02-5.363-17.306-13.682-23.658-17.324
		c-4.053-2.324-12.562-6.506-17.132-7.424c-32.208-6.475-98.841-3.084-131.345,1.65c-11.951,1.741-35.137,9.071-46.501,13.199
		c-9.023,3.278-26.422,11.508-35.08,15.674c-9.719,4.676-29.238,13.995-38.343,19.799c-6.039,3.849-19.002,11.24-22.843,17.324
		C323.892,251.584,321.7,265.988,321.884,272.943z"/>
	<path stroke="#000000" stroke-miterlimit="10" d="M311.278,234.171c-4.052,12.28,12.864,37.206,21.211,47.022
		c5.4,6.35,19.7,23.519,25.29,29.698c5.844,6.459,17.777,13.798,25.29,18.149c4.984,2.886,16.317,7.222,22.027,6.6
		c9.257-1.009,24.777-13.095,32.632-18.149c7.882-5.071,23.308-15.881,30.185-22.275c5.959-5.542,16.786-17.891,21.211-24.746
		c4.687-7.262,18.175-23.427,14.685-31.348c-5.804-13.172-40.639-13.86-54.659-16.499c-12.872-2.423-39.129-3.609-52.212-4.125
		c-12.024-0.474-36.143-1.03-48.133,0C338.691,219.365,314.491,224.434,311.278,234.171z"/>
	<g>
		<path d="M396.669,328.638c0,0,2.579,4.864,6.446,12.159c0.982,1.813,2.047,3.777,3.172,5.854c1.122,2.085,2.309,4.275,3.591,6.468
			c0.634,1.108,1.279,2.235,1.932,3.375l0.245,0.429l0.061,0.107c-0.026-0.036,0.033,0.05,0.045,0.069l0.14,0.208l0.563,0.833
			c0.376,0.557,0.754,1.116,1.134,1.678c1.489,2.286,3.146,4.415,4.737,6.643c1.626,2.199,3.308,4.382,4.947,6.531
			c0.837,1.061,1.668,2.113,2.489,3.153l0.614,0.778l0.153,0.194l0.146,0.17l0.324,0.371c0.432,0.494,0.86,0.984,1.285,1.47
			c3.4,3.888,6.574,7.516,9.295,10.627c1.352,1.563,2.646,2.94,3.765,4.191c1.127,1.243,2.109,2.328,2.917,3.22
			c1.619,1.787,2.544,2.808,2.544,2.808s-0.982-0.967-2.699-2.66c-0.859-0.847-1.903-1.875-3.1-3.055
			c-1.189-1.187-2.567-2.496-4.006-3.981c-2.894-2.953-6.271-6.398-9.889-10.09c-0.452-0.461-0.908-0.927-1.367-1.395l-0.345-0.352
			l-0.186-0.195l-0.165-0.186l-0.661-0.746c-0.885-0.999-1.78-2.01-2.683-3.029c-1.772-2.067-3.575-4.151-5.349-6.287
			c-1.738-2.16-3.586-4.289-5.185-6.464c-0.411-0.54-0.82-1.077-1.228-1.612l-0.609-0.8l-0.152-0.199l-0.1-0.135l-0.069-0.106
			l-0.275-0.423c-0.734-1.127-1.458-2.24-2.171-3.335c-1.452-2.189-2.767-4.32-4.006-6.339c-1.248-2.02-2.427-3.929-3.516-5.691
			c-4.285-7.081-7.142-11.802-7.142-11.802L396.669,328.638z"/>
	</g>
	<ellipse fill="none" cx="507.072" cy="162.813" rx="40.79" ry="34.235"/>
	<ellipse fill="none" cx="508.703" cy="165.288" rx="3.263" ry="2.062"/>
	
		<ellipse fill="#FFFFFF" stroke="#000000" stroke-width="4" stroke-miterlimit="10" cx="514.414" cy="167.35" rx="40.79" ry="33.823"/>
	<path fill="none" stroke="#000000" stroke-width="4" stroke-miterlimit="10" d="M575.599,399.985c0,0,31.52-23.145,39.974-32.998
		c7.832-9.127,18.686-31.295,22.027-42.897c2.337-8.119,2.232-25.674,0-33.823c-2.54-9.271-19.579-32.998-19.579-32.998"/>
	<g>
		<path d="M600.073,265.519c0,0,0.353-0.483,1.034-1.26c0.68-0.779,1.687-1.846,2.971-3.046c1.287-1.195,2.865-2.503,4.704-3.776
			c0.965-0.611,1.903-1.261,3.193-1.782l0.459-0.202l0.058-0.025l0.029-0.013l0.014-0.006c-0.079,0.022,0.124-0.037,0.108-0.032
			l0.103-0.029l0.205-0.058c0.279-0.078,0.536-0.158,0.839-0.223c0.641-0.116,1.357-0.266,1.93-0.325
			c1.212-0.142,2.396-0.232,3.556-0.248c1.162-0.042,2.295-0.01,3.389,0.036c2.188,0.097,4.215,0.321,5.944,0.597
			c1.729,0.282,3.162,0.598,4.161,0.86c0.999,0.258,1.565,0.459,1.565,0.459s-0.582,0.148-1.592,0.337
			c-1.01,0.195-2.449,0.431-4.166,0.663c-1.717,0.225-3.712,0.438-5.832,0.631c-1.053,0.094-2.142,0.192-3.248,0.291
			c-1.098,0.103-2.207,0.195-3.274,0.341c-0.572,0.048-0.981,0.141-1.471,0.202l-0.824,0.182l-0.209,0.046l-0.104,0.023
			c-0.025,0.007,0.17-0.048,0.083-0.023l-0.01,0.004l-0.02,0.008l-0.04,0.016l-0.324,0.128c-0.438,0.196-0.848,0.27-1.334,0.534
			c-0.469,0.228-0.933,0.453-1.401,0.661c-1.895,0.959-3.664,1.855-5.179,2.622c-0.767,0.393-1.5,0.714-2.136,1.023
			c-0.631,0.315-1.212,0.551-1.678,0.763C600.638,265.31,600.073,265.519,600.073,265.519z"/>
	</g>
	<ellipse cx="521.715" cy="166.076" rx="16.534" ry="16.013"/>
	<ellipse fill="none" cx="525.042" cy="169.664" rx="18.63" ry="16.147"/>
	
		<ellipse fill="#FFFFFF" stroke="#000000" stroke-width="4" stroke-miterlimit="10" cx="566.625" cy="176.424" rx="40.79" ry="33.823"/>
	<ellipse stroke="#000000" stroke-width="4" stroke-miterlimit="10" cx="581.596" cy="177.065" rx="15.303" ry="15.026"/>
	<path fill="#FFFFFF" stroke="#000000" stroke-width="4" stroke-miterlimit="10" d="M416.093,536.553
		c0,0-16.364-9.852-20.213-10.421c-4.618-0.682-15.949,6.181-18.005,10.417c-3.155,6.498-0.709,25.467,1.218,32.439
		c1.823,6.595,2.46,7.245,4.663,13.721c1.437,4.224,13.211,20.792,15.428,24.656c3.392,5.91,16.91,21.325,16.91,21.325
		s-29.08-12.934-39.436-14.761c-6.923-1.221-21.344,0.198-28.005,2.463c-4.603,1.565-13.453,6.592-16.438,10.466
		c-2.936,3.811-7.306,17.853-7.306,17.853s24.348,9.323,32.876,10.673c6.415,1.016,27.168,2.17,27.168,2.17"/>
	<line fill="#FFFFFF" x1="414.49" y1="679.684" x2="416.093" y2="655.334"/>
	<g>
		<path fill="#FFFFFF" d="M335.507,648.272c0,0,1.104-6.501,1.926-8.522c0.781-1.922,4.334-7.061,4.334-7.061"/>
		<path d="M334.03,648.013c0,0,0.288-1.039,0.72-2.597c0.21-0.781,0.503-1.69,0.805-2.66c0.161-0.487,0.284-0.978,0.505-1.503
			c0.201-0.514,0.406-1.036,0.611-1.558l0.077-0.194c0.071-0.16,0.082-0.141,0.126-0.221l0.217-0.337l0.431-0.669
			c0.274-0.446,0.571-0.88,0.891-1.289c0.618-0.82,1.173-1.593,1.68-2.212c0.995-1.261,1.676-2.085,1.676-2.085
			s-0.527,0.931-1.283,2.341c-0.393,0.701-0.789,1.532-1.235,2.402c-0.229,0.426-0.44,0.889-0.635,1.383l-0.306,0.731l-0.154,0.368
			c-0.014,0.04-0.079,0.171-0.05,0.136l-0.037,0.189c-0.098,0.499-0.196,0.997-0.293,1.488c-0.111,0.471-0.152,1.003-0.221,1.486
			c-0.125,0.981-0.25,1.888-0.319,2.68c-0.151,1.583-0.251,2.638-0.251,2.638L334.03,648.013z"/>
	</g>
	<g>
		<path fill="#FFFFFF" d="M344.658,652.28c0,0,1.104-6.501,1.926-8.522c0.781-1.922,4.334-7.061,4.334-7.061"/>
		<path d="M343.18,652.02c0,0,0.288-1.039,0.72-2.597c0.21-0.781,0.503-1.69,0.805-2.66c0.161-0.487,0.284-0.978,0.505-1.503
			c0.201-0.514,0.406-1.036,0.611-1.558l0.077-0.194c0.071-0.16,0.082-0.141,0.126-0.221l0.217-0.337l0.431-0.669
			c0.274-0.446,0.571-0.88,0.891-1.289c0.618-0.82,1.173-1.593,1.68-2.212c0.995-1.261,1.676-2.085,1.676-2.085
			s-0.527,0.931-1.283,2.341c-0.393,0.701-0.789,1.532-1.235,2.401c-0.229,0.426-0.44,0.89-0.635,1.383l-0.306,0.731l-0.154,0.368
			c-0.014,0.04-0.079,0.171-0.05,0.136l-0.037,0.189c-0.098,0.499-0.196,0.997-0.293,1.488c-0.111,0.471-0.152,1.003-0.221,1.486
			c-0.125,0.981-0.25,1.888-0.319,2.68c-0.151,1.583-0.251,2.638-0.251,2.638L343.18,652.02z"/>
	</g>
</g>
<g id="Capa_4">
	<path fill="none" stroke="#000000" stroke-width="4" stroke-miterlimit="10" d="M547.512,144.202c0,0-2.836-52.436-8.871-68.626
		c-3.58-9.603-13.339-29.94-22.622-34.089c-10.356-4.629-33.862,3.768-44.8,6.728c-11.975,3.241-35.209,12.46-46.131,18.39
		c-9.893,5.371-31.626,15.946-36.816,26.015c-1.076,2.088-1.341,7.494,0,9.419c0.95,1.363,4.562,2.268,6.21,2.243
		c2.738-0.041,7.637-3.067,10.202-4.037c12.682-4.794,37.974-14.693,51.01-18.39c8.941-2.536,29-13.335,36.372-7.625
		c17.902,13.866,8.775,61.634,8.775,61.634"/>
	<path fill="none" stroke="#000000" stroke-width="2" stroke-miterlimit="10" d="M537.754,139.716c0,0-2.732-31.059-4.436-40.817
		c-1.356-7.768-2.804-16.285-4.436-21.53c-1.339-4.305-6.215-15.425-7.984-16.147c-2.824-1.153-16.659,2.718-19.542,3.708
		c-5.281,1.813-21.329,8.457-21.329,8.457"/>
	<path fill="none" stroke="#000000" stroke-width="4" stroke-miterlimit="10" d="M568.437,143.758c0,0,4.798-70.199,10.834-86.39
		c3.58-9.603,13.339-29.94,22.622-34.089c10.356-4.629,33.862,3.768,44.8,6.728c11.975,3.241,35.209,12.46,46.131,18.39
		c9.893,5.371,31.626,15.946,36.816,26.015c1.076,2.088,1.341,7.494,0,9.419c-0.95,1.363-4.562,2.268-6.21,2.243
		c-2.739-0.041-7.637-3.067-10.202-4.037c-12.682-4.794-37.974-14.693-51.01-18.39c-8.941-2.536-29-13.335-36.372-7.625
		c-17.902,13.866,1.446,133.463,1.446,133.463"/>
	<path fill="none" stroke="#000000" stroke-width="2" stroke-miterlimit="10" d="M595.178,151.656c0,0,1.582-59.556,3.285-69.314
		c1.356-7.768,2.804-16.285,4.436-21.53c1.339-4.305,4.712-15.087,9.164-16.628c4.767-1.65,16.129,5.777,19.012,6.767
		c5.281,1.813,17.954,7.781,17.954,7.781"/>
</g>
<g id="Capa_2">
	<path fill="#FFFFFF" stroke="#000000" stroke-width="4" stroke-miterlimit="10" d="M620.326,530.943c0,0,13.775-7.055,17.625-7.624
		c4.618-0.682,12.022,6.774,14.078,11.01c3.155,6.498,0.709,25.467-1.218,32.439c-1.823,6.595-2.46,7.245-4.663,13.721
		c-1.437,4.224-13.211,20.792-15.428,24.656c-3.392,5.91-16.91,21.325-16.91,21.325s29.08-12.934,39.436-14.761
		c6.923-1.221,21.344,0.198,28.005,2.463c4.603,1.565,13.453,6.592,16.438,10.466c2.936,3.811,7.306,17.853,7.306,17.853
		s-24.348,9.323-32.876,10.673c-6.415,1.016-30.391,2.17-30.391,2.17"/>
	<g>
		<path fill="#FFFFFF" d="M409.914,679.684c0,0-0.675-7.605,0-11.002c0.537-2.704,3.818-11.002,3.818-11.002"/>
		<path d="M408.42,679.81c0,0-0.004-0.361-0.012-0.992c-0.002-0.636-0.005-1.532,0.021-2.614c0.023-1.081,0.063-2.341,0.171-3.699
			c0.034-0.674,0.133-1.386,0.215-2.1c0.029-0.353,0.119-0.728,0.188-1.095l0.11-0.552c0.026-0.111,0.02-0.142,0.072-0.317
			l0.091-0.251c0.241-0.669,0.483-1.338,0.72-1.997c0.218-0.66,0.533-1.302,0.786-1.924c0.53-1.243,1.017-2.396,1.467-3.361
			c0.89-1.937,1.483-3.228,1.483-3.228s-0.418,1.357-1.044,3.393c-0.32,1.018-0.645,2.209-0.997,3.472
			c-0.166,0.639-0.383,1.267-0.514,1.96c-0.148,0.682-0.299,1.375-0.45,2.068l-0.057,0.26l-0.012,0.207l-0.031,0.5
			c-0.017,0.334-0.055,0.653-0.037,0.998c0.013,0.68,0.007,1.338,0.061,1.993c0.068,1.299,0.191,2.519,0.307,3.562
			c0.113,1.042,0.232,1.914,0.314,2.515c0.088,0.605,0.138,0.951,0.138,0.951L408.42,679.81z"/>
	</g>
	<g>
		<path fill="#FFFFFF" d="M692.035,648.272c0,0-1.104-6.501-1.926-8.522c-0.781-1.922-7.224-10.188-7.224-10.188"/>
		<path d="M690.557,648.527c0,0-0.101-1.31-0.315-3.282c-0.108-0.983-0.243-2.13-0.432-3.334c-0.051-0.299-0.103-0.603-0.156-0.91
			c-0.066-0.29-0.133-0.584-0.201-0.881c-0.179-0.567-0.485-1.068-0.803-1.655c-1.317-2.271-2.803-4.49-3.902-6.149
			c-1.118-1.652-1.864-2.753-1.864-2.753s0.869,1.008,2.173,2.519c1.29,1.528,3.016,3.545,4.632,5.704
			c0.383,0.537,0.836,1.141,1.14,1.791c0.138,0.324,0.274,0.646,0.41,0.963c0.112,0.312,0.223,0.619,0.331,0.922
			c0.417,1.211,0.756,2.34,1.04,3.31c0.563,1.935,0.902,3.245,0.902,3.245L690.557,648.527z"/>
	</g>
	<g>
		<path fill="#FFFFFF" d="M682.885,652.28c0,0-1.104-6.501-1.926-8.522c-0.781-1.922-7.616-11.069-7.616-11.069"/>
		<path d="M681.407,652.534c0,0-0.105-1.368-0.33-3.428c-0.118-1.023-0.253-2.227-0.466-3.475c-0.109-0.628-0.212-1.261-0.422-1.822
			c-0.136-0.327-0.264-0.553-0.421-0.859l-0.499-0.892c-1.382-2.38-2.895-4.718-4.022-6.466c-1.142-1.742-1.903-2.904-1.903-2.904
			s0.883,1.073,2.208,2.682c1.314,1.621,3.066,3.772,4.729,6.031l0.614,0.863c0.194,0.288,0.433,0.647,0.59,0.936
			c0.356,0.68,0.613,1.351,0.833,1.978c0.454,1.266,0.8,2.443,1.104,3.457c0.59,2.021,0.943,3.389,0.943,3.389L681.407,652.534z"/>
	</g>
</g>
<g id="Capa_6">
	<path fill="none" stroke="#000000" stroke-width="5" stroke-miterlimit="10" d="M479.631,410.571
		c-62.314,72.05-121.771,241.709,32.331,241.709c151.066,0,111.516-161.231,63.638-252.295"/>
</g>
<g id="Capa_5">
	<path fill="#FFFFFF" stroke="#000000" stroke-width="4" stroke-miterlimit="10" d="M457.02,509.564
		c0,14.675,8.034,43.296,9.741,57.869c1.904,16.258,4.349,65.337,4.349,65.337s-25.527-5.595-34.167-5.343
		c-8.822,0.257-26.92,2.941-34.52,7.48c-5.321,3.178-13.719,13.156-16.203,18.878c-2.208,5.087-2.466,22.084-2.466,22.084
		s17.82,5.342,23.952,6.055c5.512,0.641,16.725,0.606,22.191-0.356c7.792-1.371,22.609-7.331,29.94-10.329
		c7.669-3.136,29.94-14.247,29.94-14.247l5.988-4.274c0,0-2.095-48.841-4.045-59.527c-2.938-16.099-1.218-66.873-1.218-89.166"/>
	<g>
		<path d="M394.859,677.747c0,0-0.014-0.36-0.038-0.99c-0.013-0.642-0.031-1.559-0.053-2.66c0.01-0.551,0.02-1.148,0.031-1.78
			c0.029-0.637-0.016-1.279,0.077-1.995c0.069-0.701,0.14-1.426,0.212-2.162c0.014-0.118,0.007-0.123,0.039-0.334l0.071-0.258
			l0.144-0.518c0.085-0.342,0.197-0.696,0.336-1.056c0.503-1.452,1.058-2.752,1.591-4.009c0.532-1.247,1.051-2.398,1.495-3.384
			c0.911-1.961,1.518-3.268,1.518-3.268s-0.432,1.373-1.08,3.434c-0.312,1.034-0.676,2.238-1.039,3.534
			c-0.36,1.286-0.747,2.704-1.022,4.021c-0.083,0.325-0.146,0.667-0.187,1.031l-0.075,0.531l-0.037,0.264
			c0.018-0.035,0.01,0.138,0.017,0.196c0.023,0.678,0.046,1.346,0.069,1.991c-0.006,0.631,0.124,1.291,0.174,1.887
			c0.068,0.602,0.133,1.172,0.192,1.698c0.158,1.048,0.29,1.921,0.383,2.533c0.106,0.621,0.166,0.976,0.166,0.976L394.859,677.747z"
			/>
	</g>
	<g>
		<path d="M410.51,679.967c0,0-0.014-0.36-0.038-0.99c-0.013-0.642-0.031-1.559-0.053-2.66c0.01-0.551,0.02-1.148,0.031-1.78
			c0.029-0.637-0.016-1.279,0.077-1.995c0.069-0.701,0.14-1.425,0.212-2.162c0.014-0.118,0.007-0.123,0.039-0.334l0.071-0.258
			l0.144-0.518c0.085-0.342,0.197-0.696,0.336-1.056c0.503-1.452,1.058-2.752,1.591-4.009c0.532-1.247,1.051-2.398,1.495-3.384
			c0.911-1.961,1.518-3.268,1.518-3.268s-0.432,1.374-1.08,3.434c-0.312,1.034-0.676,2.238-1.039,3.534
			c-0.36,1.286-0.747,2.704-1.022,4.021c-0.083,0.325-0.146,0.667-0.187,1.031l-0.075,0.531l-0.037,0.264
			c0.018-0.035,0.01,0.138,0.017,0.197c0.023,0.678,0.046,1.345,0.069,1.991c-0.006,0.631,0.124,1.29,0.174,1.887
			c0.068,0.602,0.133,1.172,0.192,1.698c0.158,1.048,0.29,1.921,0.383,2.533c0.106,0.621,0.166,0.976,0.166,0.976L410.51,679.967z"
			/>
	</g>
</g>
<g id="Capa_3">
	<path fill="#FFFFFF" stroke="#000000" stroke-width="4" stroke-miterlimit="10" d="M568.73,509.564
		c0,14.675-8.034,43.296-9.741,57.869c-1.904,16.258-4.349,65.337-4.349,65.337s25.528-5.595,34.167-5.343
		c8.822,0.257,26.92,2.941,34.52,7.48c5.321,3.178,13.719,13.156,16.203,18.878c2.208,5.087,2.466,22.084,2.466,22.084
		s-17.82,5.342-23.952,6.055c-5.512,0.641-16.725,0.606-22.191-0.356c-7.792-1.371-22.609-7.331-29.94-10.329
		c-7.669-3.136-29.94-14.247-29.94-14.247l-5.988-4.274c0,0,2.095-48.841,4.045-59.527c2.938-16.099,1.218-66.873,1.218-89.166"/>
	<line fill="#FFFFFF" x1="539.631" y1="527.894" x2="538.028" y2="503.544"/>
	<g>
		<path d="M627.545,677.431c0,0,0.06-0.355,0.166-0.976c0.092-0.611,0.224-1.485,0.383-2.533c0.059-0.526,0.124-1.095,0.192-1.698
			c0.05-0.597,0.18-1.256,0.174-1.887c0.022-0.646,0.045-1.313,0.069-1.991c0.006-0.058-0.001-0.231,0.017-0.196l-0.037-0.264
			l-0.075-0.531c-0.042-0.363-0.104-0.706-0.187-1.031c-0.275-1.317-0.662-2.735-1.022-4.021c-0.363-1.296-0.727-2.501-1.039-3.534
			c-0.648-2.06-1.08-3.434-1.08-3.434s0.607,1.307,1.518,3.268c0.444,0.986,0.963,2.137,1.495,3.384
			c0.533,1.257,1.088,2.557,1.591,4.009c0.139,0.36,0.251,0.714,0.336,1.056l0.143,0.518l0.071,0.258
			c0.031,0.211,0.024,0.216,0.039,0.334c0.072,0.736,0.143,1.461,0.212,2.162c0.093,0.716,0.048,1.357,0.078,1.995
			c0.011,0.632,0.021,1.229,0.031,1.78c-0.022,1.101-0.04,2.018-0.053,2.66c-0.024,0.63-0.038,0.99-0.038,0.99L627.545,677.431z"/>
	</g>
	<g>
		<path fill="#FFFFFF" d="M613.511,679.684c0,0,0.675-7.605,0-11.002c-0.537-2.704-3.818-11.002-3.818-11.002"/>
		<path d="M612.016,679.558c0,0,0.05-0.346,0.138-0.951c0.082-0.601,0.201-1.473,0.314-2.515c0.116-1.043,0.239-2.264,0.307-3.562
			c0.054-0.656,0.047-1.314,0.061-1.993c0.017-0.346-0.02-0.665-0.037-0.998l-0.031-0.5l-0.012-0.207l-0.057-0.26
			c-0.151-0.693-0.301-1.386-0.45-2.068c-0.131-0.692-0.349-1.321-0.514-1.96c-0.352-1.264-0.677-2.455-0.997-3.472
			c-0.627-2.036-1.044-3.393-1.044-3.393s0.593,1.291,1.483,3.228c0.45,0.965,0.937,2.117,1.467,3.361
			c0.253,0.622,0.568,1.264,0.786,1.924c0.238,0.659,0.479,1.328,0.72,1.997l0.091,0.251c0.052,0.176,0.046,0.207,0.072,0.317
			l0.11,0.552c0.069,0.367,0.159,0.742,0.188,1.095c0.082,0.714,0.181,1.426,0.215,2.1c0.108,1.359,0.148,2.619,0.171,3.699
			c0.026,1.082,0.023,1.978,0.021,2.614c-0.008,0.632-0.012,0.992-0.012,0.992L612.016,679.558z"/>
	</g>
</g>
<g id="Capa_7">
	<path fill="none" stroke="#000000" stroke-width="4" stroke-miterlimit="10" d="M647.055,577.897c0,0,6.049-15.849,8.092-21.284
		c4.256-11.322,15.304-18.54,15.304-18.54s2.852,12.484,2.891,16.643c0.044,4.639-6.44,24.687-6.44,24.687
		s6.205-16.085,9.543-20.686c3.383-4.664,14.438-16.189,19.787-18.238c6.585-2.523,16.969-4.898,22.803-5.414
		c6.568-0.581,26.374,0,26.374,0s-5.328,13.998-7.734,18.849c-1.54,3.106-6.142,8.872-7.567,11.405
		c-1.399,2.488-7.854,8.257-9.884,10.251c-2.984,2.933-10.414,5.048-14.107,6.989c-3.733,1.962-15.89,5.61-15.89,5.61l-13.782,3.156
		c0,0,22.849-4.809,28.551-3.523c3.169,0.715,6.247,1.672,8.684,3.609c1.774,1.411,10.113,7.018,10.113,7.018
		s-11.777,10.09-16.398,11.161c-6.987,1.619-40.328,2.022-40.328,2.022"/>
</g>
<g id="Capa_8">
	<ellipse fill="#FFFFFF" cx="525.835" cy="158.509" rx="4.323" ry="4.304"/>
	<ellipse fill="#FFFFFF" cx="589.166" cy="169.592" rx="4.323" ry="4.304"/>
	<g>
		<polygon points="697.685,622.638 971.018,623.956 697.695,626.638 		"/>
	</g>
	<g>
		<polygon points="332.186,629.357 66.018,623.956 332.241,624.357 		"/>
	</g>
</g>
</svg>
