<?xml version="1.0" encoding="utf-8"?>
<!-- Generator: Adobe Illustrator 17.0.0, SVG Export Plug-In . SVG Version: 6.00 Build 0)  -->
<!DOCTYPE svg PUBLIC "-//W3C//DTD SVG 1.1//EN" "http://www.w3.org/Graphics/SVG/1.1/DTD/svg11.dtd">
<svg version="1.1" xmlns="http://www.w3.org/2000/svg" xmlns:xlink="http://www.w3.org/1999/xlink" x="0px" y="0px" width="1024px"
	 height="768px" viewBox="0 0 1024 768" enable-background="new 0 0 1024 768" xml:space="preserve">
<g id="Capa_2">
	<path fill="none" stroke="#000000" stroke-width="4" stroke-miterlimit="10" d="M108.2,512.875
		c10.351,3.583,22.936,6.422,33.405,8.43c11.932,2.288,21.117,3.497,21.117,3.497s55.369,9.342,74.115,11.075
		c16.784,1.552,52.179,6.648,69.004,7.667c14.03,0.85,38.771,2.877,52.818,3.408c15.146,0.572,42.785,3.185,57.929,2.556
		c13.857-0.576,42.175,0.475,55.168-4.377c9.66-3.608,27.799-15.009,34.149-23.133c5.419-6.933,9.579-24.622,12.117-33.048
		c3.43-11.385,6.553-35.246,11.016-46.267c3.847-9.5,12.69-29.156,20.93-35.251c18.945-14.011,39.107-8.102,43.776-7.702
		c6.782,0.581,18.571,7.291,23.421,13.21c6.459,7.881,11.311,28.546,13.219,38.556c2.22,11.645,3.223,35.557,2.203,47.368
		c-0.873,10.119-8.813,39.657-8.813,39.657l53.978-2.203c0,0,38.065-1.821,50.673-3.305c11.376-1.338,34.813-2.807,45.165-7.711
		c7.586-3.594,19.913-15.625,25.337-22.032c6.469-7.643,15.921-25.479,20.93-34.149c7.212-12.485,18.155-39.727,27.54-50.673
		c4.733-5.52,16.245-15.3,23.133-17.625c6.784-2.29,21.631-1.458,28.641,0c6.762,1.406,20.324,6.264,25.337,11.016
		c4.916,4.66,9.7,17.907,12.117,24.235c2.241,5.866,4.215,24.01,4.215,24.01l0.258,17.281c0,0,26.021-31.918,28.575-43.495
		c2.326-10.543-1.516-32.559-4.406-42.962c-1.385-4.985-6.89-13.923-8.813-18.727c-0.647-1.617-1.533-5.002-2.203-6.61
		c-15.219-36.522-55.036-108.906-87.026-132.191c-17.443-12.697-62.458-17.274-83.721-20.93
		c-19.904-3.423-60.289-6.038-80.416-7.711c-19.534-1.624-58.635-4.531-78.213-5.508c-18.712-0.934-56.178-1.754-74.908-2.203
		c-14.87-0.356-44.62-1.609-59.486-1.102c-12.709,0.434-50.673,4.406-50.673,4.406l-33.048,15.422l-49.571,30.844l-33.048,22.032
		L295.5,288.46c0,0-32.117,13.483-42.962,17.625c-13.101,5.004-39.82,13.608-52.876,18.727
		c-16.193,6.349-48.638,19.183-63.892,27.54c-9.044,4.954-26.313,16.43-34.149,23.133c-4.294,3.673-14.699,12.779-18.125,17.273
		c-2.548,3.343-12.991,7.549-15.334,11.927c-1.819,3.399-3.608,16.622-3.745,20.475c-0.138,3.863-0.161,9.127,1.19,12.749
		c1.089,2.919,7.836,4.104,9.371,6.815c1.678,2.964-0.727,14.695,0.455,17.89c0.855,2.31,3.305,6.61,4.406,8.813
		c1.652,3.305,3.395,13.91,3.657,17.596c0.247,3.475-5.429,13.261-5.111,15.334C78.768,506.866,105.801,512.045,108.2,512.875z"/>
</g>
<g id="Capa_3">
	<path fill="none" stroke="#000000" stroke-width="4" stroke-miterlimit="10" d="M444.214,551.74c0,0,4.992,11.297,7.711,14.321
		c4.239,4.715,15.037,11.984,20.93,14.321c8.292,3.288,26.371,4.664,35.251,5.508c7.955,0.756,23.958,1.31,31.946,1.102
		c6.356-0.166,25.337-2.203,25.337-2.203s16.759-0.518,22.032-2.203c4.23-1.352,12.032-5.945,15.422-8.813
		c2.988-2.528,7.716-8.879,9.914-12.117c1.593-2.346,4.272-7.362,5.508-9.914c1.56-3.222,5.508-13.219,5.508-13.219"/>
	<path fill="none" stroke="#000000" stroke-width="4" stroke-miterlimit="10" d="M581.147,583.624c0,0-11.343-2.757-14.656-4.345
		c-4.394-2.105-11.633-9.155-14.321-13.219c-4.516-6.83-9.243-22.851-11.016-30.844c-1.917-8.641-3.58-26.404-3.305-35.251
		c0.349-11.229,5.241-33.413,8.813-44.064c2.82-8.408,10.754-24.406,15.422-31.946c2.77-4.473,9.826-12.687,14.321-15.422
		c4.395-2.675,13.698-5.004,18.5-5.315c2.615-0.17,10.464,0.581,10.464,0.581"/>
	<g>
		<path d="M590.528,443.451c-0.115,0.007-0.299,0.019-0.558,0.035c-0.115,0.005-0.242,0.023-0.384,0.037
			c-0.105,0.024-0.22,0.05-0.344,0.078c-0.25,0.063-0.517,0.1-0.916,0.239c-1.533,0.471-3.828,1.344-6.12,3.203
			c-0.284,0.251-0.576,0.509-0.875,0.774l-0.226,0.2l-0.028,0.025c0.01-0.012-0.064,0.062,0.016-0.02l-0.058,0.06l-0.116,0.12
			c-0.155,0.161-0.312,0.324-0.471,0.489c-0.681,0.669-1.191,1.329-1.785,2.022c-1.162,1.49-2.31,3.215-3.416,5.161
			c-0.557,0.97-1.096,2.001-1.64,3.073c-0.251,0.521-0.576,1.129-0.778,1.601c-0.255,0.577-0.514,1.161-0.776,1.753
			c-0.504,1.183-1.106,2.4-1.566,3.641c-0.451,1.24-0.912,2.508-1.383,3.804c-0.492,1.286-0.819,2.69-1.25,4.071
			c-0.203,0.697-0.409,1.4-0.616,2.11c-0.164,0.721-0.33,1.449-0.497,2.183c-0.168,0.734-0.337,1.474-0.508,2.22
			c-0.077,0.348-0.193,0.803-0.239,1.068l-0.186,1.167c-0.239,1.559-0.525,3.153-0.735,4.749c-0.715,6.244-0.677,13.103,0.114,20.06
			c0.152,1.748,0.426,3.501,0.696,5.267c0.135,0.883,0.27,1.769,0.406,2.659c0.165,0.886,0.331,1.775,0.497,2.667
			c0.166,0.892,0.333,1.786,0.5,2.683c0.191,0.894,0.382,1.791,0.574,2.69c0.386,1.799,0.741,3.627,1.286,5.318
			c1.051,3.396,2.637,6.745,4.858,9.476c2.233,2.703,5.261,4.655,8.577,4.747c0.408,0.051,0.828-0.033,1.24-0.038l0.31-0.019
			l0.155-0.01l0.077-0.005c0.122-0.017-0.081,0.02-0.027,0.008l0.695-0.148c0.224-0.052,0.479-0.102,0.675-0.166l0.503-0.213
			c0.322-0.119,0.678-0.319,1.027-0.534c1.386-0.848,2.533-2.11,3.503-3.51c0.983-1.397,1.77-2.96,2.573-4.519
			c0.777-1.579,1.565-3.169,2.336-4.813l0.576-1.245l0.289-0.63l0.036-0.079c0.022-0.045-0.063,0.115-0.011,0.009l0.068-0.161
			l0.137-0.321c0.348-0.845,0.761-1.736,1.071-2.528c0.291-0.781,0.581-1.561,0.87-2.338c0.267-0.823,0.531-1.641,0.821-2.447
			c1.037-3.28,1.891-6.61,2.602-9.958c0.189-0.831,0.349-1.674,0.512-2.512l0.245-1.253l0.169-1.167
			c0.255-1.726,0.508-3.435,0.757-5.126c0.253-1.691,0.502-3.363,0.749-5.015l0.188-1.235l0.047-0.307l0.023-0.154l0.012-0.077
			c-0.07,0.516-0.015,0.099-0.029,0.194l0.06-0.617c0.08-0.821,0.16-1.636,0.24-2.446c0.209-1.679,0.181-3.061,0.255-4.525
			c0.111-1.423,0.036-2.916,0.029-4.352c0.019-1.446-0.086-2.854-0.188-4.238c-0.046-0.693-0.092-1.379-0.138-2.058
			c-0.086-0.671-0.171-1.336-0.255-1.994c-0.181-1.313-0.286-2.621-0.586-3.841c-0.261-1.23-0.445-2.462-0.745-3.616
			c-0.327-1.142-0.659-2.252-0.949-3.346c-0.295-1.091-0.765-2.057-1.094-3.063c-0.174-0.499-0.345-0.99-0.513-1.473
			c-0.211-0.487-0.419-0.966-0.623-1.437c-0.21-0.487-0.417-1.015-0.618-1.442c-0.199-0.423-0.395-0.838-0.586-1.245
			c-0.192-0.408-0.358-0.825-0.562-1.208c-0.209-0.382-0.413-0.756-0.612-1.122c-0.198-0.371-0.391-0.734-0.579-1.087
			c-0.214-0.325-0.423-0.643-0.627-0.952c-0.418-0.596-0.787-1.263-1.187-1.729c-0.222-0.266-0.488-0.618-0.652-0.786
			c-0.181-0.203-0.356-0.4-0.524-0.589c-0.742-0.75-1.387-1.201-1.933-1.478c-0.546-0.248-1.001-0.366-1.334-0.405
			c-0.336-0.041-0.51-0.062-0.51-0.062L590.528,443.451z M590.186,439.47l0.098-0.008c0,0,0.3-0.023,0.881-0.068
			c0.58-0.034,1.495-0.008,2.645,0.275c1.128,0.309,2.443,0.89,3.718,1.747c0.317,0.234,0.645,0.476,0.985,0.727
			c0.37,0.272,0.578,0.459,0.889,0.703c0.689,0.535,1.237,1.155,1.921,1.795c0.328,0.324,0.677,0.653,1.012,1.003
			c0.309,0.363,0.626,0.735,0.951,1.116c0.656,0.762,1.326,1.579,1.945,2.49c0.316,0.453,0.639,0.916,0.968,1.388
			c0.321,0.471,0.573,0.899,0.871,1.363c0.142,0.23,0.286,0.462,0.43,0.696c0.155,0.26,0.311,0.523,0.468,0.788
			c0.274,0.543,0.552,1.095,0.835,1.655c2.357,4.487,3.962,9.931,4.931,15.898c0.124,0.747,0.249,1.503,0.375,2.265
			c0.07,0.766,0.14,1.539,0.211,2.32c0.143,1.562,0.31,3.154,0.3,4.775c0.018,1.626,0.103,3.249-0.012,4.985
			c-0.097,1.694-0.142,3.53-0.36,5.082c-0.09,0.809-0.182,1.623-0.273,2.443l-0.069,0.616l-0.059,0.425l-0.025,0.153l-0.051,0.307
			l-0.205,1.232c-0.278,1.647-0.559,3.314-0.843,4.999c-0.287,1.685-0.577,3.388-0.87,5.107l-0.245,1.423l-0.289,1.327
			c-0.193,0.886-0.381,1.777-0.608,2.673c-0.859,3.578-1.901,7.228-3.324,10.835c-0.365,0.901-0.758,1.793-1.149,2.687
			c-0.423,0.906-0.887,1.824-1.333,2.733c-0.447,0.894-0.913,1.635-1.381,2.458l-0.399,0.691l-0.37,0.6l-0.754,1.212
			c-1.989,3.276-4.48,6.556-7.762,9.207c-1.632,1.321-3.45,2.5-5.471,3.313c-0.502,0.201-0.999,0.41-1.593,0.546l-0.846,0.232
			c-0.26,0.057-0.477,0.07-0.716,0.112l-0.701,0.113c0,0-0.267,0.035-0.204,0.022l-0.1,0.003l-0.2,0.006l-0.399,0.012
			c-0.533,0.001-1.063,0.075-1.596,0.007c-2.149-0.091-4.246-0.851-6.038-1.934c-1.796-1.099-3.321-2.532-4.567-4.114
			c-2.479-3.189-4.135-6.772-5.244-10.5c-0.569-1.871-0.903-3.701-1.314-5.509c-0.199-0.907-0.397-1.812-0.595-2.715
			c-0.175-0.909-0.349-1.816-0.523-2.719c-0.174-0.904-0.347-1.805-0.52-2.703c-0.144-0.905-0.287-1.807-0.43-2.706
			c-0.286-1.798-0.574-3.582-0.741-5.373c-0.818-7.148-1.079-14.097-0.395-20.81c0.188-1.634,0.443-3.207,0.657-4.778l0.166-1.17
			c0.081-0.509,0.165-0.812,0.247-1.225c0.166-0.774,0.331-1.542,0.494-2.303c0.164-0.761,0.327-1.516,0.488-2.264
			c0.205-0.738,0.409-1.469,0.61-2.194c0.431-1.445,0.748-2.879,1.252-4.256c0.485-1.38,0.959-2.732,1.423-4.053
			c0.473-1.314,1.04-2.489,1.536-3.693c0.255-0.595,0.506-1.183,0.754-1.762c0.292-0.688,0.556-1.179,0.83-1.765
			c0.552-1.122,1.104-2.209,1.684-3.249c1.15-2.082,2.373-3.98,3.649-5.657c0.688-0.838,1.364-1.687,1.985-2.309
			c0.157-0.167,0.311-0.332,0.464-0.495l0.114-0.122l0.057-0.061l0.111-0.106l0.263-0.241c0.349-0.32,0.688-0.632,1.019-0.936
			c0.345-0.29,0.702-0.552,1.039-0.816c0.334-0.264,0.666-0.517,1.042-0.74c0.362-0.226,0.714-0.446,1.053-0.658
			c0.351-0.226,0.619-0.324,0.917-0.483c0.288-0.144,0.565-0.282,0.831-0.415l0.193-0.089l0.109-0.044l0.214-0.087
			c0.141-0.057,0.279-0.114,0.414-0.169c0.53-0.229,1.052-0.402,1.519-0.556c0.438-0.163,0.943-0.276,1.35-0.374
			c0.205-0.049,0.393-0.094,0.565-0.135c0.14-0.023,0.268-0.037,0.381-0.061c0.451-0.088,0.684-0.134,0.684-0.134L590.186,439.47z"
			/>
	</g>
</g>
<g id="Capa_4">
	<path fill="none" stroke="#000000" stroke-width="4" stroke-miterlimit="10" d="M144.832,522.246l3.408,11.075
		c0,0,7.949,16.838,12.778,20.445c4.781,3.572,17.231,7.422,23.001,8.945c7.642,2.016,22.882,3.756,30.668,5.111
		c6.326,1.101,19.159,3.105,25.557,2.556c5.946-0.51,17.903-3.287,23.001-6.389c5.214-3.173,16.612-17.89,16.612-17.89l2.982-5.111"
		/>
</g>
<g id="Capa_5">
	<path fill="none" stroke="#000000" stroke-width="4" stroke-miterlimit="10" d="M752.659,532.043c0,0,3.16,9.944,5.111,12.778
		c3.205,4.655,11.516,12.89,16.612,15.334c5.825,2.794,19.2,4.759,25.626,5.421c8.359,0.861,33.154,3.524,33.154,3.524l26.835,3.834
		c0,0,20.59,0.109,26.835-1.278c5.999-1.332,15.748-4.984,20.445-8.945c6.503-5.483,15.686-20.351,19.168-28.112
		c2.696-6.009,6.593-19.123,8.203-25.509c1.44-5.712,5.958-25.299,6.705-31.142"/>
	<g>
		<path d="M898.373,442.568c0,0-0.232,0.009-0.682,0.026c-0.225,0.009-0.504,0.02-0.837,0.032c-0.31,0.042-0.669,0.09-1.075,0.145
			c-1.624,0.263-4.088,0.878-6.725,2.613c-0.665,0.393-1.343,0.953-1.973,1.454c-0.656,0.614-1.343,1.256-2.059,1.926
			c-0.611,0.723-1.266,1.455-1.916,2.247c-0.582,0.858-1.251,1.703-1.825,2.655c-2.334,3.787-4.267,8.514-5.723,13.844
			c-1.531,5.385-2.777,11.23-3.69,17.533c-0.881,6.294-1.297,12.994-1.221,19.921c0.232,6.904,0.174,14.203,1.783,21.155
			c0.824,3.433,2.192,6.88,4.729,9.15c0.633,0.554,1.323,1.051,2.093,1.416c0.355,0.171,0.836,0.357,1.249,0.535
			c0.434,0.193,0.843,0.292,1.268,0.444c1.706,0.532,3.536,0.755,5.311,0.603c1.779-0.143,3.499-0.699,5.011-1.546
			c1.52-0.844,2.829-1.959,4.002-3.156l0.859-0.917l0.408-0.477l0.203-0.237l0.102-0.118c-0.098,0.101,0.004-0.011-0.004-0.006
			l0.054-0.068l1.721-2.178c0.507-0.716,0.948-1.414,1.423-2.109c0.465-0.691,0.891-1.481,1.34-2.206
			c1.713-3.003,3.14-6.138,4.321-9.338c0.281-0.808,0.587-1.599,0.845-2.409c0.252-0.813,0.503-1.622,0.753-2.429
			c0.465-1.684,0.926-3.355,1.383-5.013c0.402-1.625,0.77-3.231,1.192-4.812c0.354-1.618,0.705-3.221,1.052-4.806
			c0.287-1.595,0.57-3.173,0.85-4.732c0.26-1.561,0.415-3.115,0.625-4.642c0.638-6.143,0.856-11.892,0.76-17.349
			c-0.052-2.755-0.108-5.333-0.271-7.75c-0.179-2.412-0.517-4.648-1.054-6.681c-0.529-2.036-1.331-3.83-2.279-5.366
			c-0.223-0.397-0.483-0.753-0.743-1.102c-0.128-0.177-0.255-0.351-0.38-0.524l-0.023-0.033c0.089,0.087,0.008,0.006,0.02,0.017
			l-0.058-0.063l-0.116-0.126l-0.23-0.25c-0.304-0.324-0.604-0.674-0.891-0.954c-0.285-0.256-0.562-0.506-0.833-0.75
			c-2.285-1.987-4.668-2.8-6.257-3.187c-0.405-0.084-0.763-0.175-1.076-0.227c-0.316-0.036-0.582-0.066-0.796-0.09
			c-0.429-0.054-0.652-0.065-0.652-0.065L898.373,442.568z M898.346,441.258l0.007,0c0,0,0.241,0.015,0.711,0.014
			c0.236,0.002,0.528,0.004,0.876,0.007c0.347,0.021,0.746,0.075,1.203,0.121c1.798,0.244,4.513,0.849,7.458,2.797
			c0.368,0.261,0.747,0.528,1.135,0.802c0.362,0.278,0.672,0.563,1.023,0.854l0.259,0.22l0.131,0.111l0.066,0.056l0.114,0.11
			c0.176,0.174,0.354,0.351,0.535,0.529c0.365,0.355,0.734,0.724,1.067,1.137c1.406,1.6,2.641,3.574,3.697,5.783
			c2.127,4.435,3.268,9.839,3.947,15.45c0.205,1.357,0.268,2.894,0.403,4.377c0.059,0.752,0.118,1.512,0.177,2.278
			c0.02,0.766,0.037,1.54,0.035,2.321c0.08,3.126-0.116,6.352-0.44,9.648c-0.205,1.642-0.357,3.317-0.616,4.993
			c-0.283,1.671-0.544,3.37-0.868,5.074c-0.365,1.694-0.733,3.404-1.144,5.127c-0.459,1.729-0.972,3.466-1.475,5.208
			c-0.577,1.672-1.159,3.358-1.746,5.056c-0.342,0.862-0.684,1.727-1.028,2.595c-0.351,0.865-0.756,1.717-1.133,2.578
			c-1.592,3.417-3.493,6.772-5.818,9.878c-0.608,0.768-1.141,1.548-1.821,2.295c-0.67,0.742-1.341,1.513-2.01,2.214l-2.006,1.918
			l-0.184,0.181l-0.149,0.122l-0.297,0.243l-0.593,0.483c-0.404,0.313-0.83,0.603-1.253,0.887
			c-3.476,2.243-7.644,3.079-11.485,2.977c-1.943-0.045-3.836-0.335-5.71-0.785c-0.979-0.228-1.809-0.493-2.753-0.811
			c-0.95-0.342-1.835-0.859-2.632-1.476c-1.595-1.254-2.734-2.94-3.585-4.667c-0.864-1.736-1.45-3.555-1.916-5.376
			c-0.917-3.651-1.268-7.337-1.479-10.947c-0.104-1.806-0.159-3.601-0.219-5.365c-0.023-1.781-0.045-3.549-0.067-5.302
			c0.011-7.021,0.604-13.802,1.606-20.152c0.985-6.338,2.362-12.318,3.92-17.655c1.484-5.426,3.454-10.262,5.879-14.196
			c0.596-0.987,1.292-1.871,1.9-2.763c0.691-0.844,1.399-1.635,2.06-2.404c0.716-0.67,1.404-1.313,2.06-1.927
			c0.769-0.622,1.423-1.154,2.156-1.596c2.828-1.856,5.463-2.521,7.251-2.809c0.458-0.059,0.862-0.112,1.211-0.157
			c0.332-0.013,0.612-0.024,0.837-0.032c0.45-0.017,0.682-0.026,0.682-0.026L898.346,441.258z"/>
	</g>
	<path fill="none" stroke="#000000" stroke-width="4" stroke-miterlimit="10" d="M879.591,572.508
		c-2.556,0-11.217-0.656-15.76-3.408c-5.818-3.524-9.259-12.889-11.734-17.584c-4.779-9.066-6.162-18.601-7.739-28.601
		c-1.597-10.122-0.988-20.288,0.067-30.442c1.785-17.174,4.595-36.773,14.124-51.562c7.665-11.897,18.269-27.998,32.206-33.124
		c9.076-3.338,20.445-1.612,29.449,1.225"/>
</g>
<g id="Capa_9">
	
		<line fill="none" stroke="#000000" stroke-width="4" stroke-miterlimit="10" x1="547.778" y1="195.821" x2="600.657" y2="138.356"/>
	<line fill="none" stroke="#000000" stroke-width="4" stroke-miterlimit="10" x1="555.59" y1="197.674" x2="604.863" y2="142.681"/>
	<ellipse fill="none" stroke="#000000" stroke-width="4" stroke-miterlimit="10" cx="606.665" cy="134.649" rx="8.412" ry="8.96"/>
	<path fill="none" stroke="#000000" stroke-width="4" stroke-miterlimit="10" d="M83.495,489.022l65.596,13.63l47.706,7.667
		l74.967,9.371l83.486,5.111c0,0,39.064,0.123,51.966,1.704c9.08,1.113,27.147,4.639,35.78,7.667
		c5.393,1.892,23.001,12.778,23.001,12.778"/>
</g>
<g id="Capa_6">
	<path fill="none" stroke="#000000" stroke-width="4" stroke-miterlimit="10" d="M296.327,288.355l41.968,8.036l37.057,5.358
		l40.629,4.018c0,0,31.129,2.836,41.522,3.572c14.05,0.994,42.177,2.667,56.255,3.125c11.603,0.378,34.827,0.702,46.433,0.446
		c10.393-0.229,31.183-1.146,41.522-2.232c11.461-1.204,35.351-1.759,45.54-7.144c8.937-4.722,21.378-21.566,27.681-29.467
		c4.112-5.154,11.248-16.28,14.734-21.877c3.674-5.9,11.118-17.715,13.841-24.109c1.093-2.567,3.125-10.715,3.125-10.715
		l-37.95-3.572l-37.057-3.572l-38.396-1.786l-44.201-1.339l-49.558-0.893l-50.898,0.893l-25.449,0.893"/>
	<path fill="none" stroke="#000000" stroke-width="4" stroke-miterlimit="10" d="M74.124,443.02l18.595,7.386l18.888,3.689
		c0,0,12.734,2.378,17.038,2.556c3.199,0.132,9.736,0.144,12.778-0.852c2.382-0.779,7.121-3.257,8.461-5.375
		c2.834-4.478,3.273-15.776,2.614-21.034c-0.654-5.219-7.667-19.594-7.667-19.594"/>
	<path fill="none" stroke="#000000" stroke-width="4" stroke-miterlimit="10" d="M447.681,430.779c0,0,9.218,2.477,11.608,4.465
		c2.994,2.49,6.18,10.068,7.144,13.841c1.161,4.543,2.068,14.352,0.446,18.752c-0.984,2.67-5.27,6.834-7.59,8.483
		c-1.236,0.879-3.34,1.862-5.468,2.703c-1.943,0.768-17.621,3.286-21.767,3.548c-6.016,0.38-18.081,0.391-24.109,0.446
		c-6.585,0.061-19.79,0.665-26.342,0c-4.421-0.449-13.257-1.997-17.412-3.572c-3.974-1.507-11.585-5.628-14.734-8.483
		c-2.134-1.935-5.869-6.617-6.697-9.376c-0.867-2.888-0.353-9.147,0.446-12.055c0.741-2.697,5.358-9.822,5.358-9.822"/>
	<polyline fill="none" stroke="#000000" stroke-width="4" stroke-miterlimit="10" points="517.11,482.207 504.332,481.355 
		483.886,483.059 469.404,482.207 441.425,481.355 	"/>
	<polyline fill="none" stroke="#000000" stroke-width="4" stroke-miterlimit="10" points="634.672,482.207 669.599,481.355 
		715.602,480.503 751.381,479.652 793.124,477.096 813.57,476.244 	"/>
	<path fill="none" stroke="#000000" stroke-width="4" stroke-miterlimit="10" d="M726.676,218.972c0,0-14.744,33.516-20.445,44.299
		c-4.064,7.685-13.774,22.16-17.89,29.816c-2.571,4.783-9.371,19.594-9.371,19.594l48.558,4.259l54.521,0.852h28.112l21.297,0.852
		l-6.815-86.041L726.676,218.972z"/>
	<path fill="none" stroke="#000000" stroke-width="4" stroke-miterlimit="10" d="M846.793,235.158l5.963,86.041l63.04,1.704
		l-26.409-43.447c0,0-10.652-16.755-14.482-22.149c-2.447-3.447-7.787-10.121-11.075-12.778
		C860.051,241.473,846.793,235.158,846.793,235.158z"/>
	<path fill="none" stroke="#000000" stroke-width="2" stroke-miterlimit="10" d="M834.015,221.527
		c2.727,42.967,4.952,85.984,8.686,128.88c1.135,13.046,3.698,26.26,3.544,39.379c-0.141,12.09-28.109,48.265-34.379,60.048
		c-6.406,12.038-15.481,24.889-22.249,36.74c-8.147,14.264-18.063,27.423-26.309,41.634"/>
	<path fill="none" stroke="#000000" stroke-width="2" stroke-miterlimit="10" d="M719.009,207.897l-14.482,37.483l-19.594,33.224
		c0,0-23.686,31.36-28.113,43.447c-3.297,9.001-5.111,34.928-5.111,34.928l-0.852,38.335l-1.704,26.409l0.852,34.076l-5.111,34.076
		l-9.371,47.706"/>
</g>
<g id="Capa_7">
	<path fill="none" stroke="#000000" stroke-width="4" stroke-miterlimit="10" d="M647.45,304.161l-47.076,23.483l-33.932,18.752
		l-25.895,16.519l-28.128,16.519l-26.342,17.412c0,0-19.024,12.31-24.556,17.412c-3.96,3.653-13.841,16.519-13.841,16.519
		l-29.467,0.893h-30.36c0,0-18.941-1.979-25.002-0.446c-3.3,0.834-11.861,6.683-11.861,6.683l-55.373-5.963l-47.706-5.111
		l-48.558-6.815l-51.114-5.963c0,0-4.755-5.53-6.815-6.815c-4.43-2.763-19.594-5.111-19.594-5.111l-17.038-4.259l-20.445-5.111"/>
	<polyline fill="none" stroke="#000000" stroke-width="4" stroke-miterlimit="10" points="139.72,457.502 195.094,465.169 
		240.244,471.133 291.358,476.244 330.545,480.503 371.436,482.207 	"/>
</g>
<g id="Capa_8">
	<path fill="none" stroke="#000000" stroke-width="4" stroke-miterlimit="10" d="M213.835,422.051c0,0,16.821-24.812,23.853-31.849
		c6.398-6.402,21.115-17.216,28.964-21.723c10.222-5.87,43.447-18.316,43.447-18.316s28.877-13.807,38.335-18.742
		c5.832-3.043,18.023-8.478,23.001-12.778c3.449-2.98,11.075-14.482,11.075-14.482"/>
	<path fill="none" stroke="#000000" stroke-width="4" stroke-miterlimit="10" d="M272.749,427.424c0,0,16.821-24.812,23.853-31.849
		c6.398-6.402,21.115-17.216,28.964-21.723c10.222-5.87,43.447-18.316,43.447-18.316s28.877-13.807,38.335-18.742
		c5.832-3.043,18.023-8.478,23.001-12.778c3.449-2.98,11.075-14.482,11.075-14.482"/>
	<line fill="none" stroke="#000000" stroke-width="4" stroke-miterlimit="10" x1="152.499" y1="429.39" x2="343.323" y2="450.687"/>
	
		<line fill="none" stroke="#000000" stroke-width="4" stroke-miterlimit="10" x1="150.795" y1="445.576" x2="345.027" y2="466.873"/>
	<path fill="none" stroke="#000000" stroke-width="4" stroke-miterlimit="10" d="M431.92,431.945c0,0,1.597,17.247,1.704,22.149
		c0.069,3.194,0,9.584,0,12.778c0,3.195-0.852,17.038-0.852,17.038"/>
	<path fill="none" stroke="#000000" stroke-width="4" stroke-miterlimit="10" d="M100.533,398.721c0,0-10.742,9.427-12.778,13.63
		c-1.877,3.876-2.706,12.733-2.556,17.038c0.137,3.925,5.111,18.742,5.111,18.742"/>
</g>
</svg>
