<?xml version="1.0" encoding="utf-8"?>
<!-- Generator: Adobe Illustrator 17.0.0, SVG Export Plug-In . SVG Version: 6.00 Build 0)  -->
<!DOCTYPE svg PUBLIC "-//W3C//DTD SVG 1.1//EN" "http://www.w3.org/Graphics/SVG/1.1/DTD/svg11.dtd">
<svg version="1.1" xmlns="http://www.w3.org/2000/svg" xmlns:xlink="http://www.w3.org/1999/xlink" x="0px" y="0px" width="1024px"
	 height="768px" viewBox="0 0 1024 768" enable-background="new 0 0 1024 768" xml:space="preserve">
<g id="Capa_5">
	<path fill="#FFFFFF" stroke="#000000" stroke-width="4" stroke-miterlimit="10" d="M478.5,348l-13.172,19.224L460,375l-10,16.5
		l-5.5,10c0,0-7.018-5.492-10.5-6.5c-1.837-0.532-6.575-3.674-7.5-2c-1.358,2.459,5.973,8.142,7.5,10.5c1.057,1.632,7,4,7,4
		s-16.256,1.537-17.5,4.5c-0.564,1.344,1.5,5,9.5,5s6-0.5,6-0.5s-2.588,2.028-2.5,3s2.183,1.966,3,2.5
		c0.702,0.459,2.176,1.345,3,1.5c1.357,0.256,4.286,0.159,5.5-0.5c11.187-6.071,31.5-40,31.5-40l6-15l2-9l2-0.5l-7-7.5L478.5,348z"
		/>
	<g>
		<line fill="#FFFFFF" x1="439" y1="416.5" x2="444.5" y2="413"/>
		<polygon points="438.463,415.656 444.5,413 439.537,417.344 		"/>
	</g>
	<path fill="#FFFFFF" stroke="#000000" stroke-width="2" stroke-miterlimit="10" d="M465.328,367.224c0,0,8.635,0.76,10.672,1.776
		c2.328,1.16,6.5,7,6.5,7"/>
	<path fill="#FFFFFF" stroke="#000000" stroke-width="4" stroke-miterlimit="10" d="M581,325l8.785,17.906l5.034,7.969l9.377,16.862
		l5.123,10.198c0,0,7.218-5.226,10.735-6.104c1.855-0.463,6.708-3.426,7.569-1.719c1.266,2.508-6.273,7.914-7.887,10.213
		c-1.117,1.592-7.144,3.736-7.144,3.736s16.188,2.142,17.32,5.15c0.514,1.364-1.686,4.941-9.68,4.642
		c-7.994-0.299-5.977-0.724-5.977-0.724s2.511,2.123,2.386,3.091s-2.255,1.883-3.091,2.386c-0.718,0.432-2.225,1.262-3.054,1.387
		c-1.365,0.205-4.289-0.002-5.478-0.705c-10.953-6.484-32.519-43.79-32.519-43.79l7-15.5L581,325z"/>
	<path fill="#FFFFFF" stroke="#000000" stroke-width="2" stroke-miterlimit="10" d="M588.5,341.5c-1.069,0.484-5.856,1.854-9,5
		c-3.825,3.827-6,9.5-6,9.5"/>
</g>
<g id="Capa_2">
	<path fill="none" stroke="#000000" stroke-width="4" stroke-miterlimit="10" d="M476.448,389.345c0,0-20.361,26.277-26.724,35.345
		c-5.906,8.416-17.212,25.614-22.414,34.483c-4.682,7.983-17.241,32.759-17.241,32.759s6.89,11.216,10.345,13.793
		c4.974,3.711,17.186,7.431,23.276,8.621c6.772,1.323,21.001-1.198,27.586,0.862c3.423,1.071,8.762,6.37,12.069,7.759
		c4.483,1.882,14.171,3.502,18.966,4.31c3.849,0.649,11.618,1.893,15.517,1.724c3.294-0.143,9.832-1.461,12.931-2.586
		c2.538-0.922,9.483-5.172,9.483-5.172s12.832,3.767,17.241,4.31c5.134,0.632,15.541,0.494,20.69,0
		c6.774-0.649,20.448-2.543,26.724-5.172c3.175-1.33,9.92-3.922,13.449-6.495c0.779-0.568,12.413-11.609,12.413-11.609
		s8.449,1.402,11.207,0.862c3.31-0.648,9.332-4.062,12.069-6.034c2.225-1.604,7.759-7.759,7.759-7.759S645.824,461.479,640,452.5
		c-6.587-10.155-20.588-29.93-28-39.5c-5.776-7.458-15.829-26.107-25-28.5c-13.673-3.569-53.655,17.776-53.655,17.776l-32.644-7.419
		L476.448,389.345z"/>
	<path fill="none" stroke="#000000" stroke-width="4" stroke-miterlimit="10" d="M429,508.5c0,0,11.866-31.269,16.5-41
		c5.53-11.614,12.5-26,18-36.5c4.701-8.975,22-39.5,22-39.5"/>
	<line fill="none" stroke="#000000" stroke-width="4" stroke-miterlimit="10" x1="540.241" y1="520.379" x2="533" y2="402"/>
	<path fill="none" stroke="#000000" stroke-width="4" stroke-miterlimit="10" d="M630.759,504.862c0,0-9.444-34.605-13.793-44.828
		c-4.491-10.557-15.638-30.686-21.552-40.517c-4.961-8.247-21.552-31.897-21.552-31.897"/>
</g>
<g id="Capa_3">
	<path fill="none" stroke="#000000" stroke-width="4" stroke-miterlimit="10" d="M498.862,527.276l1.248,79.489
		c0,0,2.363,4.361,3.806,4.964c1.957,0.817,6.526-0.103,8.418-1.062c1.782-0.904,5.494-5.805,5.494-5.805L533,525"/>
	<path fill="none" stroke="#000000" stroke-width="4" stroke-miterlimit="10" d="M554.897,526.414L572.5,601.5
		c0,0,3.594,3.82,5.167,4.5c1.537,0.665,5.008,0.901,6.667,0.667c0.889-0.126,2.776-0.63,3.333-1.333
		c0.886-1.118,0.769-4.219,0.851-5.644c1.063-18.515-2.586-74.138-2.586-74.138"/>
	<path fill="none" stroke="#000000" stroke-width="4" stroke-miterlimit="10" d="M476.448,389.345c0,0,16.181-16.263,16.052-23.345
		c-0.1-5.449-11.584-12.237-13-17.5c-1.438-5.345,3.369-16.533,2.5-22c-0.992-6.243-10.5-24.5-10.5-24.5s16.564,0.125,22,1
		c7.687,1.237,22.92,6.435,30.533,6.135c6.273-0.247,18.851-2.873,24.526-5.583c2.593-1.238,8.973-5.982,8.973-5.982
		s5.001,6.373,7.468,8.93c2.89,2.996,10.297,7.468,12.5,11c1.509,2.419,2.735,8.162,3,11c0.292,3.121,0.388,9.689-1,12.5
		c-1.339,2.713-6.555,6.625-7.5,9.5c-1.171,3.565-0.956,11.542,0.5,15c2.319,5.507,14.5,13.025,14.5,19"/>
	<path fill="none" stroke="#000000" stroke-width="4" stroke-miterlimit="10" d="M550.154,302.755c0,0,0.914,3.634,0.346,6.245
		c-1.467,6.736-12.77,18.003-19.5,19.5c-8.955,1.992-27.862-6.168-34.5-12.5c-2.352-2.243-5-12-5-12"/>
	<path fill="none" stroke="#000000" stroke-width="4" stroke-miterlimit="10" d="M558,297c0,0,11.661-4.411,15.5-6
		c4.292-1.776,12.827-5.46,17-7.5c4.974-2.432,15.031-8.347,19.473-11.652c3.546-2.638,9.712-7.941,12.527-11.348
		c2.981-3.609,7.553-10.794,9.208-15.172c1.738-4.597,3.561-14.919,3.792-19.828c0.177-3.748,0.947-11.538-0.5-15
		c-2.523-6.037-14.076-13.764-18-19c-4.166-5.558-8.41-19.876-14-24c-8.881-6.552-32.712-6.004-43-10
		c-6.417-2.492-18.123-9.915-24-13.5c-6.008-3.665-23.5-15.5-23.5-15.5s-4.14,16.611-6,22c-1.682,4.872-5.348,14.581-8,19
		s-9.328,12.383-13,16c-3.741,3.685-12.146,10.064-16.5,13c-3.342,2.254-14,8-14,8l-17,5"/>
	<path fill="none" stroke="#000000" stroke-width="4" stroke-miterlimit="10" d="M452.5,208c0,0-5.987,10.882-8,14.5
		c-2.023,3.636-6.153,10.966-9,14c-2.019,2.151-6.943,5.529-9.5,7c-3.543,2.038-9.382,5.599-13,7.5
		c-2.088,1.097-7.866,2.995-10.003,4.002c-5.833,2.744-12.274,4.512-18.754,4.183c2.918,0.444,5.838,0.878,8.757,1.316
		c0,0,13.859,14.761,19.769,19.324c4.782,3.692,14.772,9.216,20.339,11.565c5.069,2.139,15.634,4.994,20.893,6.611
		c4.29,1.319,17.5,4,17.5,4"/>
	<path fill="none" stroke="#000000" stroke-width="4" stroke-miterlimit="10" d="M479,346c0,0-4.5,8-6,10s-8,4-11,4
		s-4.984,0.586-6.5,0c-3.466-1.34-8.118-7.654-11-10c-1.318-1.073-5.5-4-5.5-4s-14.104,4.806-19,5.5c-7.426,1.053-22.512,0.431-30,0
		c-3.266-0.188-13-1.5-13-1.5s-16.219,8.782-22.5,8c-7.643-0.951-20.825-6.528-21.5-7c-5-3.5-22-14.5-30.5-30
		c-4.328-7.893-9.436-22.009-9-31c0.658-13.554,8.051-37.658,15.5-49c2.361-3.595,12.55-10.432,16-13c4.344-3.233,20.5-7,20.5-7
		s7.706-7.294,9-10.5c2.391-5.922,0.695-19.165,1.5-25.5c0.899-7.077,0.987-22.475,5.5-28c4.112-5.034,17.278-14.118,23.5-16
		c4.998-1.512,16.171,1.987,21,0c5.835-2.401,21-12,21-12s0.458-10.818,2-14c3.084-6.366,13.774-16.348,19.5-20.5
		c7.061-5.12,22.778-15.048,31.5-15c6.82,0.038,24.5,12,24.5,12s16.098-12.294,22.5-14c6.768-1.804,21.158-0.502,28,1
		c6.236,1.369,21.5,9,23.5,10s18.178,14.1,23,20c2.482,3.038,8,13.5,8,13.5l32,5.5c0,0,16.196,1.851,21.5,3c4.175,0.905,13.5,4,16,6
		s7.278,6.981,9.5,9.5c2.615,2.964,7.5,9,9,13s4.651,16.837,6,22.5c0.977,4.102,3.5,15,3.5,16.5s-0.49,8.667,0,11.5
		c0.505,2.92,3.098,8.765,5.5,10.5c3.013,2.176,13,6,14,7.5s11.5,12,14.5,18.5s7.562,17.775,7,24c-0.343,3.792-3.973,10.776-6,14
		c-1.957,3.112-8.5,12-8.5,12l13.5,10.5l3.5,9.5c0,0,0.963,10.529,0.5,14c-0.502,3.762-2.785,11.114-4.5,14.5
		c-1.615,3.19-5.805,9.151-8.5,11.5c-2.362,2.058-8.101,4.812-11,6c-2.526,1.035-7.839,2.392-10.5,3
		c-3.586,0.819-10.825,2.339-14.5,2.5c-7.519,0.329-22.689-0.714-30-2.5c-7.239-1.769-20.912-8.018-27.5-11.5
		c-2.636-1.393-7.552-4.798-10-6.5c-3.962-2.754-11.23-9.253-15.5-11.5c-4.548-2.393-17.5-6-19.5-6.5s-14.209,0.527-16.5-1
		c-3.092-2.062-3.822-9.127-5.203-10.574c-2.239-2.345-10.394-7.463-12.367-10.714c-0.783-1.291-6.381-8.215-7.25-9.168"/>
	<g>
		<path d="M643.01,354.834c0,0-1.361-1.696-3.287-4.293c-0.965-1.3-2.074-2.83-3.214-4.511c-1.137-1.685-2.323-3.503-3.352-5.47
			c-0.242-0.513-0.502-0.994-0.705-1.547l-0.152-0.41l-0.075-0.204l-0.037-0.102c-0.045-0.143-0.014-0.047-0.025-0.082l-0.002-0.012
			l-0.005-0.024l-0.01-0.049l-0.153-0.777c-0.124-0.495-0.163-1.069-0.197-1.627c-0.047-0.558-0.076-1.098-0.046-1.605
			c0.017-0.513,0.015-1.018,0.049-1.507c0.047-0.488,0.093-0.965,0.138-1.43c0.081-0.927,0.272-1.791,0.387-2.589
			c0.188-0.79,0.339-1.515,0.517-2.146c0.207-0.626,0.375-1.171,0.534-1.612c0.399-0.85,0.627-1.335,0.627-1.335
			s-0.169,0.505-0.463,1.389c-0.093,0.455-0.207,1.006-0.337,1.64c-0.101,0.637-0.165,1.366-0.258,2.15
			c-0.02,0.795-0.107,1.649-0.08,2.555c0.009,0.452,0.019,0.915,0.029,1.389c0.023,0.472,0.082,0.951,0.123,1.437
			c0.028,0.496,0.113,0.966,0.206,1.428c0.081,0.465,0.151,0.928,0.344,1.44l0.242,0.753l0.298,0.585
			c0.212,0.425,0.514,0.857,0.778,1.282c1.159,1.698,2.509,3.323,3.797,4.817c1.293,1.494,2.547,2.857,3.635,4.012
			c2.179,2.315,3.677,3.788,3.677,3.788L643.01,354.834z"/>
	</g>
	<g>
		<path d="M376.182,348.175c0,0,2.258-0.864,5.606-2.316c1.669-0.728,3.608-1.601,5.618-2.625c0.997-0.518,2.036-1.057,3.008-1.67
			c0.488-0.3,0.974-0.623,1.394-0.957l0.314-0.253l0.079-0.063l0.02-0.016l0.01-0.008c-0.016,0.018,0.049-0.052-0.033,0.038
			l0.039-0.042l0.158-0.167c0.205-0.222,0.433-0.449,0.619-0.668c0.669-0.831,1.383-1.833,1.978-2.844
			c0.619-1.006,1.158-2.041,1.65-3.055c0.211-0.513,0.476-1.015,0.634-1.516c0.08-0.238,0.199-0.522,0.247-0.718
			c0.058-0.264,0.116-0.525,0.173-0.783c0.156-0.982,0.218-1.96,0.247-2.879c0.056-1.83,0.018-3.368,0.027-4.444
			c-0.003-1.076,0.03-1.69,0.03-1.69s0.03,0.614,0.141,1.681c0.1,1.069,0.294,2.59,0.426,4.44c0.064,0.919,0.109,1.939,0.041,3.053
			c-0.03,0.262-0.061,0.528-0.093,0.797c-0.05,0.336-0.13,0.567-0.196,0.861c-0.122,0.572-0.336,1.101-0.507,1.672
			c-0.403,1.105-0.852,2.234-1.39,3.348c-0.525,1.128-1.117,2.211-1.885,3.367c-0.186,0.268-0.373,0.494-0.559,0.743l-0.14,0.183
			l-0.035,0.046l-0.088,0.092l-0.091,0.091l-0.365,0.364c-0.49,0.479-0.987,0.882-1.49,1.269c-1,0.782-2.015,1.445-3,2.092
			c-1.975,1.274-3.857,2.363-5.48,3.278c-3.245,1.821-5.474,2.945-5.474,2.945L376.182,348.175z"/>
	</g>
	<g>
		<path d="M341.251,220.146c0,0,2.043-0.691,5.108-1.727c0.768-0.259,1.6-0.539,2.48-0.835c0.903-0.287,1.802-0.611,2.83-0.904
			c0.946-0.317,2.227-0.584,3.318-0.633c0.528-0.033,1.061-0.066,1.595-0.099c0.615-0.034,1.067-0.063,1.674-0.051
			c1.175,0,2.224,0.093,3.307,0.178c1.069,0.093,2.114,0.207,3.122,0.325c2.017,0.24,3.888,0.506,5.489,0.745
			c3.203,0.479,5.325,0.856,5.325,0.856s-2.153-0.128-5.382-0.232c-1.614-0.051-3.497-0.098-5.509-0.103
			c-1.006-0.001-2.044,0.008-3.093,0.038c-1.034,0.038-2.139,0.076-3.115,0.191c-0.469,0.038-1.087,0.147-1.537,0.226
			c-0.53,0.095-1.057,0.19-1.581,0.285c-1.016,0.179-1.77,0.434-2.703,0.856c-0.881,0.364-1.778,0.807-2.603,1.179
			c-0.836,0.394-1.627,0.767-2.356,1.111c-2.923,1.383-4.871,2.305-4.871,2.305L341.251,220.146z"/>
	</g>
	<path fill="none" stroke="#000000" stroke-width="2" stroke-miterlimit="10" d="M496.504,233.77
		c-9.769,13.578-25.538,19.092-35.222,12.316c-9.683-6.776-9.613-23.277,0.156-36.855c9.769-13.578,25.538-19.092,35.222-12.316
		C506.343,203.691,506.273,220.191,496.504,233.77z"/>
	<g>
		<path d="M732.485,297.724c0,0-0.377-0.255-1.037-0.701c-0.666-0.441-1.62-1.073-2.778-1.792c-0.579-0.363-1.208-0.746-1.876-1.127
			c-0.335-0.202-0.677-0.39-1.024-0.567c-0.346-0.179-0.718-0.393-1.04-0.515l-0.509-0.223l-0.032-0.014l-0.008-0.004
			c0.17,0.036,0.041,0.009,0.077,0.016l-0.02-0.005l-0.081-0.019l-0.162-0.038l-0.326-0.076c-0.435-0.102-0.876-0.205-1.32-0.309
			c-0.871-0.17-1.726-0.26-2.608-0.401c-0.887-0.12-1.819-0.19-2.715-0.287c-0.9-0.101-1.795-0.146-2.658-0.214
			c-1.727-0.138-3.347-0.203-4.735-0.28C706.856,291.041,705,291,705,291s1.843-0.209,4.619-0.458
			c1.389-0.111,3.009-0.265,4.753-0.361c0.872-0.049,1.772-0.125,2.693-0.146c0.925-0.025,1.845-0.082,2.806-0.082
			c0.961,0.019,1.961,0.004,2.896,0.061c0.455,0.044,0.906,0.087,1.352,0.129l0.333,0.032l0.166,0.016l0.083,0.008l0.021,0.002
			l0.109,0.023l0.046,0.012c0.246,0.066,0.491,0.132,0.733,0.198c0.511,0.126,0.907,0.292,1.328,0.441
			c0.422,0.149,0.823,0.303,1.196,0.464c0.766,0.309,1.472,0.619,2.118,0.911c1.296,0.58,2.354,1.092,3.098,1.451
			c0.741,0.367,1.164,0.576,1.164,0.576L732.485,297.724z"/>
	</g>
	
		<ellipse transform="matrix(0.7092 -0.705 0.705 0.7092 19.0277 461.1162)" fill="none" stroke="#000000" stroke-width="2" stroke-miterlimit="10" cx="568.5" cy="207.492" rx="21.76" ry="30.939"/>
	<g>
		<path d="M532.89,175.338c0,0,3.441-1.286,8.603-3.214c2.581-0.964,5.592-2.089,8.818-3.295c0.807-0.301,1.627-0.608,2.457-0.918
			c0.445-0.164,0.892-0.329,1.342-0.495c0.434-0.125,0.828-0.251,1.422-0.392c2.122-0.515,4.027-0.632,5.962-0.695
			c1.917-0.054,3.782,0,5.591,0.046c0.898,0.018,1.788,0.035,2.668,0.053c0.434-0.001,0.866-0.003,1.294-0.004
			c0.446-0.012,0.888-0.024,1.327-0.036c1.876-0.021,3.493,0.175,5.088,0.326c1.58,0.164,3.065,0.342,4.434,0.516
			C587.372,167.93,591,168.5,591,168.5s-3.674-0.147-9.175-0.209c-1.375-0.015-2.864-0.02-4.433,0
			c-1.551,0.029-3.263,0.04-4.82,0.242l-0.32,0.046c-0.033,0.006-0.153,0.02-0.114,0.018l-0.164,0.035l-0.659,0.142
			c-0.44,0.086-0.883,0.172-1.33,0.259c-0.884,0.151-1.78,0.305-2.682,0.459c-1.793,0.296-3.589,0.589-5.315,0.971
			c-1.702,0.373-3.435,0.86-4.747,1.475c-0.273,0.115-0.706,0.342-1.104,0.546l-0.075,0.038l-0.037,0.019
			c-0.025,0.011,0.15-0.062,0.067-0.027l-0.019,0.009l-0.149,0.076l-0.298,0.152l-0.594,0.302c-0.79,0.401-1.571,0.797-2.338,1.187
			c-3.071,1.559-5.937,3.014-8.393,4.262c-4.913,2.495-8.189,4.158-8.189,4.158L532.89,175.338z"/>
	</g>
	<path fill="none" stroke="#000000" stroke-width="2" stroke-miterlimit="10" d="M481,272.667c0,0,20.612,5.658,25.333,6.667
		c4.896,1.046,20.773,1.724,25.667,0.667c4.535-0.98,16.47-4.096,20.333-6.667c3.398-2.261,19.333-12.667,19.333-12.667"/>
	<ellipse stroke="#000000" stroke-width="2" stroke-miterlimit="10" cx="486.842" cy="211.166" rx="17.658" ry="16.899"/>
	<path stroke="#000000" stroke-width="2" stroke-miterlimit="10" d="M554.748,183.157c-5.552,5.021-7.776,13.039-4.98,20.356
		c3.651,9.556,14.48,14.296,24.188,10.588c7.108-2.716,11.644-9.208,12.131-16.242l-4.65-7.419l-14.113-8.82L554.748,183.157z"/>
	<g>
		<path fill="#FFFFFF" d="M514.833,251.599c0,0,4.284,3.324,6.094,3.236c1.758-0.086,9.881-0.934,11.47-1.618
			c1.505-0.648,3.927-2.417,4.301-3.883c0.442-1.729-1.075-5.5-1.075-5.5"/>
		<path d="M514.833,251.599c0,0,0.422,0.22,1.16,0.604c0.736,0.374,1.788,0.927,3.051,1.446c0.603,0.244,1.394,0.485,1.853,0.442
			c0.795-0.111,1.633-0.228,2.501-0.349c0.869-0.125,1.768-0.255,2.681-0.386c0.912-0.122,1.84-0.256,2.754-0.408
			c0.911-0.128,1.855-0.273,2.651-0.465c0.166-0.046,0.399-0.115,0.511-0.134l0.623-0.277c0.342-0.177,0.691-0.367,1.043-0.598
			c0.678-0.456,1.324-0.931,1.813-1.446c0.494-0.542,0.672-0.931,0.717-1.674c0.025-0.549-0.024-1.231-0.098-1.777
			c-0.071-0.56-0.155-1.053-0.224-1.46c-0.157-0.816-0.246-1.283-0.246-1.283s0.255,0.405,0.624,1.16
			c0.174,0.381,0.398,0.842,0.589,1.402c0.201,0.568,0.415,1.164,0.5,2.029c0.038,0.221,0.028,0.399,0.022,0.581l-0.007,0.28
			l-0.002,0.071l-0.001,0.035l0,0.018c-0.007,0.039,0.016-0.074-0.016,0.089l-0.003,0.011l-0.053,0.173
			c-0.13,0.497-0.382,0.884-0.638,1.279c-0.543,0.739-1.209,1.379-1.965,1.953c-0.369,0.283-0.787,0.561-1.238,0.83l-0.609,0.328
			c-0.326,0.122-0.538,0.179-0.816,0.268c-1.002,0.268-1.923,0.426-2.876,0.583c-0.949,0.134-1.893,0.246-2.823,0.347
			c-0.929,0.11-1.85,0.155-2.738,0.219c-0.894,0.065-1.775,0.084-2.579,0.086c-1.176-0.07-1.811-0.541-2.467-0.906
			c-1.253-0.78-2.143-1.579-2.763-2.143C515.154,251.954,514.833,251.599,514.833,251.599z"/>
	</g>
	<ellipse fill="#FFFFFF" stroke="#000000" stroke-width="2" stroke-miterlimit="10" cx="483.5" cy="204.5" rx="7.843" ry="7.735"/>
	
		<ellipse fill="#FFFFFF" stroke="#000000" stroke-width="2" stroke-miterlimit="10" cx="494.414" cy="217.562" rx="4.938" ry="4.87"/>
	<circle fill="#FFFFFF" stroke="#000000" stroke-width="2" stroke-miterlimit="10" cx="564" cy="191" r="7.938"/>
	<circle fill="#FFFFFF" stroke="#000000" stroke-width="2" stroke-miterlimit="10" cx="573.792" cy="204.552" r="4.998"/>
	<g>
		<path d="M497.831,188.42c0,0-3.653-0.385-9.133-0.962c-2.74-0.288-5.937-0.625-9.361-0.986c-0.856-0.09-1.727-0.182-2.608-0.275
			l-0.663-0.07l-0.333-0.035l-0.167-0.018l-0.021-0.002c-0.09-0.003,0.1,0.002,0.072,0.001l-0.042-0.005l-0.084-0.009
			c-0.444-0.049-0.93-0.106-1.226-0.116c-1.445-0.107-3.238,0.057-4.961,0.316c-1.748,0.258-3.531,0.626-5.312,0.99
			c-0.898,0.178-1.789,0.354-2.669,0.528c-0.448,0.078-0.893,0.156-1.334,0.232l-0.667,0.102l-0.166,0.025
			c0.037-0.013-0.081,0.017-0.113,0.023l-0.315,0.072c-1.526,0.367-3.13,0.967-4.589,1.494c-1.473,0.541-2.862,1.077-4.141,1.582
			c-5.117,2.022-8.496,3.47-8.496,3.47s3.186-1.827,8.05-4.436c1.217-0.652,2.541-1.348,3.958-2.065
			c1.437-0.71,2.877-1.47,4.637-2.12c0.414-0.145,0.832-0.292,1.252-0.44c0.401-0.152,0.804-0.304,1.211-0.458
			c0.816-0.33,1.641-0.664,2.474-1.001c1.673-0.688,3.396-1.404,5.206-2.038c1.831-0.631,3.652-1.202,5.818-1.478
			c0.605-0.08,1.019-0.104,1.469-0.141c0.479-0.006,0.956-0.011,1.43-0.017c0.886-0.007,1.761-0.013,2.622-0.019
			c3.444-0.025,6.658-0.049,9.414-0.069c5.51-0.041,9.184-0.068,9.184-0.068L497.831,188.42z"/>
	</g>
	<g>
		<path d="M476.833,277c0.218-0.51,0.502-0.946,0.784-1.384c0.296-0.422,0.594-0.843,0.926-1.224c0.649-0.78,1.37-1.48,2.13-2.134
			l-0.292,1.028c-0.233-0.838-0.414-1.692-0.52-2.569c-0.091-0.881-0.153-1.771-0.028-2.716c0.625,0.721,1.063,1.498,1.472,2.283
			c0.394,0.79,0.713,1.603,0.98,2.431l0.189,0.587l-0.481,0.441c-0.739,0.678-1.519,1.312-2.369,1.865
			c-0.418,0.285-0.87,0.532-1.324,0.776C477.832,276.613,477.365,276.843,476.833,277z"/>
	</g>
	<g>
		<path d="M572.01,255.398c0.149,0.534,0.2,1.052,0.254,1.57c0.033,0.515,0.064,1.029,0.043,1.534
			c-0.019,1.015-0.144,2.011-0.327,2.998l-0.415-0.984c0.706,0.509,1.382,1.061,2.013,1.679c0.622,0.63,1.227,1.286,1.721,2.102
			c-0.938-0.172-1.766-0.504-2.576-0.861c-0.802-0.37-1.559-0.805-2.285-1.284l-0.515-0.34l0.099-0.645
			c0.153-0.992,0.365-1.974,0.682-2.938c0.148-0.484,0.346-0.959,0.548-1.434C571.473,256.324,571.693,255.853,572.01,255.398z"/>
	</g>
	
		<ellipse transform="matrix(0.9502 0.3118 -0.3118 0.9502 104.9278 -127.0011)" fill="none" stroke="#000000" stroke-miterlimit="10" cx="449.667" cy="264.667" rx="14.667" ry="11.333"/>
	
		<ellipse transform="matrix(0.8345 -0.5511 0.5511 0.8345 -36.5529 371.6484)" fill="none" stroke="#000000" stroke-miterlimit="10" cx="600.333" cy="246.667" rx="14.667" ry="11.333"/>
	<path fill="none" stroke="#000000" stroke-width="4" stroke-miterlimit="10" d="M500.027,602.628c0,0-24.733,7.072-32.205,11.17
		c-4.473,2.454-14.087,7.937-16,12.667c-0.946,2.338-0.074,7.907,1.333,10c1.5,2.23,6.76,4.557,9.333,5.333
		c2.399,0.723,7.495,0.715,10,0.667c3.184-0.061,9.675-0.242,12.667-1.333c9.975-3.639,35.177-23.799,35.177-23.799l2-6
		l-4.023-7.464"/>
	<path fill="none" stroke="#000000" stroke-width="4" stroke-miterlimit="10" d="M590.066,601.962c0,0,24.733,7.072,32.205,11.17
		c4.473,2.454,14.087,7.937,16,12.667c0.946,2.338,0.074,7.907-1.333,10c-1.5,2.23-6.76,4.557-9.333,5.333
		c-2.399,0.723-7.495,0.715-10,0.667c-3.184-0.061-9.675-0.242-12.667-1.333c-9.975-3.639-35.177-23.799-35.177-23.799l-2-6
		l4.023-7.464"/>
</g>
<g id="Capa_4">
	<path fill="#FFFFFF" stroke="#000000" stroke-width="2" stroke-miterlimit="10" d="M425.814,55.943c0,0-1.909,33.08-0.823,44.038
		c0.846,8.543,7.366,33.541,7.366,33.541s33.678-2.168,44.825-3.635c9.709-1.278,38.531-7.046,38.531-7.046
		s29.532-2.728,39.336-3.988c5.715-0.734,22.774-3.548,22.774-3.548l4.024-0.243c0,0-0.539-24.251-1.942-32.191
		c-1.947-11.022-12.777-42.907-12.777-42.907s-1.869,22.697-4.417,29.778c-1.193,3.314-4.624,9.753-7.288,12.058
		c-3.382,2.926-12.032,6.487-16.48,6.958c-2.004,0.212-6.123-0.597-7.919-1.511c-4.038-2.052-10.479-8.779-13.234-12.373
		c-3.039-3.964-9.389-17.638-9.389-17.638l-11.596-22.289l-3.373,21.328c0,0-0.671,14.672-1.748,19.428
		c-0.865,3.818-3.058,11.583-5.452,14.681c-2.447,3.167-9.262,8.099-13.115,9.179c-2.046,0.573-6.398-0.132-8.483-0.545
		c-3.302-0.654-10.057-2.306-12.749-4.326c-3.201-2.402-6.884-9.836-9.179-13.115c-1.836-2.623-7.343-10.492-7.343-10.492
		L425.814,55.943z"/>
	<circle fill="none" stroke="#000000" stroke-width="2" stroke-miterlimit="10" cx="509.75" cy="109.75" r="5.75"/>
	<circle fill="#FFFFFF" stroke="#000000" stroke-width="2" stroke-miterlimit="10" cx="443.5" cy="119" r="5.5"/>
	<circle fill="#FFFFFF" stroke="#000000" stroke-width="2" stroke-miterlimit="10" cx="566.5" cy="102.5" r="5.5"/>
	<g>
		<polygon points="638,619.5 819,622 638,624.5 		"/>
	</g>
	<g>
		<polygon points="452,625.5 281,623 452,620.5 		"/>
	</g>
	<line fill="none" stroke="#000000" stroke-width="5" stroke-miterlimit="10" x1="513" y1="622" x2="578" y2="622"/>
</g>
</svg>
