<?xml version="1.0" encoding="utf-8"?>
<!-- Generator: Adobe Illustrator 17.0.0, SVG Export Plug-In . SVG Version: 6.00 Build 0)  -->
<!DOCTYPE svg PUBLIC "-//W3C//DTD SVG 1.1//EN" "http://www.w3.org/Graphics/SVG/1.1/DTD/svg11.dtd">
<svg version="1.1" xmlns="http://www.w3.org/2000/svg" xmlns:xlink="http://www.w3.org/1999/xlink" x="0px" y="0px" width="1024px"
	 height="768px" viewBox="0 0 1024 768" enable-background="new 0 0 1024 768" xml:space="preserve">
<g id="Capa_1">
	<path fill="none" stroke="#000000" stroke-width="4" stroke-miterlimit="10" d="M594.102,191.377
		c-2.916-22.152-35.961-45.36-45.68-51.689c-30.129-17.933-63.174-21.098-91.36,3.165c-31.101,28.482-20.41,64.348,1.944,93.884
		c21.382,28.482,46.652,33.756,78.725,34.811c21.382,1.055,38.707-15.816,56.201-25.31"/>
	<path fill="none" stroke="#000000" stroke-width="4" stroke-miterlimit="10" d="M595.552,190.553
		c-10.691-45.36-61.709-117.322-7.281-141.584c31.101-13.713,95.247-10.549,99.135,24.262c3.888,33.756-10.691,63.293-25.27,92.829
		c-2.916,5.274-12.322,20.873-12.322,20.873"/>
	<path fill="none" stroke="#000000" stroke-width="4" stroke-miterlimit="10" d="M650.473,186.103
		c29.157-30.591,94.276-56.963,129.264-34.811c36.331,24.185,39.815,71.638,22.354,99.158
		c-17.572,27.695-56.288,35.36-82.613,28.482c-13.607-3.165-55.399-29.537-67.062-37.976"/>
	<path fill="none" stroke="#000000" stroke-width="4" stroke-miterlimit="10" d="M595.012,246.795
		c-45.68,31.646-72.832,130.241-0.91,143.954c30.129,5.274,69.006-3.165,85.528-29.537c17.494-27.427,10.691-72.787-5.831-97.049
		c-3.888-6.329-16.523-21.098-22.354-22.152"/>
</g>
<g id="Capa_2">
	<path fill="none" stroke="#000000" stroke-width="4" stroke-miterlimit="10" d="M650.623,189.439
		c-28.185-25.317-86.651,4.048-62.353,47.298c11.663,22.152,42.764,21.098,59.287,7.384c18.466-14.768,8.55-46.732,8.195-47.721
		C655.105,194.594,650.623,189.439,650.623,189.439z"/>
	<g>
		<path d="M609.262,182.457c0,0-0.095-1.282-0.261-3.524c-0.071-1.132-0.232-2.439-0.376-3.977
			c-0.137-1.523-0.366-3.279-0.584-5.179c-0.906-7.614-2.427-17.796-3.66-28.027c-0.277-2.565-0.607-5.118-0.827-7.649
			c-0.12-1.263-0.238-2.517-0.355-3.755c-0.091-1.241-0.181-2.468-0.269-3.674c-0.203-2.408-0.24-4.753-0.361-6.963
			c-0.004-2.22-0.089-4.313-0.014-6.248c0.088-1.934,0.076-3.706,0.265-5.27c0.169-1.563,0.209-2.932,0.429-4.041
			c0.363-2.221,0.571-3.49,0.571-3.49s-0.13,1.278-0.357,3.513c-0.151,1.112-0.108,2.483-0.181,4.041
			c-0.093,1.558,0.026,3.323,0.056,5.241c0.042,1.918,0.254,3.995,0.39,6.186c0.254,2.189,0.43,4.499,0.777,6.877
			c0.16,1.189,0.323,2.398,0.488,3.622c0.191,1.221,0.384,2.457,0.579,3.703c0.371,2.492,0.854,5.013,1.283,7.538
			c1.843,10.089,3.975,20.135,5.358,27.764c0.338,1.913,0.673,3.646,0.914,5.23c0.244,1.568,0.497,2.961,0.634,4.067
			c0.302,2.229,0.474,3.502,0.474,3.502L609.262,182.457z"/>
	</g>
	<g>
		<path d="M630.577,181.304c0,0,0.287-5.199,0.718-12.998c0.108-1.95,0.224-4.062,0.348-6.296c0.116-2.234,0.431-4.605,0.652-7.046
			c0.49-4.88,1.014-10.086,1.537-15.292c0.744-5.166,1.488-10.332,2.186-15.175c0.368-2.417,0.648-4.762,1.05-6.966
			c0.427-2.2,0.831-4.28,1.203-6.201c1.489-7.669,2.482-12.782,2.482-12.782s-0.684,5.161-1.71,12.903
			c-0.256,1.932-0.533,4.026-0.827,6.24c-0.269,2.217-0.407,4.574-0.629,7.001c-0.404,4.853-0.835,10.03-1.266,15.207
			c-0.208,5.178-0.416,10.356-0.612,15.21c-0.074,2.428-0.246,4.755-0.228,6.993c0.011,2.237,0.021,4.353,0.031,6.305
			c0.038,7.81,0.063,13.017,0.063,13.017L630.577,181.304z"/>
	</g>
	<g>
		<path d="M658.103,201.54c0,0,1.27-0.035,3.492-0.097c1.123-0.015,2.44-0.093,3.95-0.188c0.757-0.045,1.563-0.092,2.412-0.143
			c0.857-0.072,1.758-0.148,2.698-0.227c7.527-0.606,17.576-1.967,27.662-3.301c2.526-0.315,5.051-0.629,7.537-0.939
			c2.49-0.292,4.942-0.565,7.323-0.782c2.373-0.257,4.686-0.379,6.866-0.557c2.191-0.085,4.255-0.239,6.168-0.242
			c1.912-0.01,3.661-0.066,5.214,0.023c1.551,0.071,2.903,0.062,4.011,0.196c2.215,0.2,3.481,0.314,3.481,0.314
			s-1.269-0.036-3.49-0.099c-1.108-0.065-2.458,0.027-4.001,0.051c-1.544,0.006-3.282,0.17-5.176,0.296
			c-1.894,0.119-3.938,0.399-6.1,0.616c-2.156,0.311-4.433,0.572-6.776,0.972c-2.346,0.36-4.765,0.781-7.22,1.224
			c-2.454,0.46-4.946,0.928-7.439,1.395c-9.96,1.946-19.955,3.934-27.574,5.023c-0.952,0.139-1.864,0.273-2.732,0.4
			c-0.879,0.107-1.714,0.208-2.498,0.303c-1.572,0.195-2.942,0.359-4.039,0.441c-2.214,0.198-3.479,0.312-3.479,0.312
			L658.103,201.54z"/>
	</g>
	<g>
		<path d="M658.526,227.478c0,0,0.261,0.193,0.751,0.554c0.245,0.181,0.547,0.404,0.902,0.665c0.358,0.269,0.714,0.447,1.142,0.724
			c0.417,0.263,0.879,0.559,1.464,0.841c0.571,0.282,1.159,0.639,1.854,0.915c1.353,0.609,2.929,1.231,4.718,1.77
			c0.447,0.136,0.903,0.275,1.368,0.417c0.474,0.121,0.957,0.244,1.448,0.369c0.977,0.27,2.017,0.462,3.077,0.694
			c2.135,0.416,4.413,0.785,6.797,1.062c4.763,0.584,9.92,0.894,15.097,1.129c5.176,0.237,10.378,0.407,15.254,0.717
			c2.438,0.167,4.795,0.339,7.025,0.597c2.23,0.238,4.331,0.551,6.258,0.902c1.924,0.373,3.678,0.767,5.2,1.233
			c0.763,0.227,1.476,0.437,2.117,0.691c0.644,0.244,1.245,0.436,1.758,0.689c0.519,0.234,0.983,0.443,1.386,0.625
			c0.388,0.213,0.717,0.394,0.985,0.541c0.533,0.294,0.817,0.451,0.817,0.451s-0.293-0.14-0.843-0.401
			c-0.274-0.13-0.613-0.29-1.011-0.478c-0.411-0.156-0.884-0.336-1.414-0.537c-0.522-0.219-1.132-0.375-1.782-0.577
			c-0.647-0.213-1.366-0.379-2.132-0.557c-1.529-0.37-3.284-0.655-5.202-0.908c-1.922-0.232-4.012-0.416-6.231-0.518
			c-2.216-0.122-4.561-0.152-6.985-0.172c-4.853-0.016-10.035,0.127-15.24,0.202c-5.204,0.076-10.433,0.079-15.365-0.225
			c-2.465-0.138-4.855-0.376-7.123-0.679c-1.133-0.176-2.239-0.314-3.303-0.538c-0.533-0.103-1.057-0.203-1.572-0.302
			c-0.513-0.123-1.016-0.243-1.508-0.361c-1.973-0.468-3.765-1.049-5.335-1.645c-0.795-0.265-1.506-0.63-2.179-0.916
			c-0.667-0.275-1.291-0.613-1.854-0.925c-0.546-0.305-1.101-0.583-1.464-0.823c-0.37-0.24-0.685-0.444-0.94-0.61
			c-0.511-0.331-0.783-0.508-0.783-0.508L658.526,227.478z"/>
	</g>
	<g>
		<path d="M582.32,207.69c0,0-0.285-0.194-0.818-0.558c-0.533-0.363-1.328-0.928-2.27-1.465c-0.923-0.587-2.183-1.254-3.615-2.023
			c-0.734-0.361-1.515-0.745-2.338-1.15c-0.839-0.383-1.721-0.786-2.642-1.206c-1.858-0.816-3.9-1.654-6.081-2.501
			c-2.188-0.834-4.512-1.684-6.939-2.513c-4.853-1.659-10.095-3.286-15.378-4.8c-1.331-0.38-2.663-0.759-3.989-1.137
			c-1.307-0.396-2.64-0.832-3.923-1.261c-2.568-0.883-5.095-1.751-7.541-2.592c-4.876-1.687-9.442-3.192-13.425-4.231
			c-3.977-1.056-7.375-1.613-9.776-1.687c-1.2-0.04-2.143,0.028-2.783,0.104c-0.637,0.103-0.976,0.158-0.976,0.158
			s0.336-0.075,0.967-0.215c0.637-0.113,1.582-0.236,2.793-0.266c2.424-0.066,5.887,0.299,9.953,1.131
			c4.071,0.815,8.751,2.064,13.727,3.47c2.484,0.697,5.051,1.417,7.66,2.148c1.312,0.356,2.599,0.697,3.939,1.02
			c1.332,0.3,2.669,0.602,4.007,0.903c5.388,1.223,10.759,2.565,15.769,3.97c2.505,0.702,4.917,1.433,7.198,2.16
			c2.278,0.741,4.424,1.483,6.394,2.22c0.982,0.384,1.923,0.751,2.818,1.101c0.889,0.377,1.733,0.735,2.526,1.071
			c1.57,0.733,2.936,1.358,4.088,2c1.183,0.604,1.959,1.099,2.514,1.432c0.553,0.333,0.848,0.511,0.848,0.511L582.32,207.69z"/>
	</g>
	<g>
		<path d="M583.375,229.248c0,0-1.339-0.052-3.681-0.143c-1.171-0.046-2.593-0.101-4.225-0.164c-0.815-0.03-1.682-0.061-2.597-0.095
			c-0.902,0.007-1.851,0.014-2.841,0.022c-1.984,0.015-4.133,0.03-6.406,0.047c-2.276,0.016-4.702,0.162-7.199,0.243
			c-2.5,0.096-5.085,0.184-7.715,0.35c-2.63,0.148-5.301,0.298-7.972,0.448c-5.351,0.318-10.695,0.671-15.721,0.915
			c-2.512,0.121-4.935,0.284-7.24,0.355c-2.304,0.071-4.483,0.138-6.494,0.2c-1.005,0.031-1.968,0.061-2.884,0.089
			c-0.917-0.003-1.787-0.006-2.605-0.009c-1.634-0.009-3.058-0.017-4.231-0.023c-2.344-0.013-3.683-0.02-3.683-0.02
			s1.338-0.071,3.68-0.195c1.17-0.062,2.59-0.137,4.219-0.223c0.814-0.045,1.68-0.092,2.593-0.142
			c0.912-0.081,1.87-0.167,2.87-0.257c1.999-0.179,4.164-0.372,6.454-0.577c2.289-0.204,4.699-0.509,7.193-0.775
			c4.986-0.535,10.306-1.199,15.626-1.828c2.665-0.306,5.33-0.613,7.954-0.914c2.621-0.32,5.214-0.56,7.724-0.804
			c2.514-0.228,4.926-0.515,7.249-0.669c2.327-0.153,4.527-0.297,6.557-0.43c1.017-0.066,1.992-0.13,2.919-0.19
			c0.916-0.02,1.785-0.039,2.602-0.057c1.632-0.032,3.055-0.06,4.227-0.082c2.344-0.046,3.683-0.072,3.683-0.072L583.375,229.248z"
			/>
	</g>
	<g>
		<path d="M615.722,254.601c0,0-2.262,5.858-5.656,14.646c-1.679,4.394-3.634,9.523-5.661,15.045
			c-1.023,2.757-2.088,5.605-3.114,8.516c-1.04,2.908-2.097,5.862-3.154,8.815c-1.013,2.968-2.027,5.937-3.025,8.859
			c-1.019,2.917-1.938,5.812-2.835,8.613c-0.888,2.803-1.795,5.501-2.568,8.084c-0.767,2.586-1.491,5.03-2.16,7.286
			c-0.335,1.129-0.655,2.211-0.96,3.24c-0.279,1.036-0.543,2.018-0.792,2.942c-0.492,1.849-0.921,3.461-1.274,4.788
			c-0.707,2.656-1.111,4.174-1.111,4.174s0.328-1.536,0.902-4.224c0.287-1.345,0.636-2.977,1.036-4.85
			c0.203-0.936,0.418-1.933,0.646-2.983c0.254-1.044,0.521-2.141,0.799-3.286c0.557-2.292,1.161-4.774,1.799-7.4
			c0.646-2.625,1.418-5.367,2.168-8.219c0.759-2.85,1.535-5.798,2.41-8.767c0.854-2.977,1.721-6.001,2.588-9.025
			c0.911-3.011,1.822-6.021,2.718-8.985c0.883-2.969,1.807-5.872,2.694-8.684c1.755-5.631,3.457-10.867,4.921-15.354
			c2.955-8.953,4.925-14.921,4.925-14.921L615.722,254.601z"/>
	</g>
	<g>
		<path d="M630.419,253.107c0,0,0.17,1.412,0.468,3.882c0.158,1.228,0.296,2.764,0.484,4.5c0.168,1.733,0.357,3.689,0.564,5.822
			c0.382,4.25,0.828,9.208,1.306,14.52c0.487,5.303,1.031,10.953,1.688,16.586c0.33,2.816,0.691,5.628,1.073,8.392
			c0.413,2.758,0.791,5.48,1.28,8.089c0.426,2.625,0.967,5.131,1.472,7.514c0.502,2.383,1.132,4.595,1.647,6.659
			c0.656,2.016,1.165,3.905,1.783,5.516c0.647,1.598,1.14,3.03,1.673,4.149c1.118,2.22,1.756,3.489,1.756,3.489
			s-0.709-1.234-1.949-3.395c-0.597-1.095-1.168-2.498-1.909-4.074c-0.711-1.588-1.325-3.452-2.099-5.452
			c-0.631-2.042-1.39-4.241-2.026-6.61c-0.639-2.368-1.324-4.866-1.897-7.48c-0.637-2.602-1.167-5.314-1.735-8.066
			c-0.537-2.756-1.055-5.563-1.542-8.373c-0.97-5.621-1.828-11.257-2.607-16.539c-0.769-5.276-1.486-10.199-2.101-14.42
			c-0.32-2.098-0.614-4.022-0.874-5.727c-0.278-1.697-0.49-3.162-0.717-4.392c-0.433-2.45-0.681-3.851-0.681-3.851L630.419,253.107z
			"/>
	</g>
	<path fill="none" stroke="#000000" stroke-width="4" stroke-miterlimit="10" d="M564.944,92.219
		c-21.382-8.439-49.568,6.329-49.568,33.756"/>
	<path fill="none" stroke="#000000" stroke-width="4" stroke-miterlimit="10" d="M505.658,269.438
		c-0.434,4.714-6.072,11.245-6.803,18.988c-0.906,9.585,3.247,20.537,4.86,26.372c2.916,14.768,23.753,26.207,45.135,23.043"/>
	<path fill="none" stroke="#000000" stroke-width="4" stroke-miterlimit="10" d="M689.349,335.895
		c31.101,22.152,79.697-16.878,55.399-53.799"/>
	<path fill="none" stroke="#000000" stroke-width="4" stroke-miterlimit="10" d="M686.433,104.877
		c34.017-31.646,68.557,28.63,48.147,39.178"/>
	<path fill="none" stroke="#000000" stroke-width="4" stroke-miterlimit="10" d="M573.273,545.512
		c-0.32,43.284,4.129,86.278,11.109,127.945c0,2.11,0.972,8.439,0.972,7.384"/>
	<path fill="none" stroke="#000000" stroke-width="4" stroke-miterlimit="10" d="M596.092,392.133
		c-6.803,31.646-16.569,70.347-19.484,101.994c-0.617,9.372-1.073,17.536-1.388,27.038"/>
	<path fill="none" stroke="#000000" stroke-width="4" stroke-miterlimit="10" d="M619.308,392.412
		c-19.438,24.262-15.487,80.618-17.431,111.209c-3.888,52.744-10.691,101.268,0.972,154.012c1.944,8.439,3.888,16.878,5.831,25.317"
		/>
	<path fill="none" stroke="#000000" stroke-width="4" stroke-miterlimit="10" d="M601.877,481.468
		c3.888,0,15.109-1.352,16.081-1.352c0,0,40.29-30.294,67.503-29.239c15.551,0,27.214,3.165,40.82,10.549
		c10.691,5.274,30.129,24.262,40.82,24.262"/>
	<path fill="none" stroke="#000000" stroke-width="4" stroke-miterlimit="10" d="M602.849,496.237
		c5.831,0,10.691-1.055,10.691-1.055c37.905,29.537,119.545,20.043,155.506-10.549"/>
	<g>
		<path d="M768.082,487.688c0,0-7.229-0.087-18.073-0.217c-10.843-0.106-25.301-0.246-39.758-0.387
			c-7.232-0.113-14.463-0.226-21.243-0.332c-3.389-0.064-6.665-0.08-9.772-0.176c-3.106-0.103-6.043-0.2-8.754-0.29
			c-10.839-0.359-18.066-0.598-18.066-0.598s7.23-0.011,18.074-0.027c2.71-0.004,5.646-0.009,8.751-0.013
			c3.105-0.011,6.381-0.108,9.768-0.161c6.775-0.128,14.001-0.266,21.227-0.403c14.457-0.359,28.914-0.719,39.757-0.988
			c10.842-0.245,18.071-0.408,18.071-0.408L768.082,487.688z"/>
	</g>
	<path fill="none" stroke="#000000" stroke-width="4" stroke-miterlimit="10" d="M443.708,560.159
		c7.988,1.106,20.941,16.48,28.493,21.298c9.556,6.604,18.008,10.038,29.627,11.646c20.246,3.557,37.907-2.299,53.275-13.754
		l18.588,2.333"/>
	<path fill="none" stroke="#000000" stroke-width="4" stroke-miterlimit="10" d="M442.168,560.7
		c29.398-17.813,91.182-16.053,117.061,8.656l14.462,1.777"/>
	<g>
		<path d="M443.25,558.076c0,0,21.556,3.347,43.112,6.693c21.518,3.624,43.035,7.249,43.035,7.249s-21.652-2.633-43.303-5.267
			c-21.69-2.356-43.38-4.711-43.38-4.711L443.25,558.076z"/>
	</g>
	<g>
		<path fill="none" d="M490.195,684.593"/>
	</g>
	<g>
		<path fill="none" d="M719.524,684.593"/>
	</g>
	<g>
		<path fill="none" d="M485.417,684.593"/>
	</g>
	<g>
		<path d="M490.195,685.414c0,0,0.858-0.06,2.468-0.172c1.61-0.095,3.971-0.27,6.975-0.422c3.005-0.161,6.653-0.376,10.838-0.549
			c4.185-0.192,8.907-0.409,14.058-0.573c5.151-0.187,10.731-0.388,16.633-0.516c5.902-0.146,12.126-0.332,18.565-0.404
			c6.439-0.078,13.092-0.247,19.853-0.259c6.761-0.034,13.629-0.069,20.497-0.104c6.868,0.029,13.736,0.059,20.497,0.088
			c6.761,0.028,13.414,0.186,19.853,0.268c6.439,0.073,12.663,0.252,18.565,0.402c5.902,0.129,11.482,0.327,16.633,0.517
			c5.151,0.165,9.873,0.38,14.058,0.575c4.185,0.174,7.834,0.388,10.839,0.551c3.005,0.153,5.366,0.328,6.975,0.424
			c1.61,0.112,2.468,0.172,2.468,0.172s-0.859,0.06-2.468,0.172c-1.61,0.096-3.971,0.271-6.975,0.424
			c-3.005,0.163-6.653,0.377-10.839,0.551c-4.185,0.194-8.907,0.41-14.058,0.575c-5.151,0.19-10.731,0.388-16.633,0.517
			c-5.902,0.151-12.126,0.329-18.565,0.402c-6.439,0.082-13.092,0.24-19.853,0.268c-6.761,0.029-13.629,0.059-20.497,0.088
			c-6.868-0.035-13.736-0.07-20.497-0.104c-6.761-0.012-13.414-0.181-19.853-0.259c-6.439-0.072-12.663-0.258-18.565-0.404
			c-5.902-0.128-11.482-0.33-16.633-0.516c-5.151-0.163-9.873-0.381-14.058-0.573c-4.185-0.173-7.834-0.388-10.838-0.549
			c-3.005-0.152-5.366-0.327-6.975-0.422C491.053,685.473,490.195,685.414,490.195,685.414z"/>
	</g>
	<path fill="none" stroke="#000000" stroke-width="4" stroke-miterlimit="10" d="M420.889,405.776
		c-11.944-23.817-39.523-13.292-45.893,7.239c-4.778,14.783-1.323,26.753,16.196,29.217c11.148,1.643,20.385-2.6,28.347-9.17"/>
	<path fill="none" stroke="#000000" stroke-width="4" stroke-miterlimit="10" d="M420.079,405.219
		c-6.37-15.604-11.333-39.685,10.167-45.434c11.944-3.285,31.851,0,39.018,12.319c7.963,13.961-6.411,25.766-15.17,35.621"/>
	<path fill="none" stroke="#000000" stroke-width="4" stroke-miterlimit="10" d="M419.809,433.341
		c-23.092,11.498-15.966,46.061,7.922,46.882c11.944,0,26.277-8.213,26.277-22.174c0-7.391-7.167-16.425-9.555-22.174"/>
	<path fill="none" stroke="#000000" stroke-width="4" stroke-miterlimit="10" d="M444.105,434.454
		c7.963,15.604,38.012,27.506,50.752,7.796c15.129-23.817-19.25-47.345-39.954-31.741"/>
	<path fill="none" stroke="#000000" stroke-width="4" stroke-miterlimit="10" d="M431.27,400.979
		c-15.129,1.643-20.703,24.638-8.759,32.85c24.685,16.425,52.5-28.958,12.686-33.065L431.27,400.979z"/>
	<path fill="none" stroke="#000000" stroke-width="4" stroke-miterlimit="10" d="M466.242,451.717
		c0.796,8.213,8.45,15.147,13.228,21.717c6.37,8.213,9.929,11.592,21.077,12.413c7.167,0.821,10.883,2.365,18.049,4.829
		c15.129,4.106,16.191,14.06,27.339,21.451c6.37,3.285,22.19,7.789,28.56,6.968"/>
	<path fill="none" stroke="#000000" stroke-width="4" stroke-miterlimit="10" d="M453.191,452.631
		c3.185,9.855,15.132,22.211,22.299,30.424c11.148,13.961,18.594,11.906,34.519,16.012c15.926,4.928,29.427,22.883,46.149,27.811
		c7.167,2.464,11.668,23.609,17.242,20.323"/>
	<g>
		<path d="M429.147,399.67c0,0,0.5-5.02,1-10.041l0.047-0.471c0.018-0.085,0.016-0.294,0.026-0.435
			c0.013-0.313,0.027-0.625,0.04-0.935c0.026-0.619,0.052-1.228,0.077-1.818c0.05-1.179,0.097-2.28,0.137-3.223
			c0.08-1.887,0.134-3.144,0.134-3.144s0.196,1.246,0.491,3.115c0.147,0.934,0.319,2.025,0.503,3.193
			c0.092,0.584,0.187,1.188,0.284,1.801c0.048,0.307,0.097,0.616,0.146,0.926c0.023,0.171,0.052,0.274,0.07,0.502l0.047,0.47
			c0.5,5.011,1,10.022,1,10.022L429.147,399.67z"/>
	</g>
	<g>
		<path d="M441.301,400.866c0,0,0.73-1.013,1.826-2.533c0.551-0.757,1.165-1.65,1.822-2.612c0.325-0.48,0.682-0.979,1.007-1.483
			c0.313-0.506,0.63-1.02,0.948-1.533c0.144-0.246,0.357-0.548,0.446-0.748c0.125-0.286,0.25-0.571,0.374-0.854
			c0.239-0.566,0.511-1.123,0.7-1.661c0.404-1.081,0.806-2.086,1.117-2.977c0.626-1.777,1.044-2.961,1.044-2.961
			s-0.175,1.246-0.438,3.114c-0.128,0.933-0.328,2.032-0.521,3.219c-0.087,0.603-0.239,1.183-0.363,1.793
			c-0.066,0.303-0.132,0.608-0.198,0.915c-0.095,0.395-0.217,0.631-0.326,0.956c-0.226,0.612-0.452,1.225-0.675,1.828
			c-0.233,0.593-0.481,1.145-0.712,1.697c-0.464,1.098-0.901,2.123-1.297,2.987c-0.783,1.728-1.305,2.88-1.305,2.88L441.301,400.866
			z"/>
	</g>
	<g>
		<path d="M456.255,417.494c0,0,0.857,0.366,2.143,0.915c0.641,0.271,1.39,0.592,2.196,0.911c0.8,0.311,1.679,0.704,2.521,0.991
			c0.428,0.153,0.856,0.307,1.278,0.458l0.318,0.114c0.024,0.02,0.198,0.044,0.289,0.066c0.221,0.044,0.439,0.088,0.654,0.132
			c0.858,0.173,1.66,0.334,2.346,0.473c1.376,0.224,2.293,0.373,2.293,0.373s-0.94,0.1-2.35,0.249
			c-0.704,0.048-1.525,0.105-2.405,0.165c-0.22,0.015-0.444,0.031-0.67,0.046c-0.132,0.004-0.184,0.025-0.384,0.015l-0.351-0.026
			c-0.474-0.036-0.955-0.072-1.436-0.108c-0.984-0.062-1.888-0.205-2.782-0.298c-0.885-0.098-1.703-0.211-2.407-0.305
			c-1.401-0.192-2.335-0.319-2.335-0.319L456.255,417.494z"/>
	</g>
	<g>
		<path d="M453.073,426.685c0,0,1.042,0.863,2.605,2.159c0.394,0.315,0.821,0.656,1.272,1.016c0.45,0.348,0.936,0.768,1.42,1.108
			c0.472,0.34,1.029,0.765,1.48,1.074c0.587,0.324,1.183,0.654,1.779,0.983c1.189,0.688,2.391,1.235,3.523,1.809
			c1.127,0.568,2.206,1.079,3.131,1.514c1.852,0.868,3.087,1.447,3.087,1.447s-1.321-0.344-3.302-0.86
			c-0.991-0.26-2.144-0.565-3.389-0.927c-1.236-0.363-2.604-0.71-3.881-1.164c-0.648-0.216-1.296-0.431-1.934-0.644
			c-0.732-0.309-1.284-0.602-1.915-0.896c-0.625-0.289-1.138-0.593-1.674-0.869c-0.524-0.28-1.02-0.545-1.478-0.789
			c-1.802-1.004-3.003-1.673-3.003-1.673L453.073,426.685z"/>
	</g>
	<g>
		<path d="M427.208,436.394c0,0-0.126,1.482-0.315,3.704c-0.091,1.112-0.225,2.413-0.37,3.804c-0.078,0.698-0.132,1.406-0.234,2.149
			c-0.104,0.74-0.209,1.491-0.315,2.243l-0.079,0.56l-0.02,0.14l-0.005,0.035c-0.014,0.104-0.009,0.048-0.015,0.08l-0.018,0.067
			l-0.073,0.268c-0.097,0.356-0.194,0.711-0.291,1.064c-0.193,0.704-0.382,1.398-0.565,2.069c-0.379,1.341-0.681,2.596-1.03,3.666
			c-0.66,2.13-1.1,3.55-1.1,3.55s0.194-1.462,0.485-3.656c0.161-1.085,0.25-2.385,0.397-3.76c0.068-0.689,0.138-1.402,0.209-2.126
			c0.036-0.362,0.071-0.727,0.107-1.093l0.027-0.275l0.007-0.069c-0.002,0.009,0.009-0.069-0.004,0.012l-0.001-0.034l-0.004-0.136
			l-0.017-0.544c-0.022-0.722-0.044-1.443-0.065-2.154c-0.023-0.708-0.089-1.43-0.129-2.115c-0.09-1.375-0.175-2.656-0.272-3.757
			c-0.186-2.204-0.311-3.674-0.311-3.674L427.208,436.394z"/>
	</g>
	<g>
		<path d="M436.386,438.3c0,0-0.085,1.273-0.213,3.183c-0.064,0.955-0.139,2.069-0.218,3.263c-0.04,0.597-0.081,1.214-0.123,1.84
			c-0.038,0.675-0.117,1.275-0.175,1.921c-0.5,5.085-1,10.17-1,10.17s-0.5-5.08-1-10.159c-0.067-0.624-0.114-1.295-0.198-1.87
			c-0.081-0.623-0.161-1.237-0.238-1.831c-0.154-1.188-0.298-2.296-0.422-3.246c-0.247-1.9-0.412-3.167-0.412-3.167L436.386,438.3z"
			/>
	</g>
	<g>
		<path d="M416.591,426.409c0,0-1.408,0.081-3.521,0.203c-0.55,0.022-1.147,0.046-1.777,0.071c-0.631,0.021-1.296,0.044-1.985,0.067
			c-0.683,0.014-1.397,0.078-2.079-0.019c-0.692-0.062-1.394-0.124-2.097-0.187c-5.62-0.5-11.24-1-11.24-1s5.62-0.5,11.24-1
			c0.703-0.063,1.405-0.125,2.097-0.187c0.706-0.025,1.338-0.211,1.964-0.34c1.238-0.273,2.394-0.527,3.384-0.745
			c2.058-0.493,3.43-0.821,3.43-0.821L416.591,426.409z"/>
	</g>
	<g>
		<path d="M417.239,415.01c0,0-1.458-0.235-3.644-0.588c-1.093-0.177-2.369-0.382-3.735-0.603c-0.683-0.11-1.389-0.224-2.107-0.34
			c-0.359-0.058-0.72-0.116-1.083-0.175l-0.524-0.083l-0.548-0.072c-5.852-0.763-11.703-1.526-11.703-1.526
			s5.902-0.236,11.803-0.472l0.553-0.022l0.573-0.007c0.367-0.004,0.733-0.007,1.096-0.01c0.726-0.007,1.441-0.014,2.132-0.02
			c1.383-0.013,2.674-0.025,3.78-0.036c2.213-0.021,3.688-0.035,3.688-0.035L417.239,415.01z"/>
	</g>
	<path fill="none" stroke="#000000" stroke-width="4" stroke-miterlimit="10" d="M315.139,182.858
		c-15.409,18.254-35.282,26.423-44.387,18.247c-9.106-8.176-3.996-29.602,11.412-47.856s35.282-26.423,44.387-18.247
		C335.657,143.178,330.548,164.604,315.139,182.858z"/>
	<path fill="none" stroke="#000000" stroke-width="4" stroke-miterlimit="10" d="M292.467,143.883c0,0,4.126,7.957,6.148,11.534
		c1.79,3.167,8.733,10.429,11.884,12.123c2.576,1.384,12.362,3.22,12.362,3.22"/>
	<path fill="none" stroke="#000000" stroke-width="4" stroke-miterlimit="10" d="M279.872,156.422
		c-1.51,12.746,22.715,30.973,29.905,30.792"/>
	<path fill="none" stroke="#000000" stroke-width="4" stroke-miterlimit="10" d="M268.341,178.42
		c4.65,11.641,11,18.172,25.148,22.374"/>
	<path fill="none" stroke="#000000" stroke-width="4" stroke-miterlimit="10" d="M307.774,131.615
		c-5.125-11.339-1.174-30.527-21.157-29.102c-25.195,1.797-15.841,37.143-8.798,51.046c-20.539-13.39-31.26,8.983-12.983,21.184
		c0.929,0.834,1.333,0.355,2.202,0.293"/>
	<path fill="none" stroke="#000000" stroke-width="4" stroke-miterlimit="10" d="M324.958,147.045
		c7.519-5.038,26.572-7.298,35.32-7.021"/>
	<path fill="none" stroke="#000000" stroke-width="4" stroke-miterlimit="10" d="M316.134,139.121
		c5.945-8.977,11.65-21.539,13.535-32.477"/>
	<path fill="none" stroke="#000000" stroke-width="4" stroke-miterlimit="10" d="M314.516,188.526
		c15.687,19.138-6.589,30.685-20.823,13.694"/>
	<path fill="none" stroke="#000000" stroke-width="4" stroke-miterlimit="10" d="M331.465,154.905
		c11.595,3.674,29.479-3.003,30.861,17.605c1.743,25.985-35.358,21.111-49.679,15.83"/>
	<path fill="none" stroke="#000000" stroke-width="4" stroke-miterlimit="10" d="M273.079,167.328
		c3.739,12.482,19.892,25.308,28.071,27.486"/>
</g>
</svg>
