<?xml version="1.0" encoding="utf-8"?>
<!-- Generator: Adobe Illustrator 17.0.0, SVG Export Plug-In . SVG Version: 6.00 Build 0)  -->
<!DOCTYPE svg PUBLIC "-//W3C//DTD SVG 1.1//EN" "http://www.w3.org/Graphics/SVG/1.1/DTD/svg11.dtd">
<svg version="1.1" xmlns="http://www.w3.org/2000/svg" xmlns:xlink="http://www.w3.org/1999/xlink" x="0px" y="0px" width="1024px"
	 height="768px" viewBox="0 0 1024 768" enable-background="new 0 0 1024 768" xml:space="preserve">
<g id="Capa_2">
	<path fill="none" stroke="#000000" stroke-width="4" stroke-miterlimit="10" d="M655.574,166.344c0,0-61.104-14.006-80.713-15.336
		c-20.596-1.397-61.975-0.472-82.569,0.96c-20.76,1.444-82.569,10.561-82.569,10.561s-62.599,12.903-82.569,20.162
		c-17.352,6.308-51.072,22.127-66.247,32.644c-8.932,6.19-25.235,21.016-31.683,29.763c-6.497,8.814-19.202,39.364-19.202,39.364
		s-15.316,28.245-22.082,36.484c-4.744,5.777-15.113,17.459-22.082,20.162c-6.937,2.691-22.439,1.313-29.763,0
		c-6.803-1.219-20.85-4.908-25.923-9.601c-2.523-2.334-5.176-9.095-5.761-12.481c-0.451-2.613-0.116-8.138,0.96-10.561
		c1.724-3.881,9.361-8.825,11.521-12.481c2.702-4.575,6.515-14.853,6.721-20.162c0.161-4.14-1.041-12.609-2.88-16.322
		c-1.885-3.805-7.914-10.241-11.521-12.481c-3.613-2.244-16.322-4.801-16.322-4.801l4.801,10.561l-0.96,11.521
		c0,0-2.65-10.594-4.801-13.441c-1.244-1.648-6.721-4.801-6.721-4.801v10.561l1.92,13.441l-1.92,13.441c0,0,0.019,6.682,0.96,8.641
		c1.029,2.142,6.153,4.413,6.721,6.721c0.961,3.907-4.767,11.338-4.801,15.362c-0.036,4.253,2.847,12.544,4.801,16.322
		c2.669,5.161,10.622,13.77,15.477,16.962c6.227,4.094,20.372,7.763,27.728,8.961c7.596,1.238,23.112,3.056,30.723,1.92
		c6.085-0.908,17.746-5.511,23.043-8.641c3.81-2.252,10.991-6.711,14.286-9.665c3.92-3.514,11.483-11.956,14.517-16.258
		c2.725-3.864,7.681-17.282,7.681-17.282l4.801,66.247l5.761,50.886l8.641,63.367c0,0,0.67,39.516,0.179,52.025
		c-0.373,9.503-0.754,26.118-3.06,35.345c-1.895,7.585-9.601,29.763-9.601,29.763s16.291,13.83,23.043,15.362
		c4.966,1.126,15.326-1.289,20.162-2.88c3.366-1.108,12.481-6.721,12.481-6.721s2.66-19.391,3.751-27.062
		c1.082-7.604,4.89-33.424,4.89-33.424l13.441-38.404l40.324,7.681l48.965,5.761l47.045,2.88l59.527-2.88l49.925-7.681
		l48.005-11.521l26.883-12.481c0,0,1.68,41.038,1.92,54.726c0.29,16.559,0,66.247,0,66.247s18.692,3.263,24.963,2.88
		c7.147-0.436,27.843-6.721,27.843-6.721s-0.365-46.089,0-61.447c0.36-15.135,2.88-60.487,2.88-60.487l11.521-2.88v39.364
		c0,0,0.653,28.085,0.96,37.444c0.197,6.002,0.653,18.005,0.96,24.003c0.197,3.843,0.84,11.516,0.96,15.362
		c0.052,1.679,0,6.721,0,6.721s14.471-0.109,19.202-0.96c4.707-0.846,13.963-3.624,18.242-5.761c1.847-0.922,6.721-4.8,6.721-4.8
		s-5.04-43.872-5.761-58.566c-0.529-10.788,0-43.205,0-43.205l2.88-36.484l5.069-36.484c0,0,29.625,18.365,39.095,20.162
		c5.193,0.985,15.849,1.321,21.122,0.96c7.561-0.518,21.481-0.921,28.88-2.56c8.696-1.927,27.513-7.793,35.447-11.841
		c6.981-3.562,18.375-14.708,24.003-20.162c4.394-4.259,12.883-13.18,16.322-18.242c3.016-4.439,8.07-14.058,9.601-19.202
		c1.792-6.021,3.757-18.742,2.88-24.963c-1.741-12.359-19.202-46.085-19.202-46.085s-25.278-51.468-34.564-68.167
		c-7.642-13.743-32.644-53.766-32.644-53.766s-16.761-31.087-24.963-39.364c-3.421-3.452-11.548-9.651-16.322-10.561
		c-8.416-1.605-33.604,6.721-33.604,6.721l-36.484,13.441l-28.803,14.402l-24.963,14.402l-8.641,5.761l-4.801,5.761L655.574,166.344
		z"/>
</g>
<g id="Capa_10">
	<path fill="none" stroke="#000000" stroke-width="4" stroke-miterlimit="10" d="M770.658,412.105h-0.742
		c26.729,2.227,52.716,2.97,78.703-5.197c24.502-8.167,59.398-29.699,63.853-57.171"/>
	<g>
		<path d="M769.173,404.68c0,0,0.196,0.227,0.458,0.632c0.27,0.405,0.607,0.987,0.923,1.694c0.647,1.413,1.165,3.331,1.352,5.28
			c0.188,1.949,0.045,3.929-0.326,5.439c-0.177,0.754-0.4,1.39-0.59,1.838c-0.182,0.448-0.332,0.708-0.332,0.708
			s-0.197-0.227-0.46-0.632c-0.271-0.404-0.61-0.987-0.926-1.694c-0.649-1.413-1.164-3.331-1.347-5.28
			c-0.184-1.949-0.037-3.93,0.331-5.44c0.176-0.754,0.398-1.39,0.586-1.838C769.024,404.94,769.173,404.68,769.173,404.68z"/>
	</g>
	<g>
		<path d="M906.327,345.394c0,0,0.3-0.009,0.779,0.044c0.484,0.046,1.149,0.152,1.897,0.353c1.505,0.39,3.319,1.198,4.949,2.282
			c1.631,1.084,3.077,2.444,4.014,3.685c0.474,0.613,0.826,1.187,1.054,1.617c0.233,0.423,0.339,0.704,0.339,0.704
			s-0.3,0.01-0.781-0.042c-0.485-0.045-1.15-0.15-1.899-0.35c-1.506-0.388-3.318-1.199-4.946-2.287
			c-1.628-1.087-3.072-2.451-4.011-3.69c-0.474-0.613-0.827-1.186-1.056-1.615C906.434,345.674,906.327,345.394,906.327,345.394z"/>
	</g>
	<g>
		<polygon points="232,605.5 82,603 232,600.5 		"/>
	</g>
	<line fill="none" stroke="#000000" stroke-width="5" stroke-miterlimit="10" x1="290" y1="602" x2="307" y2="602"/>
	<line fill="none" stroke="#000000" stroke-width="5" stroke-miterlimit="10" x1="364" y1="601" x2="634" y2="599"/>
	<line fill="none" stroke="#000000" stroke-width="5" stroke-miterlimit="10" x1="687" y1="597" x2="701" y2="597"/>
	<g>
		<polygon points="747,592.5 901,595 747,597.5 		"/>
	</g>
</g>
<g id="Capa_3">
	<path fill="none" stroke="#000000" stroke-width="4" stroke-miterlimit="10" d="M316.592,512.775c0,0,0.851,30.999,0,41.284
		c-0.602,7.275-3.461,21.627-4.801,28.803c-1.305,6.987-5.761,27.843-5.761,27.843s16.229,7.704,22.082,8.641
		c4.273,0.684,13.031-0.149,17.282-0.96c4.473-0.854,17.282-5.761,17.282-5.761s0.568-24.489,0.96-32.644
		c0.346-7.208,1.92-28.803,1.92-28.803l0.96-29.763"/>
</g>
<g id="Capa_4">
	<path fill="none" stroke="#000000" stroke-width="4" stroke-miterlimit="10" d="M409.812,161.889
		c11.521,14.402-17.372,24.451-25.052,31.171c-9.601,9.601-14.402,30.723-8.641,43.205c11.521,29.763,48.005,22.082,72.008,28.803
		c30.723,8.641,35.524,48.005,72.008,49.926c27.843,1.92,38.404-22.082,42.245-45.125c2.88-20.162-16.322-43.205-0.96-58.566
		c19.202-19.202,58.566-14.402,59.527-51.846"/>
	<path fill="none" stroke="#000000" stroke-width="4" stroke-miterlimit="10" d="M225.677,308.9
		c0.96-14.402,6.426-31.351,19.868-39.992c20.162-12.481,22.082,5.761,35.524,15.362c17.282,12.481,45.125,0,55.686,24.963
		c17.282,39.364-43.205,30.723-51.846,59.527c-4.801,13.441,5.761,36.484-2.88,47.045c-6.721,8.641-35.089,11.803-43.73,8.923"/>
	<path fill="none" stroke="#000000" stroke-width="4" stroke-miterlimit="10" d="M497.092,523.337
		c-9.601-44.165,32.644-43.205,58.566-60.487s29.763-48.965,58.566-66.247c8.641-5.761,19.202-10.561,26.883-0.96
		c8.641,10.561-1.92,19.202-3.84,27.843c-5.761,26.883,37.444,33.604,4.801,58.566c-3.84,3.84-7.374,8.628-10.254,12.469"/>
	<path fill="none" stroke="#000000" stroke-width="4" stroke-miterlimit="10" d="M304.111,526.217
		c-6.721-16.322-23.043-12.481-27.843-25.923c-4.801-14.402,10.561-27.843,21.122-33.604c8.641-4.801,18.242-5.761,24.963-11.521
		c10.561-9.601,11.521-23.043,16.322-35.524c22.082-52.806,106.572-24.963,68.167,23.043c-8.641,11.521-26.883,27.843-15.362,43.205
		c7.681,9.601,40.811,17.73,23.529,39.812"/>
	<path fill="none" stroke="#000000" stroke-width="4" stroke-miterlimit="10" d="M687.5,508.628
		c-8.641-17.282-44.472-10.254-44.472,8.948c0,14.402,29.763,42.846,42.245,37.086"/>
	<path fill="none" stroke="#000000" stroke-width="4" stroke-miterlimit="10" d="M740.959,507.885
		c-7.681-7.681-12.481-21.993-25.923-11.432c-13.441,9.601-3.84,22.082,0,32.644c3.84,13.441-2.958,23.055-0.96,35.524
		c1.848,11.533,19.292,19.253,29.853,11.573"/>
	<path fill="none" stroke="#000000" stroke-width="4" stroke-miterlimit="10" d="M296.43,551.18
		c-17.282-15.362-44.836-13.201-34.564,14.402c5.41,14.537,8.072,11.698,0.96,26.883c-3.642,7.777-12.993,17.41-8.193,26.051"/>
	<path fill="none" stroke="#000000" stroke-width="4" stroke-miterlimit="10" d="M362.677,557.9
		c-11.521,2.88-31.189,7.789-34.564,22.082c-2.515,10.654,8.159,11.534,7.681,20.162c-0.481,8.681-12.673,11.214-6.913,19.855"/>
</g>
<g id="Capa_5">
</g>
<g id="Capa_6">
	<path fill="none" stroke="#000000" stroke-width="4" stroke-miterlimit="10" d="M750.611,423.985
		c-5.197-7.425-13.493-27.382-13.493-27.382l-17.282-38.404l-17.282-43.205l-22.082-51.846c0,0-15.362-40.324-15.362-40.325
		c-0.943-11.251-0.635-23.678-3.206-34.538c-9.405,3.417-18.388-3.211-27.861-1.187c-6.991,1.493-14.873,5.716-21.537,8.93
		c-8.66,4.177-16.285,10.535-22.866,17.478c-5.48,5.782-9.468,13.214-14.582,19.206c17.243,2.053,35.008,9.662,52.353,13.037
		c6.411,1.248,15.16,4.309,22.225,1.725c7.392-2.709,12.942-9.96,17.816-15.791"/>
	<path fill="none" stroke="#000000" stroke-width="4" stroke-miterlimit="10" d="M746.72,141.215c0,0-5.314-17.848-5.761-24.003
		c-0.384-5.288,1.008-15.899,1.92-21.122c0.982-5.62,0.538-19.785,5.761-22.082c4.226-1.859,12.754,5.71,16.322,8.641
		c3.824,3.141,13.441,11.043,16.834,14.645c2.679,2.844,4.762,8.2,7.169,11.278c3.401,4.349,10.561,19.394,10.561,19.394"/>
	<path fill="none" stroke="#000000" stroke-width="4" stroke-miterlimit="10" d="M711.196,158.497c0,0-12.051-14.571-16.322-19.202
		c-3.912-4.242-11.476-13.189-16.322-16.322c-6.252-4.042-21.587-14.597-27.843-10.561c-3.233,2.086-1.101,11.516-0.96,15.362
		c0.195,5.326,2.082,15.853,2.88,21.122c0.656,4.331,2.88,17.282,2.88,17.282"/>
	<path fill="none" stroke="#000000" stroke-width="4" stroke-miterlimit="10" d="M760.263,135.902
		c0-6.851-7.241-27.934-1.498-33.299c5.347-4.995,13.594,9.181,16.944,13.435c3.069,3.897,8.109,11.103,9.415,15.576"/>
	<path fill="none" stroke="#000000" stroke-width="4" stroke-miterlimit="10" d="M675.672,176.931l-6.721-17.474
		c0,0-4.195-13.565-4.8-18.242c-0.216-1.666-1.488-5.941,0-6.721c3.362-1.761,19.259,13.357,21.122,15.362
		c1.178,1.268,3.84,5.761,3.84,5.761l4.801,7.681"/>
	<path fill="none" stroke="#000000" stroke-width="4" stroke-miterlimit="10" d="M726.095,370.73c0.015,6.479,1.798,3.337,1.5,2.024
		c11.554-14.057,17.893-19.157,25.987-25.244c9.844-7.404,20.768-12.436,31.927-17.82c11.934-5.758,21.389-9.121,33.412-14.85
		c11.054-5.267,24.548-9.647,36.367-12.958c9.573-2.682,19.323-5.203,29.245-6.148c7.907-0.753,15.394,1.765,22.946,1.221"/>
	<path fill="none" stroke="#000000" stroke-width="4" stroke-miterlimit="10" d="M711.196,333.236c0,0,16.531,4.601,22.082,3.84
		c5.531-0.758,15.651-6.312,20.162-9.601c4.528-3.302,13.296-11.113,15.362-16.322c1.593-4.016,1.041-13.089,0-17.282
		c-1.113-4.481-7.013-12.001-8.641-16.322c-1.827-4.849-5.218-14.998-4.8-20.162c0.391-4.844,4.384-13.98,6.721-18.242
		s8.929-11.744,10.561-16.322c1.46-4.095,2.078-12.938,1.92-17.282c-0.239-6.587-2.624-19.702-4.801-25.923
		c-1.347-3.852-6.012-10.678-7.681-14.402c-1.988-4.435-6.721-18.242-6.721-18.242l-2.88-6.721"/>
	<path fill="none" stroke="#000000" stroke-width="4" stroke-miterlimit="10" d="M812.967,134.494c0,0,11.755-12.059,15.605-14.926
		c3.898-2.903,14.158-7.156,14.158-7.156l21.122-5.761c0,0-3.445,10.141-4.801,13.441c-1.51,3.675-6.785,11.615-9.691,14.325
		c-2.445,2.28-6.276,4.036-9.511,4.877c-4.928,1.282-20.162,2.88-20.162,2.88"/>
	<path fill="none" stroke="#000000" stroke-width="4" stroke-miterlimit="10" d="M662.256,204.953c0,0-16.6-1.247-22.108,0.589
		c-3.672,1.224-13.169,3.382-16.501,5.351c-4.359,2.576-14.222,12.891-14.222,12.891s15.52,7.256,21.122,7.681
		c4.882,0.37,14.459-2.629,19.202-3.84c3.898-0.996,13.249-8.564,13.249-8.564"/>
	
		<ellipse transform="matrix(-0.617 0.787 -0.787 -0.617 1489.2936 -292.5984)" stroke="#000000" stroke-width="4" stroke-miterlimit="10" cx="815.847" cy="216.103" rx="15.842" ry="19.682"/>
	
		<ellipse transform="matrix(0.9962 0.0874 -0.0874 0.9962 24.7832 -62.6817)" stroke="#000000" stroke-width="4" stroke-miterlimit="10" cx="728.17" cy="251.665" rx="15.842" ry="19.682"/>
	<circle fill="#FFFFFF" cx="817.767" cy="209.382" r="8.641"/>
	<circle fill="#FFFFFF" cx="732.318" cy="243.946" r="8.641"/>
</g>
<g id="Capa_9">
	<g>
		<path d="M846.57,338.996c0,0,0.115-0.876,0.435-2.379c0.323-1.503,0.82-3.641,1.665-6.15c0.423-1.258,0.893-2.618,1.566-4.039
			c0.329-0.715,0.728-1.442,1.217-2.203l0.449-0.59c0.091-0.109,0.12-0.173,0.268-0.316l0.206-0.216
			c0.288-0.291,0.528-0.574,0.862-0.879c0.328-0.302,0.658-0.607,0.99-0.914c0.331-0.277,0.665-0.555,1.001-0.835
			c0.67-0.561,1.374-1.084,2.095-1.604c1.447-1.037,2.972-1.99,4.723-2.827l0.679-0.296l0.17-0.073l0.043-0.018l0.111-0.04
			l0.077-0.025l0.309-0.101c0.405-0.135,0.815-0.27,1.303-0.391c0.953-0.275,1.821-0.422,2.701-0.601
			c1.759-0.308,3.516-0.489,5.278-0.507c0.458,0.024,0.912,0.048,1.362,0.072c0.442,0.016,0.984,0.157,1.453,0.25l0.181,0.04
			l0.045,0.01l0.022,0.005l0.111,0.033l0.068,0.027l0.27,0.109c0.226,0.102,0.548,0.251,0.744,0.37
			c0.407,0.241,0.77,0.491,1.099,0.76c1.318,1.058,2.3,2.221,3.066,3.475c0.372,0.633,0.712,1.276,0.862,2.063
			c0.19,0.884-0.177,1.681-0.422,2.16c-0.537,1.039-1.156,1.747-1.649,2.352c-1.01,1.18-1.678,1.757-1.678,1.757
			s0.394-0.795,1.004-2.179c0.293-0.687,0.657-1.551,0.895-2.479c0.113-0.49,0.151-0.835-0.015-1.109
			c-0.169-0.356-0.475-0.802-0.858-1.221c-0.767-0.843-1.812-1.688-2.925-2.348c-0.279-0.162-0.56-0.307-0.829-0.423
			c-0.142-0.06-0.175-0.059-0.303-0.109l-0.281-0.075l-0.071-0.019c-0.088-0.026,0.1,0.03,0.076,0.025l-0.014,0l-0.027-0.001
			l-0.109-0.004c-0.306,0.003-0.538-0.062-0.895-0.042c-0.348,0.015-0.699,0.031-1.053,0.046c-1.483,0.15-3.057,0.432-4.648,0.767
			c-0.785,0.19-1.603,0.387-2.309,0.591c-0.351,0.084-0.761,0.224-1.175,0.368l-0.307,0.105l-0.077,0.026l-0.019,0.007
			c-0.022,0.008,0.123-0.044,0.054-0.019l-0.032,0.015l-0.127,0.058l-0.508,0.23c-1.383,0.638-2.823,1.504-4.193,2.386
			c-1.343,0.891-2.74,1.851-3.857,2.738c-0.292,0.213-0.608,0.515-0.907,0.764l-0.226,0.195c-0.003-0.013-0.085,0.09-0.127,0.127
			l-0.311,0.311c-0.425,0.508-0.828,1.084-1.219,1.673c-0.771,1.185-1.468,2.391-2.098,3.508c-1.248,2.277-2.288,4.175-3.016,5.504
			C847.014,338.232,846.57,338.996,846.57,338.996z"/>
	</g>
	<g>
		<path d="M859.376,333.794c0,0-0.108-1.6,0.479-3.857c0.169-0.567,0.35-1.176,0.685-1.849c0.106-0.315,0.462-0.741,0.734-1.117
			c0.261-0.258,0.528-0.522,0.8-0.79c0.219-0.24,0.599-0.495,0.909-0.739c0.326-0.249,0.666-0.51,1.003-0.699
			c0.34-0.204,0.677-0.423,1.03-0.616l1.223-0.542c0.815-0.296,1.694-0.449,2.458-0.545c0.78-0.1,1.56-0.127,2.358-0.092
			c0.767,0.038,1.888,0.195,2.686,0.812c0.709,0.529,1.131,1.046,1.527,1.652c0.183,0.305,0.357,0.612,0.473,1.047
			c0.027,0.116,0.049,0.23,0.065,0.339l0.006,0.041l0.003,0.02l0.016,0.218l-0.016,0.045l-0.031,0.088l-0.073,0.203
			c-0.04,0.105-0.088,0.207-0.137,0.302c-0.049,0.093-0.103,0.188-0.154,0.262l-0.131,0.141c-0.085,0.09-0.167,0.179-0.253,0.249
			c-0.172,0.137-0.32,0.267-0.465,0.365c-0.569,0.406-0.942,0.56-0.942,0.56s0.107-0.372,0.294-1.023
			c0.05-0.155,0.083-0.331,0.127-0.513c0.014-0.088,0.029-0.179,0.044-0.274l0.023-0.137c-0.009-0.026-0.025-0.034-0.033-0.044
			c-0.009-0.009-0.014-0.014-0.014-0.014c0.006,0.013-0.017-0.097-0.025-0.141l-0.017-0.09l-0.008-0.045
			c-0.003-0.046,0.027,0.376,0.013,0.197l-0.003-0.001l-0.005-0.001l-0.01-0.002l-0.064-0.007c-0.08-0.02-0.225-0.145-0.412-0.241
			c-0.342-0.201-0.845-0.451-1.226-0.546c-0.282-0.073-0.539,0.001-1.131,0.082c-0.571,0.099-1.198,0.236-1.838,0.373
			c-0.647,0.168-1.219,0.266-1.771,0.489l-0.789,0.32c-0.285,0.158-0.583,0.288-0.873,0.432c-0.596,0.299-1.045,0.522-1.638,0.845
			l-0.438,0.267l-0.217,0.131l-0.11,0.062l-0.055,0.031l-0.027,0.015c0.143-0.122,0.038-0.032,0.069-0.059l-0.003,0.003
			l-0.006,0.005c-0.139,0.137-0.276,0.146-0.477,0.384c-0.378,0.362-0.748,0.807-1.103,1.202c-0.692,0.825-1.322,1.534-1.78,2.027
			C859.671,333.516,859.376,333.794,859.376,333.794z"/>
	</g>
	<g>
		<path d="M798.241,363.49c0,0-0.807-0.359-2.187-1.016c-1.368-0.65-3.323-1.579-5.669-2.693c-1.165-0.536-2.437-1.105-3.756-1.613
			c-0.662-0.248-1.326-0.479-1.968-0.642l-0.434-0.07c-0.055-0.006-0.182-0.041-0.177-0.029l-0.298-0.026
			c-0.388-0.027-0.821-0.086-1.183-0.088c-1.425-0.064-3.12-0.024-4.73,0.041c-1.627,0.088-3.301,0.229-4.796,0.523l-0.547,0.111
			l-0.137,0.027l-0.034,0.007c-0.071,0.02,0.077-0.023,0.055-0.017l-0.019,0.006l-0.078,0.024l-0.31,0.095
			c-0.42,0.125-0.835,0.253-1.168,0.39c-0.692,0.248-1.47,0.568-2.217,0.874c-1.485,0.66-2.926,1.354-4.216,2.101
			c-0.296,0.195-0.59,0.388-0.88,0.579c-0.301,0.193-0.451,0.382-0.701,0.558l-0.086,0.067l-0.022,0.017l-0.011,0.008
			c-0.016,0.019,0.104-0.138,0.047-0.065l-0.046,0.057l-0.184,0.226c-0.074,0.116-0.102,0.135-0.182,0.266
			c-0.15,0.252-0.292,0.533-0.424,0.828c-0.516,1.187-0.867,2.485-0.995,3.617c-0.065,0.564-0.052,1.105,0.02,1.492
			c0.026,0.319,0.258,0.576,0.637,0.907c0.737,0.612,1.538,1.099,2.178,1.485c1.305,0.764,2.09,1.178,2.09,1.178
			s-0.88-0.076-2.39-0.441c-0.754-0.201-1.671-0.412-2.715-0.94c-0.479-0.244-1.244-0.675-1.607-1.503
			c-0.34-0.726-0.44-1.446-0.511-2.177c-0.114-1.465,0.001-2.983,0.448-4.612c0.109-0.41,0.257-0.826,0.445-1.259
			c0.089-0.211,0.262-0.521,0.386-0.736l0.155-0.247l0.039-0.062l0.071-0.092l0.015-0.017l0.031-0.034l0.123-0.138
			c0.326-0.35,0.683-0.783,1.031-1.054c0.351-0.283,0.705-0.568,1.062-0.856c1.439-1.018,2.969-1.9,4.575-2.681
			c0.818-0.37,1.607-0.76,2.541-1.095c0.467-0.188,0.878-0.319,1.285-0.447l0.309-0.099l0.077-0.025l0.113-0.033l0.045-0.01
			l0.181-0.04l0.724-0.158c1.909-0.348,3.703-0.469,5.484-0.476c0.889-0.002,1.766,0.009,2.638,0.072
			c0.436,0.03,0.87,0.06,1.301,0.09c0.449,0.054,0.896,0.107,1.338,0.16c0.449,0.052,0.81,0.14,1.214,0.208l0.294,0.054
			c0.204,0.029,0.265,0.064,0.403,0.099l0.709,0.215c0.842,0.331,1.592,0.686,2.277,1.073c1.378,0.757,2.556,1.584,3.636,2.355
			c2.156,1.538,3.811,2.98,4.953,4.008C797.634,362.847,798.241,363.49,798.241,363.49z"/>
	</g>
	<g>
		<path d="M784.816,366.777c0,0-0.403-0.052-1.06-0.186c-0.66-0.131-1.586-0.336-2.63-0.6c-0.52-0.112-1.08-0.257-1.598-0.328
			c-0.302-0.075-0.419-0.002-0.612-0.031l-0.008-0.001l-0.004,0c0.041,0.003-0.097-0.007,0.09,0.007l-0.031,0.003l-0.062,0.007
			l-0.125,0.014l-0.252,0.021l-0.512,0.04c-0.67,0.085-1.165,0.168-1.823,0.275c-0.319,0.054-0.637,0.122-0.96,0.162l-0.827,0.203
			c-0.577,0.143-1.099,0.399-1.722,0.642c-0.598,0.264-1.188,0.52-1.708,0.774c-0.527,0.282-0.779,0.372-0.965,0.597
			c-0.254,0.3-0.514,0.797-0.674,1.161c-0.095,0.187-0.14,0.373-0.193,0.436l-0.048,0.043l-0.007,0.007l-0.004,0.004l-0.002,0.002
			c0.093,0.153-0.129-0.207-0.105-0.167l0.02,0.042l0.039,0.083c0.02,0.04,0.065,0.142,0.063,0.129c0,0-0.001,0.008-0.003,0.02
			c-0.001,0.013-0.009,0.029-0.001,0.055l0.099,0.098c0.068,0.068,0.133,0.133,0.196,0.196c0.143,0.122,0.272,0.245,0.404,0.341
			c0.533,0.418,0.838,0.657,0.838,0.657s-0.392,0.093-1.091,0.098c-0.175,0.005-0.371-0.013-0.59-0.024
			c-0.11-0.007-0.229-0.031-0.351-0.054l-0.189-0.037c-0.084-0.03-0.183-0.075-0.278-0.122c-0.096-0.048-0.194-0.103-0.288-0.165
			l-0.178-0.122l-0.077-0.053l-0.039-0.027l-0.115-0.186l-0.01-0.018l-0.019-0.037c-0.051-0.098-0.1-0.203-0.146-0.313
			c-0.161-0.421-0.2-0.771-0.23-1.126c-0.034-0.723,0.005-1.39,0.269-2.234c0.286-0.968,1.102-1.752,1.701-2.232
			c0.627-0.496,1.275-0.931,1.965-1.307c0.675-0.37,1.477-0.761,2.311-0.999l1.309-0.277c0.399-0.05,0.801-0.07,1.195-0.104
			c0.384-0.045,0.812-0.032,1.222-0.022c0.394,0.016,0.852,0,1.169,0.066c0.377,0.058,0.748,0.115,1.111,0.171
			c0.441,0.145,0.979,0.281,1.249,0.475c0.666,0.35,1.17,0.736,1.639,1.097C783.966,365.417,784.816,366.777,784.816,366.777z"/>
	</g>
</g>
<g id="Capa_8">
</g>
<g id="Capa_7">
	<path fill="none" stroke="#000000" stroke-width="4" stroke-miterlimit="10" d="M803.366,129.693c0,0,5.169-18.649,9.601-23.043
		c5.888-5.836,22.713-10.344,30.723-12.481c5.149-1.374,15.876-1.941,21.122-2.88c4.357-0.78,12.944-2.964,17.282-3.84
		c2.63-0.531,10.561-1.92,10.561-1.92s-6.367,16.608-8.641,22.082c-2.515,6.054-7.283,18.325-10.561,24.003
		c-2.232,3.867-7.212,11.449-10.561,14.402c-3.707,3.269-12.465,8.495-17.282,9.601c-4.217,0.969-19.266,0.333-19.266,0.333"/>
</g>
</svg>
