<?xml version="1.0" encoding="utf-8"?>
<!-- Generator: Adobe Illustrator 17.0.0, SVG Export Plug-In . SVG Version: 6.00 Build 0)  -->
<!DOCTYPE svg PUBLIC "-//W3C//DTD SVG 1.1//EN" "http://www.w3.org/Graphics/SVG/1.1/DTD/svg11.dtd">
<svg version="1.1" xmlns="http://www.w3.org/2000/svg" xmlns:xlink="http://www.w3.org/1999/xlink" x="0px" y="0px" width="1024px"
	 height="768px" viewBox="0 0 1024 768" enable-background="new 0 0 1024 768" xml:space="preserve">
<g id="Capa_2">
	<path fill="none" stroke="#000000" stroke-width="4" stroke-miterlimit="10" d="M338.403,506.838
		c12.321-7.333,31.797-28.971,42.241-38.793c11.77-11.068,33.458-35.363,46.552-44.828c10.86-7.85,34.497-21.434,47.414-25
		c11.65-3.216,36.195-2.962,48.276-2.586c9.325,0.29,27.849,2.884,37.069,4.31c6.725,1.04,19.95,4.523,26.724,5.172
		c5.363,0.514,16.308,1.238,21.552,0c5.628-1.329,17.463-5.546,20.69-10.345c4.704-6.996,3.843-25.285,2.586-33.621
		c-2.624-17.413-25.862-65.517-25.862-65.517l-26.724-69.828c0,0-16.246-58.393-17.241-78.448
		c-0.732-14.738-0.362-45.773,6.897-58.621c5.365-9.496,24.702-21.899,34.483-26.724c7.595-3.747,16.864-5.961,25.222-7.326
		c1.508-0.246,3.631-5.124,7.499-6.562c4.818-1.79,8.773-2.07,11.623-2.25c4.565-0.287,11.229,5.705,14.277,5.793
		c3.921,0.113,6.394-6.368,9.19-8.39c3.762-2.72,7.786-3.933,12.127-3.977c1.804-0.018,5.038,1.033,6.749,1.687
		c4.766,1.823,9.078,7.583,10.9,12.386c2.904,7.655,8.827,13.556,13.62,16.397c7.048,4.177,19.866,14.484,26.724,18.966
		c8.416,5.499,20.062,10.725,28.109,16.753c0.796,0.596,5.193,0.722,8.249,1.687c3.343,1.056,5.376,2.968,6.562,3.937
		c1.387,1.134,1.689,5.299,3.135,6.551c4.847,4.197,8.422,8.935,10.843,12.451c3.949,5.736,4.764,14.363,4.207,21.304
		c-0.401,5.011-3.825,9.957-7.874,12.936c-1.87,1.376-6.002,5.912-7.499,7.686c-1.99,2.359,0.797,12.446-0.937,14.998
		c-1.747,2.571-6.525,7.538-9.449,8.593c-3.873,1.398-12.127,3.875-16.235,4.155c-6.884,0.469-21.597,0.83-28.496,0.937
		c-8.189,0.128-23.879-1.4-31.993-2.506c-7.979-1.088-31.034-8.621-31.034-8.621L648.333,181L635,172.333
		c0,0-1.112,27.28-0.667,32.667c0.806,9.741,5.326,25.312,8.38,34.597c3.714,11.292,18.103,43.966,18.103,43.966
		s17.87,32.765,23.276,43.966c6.544,13.559,19.002,41.02,24.138,55.172c5.514,15.194,16.166,46.022,18.103,62.069
		c1.784,14.777,0.117,44.845-2.586,59.483c-1.733,9.383-7.877,27.636-12.069,36.207c-3.073,6.282-15.517,23.276-15.517,23.276
		l-10.345,10.345c0,0,4.276,20.749,6.034,27.586c1.512,5.878,6.156,17.252,6.897,23.276c0.606,4.924-0.655,15.104,0.862,19.828
		c1.809,5.635,14.091,14.024,12.931,19.828c-1.125,5.627-13.667,10.727-18.966,12.931c-5.268,2.192-16.733,3.769-22.414,4.31
		c-5.364,0.511-16.613,2.154-21.552,0c-3.774-1.646-9.229-8.458-11.207-12.069c-2.887-5.273-5.046-17.346-6.034-23.276
		c-0.462-2.772-0.037-8.521-0.862-11.207c-1.02-3.322-6.897-12.069-6.897-12.069s-32.623,11.779-43.966,13.793
		c-8.922,1.585-27.145,1.638-36.207,1.724c-7.546,0.072-22.652-0.238-30.172-0.862c-6.288-0.522-25-3.448-25-3.448
		s-7.321,12.596-10.345,16.379c-2.664,3.333-10.54,8.085-12.069,12.069c-1.469,3.828,2.75,12.739,0.862,16.379
		c-2.23,4.299-13.324,6.112-18.103,6.897c-5.533,0.909-16.867-0.036-22.414-0.862c-4.188-0.624-12.623-2.356-16.379-4.31
		c-3.256-1.694-11.207-9.483-11.207-9.483s1.517-9.174,2.586-12.069c2.038-5.518,11.207-20.69,11.207-20.69l5.172-12.069
		L418.333,619c0,0-21.307-0.943-29.93-0.955c-9.701-0.013-29.13,1.711-38.793,0.862c-9.852-0.865-29.287-5.028-38.793-7.759
		c-9.636-2.768-28.523-10.802-36.207-17.241c-9.947-8.335-25.423-30.164-30.172-42.241c-6.125-15.573-9.1-49.652-8.621-66.379
		c0.333-11.619,5.313-34.546,8.621-45.69c3.382-11.395,13.179-33.147,18.103-43.966c3.194-7.018,10.214-20.757,13.793-27.586
		c5.103-9.735,15.868-28.916,20.69-38.793c3.724-7.63,10.565-23.182,13.793-31.034c3.241-7.886,9.648-23.722,12.069-31.897
		c2.881-9.728,9.373-29.538,8.621-39.655c-0.496-6.666-4.967-20.072-9.483-25c-4.689-5.117-18.325-10.169-25-12.069
		c-7.92-2.255-21.117-4.274-29.31-3.448c-8.545,0.862-28.129,7.429-36.207,10.345c-5.91,2.133-17.004,9.104-23.276,9.483
		c-2.453,0.148-7.011-0.73-8.621-2.586c-1.138-1.313,12.011-9.904,15.39-11.723c4.201-2.261,11.917-6.802,16.507-8.104
		c7.242-2.054,18.409-6.7,25.862-7.759c8.333-1.184,25.244-4.262,33.621-3.448c7.075,0.688,20.97,4.296,27.586,6.897
		c6.643,2.612,17.093,9.081,21.552,14.655c4.345,5.433,10.294,18.965,11.207,25.862c1.472,11.112-1.562,34.888-3.668,45.897
		c-2.076,10.852-8.684,30.022-12.712,40.31c-4.158,10.621-17.241,42.241-17.241,42.241L303.92,382.7c0,0-6.079,22.567-7.759,30.172
		c-1.276,5.779-3.987,17.367-4.31,23.276c-0.318,5.826-2.353,20.923-1.724,26.724c0.821,7.575,1.721,21.282,4.31,28.448
		c1.118,3.094,4.816,9.521,6.897,12.069c2.989,3.661,12.618,9.363,17.241,10.345C323.709,514.825,333.893,509.522,338.403,506.838z"
		/>
	<path fill="none" stroke="#000000" stroke-width="4" stroke-miterlimit="10" d="M790.095,168.479c0,0-14.623,8.624-19.872,11.061
		c-5.57,2.586-14.106,3.411-20.247,3.375c-5.393-0.032-12.638-0.332-17.997-0.937c-5.17-0.584-21.205-1.983-26.312-2.977
		c-5.514-1.073-20.427-6.278-25.806-7.897c-5.143-1.548-15.241-5.314-20.06-7.686c-4.19-2.063-12.314-6.799-15.935-9.749
		c-3.136-2.555-11.061-11.811-11.061-11.811"/>
	<g>
		<path d="M627.743,151.044c0,0-0.32-1.523-0.133-3.722c0.094-1.102,0.292-2.368,0.737-3.736c0.223-0.686,0.499-1.394,0.992-2.173
			c0.247-0.374,0.556-0.837,1.139-1.264c0.154-0.106,0.257-0.194,0.453-0.316c0.233-0.135,0.472-0.265,0.713-0.388
			c0.879-0.395,1.571-0.603,2.325-0.776c0.73-0.173,1.446-0.274,2.133-0.347c1.375-0.141,2.65-0.118,3.744-0.019
			c2.187,0.187,3.644,0.742,3.644,0.742s-0.335,0.204-0.918,0.49c-0.582,0.294-1.413,0.675-2.403,1.064
			c-0.989,0.392-2.14,0.794-3.339,1.196c-0.586,0.197-1.191,0.401-1.805,0.608c-0.573,0.206-1.218,0.433-1.612,0.628
			c-0.072,0.033-0.147,0.06-0.227,0.082c-0.107,0.053-0.28,0.182-0.417,0.27c0.02-0.017-0.122,0.068-0.263,0.26
			c-0.289,0.358-0.626,0.871-0.931,1.387c-0.647,1.096-1.251,2.119-1.769,2.996c-0.548,0.904-1.055,1.662-1.438,2.189
			C627.996,150.744,627.743,151.044,627.743,151.044z"/>
	</g>
	<g>
		<path d="M630.062,55.827c0,0-0.573,0.812-1.434,2.03c-0.849,1.224-1.987,2.865-3.032,4.523c-0.273,0.419-0.502,0.822-0.729,1.225
			l-0.086,0.151c-0.007-0.01-0.046,0.094-0.067,0.135l-0.151,0.332c-0.101,0.221-0.164,0.411-0.249,0.617
			c-0.308,0.84-0.56,1.684-0.745,2.402c-0.389,1.442-0.513,2.439-0.513,2.439s-0.14-0.999-0.137-2.52
			c-0.006-0.764,0.015-1.642,0.103-2.625c0.03-0.246,0.054-0.523,0.094-0.761l0.06-0.361c0.016-0.075,0.008-0.089,0.043-0.213
			l0.052-0.188c0.138-0.507,0.287-1.025,0.452-1.499c0.645-1.947,1.363-3.829,1.904-5.246c0.552-1.412,0.921-2.354,0.921-2.354
			L630.062,55.827z"/>
	</g>
	<g>
		<path d="M662.775,50.893c0,0,0.384,0.614,0.96,1.535c0.559,0.931,1.297,2.154,1.951,3.505c0.161,0.353,0.319,0.68,0.457,1.111
			c0.108,0.376,0.16,0.657,0.252,0.993c0.165,0.644,0.316,1.258,0.415,1.79c0.101,0.532,0.152,0.984,0.152,1.301
			c0.001,0.318-0.036,0.49-0.036,0.49s-0.029-0.177-0.139-0.457c-0.11-0.281-0.309-0.663-0.583-1.102
			c-0.272-0.44-0.619-0.935-1.002-1.471c-0.19-0.269-0.387-0.547-0.586-0.829c-0.151-0.189-0.392-0.436-0.615-0.659
			c-0.945-0.92-2.026-1.8-2.824-2.447c-0.809-0.634-1.349-1.056-1.349-1.056L662.775,50.893z"/>
	</g>
	
		<ellipse transform="matrix(-0.7349 0.6782 -0.6782 -0.7349 1354.4086 -240.8978)" stroke="#000000" stroke-width="2" stroke-miterlimit="10" cx="724.292" cy="144.294" rx="6.655" ry="8.717"/>
	
		<ellipse transform="matrix(-0.9991 0.0426 -0.0426 -0.9991 1553.6388 214.2046)" stroke="#000000" stroke-width="2" stroke-miterlimit="10" cx="774.535" cy="123.672" rx="6.087" ry="8.04"/>
	<path fill="none" stroke="#000000" stroke-width="4" stroke-miterlimit="10" d="M361.667,488.333c0,0-2.104,11.663,0,14.667
		c2.238,3.196,10.766,5.262,14.667,5.333c5.428,0.1,16.064-3.788,20.667-6.667c4.897-3.063,14.166-11.19,16-16.667
		c1.377-4.112,1.815-13.777-0.667-17.333c-1.754-2.513-8.358-3.936-11.333-4.667c-3.576-0.877-14.667-1.333-14.667-1.333"/>
	<path fill="none" stroke="#000000" stroke-width="4" stroke-miterlimit="10" d="M412.333,437c0,0,1.012,10.357,3.333,12.667
		c3.782,3.764,15.343,4.969,20.667,5.333c5.447,0.373,16.607-1.934,21.333-4.667c4.29-2.48,11.546-10.045,13.333-14.667
		c1.142-2.954,1.048-9.678,0-12.667c-1.06-3.021-5.483-8.021-8-10c-2.169-1.705-10-4.667-10-4.667"/>
	<path fill="none" stroke="#000000" stroke-width="4" stroke-miterlimit="10" d="M489,396.333c0,0-9.724,11.815-10,16.667
		c-0.229,4.021,3.657,11.99,6.667,14.667c3.269,2.907,12.334,4.731,16.667,5.333c4.506,0.627,14.018-0.467,18-2.667
		c2.69-1.486,6.732-6.534,8-9.333c1.459-3.221,2-10.464,2-14c0-2.357-1.333-9.333-1.333-9.333"/>
	<path fill="none" stroke="#000000" stroke-width="4" stroke-miterlimit="10" d="M554.333,399c0,0-7.44,6.333-9.333,8.667
		c-2.262,2.788-5.566,9.751-5.333,13.333c0.31,4.765,5.378,13.99,9.333,16.667c3.201,2.167,11.526,2.667,15.333,2
		c4.517-0.792,13.496-3.49,17.333-6c2.468-1.614,7.318-5.798,8-8.667c0.562-2.361-2.294-6.935-2.667-9.333
		c-0.406-2.608-0.321-10.552-0.321-10.552"/>
	<path fill="none" stroke="#000000" stroke-width="4" stroke-miterlimit="10" d="M603.667,404.333
		c0,4.836-3.391,15.338-0.667,19.333c1.693,2.482,8.329,3.991,11.333,4c4.586,0.014,14.159-2.69,17.333-6
		c2.409-2.512,4.899-9.971,4-13.333c-1.066-3.986-10.451-10.569-10.451-10.569"/>
	<path fill="none" stroke="#000000" stroke-width="4" stroke-miterlimit="10" d="M429.85,466.793
		c-2.716,2.552-4.268,11.301-2.667,14.667c1.634,3.435,9.536,7.101,13.333,7.333c0.309,0.019,0.429-0.172,1.15-0.46
		c3.77-1.508,12.955-2.906,15.517-6.207c2.37-3.054,4.155-12.124,2-15.333c-1.83-2.725-8.723-5.137-12-5.333
		C442.658,461.189,433.155,463.689,429.85,466.793z"/>
	<path fill="none" stroke="#000000" stroke-width="4" stroke-miterlimit="10" d="M483,438.333c-5.545,1.812-15.308,12.982-14,18.667
		c0.937,4.07,10.49,8.032,14.667,8c4.403-0.033,13.21-4.809,15.333-8.667c1.609-2.924,1.387-10.702-0.667-13.333
		C495.868,439.841,486.809,437.088,483,438.333z"/>
	<path fill="none" stroke="#000000" stroke-width="4" stroke-miterlimit="10" d="M518.333,442.333
		c-2.433,2.191-4.957,9.823-3.333,12.667c2.256,3.951,13.608,3.853,18,2.667c3.091-0.835,9.475-4.842,10-8
		c0.356-2.144-2.762-6.288-4.667-7.333C533.95,439.927,522.049,438.987,518.333,442.333z"/>
</g>
<g id="Capa_8">
	<path fill="none" stroke="#000000" stroke-width="3" stroke-miterlimit="10" d="M620,157c-11,27,3,70,10,100c10,43,28,83,43,124
		c39,110-103,169-189,156c-23-4-47-6-70-7c-25-1-40,14-64,20c-50,14-91-36-86-84c3-30,10-57,22-84c7-16,27-53,18-69"/>
</g>
<g id="Capa_3">
	
		<ellipse transform="matrix(0.8573 0.5148 -0.5148 0.8573 132.6141 -320.7624)" stroke="#000000" stroke-miterlimit="10" cx="644.991" cy="78.866" rx="15.841" ry="20.903"/>
	<ellipse fill="#FFFFFF" stroke="#000000" stroke-miterlimit="10" cx="649.865" cy="87.115" rx="6.28" ry="6.093"/>
	
		<ellipse transform="matrix(0.8837 -0.468 0.468 0.8837 47.8106 330.2946)" stroke="#000000" stroke-miterlimit="10" cx="688.58" cy="68.935" rx="13.405" ry="17.997"/>
	
		<ellipse transform="matrix(0.9536 -0.3011 0.3011 0.9536 9.1686 213.09)" fill="#FFFFFF" stroke="#000000" stroke-miterlimit="10" cx="695.796" cy="76.804" rx="5.074" ry="6.093"/>
</g>
<g id="Capa_4">
	<g>
		<path d="M705.84,132.733c0,0,0.092-0.615,0.382-1.65c0.146-0.517,0.326-1.147,0.596-1.847c0.26-0.708,0.575-1.499,1.04-2.352
			c0.238-0.427,0.507-0.867,0.896-1.343c0.221-0.244,0.406-0.469,0.859-0.756l0.325-0.209l0.466-0.242
			c1.097-0.517,2.154-0.868,3.298-1.186c1.138-0.303,2.313-0.567,3.574-0.724c0.644-0.071,1.265-0.155,2.095-0.111l0.158,0.009
			l0.079,0.005l0.15,0.02l0.22,0.032l0.441,0.064c0.27,0.031,0.635,0.108,0.991,0.199c0.738,0.168,1.32,0.387,1.95,0.596
			c0.598,0.246,1.195,0.49,1.756,0.772c1.132,0.556,2.183,1.187,3.148,1.877l0.361,0.256l0.125,0.086l0.04,0.034l0.079,0.067
			l0.158,0.134c0.195,0.157,0.503,0.463,0.736,0.688c0.42,0.439,0.766,0.872,1.101,1.293c0.657,0.845,1.223,1.659,1.718,2.428
			c0.502,0.762,0.911,1.494,1.286,2.13c0.379,0.633,0.659,1.222,0.909,1.689c0.481,0.951,0.715,1.521,0.715,1.521
			s-0.485-0.38-1.293-1.066c-0.395-0.351-0.9-0.754-1.437-1.247c-0.544-0.483-1.158-1.027-1.828-1.621
			c-0.659-0.579-1.373-1.207-2.129-1.87c-0.371-0.321-0.77-0.63-1.141-0.918c-0.185-0.114-0.26-0.197-0.52-0.348l-0.177-0.106
			l-0.089-0.053l-0.045-0.027c-0.077-0.05,0.092,0.061,0.07,0.048L726.892,129l-0.022-0.01l-0.356-0.17
			c-0.947-0.463-1.944-0.905-2.957-1.295c-0.987-0.398-2.088-0.766-2.993-0.976c-0.222-0.053-0.434-0.126-0.756-0.168l-0.44-0.074
			l-0.22-0.037l-0.027-0.005l-0.014-0.002c-0.088-0.012,0.104,0.013,0.081,0.011l-0.032-0.002l-0.064-0.004
			c-0.355-0.022-0.917-0.019-1.439,0.018c-1.072,0.081-2.175,0.197-3.225,0.344c-1.038,0.148-2.083,0.321-2.902,0.528l-0.238,0.05
			l-0.345,0.13c0.018-0.044-0.168,0.057-0.294,0.146c-0.294,0.202-0.606,0.493-0.895,0.787c-1.178,1.2-2.129,2.396-2.818,3.189
			C706.255,132.27,705.84,132.733,705.84,132.733z"/>
	</g>
	<g>
		<path d="M786.835,119.507c0,0-0.223-0.58-0.571-1.58c-0.362-0.987-0.824-2.442-1.499-3.983c-0.165-0.378-0.353-0.76-0.556-1.054
			c-0.086-0.127-0.224-0.288-0.223-0.241l-0.276-0.245l-0.205-0.131c-0.692-0.484-1.607-1.018-2.524-1.526
			c-0.928-0.51-1.918-1.012-2.891-1.469c-0.475-0.22-0.999-0.422-1.339-0.529l-0.061-0.019l-0.031-0.01
			c-0.022-0.006,0.166,0.039,0.08,0.019l-0.014-0.003l-0.027-0.005l-0.218-0.044l-0.437-0.087c-0.316-0.075-0.539-0.083-0.766-0.112
			c-0.92-0.126-2.08-0.174-3.144-0.154c-1.085,0.004-2.174,0.062-3.224,0.158l-0.393,0.032l-0.025,0.002l-0.012,0.001
			c-0.025,0.005,0.172-0.039,0.083-0.019l-0.051,0.009l-0.102,0.018l-0.203,0.036c-0.297,0.048-0.397,0.099-0.61,0.14
			c-0.449,0.138-0.932,0.285-1.393,0.452c-0.942,0.351-1.833,0.684-2.655,0.99c-0.837,0.317-1.605,0.607-2.286,0.864
			c-0.678,0.269-1.293,0.467-1.787,0.654c-1,0.354-1.588,0.536-1.588,0.536s0.422-0.449,1.21-1.167
			c0.401-0.348,0.872-0.798,1.451-1.255c0.577-0.461,1.22-1,1.96-1.533c0.736-0.542,1.555-1.102,2.47-1.657
			c0.463-0.274,0.94-0.555,1.489-0.816c0.297-0.127,0.695-0.304,0.932-0.381l0.195-0.069l0.098-0.034l0.049-0.017l0.148-0.036
			l0.428-0.11c1.147-0.301,2.354-0.517,3.61-0.634c0.625-0.064,1.27-0.079,1.916-0.096c0.663,0.029,1.285,0.031,2.034,0.136
			c0.365,0.041,0.733,0.099,0.997,0.166l0.435,0.097l0.217,0.048l0.148,0.035l0.076,0.023l0.151,0.047
			c0.791,0.254,1.342,0.553,1.918,0.849c1.122,0.595,2.127,1.26,3.082,1.949c0.956,0.704,1.819,1.408,2.66,2.282l0.349,0.392
			l0.229,0.311c0.321,0.429,0.414,0.705,0.534,1.012c0.195,0.584,0.289,1.091,0.36,1.574c0.131,0.963,0.143,1.814,0.135,2.568
			c0.004,0.751-0.052,1.403-0.1,1.938C786.968,118.9,786.835,119.507,786.835,119.507z"/>
	</g>
</g>
<g id="Capa_5">
	<path fill="none" stroke="#000000" stroke-width="4" stroke-miterlimit="10" d="M474.333,655.667c0,0,4.239,14.395,8,17.333
		c2.807,2.194,10.48,2.112,14,2.667c3.982,0.627,11.969,2.035,16,2c4.714-0.041,14.103-1.487,18.667-2.667
		c3.626-0.937,12.483-1.909,14-5.333c1.667-3.764-6-15.333-6-15.333l-6-14"/>
	<path fill="none" stroke="#000000" stroke-width="4" stroke-miterlimit="10" d="M563.667,639.667c0,0,1.543,14.767,3.333,19.333
		c1.451,3.701,5.376,11.102,8.667,13.333c2.813,1.908,9.959,2.258,13.333,2.667c3.809,0.461,11.5,0.822,15.333,0.667
		c2.685-0.109,8.025-0.84,10.667-1.333c3.378-0.631,10.145-2.052,13.333-3.333c1.247-0.501,4.667-2.667,4.667-2.667
		s-4.951-16.858-5.333-22.667c-0.22-3.343,1.333-13.333,1.333-13.333"/>
</g>
<g id="Capa_6">
	<g>
		<polygon points="633.69,173.845 624.262,164.518 624.136,164.394 624.12,164.37 614.333,150.333 625.88,162.963 625.738,162.815 
			636.31,170.822 		"/>
	</g>
	<g>
		<path d="M428.333,629.667c0,0-4.039-4.167-9.48-10.959c-1.345-1.711-2.81-3.561-4.265-5.614c-0.724-1.029-1.452-2.105-2.168-3.254
			c-0.349-0.589-0.711-1.188-1.034-1.84c-0.294-0.605-0.605-1.169-0.891-1.832c-1.155-2.594-2.128-5.218-3.081-7.943
			c-0.958-2.71-1.765-5.506-2.585-8.292c-0.808-2.791-1.589-5.585-2.259-8.36c-0.688-2.77-1.338-5.501-1.947-8.147
			c-0.583-2.676-0.944-5.394-1.232-7.868c-0.243-2.502-0.406-4.859-0.517-7.036c-0.079-2.18-0.148-4.173-0.145-5.944
			c0.005-1.771,0.008-3.312,0.063-4.584C398.862,545.454,399,544,399,544s0.303,1.428,0.745,3.924
			c0.219,1.247,0.486,2.76,0.792,4.497c0.297,1.731,0.631,3.685,0.996,5.816c0.355,2.127,0.731,4.43,1.208,6.836
			c0.426,2.434,0.929,4.88,1.613,7.467c0.643,2.618,1.327,5.318,2.049,8.052c0.726,2.731,1.464,5.505,2.201,8.279
			c0.746,2.769,1.579,5.508,2.36,8.208c0.802,2.679,1.676,5.338,2.607,7.738c0.205,0.599,0.495,1.237,0.739,1.846
			c0.227,0.557,0.509,1.11,0.784,1.662c0.584,1.108,1.207,2.193,1.838,3.242c1.25,2.106,2.483,4.094,3.648,5.909
			c2.33,3.65,4.271,6.691,5.631,8.82C427.561,628.441,428.333,629.667,428.333,629.667z"/>
	</g>
	<g>
		<path d="M487.309,634.009c0,0,1.005-4.14,2.512-10.349c0.686-3.1,1.487-6.716,2.345-10.59c0.215-0.97,0.434-1.957,0.655-2.955
			c0.104-0.494,0.237-1.014,0.319-1.496c0.082-0.513,0.165-1.028,0.249-1.546c0.166-1.035,0.334-2.078,0.503-3.126
			c0.146-1.044,0.292-2.093,0.438-3.141c0.311-2.096,0.562-4.2,0.785-6.276c0.107-1.037,0.257-2.069,0.326-3.083
			c0.069-1.016,0.137-2.019,0.204-3.005c0.033-0.486,0.065-0.968,0.098-1.445c-0.016-0.49-0.031-0.975-0.047-1.455
			c-0.031-0.96-0.061-1.9-0.09-2.814c-0.056-1.829-0.239-3.536-0.339-5.127c-0.212-3.176-0.499-5.83-0.652-7.685
			c-0.18-1.855-0.282-2.915-0.282-2.915s0.165,1.052,0.453,2.894c0.262,1.847,0.703,4.468,1.104,7.651
			c0.194,1.589,0.48,3.314,0.643,5.138c0.083,0.912,0.168,1.849,0.255,2.806c0.044,0.479,0.088,0.963,0.132,1.451
			c-0.003,0.502-0.006,1.009-0.009,1.521c-0.009,1.008-0.018,2.033-0.028,3.07c-0.01,1.039-0.099,2.074-0.146,3.128
			c-0.102,2.104-0.23,4.24-0.42,6.374c-0.086,1.068-0.171,2.136-0.257,3.2c-0.107,1.056-0.213,2.107-0.318,3.15
			c-0.053,0.522-0.105,1.041-0.157,1.558c-0.061,0.546-0.159,1.036-0.236,1.553c-0.163,1.019-0.325,2.026-0.484,3.017
			c-0.637,3.969-1.232,7.673-1.742,10.848c-1.141,6.288-1.901,10.481-1.901,10.481L487.309,634.009z"/>
	</g>
	<g>
		<path d="M622.964,624.353c0,0-0.661-1.017-1.819-2.798c-1.15-1.792-2.812-4.336-4.743-7.438c-0.973-1.543-2.032-3.21-3.093-5.055
			c-0.536-0.914-1.086-1.852-1.648-2.812c-0.513-0.968-1.037-1.956-1.57-2.961c-1.064-2.025-2.133-4.129-3.207-6.271
			c-1.058-2.153-2.118-4.347-3.127-6.568c-1.002-2.226-1.977-4.466-2.819-6.732c-0.466-1.107-0.772-2.295-1.15-3.42l-0.135-0.425
			l-0.096-0.463l-0.172-0.852c-0.114-0.566-0.228-1.128-0.341-1.685c-0.328-2.285-0.633-4.496-0.814-6.57
			c-0.226-2.078-0.364-4.046-0.512-5.861c-0.273-3.631-0.443-6.658-0.559-8.777c-0.101-2.12-0.159-3.331-0.159-3.331
			s0.12,1.206,0.331,3.318c0.224,2.11,0.55,5.123,1.009,8.728c0.241,1.801,0.479,3.755,0.811,5.807
			c0.289,2.068,0.697,4.194,1.124,6.39c0.141,0.55,0.283,1.105,0.427,1.664l0.216,0.841l0.099,0.388l0.151,0.403
			c0.424,1.071,0.763,2.17,1.28,3.241c0.934,2.164,2.008,4.321,3.108,6.464c1.109,2.14,2.27,4.256,3.426,6.332
			c1.174,2.068,2.34,4.096,3.492,6.04c0.583,0.975,1.156,1.933,1.717,2.872c0.592,0.898,1.171,1.778,1.735,2.633
			c1.106,1.714,2.244,3.318,3.289,4.8c2.07,2.971,3.852,5.415,5.084,7.133c1.246,1.716,1.957,2.696,1.957,2.696L622.964,624.353z"/>
	</g>
	<g>
		<polygon points="683.997,574.909 677.232,558.169 677.296,558.289 669.88,544.606 669.814,544.484 669.808,544.392 669,532.333 
			670.859,544.275 670.787,544.061 679.371,557.044 679.379,557.057 679.434,557.165 687.637,573.25 		"/>
	</g>
</g>
<g id="Capa_7">
	<g>
		<g>
			<path d="M426.695,682.87c-0.471-1.029,3.238-4.706,3.903-5.406c1.629-1.716,3.293-3.399,5.765-2.228
				c2.506,1.188,4.115,4.199,5.03,6.674c0.794,2.145,0.084,4.451,2.116,5.893c1.632,1.158,3.695-0.418,3.762-2.159
				c0.018-0.209,0.007-0.417-0.033-0.625c-0.318-3.177-5.321-3.208-5,0c0.04,0.207,0.051,0.416,0.033,0.625
				c1.254-0.72,2.508-1.439,3.762-2.159c-0.085-0.06-0.17-0.121-0.255-0.181c0.413,0.72,0.825,1.439,1.238,2.159
				c-0.053-6.528-5.977-17.738-14.086-15.517c-5.139,1.408-13.147,9.781-10.552,15.447
				C423.719,688.322,428.027,685.779,426.695,682.87L426.695,682.87z"/>
		</g>
	</g>
	<g>
		<g>
			<path d="M456.028,685.018c0.464-3.238,0.766-7.285,2.853-9.951c1.789-2.285,5.275-2.841,7.832-3.842
				c2.967-1.162,1.677-5.999-1.329-4.821c-3.335,1.306-6.649,2.159-9.441,4.511c-3.507,2.956-4.133,8.557-4.737,12.774
				C450.755,686.841,455.572,688.199,456.028,685.018L456.028,685.018z"/>
		</g>
	</g>
	<g>
		<g>
			<path d="M508.063,674.586c-0.182-2.959,2.698-10.037,6.747-8.052c2.89,1.417,4.039,6.115,4.77,8.938
				c0.807,3.119,5.63,1.795,4.821-1.329c-1.281-4.949-4.006-12.461-10.095-12.873c-6.685-0.453-11.617,7.227-11.243,13.316
				C503.26,677.789,508.261,677.808,508.063,674.586L508.063,674.586z"/>
		</g>
	</g>
	<g>
		<g>
			<path d="M533.081,672.152c-1.213-1.402-0.893-4.205-0.651-5.874c0.177-1.22,0.661-4.521,2.06-5.043
				c1.226-0.457,3.318,2.119,3.983,2.832c1.447,1.552,2.649,3.33,3.779,5.12c1.716,2.718,6.044,0.211,4.317-2.524
				c-2.521-3.992-8.523-13.198-14.431-9.84c-5.559,3.161-6.582,14.254-2.593,18.863C531.66,678.13,535.18,674.577,533.081,672.152
				L533.081,672.152z"/>
		</g>
	</g>
	<g>
		<g>
			<path d="M593.218,675.472c1.088-3.155,5.387-11.678,9.477-7.631c2.36,2.336,3.013,5.95,5.436,8.29
				c2.319,2.24,5.858-1.292,3.536-3.536c-3.617-3.493-4.106-10.07-10.125-10.807c-6.795-0.832-11.267,6.911-13.144,12.354
				C587.342,677.2,592.173,678.501,593.218,675.472L593.218,675.472z"/>
		</g>
	</g>
	<g>
		<g>
			<path d="M629.211,652.995c-0.019,0-0.038,0-0.058,0c-1.363,0-2.5,1.137-2.5,2.5s1.137,2.5,2.5,2.5c0.093,0,0.186,0,0.28,0
				c1.363,0,2.5-1.137,2.5-2.5s-1.137-2.5-2.5-2.5c-0.093,0-0.186,0-0.28,0c-1.363,0-2.5,1.137-2.5,2.5s1.137,2.5,2.5,2.5
				c0.019,0,0.038,0,0.058,0c1.363,0,2.5-1.137,2.5-2.5S630.574,652.995,629.211,652.995L629.211,652.995z"/>
		</g>
	</g>
	<g>
		<g>
			<path d="M627.215,657.239c0.221,0.057,0.442,0.113,0.662,0.17c-0.582-0.582-1.164-1.164-1.746-1.746
				c0.047,0.119,0.095,0.238,0.142,0.357c0.084-0.642,0.168-1.284,0.252-1.926c-0.05,0.105-0.099,0.21-0.149,0.316
				c0.498-0.383,0.996-0.766,1.494-1.149c0.491-0.105-2.171-0.939-2.618-0.946c-1.215-0.018-2.277,0.127-3.431,0.522
				c-2.633,0.902-4.457,3.39-5.712,5.739c-2.321,4.345-2.273,9.466-2.273,14.245c0,3.224,5,3.224,5,0c0-0.152,0-0.304,0-0.456
				c0-3.224-5-3.224-5,0c0,0.152,0,0.304,0,0.456c0,3.224,5,3.224,5,0c0-4.119-0.169-16.572,6.738-15.434
				c1.974,0.325,4.065,1.776,5.269-0.771c0.946-2.002-0.354-3.701-2.299-4.2C625.419,651.616,624.094,656.439,627.215,657.239
				L627.215,657.239z"/>
		</g>
	</g>
	<g>
		<g>
			<path d="M672.468,680.137c-0.523-2.347,2.731-9.725,5.738-9.238c2.329,0.377,3.112,6.369,4.344,8.057
				c1.881,2.576,6.222,0.085,4.317-2.524c-2.861-3.917-3.205-11.988-10.235-10.385c-5.651,1.289-10.213,9.912-8.986,15.419
				C668.348,684.613,673.168,683.278,672.468,680.137L672.468,680.137z"/>
		</g>
	</g>
	<g>
		<g>
			<path d="M697.331,676.582c0.712-4.437,0.89-9.579,3.026-13.622c1.849-3.499,7.021-0.04,8.557,1.85
				c2.035,2.503,5.55-1.057,3.536-3.536c-2.938-3.615-8.684-6.125-13.159-3.825c-5.899,3.032-5.871,12.136-6.781,17.803
				C692.004,678.406,696.822,679.759,697.331,676.582L697.331,676.582z"/>
		</g>
	</g>
</g>
</svg>
