<?xml version="1.0" encoding="utf-8"?>
<!-- Generator: Adobe Illustrator 17.0.0, SVG Export Plug-In . SVG Version: 6.00 Build 0)  -->
<!DOCTYPE svg PUBLIC "-//W3C//DTD SVG 1.1//EN" "http://www.w3.org/Graphics/SVG/1.1/DTD/svg11.dtd">
<svg version="1.1" xmlns="http://www.w3.org/2000/svg" xmlns:xlink="http://www.w3.org/1999/xlink" x="0px" y="0px" width="1024px"
	 height="768px" viewBox="0 0 1024 768" enable-background="new 0 0 1024 768" xml:space="preserve">
<g id="Capa_4">
	<g>
		<line x1="432.377" y1="642.5" x2="441.377" y2="505.25"/>
		<polygon points="430.381,642.369 441.377,505.25 434.373,642.631 		"/>
	</g>
	<g>
		<polygon points="467.32,640.892 482.354,610.351 482.214,610.861 486.149,573.785 486.145,573.875 486.558,545 486.56,545.048 
			483.722,505.25 487.695,544.951 487.696,544.967 487.697,545 488.109,573.875 488.109,573.906 488.105,573.965 485.23,611.138 
			485.211,611.385 485.09,611.649 470.934,642.607 		"/>
	</g>
	<g>
		<path d="M512.649,640.862c0,0,0.188-2.219,0.518-6.101c0.176-1.943,0.389-4.303,0.634-7.01c0.232-2.707,0.526-5.76,0.885-9.089
			c0.365-3.331,0.673-6.93,1.159-10.752c0.263-1.912,0.534-3.877,0.811-5.885c0.138-1.003,0.278-2.017,0.42-3.041l0.106-0.769
			l0.027-0.193l0.053-0.239l0.088-0.377c0.117-0.504,0.235-1.01,0.354-1.518c0.473-2.033,0.955-4.099,1.442-6.191
			c0.467-2.094,1.128-4.197,1.691-6.324c0.587-2.124,1.179-4.265,1.772-6.415c0.608-2.132,1.218-4.272,1.827-6.412
			c1.257-4.277,2.369-8.564,3.479-12.788c1.08-4.243,2.111-8.447,3.063-12.493c0.919-4.053,1.778-8,2.104-11.756
			c0.031-0.461,0.088-0.953,0.097-1.38c-0.012-0.471-0.024-0.939-0.035-1.404c-0.026-0.929-0.026-1.848-0.134-2.729
			c-0.082-0.888-0.163-1.761-0.242-2.617c-0.107-0.86-0.212-1.703-0.315-2.529c-0.415-3.307-0.894-6.332-1.272-9.019
			c-0.384-2.686-0.709-5.032-0.906-6.971c-0.096-0.97-0.182-1.836-0.256-2.589c-0.054-0.755-0.058-1.4-0.083-1.921
			c-0.038-1.043-0.058-1.599-0.058-1.599s0.036,0.555,0.102,1.597c0.039,0.52,0.061,1.163,0.136,1.914
			c0.096,0.75,0.206,1.612,0.329,2.577c0.251,1.929,0.641,4.261,1.1,6.934c0.453,2.674,1.016,5.682,1.526,8.989
			c0.127,0.827,0.256,1.672,0.388,2.532c0.105,0.87,0.212,1.757,0.32,2.658c0.135,0.905,0.16,1.817,0.212,2.745
			c0.025,0.464,0.05,0.932,0.075,1.403c0.005,0.515-0.04,0.97-0.058,1.464c-0.228,3.878-0.985,7.864-1.793,11.969
			c-0.844,4.105-1.751,8.306-2.713,12.586c-0.997,4.283-2,8.645-3.134,12.945c-0.55,2.158-1.1,4.316-1.648,6.465
			c-0.528,2.141-1.053,4.273-1.574,6.388c-0.499,2.124-1.089,4.19-1.499,6.302c-0.428,2.104-0.851,4.183-1.267,6.228
			c-0.104,0.511-0.208,1.02-0.311,1.527l-0.077,0.38c-0.008,0.041-0.036,0.177-0.028,0.139l-0.021,0.191l-0.083,0.76
			c-0.11,1.01-0.219,2.011-0.327,3.001c-0.216,1.979-0.427,3.914-0.633,5.799c-0.374,3.779-0.582,7.399-0.851,10.715
			c-0.264,3.32-0.472,6.367-0.627,9.072c-0.168,2.703-0.315,5.059-0.435,6.999c-0.22,3.888-0.346,6.11-0.346,6.11L512.649,640.862z"
			/>
	</g>
</g>
<g id="Capa_6">
	<g>
		<polygon points="399.359,619.75 112.877,614.75 399.396,612.75 		"/>
	</g>
	<g>
		<polygon points="703.898,613.75 882.377,617.75 703.856,618.75 		"/>
	</g>
	<path fill="none" stroke="#000000" stroke-miterlimit="10" d="M85.877,271.75"/>
</g>
<g id="Capa_5">
	<path fill="none" stroke="#000000" stroke-width="5" stroke-miterlimit="10" d="M400.753,324.282c0,0-12.584,52.869-15.626,70.718
		c-1.84,10.798-5.427,32.548-5.25,43.5c0.248,15.328,5.337,45.715,8.328,60.75c2.847,14.311,10.921,42.5,12.548,57
		c1.463,13.043,2.505,39.616,0,52.5c-0.875,4.502-3.799,13.367-6.24,17.25c-3.994,6.356-18.81,15.07-19.886,22.5
		c-0.457,3.155,3.346,14.734,6,16.5c4.571,3.042,14.656,6.267,20.126,6.752c5.571,0.494,18.423-3.401,23.374-6.002
		c3.088-1.622,7.4-7.867,8.25-11.25c0.731-2.91,0.875-11.375,0.875-11.375l34,0.125c0,0-3.534,6.618-4.125,9.75
		c-0.595,3.154-0.666,10.381,1.5,12.75c3.376,3.693,14.091,6.076,19.095,6c5.354-0.081,16.164-1.646,21.087-3.75
		c3.783-1.617,7.982-4.577,9.835-8.25c2.027-4.018,0.983-18.375,0.983-18.375s36.287-2.311,47.25-4.125
		c7.671-1.269,23.266-3.95,30.185-7.5c7.445-3.82,20.566-14.693,26.065-21c4.957-5.684,14.99-17.555,17.25-24.75
		c2.585-8.229,0.989-25.932,0-34.5c-1.038-8.991-5.52-26.621-8.25-35.25c-2.744-8.673-9.394-25.681-13.594-33.75
		c-4.544-8.731-16.125-24.737-21.472-33c-5.693-8.798-20.818-26.926-27.185-35.25c-6.291-8.225-16.88-22.586-23.25-30.75
		c-4.862-6.231-14.146-19.15-17.617-26.25c-2.254-4.611-6.424-19.5-6.424-19.5l-3.942-13.064l-54.451,9.974L400.753,324.282"/>
	<path fill="none" stroke="#000000" stroke-width="5" stroke-miterlimit="10" d="M633.653,589.719c0,0,31.401,5.015,40.225,1.031
		c6.977-3.15,16.735-15.113,19.441-22.274c2.651-7.016,1.298-24.495-0.691-31.726c-2.431-8.836-13.232-24.183-18.75-31.5
		c-4.886-6.479-16.903-18.715-21.122-25.647c-5.164-8.485-13.734-25.998-14.977-35.853c-1.208-9.58,2.11-29.154,5.349-38.25
		c3.236-9.09,13.677-25.723,20.013-33c6.242-7.168,20.764-20.224,29.487-24c9.029-3.908,29.2-6.11,39-5.25
		c9.215,0.809,27.247,6.61,35.25,11.25c5.281,3.062,14.816,11.291,18,16.5c4.056,6.637,8.178,22.222,8.25,30
		c0.084,9.095-4.268,26.547-9.568,33.938c-5.213,7.269-19.964,15.807-28.682,17.812c-5.893,1.355-17.043,1.105-22.5-1.5
		c-6.342-3.028-15.884-12.333-18.75-18.75c-2.142-4.797-7.134-15.705-4.5-20.25c2.019-3.483,10.364-8.55,14.25-7.5
		c5.123,1.384,9.98,19.157,14.15,22.44c3.727,2.934,10.63,3.147,15.1,1.56c4.608-1.636,13.427-7.862,14.98-12.498
		c1.494-4.459,2.77-19.667,1.367-24.155c-1.59-5.087-9.818-14.919-14.097-18.097c-4.725-3.508-19.67-5.203-25.5-6
		c-6.175-0.844-19.037,0.507-24.75,3c-5.853,2.554-15.585,11.455-19.5,16.5c-4.216,5.432-11.603,15.891-13.5,22.5
		c-1.926,6.707-4.286,21.666-3.376,28.584c0.813,6.18,5.607,17.354,8.659,22.788c3.471,6.18,14.813,19.032,19.466,24.378
		c3.977,4.569,13.206,12.539,17.013,17.25c4.729,5.853,13.427,18.425,15.987,25.5c2.382,6.583,3.976,20.753,3.75,27.75
		c-0.276,8.531-5.068,26.89-8.817,34.558c-3.409,6.972-12.033,17.707-18.183,22.442c-5.781,4.451-19.325,10.454-26.25,12.75
		c-7.609,2.523-29.588,3.548-37.604,3.548c-8.204,0-3.19,0.911-41.018-3.646"/>
</g>
<g id="Capa_1">
	<g>
		<g>
			<path d="M455.719,332.721c-38.991,0-75.046-11.82-101.522-33.282c-17.292-14.017-50.194-2.703-50.194-2.703
				s8.903-69.007,8.903-80.178c0-0.547,6-2.338,6,0c0,22.503-4.003,69.981-4.003,69.981s17.309-5.839,22.153-2.813
				c20.667,12.908,78.117,42.995,118.663,42.995c48.305,0,91.971-25.765,122.564-50.732c3.67-2.995,20.747,1.407,20.747,1.407
				s-2.777-44.686-2.777-63.408h6c0,23.671,7.326,75.715,7.326,75.715s-22.857-11.253-30.241-3.165
				C544.805,324.36,450.883,332.721,455.719,332.721z"/>
			<g>
				
					<rect x="216.87" y="121.114" transform="matrix(0.0713 0.9975 -0.9975 0.0713 411.2923 -193.4916)" width="185.358" height="6.001"/>
				<polygon points="404.765,129.918 322.627,28.413 315.289,21.6 310.992,20.689 307.682,23.515 305.865,33.981 299.953,32.954 
					302.141,20.357 309.344,14.206 318.155,16.075 327.157,24.473 409.429,126.143 				"/>
			</g>
			
				<rect x="602.398" y="31.467" transform="matrix(0.9978 0.0664 -0.0664 0.9978 9.5808 -39.9375)" width="5.999" height="185.295"/>
			<polygon points="509.473,129.918 504.809,126.143 587.217,24.307 596.082,16.075 604.895,14.206 612.097,20.357 614.286,32.954 
				608.374,33.981 606.557,23.515 603.248,20.689 598.95,21.6 591.612,28.413 			"/>
		</g>
	</g>
	<path fill="none" stroke="#000000" stroke-width="4" stroke-miterlimit="10" d="M405.377,125.75c0,0,17.932-5.843,23.032-6.76
		c6.269-1.126,21.287-1.85,27.656-1.865c6.689-0.017,21.113,1.615,27.656,3c10.456,2.213,25.53,5.625,25.53,5.625"/>
</g>
<g id="Capa_9">
	<path fill="none" stroke="#000000" stroke-width="3" stroke-miterlimit="10" d="M526,361c0,0-8.252,19.099-13,24
		c-4.833,4.989-13,14-13,14s6.451,0.529,12-1c8.385-2.31,30.627-16.5,30.627-16.5"/>
	<path fill="none" stroke="#000000" stroke-width="3" stroke-miterlimit="10" d="M561,406c0,0-14.767,8.034-20,10
		c-5.563,2.09-16,8-16,8s13.208,3.655,17,4c5.617,0.511,15-1,15-1l14-7"/>
	<path fill="none" stroke="#000000" stroke-width="3" stroke-miterlimit="10" d="M580,433l-10,6l-13,3c0,0,8.621,6.198,12,7
		c5.864,1.391,24.062-1.5,24.062-1.5"/>
</g>
<g id="Capa_2">
	<ellipse transform="matrix(0.5351 -0.8448 0.8448 0.5351 28.8091 418.3872)" cx="394.513" cy="183.02" rx="29.427" ry="22.347"/>
	
		<ellipse transform="matrix(0.5351 -0.8448 0.8448 0.5351 45.9771 423.9803)" fill="#FAFAFA" cx="408.179" cy="170.22" rx="6.384" ry="6.439"/>
	
		<ellipse transform="matrix(-0.5351 -0.8448 0.8448 -0.5351 635.3864 715.7267)" cx="514.644" cy="183.02" rx="29.427" ry="22.347"/>
	
		<ellipse transform="matrix(-0.5351 -0.8448 0.8448 -0.5351 652.2521 699.4073)" fill="#FAFAFA" cx="518.586" cy="170.22" rx="6.384" ry="6.439"/>
</g>
<g id="Capa_3">
	<g>
		<path fill="#010002" d="M456.054,250.458c-3.51,0.157-9.89-4.128-12.435-6.55c-3.593-3.42-8.659-14.64-6.09-18.883
			c2.434-4.019,18.525-3.173,18.525-3.173s15.888-0.716,18.525,3.173c2.783,4.106-3.165,14.877-6.09,18.883
			C466.417,246.746,459.564,250.301,456.054,250.458z"/>
	</g>
	<line stroke="#000000" stroke-width="2" stroke-miterlimit="10" x1="456.065" y1="247.132" x2="456.065" y2="274.508"/>
	<path fill="none" stroke="#000000" stroke-miterlimit="10" d="M499.225,288.168"/>
	<path fill="none" stroke="#000000" stroke-width="2" stroke-miterlimit="10" d="M456.065,274.508"/>
	<path fill="none" stroke="#000000" stroke-width="2" stroke-miterlimit="10" d="M456.065,274.508
		c0,7.551-19.559,20.299-41.537,13.661c-9.151-2.764-11.158-6.872-12.836-10.697c-1.305-2.975-0.871-12.964-0.871-12.964"/>
	<path fill="none" stroke="#000000" stroke-width="2" stroke-miterlimit="10" d="M456.065,274.508
		c0,7.551,19.559,20.299,41.537,13.661c9.151-2.764,11.158-6.872,12.836-10.697c1.305-2.975,0.871-12.964,0.871-12.964"/>
	<path fill="none" stroke="#000000" stroke-width="3" stroke-miterlimit="10" d="M333.902,175.465c0,0-11.676-79.379-12.709-106.065
		c-0.111-2.858,0.367-8.758,1.633-11.323c0.633-1.283,3.297-3.373,4.721-3.235c2.257,0.219,5.066,4.605,6.355,6.47
		c13.12,18.993,54.303,74.678,54.303,74.678s-15.056,7.776-19.642,11.052c-4.606,3.292-11.167,8.141-15.713,11.515
		C348.443,161.827,333.902,175.465,333.902,175.465z"/>
	<path fill="none" stroke="#000000" stroke-width="3" stroke-miterlimit="10" d="M580.337,175.465c0,0,11.676-79.379,12.709-106.065
		c0.111-2.858-0.367-8.758-1.633-11.323c-0.633-1.283-3.297-3.373-4.721-3.235c-2.257,0.219-5.066,4.605-6.355,6.47
		c-13.12,18.993-54.303,74.678-54.303,74.678s15.056,7.776,19.642,11.052c4.606,3.292,11.167,8.141,15.713,11.515
		C565.796,161.827,580.337,175.465,580.337,175.465z"/>
</g>
<g id="Capa_7">
	<path d="M490.06,250.462"/>
</g>
<g id="Capa_8">
</g>
</svg>
