<?xml version="1.0" encoding="utf-8"?>
<!-- Generator: Adobe Illustrator 17.0.0, SVG Export Plug-In . SVG Version: 6.00 Build 0)  -->
<!DOCTYPE svg PUBLIC "-//W3C//DTD SVG 1.1//EN" "http://www.w3.org/Graphics/SVG/1.1/DTD/svg11.dtd">
<svg version="1.1" xmlns="http://www.w3.org/2000/svg" xmlns:xlink="http://www.w3.org/1999/xlink" x="0px" y="0px" width="1024px"
	 height="768px" viewBox="0 0 1024 768" enable-background="new 0 0 1024 768" xml:space="preserve">
<g id="Capa_2">
	<g>
		<g>
			<path d="M489.542,508.274c1.77,30.209,9.858,59.285,20.289,87.558c9.085,24.625,18.338,50.052,32.071,72.532
				c21.481,35.162,59.329,73.421,104.34,66.554c23.631-3.605,43.945-20.931,56.495-40.511
				c13.398-20.902,18.587-46.417,18.865-70.952c0.164-14.493-1.642-29.03-4.944-43.128c-3.497-14.931-9.719-29.039-14.211-43.675
				c-4.921-16.034-10.745-31.511-17.193-47.006c-0.078-0.188-0.157-0.376-0.235-0.564c-0.582,1.025-1.164,2.05-1.746,3.075
				c12.199-3.164,24.379-6.397,36.546-9.68c18.447-4.977,37.223-9.586,54.985-16.711c25.643-10.286,49.169-25.8,70.164-43.643
				c20.163-17.136,37.979-37.621,50.415-61.064c11.167-21.05,18.284-46.324,13.309-70.109c-4.2-20.079-18.413-36.08-36.053-45.776
				c-22.716-12.487-50.669-14.447-76.047-13.306c-29.695,1.336-58.958,8.415-87.2,17.332
				c-50.254,15.866-98.91,38.361-143.483,66.473c-0.71,0.448-1.302,1.276-1.238,2.159c0.428,5.917,0.855,11.835,1.283,17.752
				c0.213,2.951,0.427,5.902,0.64,8.853c0.053,0.735,0.027,1.334,0.144,0.575c-0.141,0.916-0.286,1.831-0.431,2.746
				c-2.772,17.439-5.251,34.913-12.95,50.952c-9.691,20.186-20.754,39.942-31.448,59.616c-8.904,16.381-19.582,31.232-30.695,46.17
				c-4.39,5.901-9.768,11.67-13.506,18.014c-5.699,9.673-11.423,19.333-17.226,28.945c-7.371,12.208-14.852,24.422-22.959,36.156
				c-6.432,9.31-14.816,16.996-23.018,24.725c1.423,0.589,2.845,1.179,4.268,1.768c0.682-12.204,1.163-21.299,2.893-32.532
				c2.589-16.814,5.06-33.643,7.761-50.44c4.504-28.01,8.87-56.105,14.499-83.915c6.167-30.464,16.599-60.175,30.372-87.996
				c3.292-6.65,6.72-13.358,10.956-19.467c3.65-5.264,8.169-10.006,12.472-14.732c6.947-7.631,14.106-15.084,21.379-22.406
				c2.274-2.289-1.261-5.825-3.536-3.536c-10.354,10.423-20.644,21.028-30.073,32.302c-12.743,15.235-20.678,34.976-28.142,53.188
				c-14.134,34.487-20.526,71.443-26.657,107.986c-3.431,20.449-6.839,40.913-9.88,61.424c-1.81,12.208-3.68,24.408-5.569,36.604
				c-1.193,7.701-1.039,15.741-1.474,23.519c-0.127,2.273,2.767,3.182,4.268,1.768c5.347-5.038,10.649-10.145,15.706-15.475
				c6.952-7.328,12.236-16.276,17.613-24.767c9.726-15.358,19.058-30.949,28.306-46.598c5.77-9.763,13.286-18.5,20.017-27.613
				c11.482-15.544,21.593-31.218,30.696-48.287c7.601-14.252,15.236-28.5,22.715-42.816c3.579-6.851,7.086-13.796,9.79-21.047
				c2.184-5.857,3.236-12.204,4.428-18.316c1.232-6.32,2.319-12.668,3.358-19.022c0.398-2.434,1.104-5.015,0.925-7.495
				c-0.641-8.868-1.282-17.736-1.923-26.605c-0.413,0.72-0.825,1.439-1.238,2.159c51.16-32.267,107.814-57.522,166.335-72.956
				c29.432-7.762,60.009-12.283,90.464-9.635c23.998,2.087,48.352,9.358,64.914,27.758c16.457,18.283,17.58,43.096,11.726,65.899
				c-6.847,26.668-23.185,50.208-41.88,69.974c-19.207,20.307-42.187,37.395-66.776,50.618
				c-19.316,10.387-39.937,16.445-60.941,22.248c-16.737,4.624-33.522,9.081-50.33,13.44c-1.194,0.31-2.267,1.828-1.746,3.075
				c5.542,13.258,11.539,26.647,15.371,40.517c4.089,14.798,10.128,28.914,14.407,43.633c4.331,14.897,6.372,30.382,6.619,45.874
				c0.411,25.829-5.441,52.272-19.826,73.98c-13.759,20.764-37.121,36.679-62.589,36.39c-19.958-0.227-38.407-10.812-53.206-23.419
				c-16.234-13.828-29.294-31.317-39.618-49.885c-5.433-9.772-9.595-20.08-13.835-30.407c-5.132-12.5-10.158-25.043-14.754-37.751
				c-9.46-26.16-16.594-53.209-18.227-81.071C494.354,505.069,489.353,505.051,489.542,508.274L489.542,508.274z"/>
		</g>
	</g>
	<g>
		<g>
			<path d="M433.214,482.019c-20.917,19.852-43.883,37.247-68.625,52.059c-20.261,12.129-41.739,23.413-64.306,30.602
				c-32.367,10.311-72.329,14.874-103.555-1.421c-15.582-8.131-26.373-22.063-31.45-38.772c-7.71-25.372-2.249-52.276,10.088-75.189
				c13.297-24.698,34.518-45.132,58.212-59.817c12.57-7.79,26.26-13.631,39.033-21.097c7.803-4.561,15.704-8.643,23.888-12.495
				c6.05-2.847,12.132-5.631,18.238-8.355c1.218-0.543,1.564-2.361,0.897-3.42c-6.714-10.665-13.367-21.369-19.975-32.099
				c-10.125-16.439-20.747-32.835-28.832-50.404c-12.268-26.658-18.758-56.382-21.018-85.551
				c-2.027-26.174,0.036-52.979,8.585-77.912c8.278-24.14,24.166-47.926,49.465-56.069c24.293-7.82,49.42,1.607,69.631,15.165
				c45.581,30.577,74.96,81.937,98.179,130.31c17.284,36.008,31.292,73.758,41.286,112.436c0.806,3.12,5.629,1.795,4.821-1.329
				C503.243,242.418,480.5,187.624,450.7,137.748c-13.624-22.802-29.366-44.549-48.355-63.2
				c-17.615-17.302-39.021-32.985-63.491-38.443c-22.073-4.923-44.524,0.625-61.44,15.643
				c-18.638,16.547-28.642,42.185-33.507,66.037c-5.06,24.811-4.642,50.544-1.234,75.536c3.967,29.091,12.273,57.839,26.287,83.719
				c12.905,23.832,27.923,46.668,42.356,69.595c0.299-1.14,0.598-2.28,0.897-3.42c-13.123,5.854-26.667,11.494-38.965,18.966
				c-12.763,7.755-26.419,13.769-39.314,21.253c-11.803,6.851-22.674,15.264-32.606,24.602
				c-34.459,32.399-58.48,84.754-35.833,130.54c15.579,31.496,52.106,40.958,84.618,39.987
				c41.813-1.25,80.015-18.438,115.539-39.305c25.68-15.085,49.5-33.21,71.095-53.705
				C439.092,483.331,435.55,479.801,433.214,482.019L433.214,482.019z"/>
		</g>
	</g>
	
		<ellipse transform="matrix(0.9296 0.3687 -0.3687 0.9296 136.3255 -187.4706)" fill="none" stroke="#000000" stroke-width="4" stroke-miterlimit="10" cx="558.725" cy="262.993" rx="45.69" ry="54.741"/>
</g>
<g id="Capa_3">
	<g>
		<g>
			<path d="M591.895,216.504c1.353-7.301,5.894-13.7,10.258-19.531c5.719-7.643,12.413-14.595,19.19-21.295
				c10.021-9.909,20.814-18.051,32.909-25.282c21.24-12.699,63.662-33.447,79.189-2.394c1.442,2.884,5.755,0.351,4.317-2.524
				c-16.297-32.593-58.497-14.926-82.04-1.713c-13.178,7.396-25.172,16.074-36.041,26.552c-7.333,7.07-14.34,14.517-20.621,22.543
				c-5.109,6.528-10.44,13.992-11.983,22.315C586.489,218.326,591.307,219.672,591.895,216.504L591.895,216.504z"/>
		</g>
	</g>
	<g>
		<g>
			<path d="M566.235,210.548c4.443-6.89,5.641-15.474,6.521-23.459c1.17-10.625,1.008-21.411,0.516-32.072
				c-0.699-15.155-3.696-29.724-8.207-44.204c-7.978-25.609-26.833-66.887-60.681-54.404c-2.998,1.106-1.703,5.94,1.329,4.821
				c31.586-11.649,48.038,29.67,55.151,52.924c3.974,12.989,6.616,26.082,7.346,39.642c0.526,9.762,0.592,19.565-0.099,29.32
				c-0.588,8.298-1.577,17.749-6.194,24.909C560.164,210.743,564.494,213.247,566.235,210.548L566.235,210.548z"/>
		</g>
	</g>
	<path fill="none" stroke="#000000" stroke-width="4" stroke-miterlimit="10" d="M568.032,326.039l54.204-22.089
		c0,0,35.12-14.517,47.171-18.386c10.138-3.255,41.271-10.525,41.271-10.525s34.254-8.878,45.913-10.539
		c10.898-1.552,33.041-1.894,44.02-1.088c9.443,0.693,28.545,2.895,37.318,6.455c6.347,2.575,18.328,10.122,22.617,15.462
		c3.723,4.635,8.855,16.12,8.869,22.066c0.015,6.681-6.191,19.253-9.853,24.841c-3.598,5.491-13.208,14.759-18.516,18.623
		c-3.95,2.876-17.423,8.855-17.423,8.855l-16.318,3.729c0,0,7.334,8.823,8.04,12.463c0.878,4.523-1.908,13.765-3.469,18.099
		c-1.766,4.904-6.366,14.573-10.032,18.279c-4.095,4.139-14.879,9.293-20.297,11.425c-4.173,1.642-13.05,3.282-17.437,4.213
		c-3.978,0.844-11.956,2.497-16,2.928c-4.221,0.45-12.759,1.252-16.967,0.69c-2.998-0.401-11.537-3.648-11.537-3.648
		s3.388,5.071,3.702,7.033c0.489,3.047-0.391,9.568-2.046,12.172c-2.084,3.279-9.204,7.325-12.781,8.842
		c-4.018,1.703-17.119,3.411-17.119,3.411s-18.525,2.115-24.649,1.352c-8.579-1.069-26.05-4.454-34.278-7.104
		c-7.191-2.317-20.459-9.768-27.411-12.727c-5.584-2.377-16.163-8.384-21.484-11.303c-4.008-2.2-15.875-9.079-15.875-9.079
		l-15.875-9.079"/>
	<path fill="none" stroke="#000000" stroke-width="4" stroke-miterlimit="10" d="M550.203,415.417l20.848,12.906l27.425,17.369
		c0,0,25.294,19.524,32.895,26.958c6.616,6.471,18.628,20.636,24.094,28.105c4.913,6.713,13.912,20.793,17.531,28.284
		c3.582,7.415,10.597,22.576,11.935,30.701c0.964,5.851,0.396,17.945-1.052,23.695c-0.739,2.933-2.81,9.115-5.251,10.901
		c-4.207,3.078-20.642,2.941-20.642,2.941s8.426,21.436,9.849,28.946c1.365,7.203,2.092,21.997,1.366,29.291
		c-0.646,6.491-3.097,19.646-6.33,25.311c-2.918,5.113-11.187,14.644-16.761,16.537c-5.692,1.933-18.256-0.8-23.861-2.972
		c-6.824-2.644-18.299-12.191-23.901-16.899c-7.539-6.336-21.496-20.322-27.935-27.773c-6.139-7.104-17.487-22.153-22.339-30.191
		c-4.736-7.845-16.743-32.608-16.743-32.608l-15.79-35.012l-11.438-24.94l-8.233-23.668"/>
	<path fill="none" stroke="#000000" stroke-width="4" stroke-miterlimit="10" d="M509.064,307.992l-24.327-53.237
		c0,0-15.621-34.643-21.744-45.721c-5.151-9.319-22.836-35.952-22.836-35.952s-18.856-29.944-26.207-39.144
		c-6.872-8.6-22.76-24.027-31.306-30.965c-7.351-5.968-22.769-17.458-31.597-20.879c-6.386-2.475-20.283-5.192-27.066-4.244
		c-5.888,0.823-17.497,5.668-21.582,9.988c-4.59,4.854-8.689,18.263-9.853,24.841c-1.144,6.465-0.5,19.8,0.717,26.252
		c0.905,4.802,6.617,18.39,6.617,18.39l9.325,13.9c0,0-11.388,1.398-14.397,3.564c-3.74,2.691-8.045,11.33-9.88,15.557
		c-2.076,4.782-5.354,14.975-5.224,20.186c0.145,5.821,4.464,16.965,6.948,22.231c1.913,4.056,7.252,11.335,9.809,15.019
		c2.318,3.341,6.994,10.014,9.643,13.099c2.765,3.221,8.432,9.657,11.881,12.132c2.458,1.763,10.901,5.251,10.901,5.251
		s-5.943,1.37-7.516,2.583c-2.444,1.884-6.274,7.234-6.854,10.265c-0.731,3.816,1.681,11.642,3.246,15.198
		c1.758,3.994,10.126,14.218,10.126,14.218s12.038,14.238,17.021,17.88c6.979,5.102,22.02,14.613,29.829,18.323
		c6.824,3.243,21.592,6.911,28.682,9.522c5.695,2.097,17.516,4.975,23.391,6.495c4.426,1.146,17.782,4.271,17.782,4.271
		l17.782,4.271"/>
	<path fill="none" stroke="#000000" stroke-width="4" stroke-miterlimit="10" d="M460.783,385.292l-24.027-4.893l-31.874-6.151
		c0,0-31.8-3.121-42.43-2.918c-9.253,0.177-27.709,2.257-36.808,3.949c-8.179,1.52-24.382,5.604-32.152,8.578
		c-7.691,2.944-23.19,9.174-29.734,14.174c-4.712,3.6-12.589,12.795-15.476,17.974c-1.473,2.642-4.201,8.563-3.648,11.537
		c0.953,5.125,13.014,16.291,13.014,16.291s-20.828,9.833-27.012,14.326c-5.931,4.309-16.6,14.582-21.072,20.392
		c-3.978,5.169-11.211,16.428-12.741,22.769c-1.38,5.722-1.892,18.331,0.869,23.53c2.82,5.309,13.841,11.93,19.411,14.191
		c6.781,2.752,21.68,3.667,28.987,4.078c9.832,0.554,29.581-0.063,39.377-1.075c9.34-0.965,27.917-4.144,36.96-6.671
		c8.826-2.466,34.542-12.267,34.542-12.267l34.695-16.62l18.377-11.259l24.761-18.001"/>
	<path fill="none" stroke="#000000" stroke-width="4" stroke-miterlimit="10" d="M396.955,154.79
		c-4.771-6.229-10.338-11.844-16.601-16.585c-6.655-5.038-23.501-17.62-32.377-12.591c-3.607,2.044-3.569,12.034-3.635,16.179
		c-0.09,5.619,2.165,16.851,4.226,22.079c2.546,6.456,10.27,18.227,14.796,23.489c3.422,3.979,11.492,10.854,15.888,13.721
		c4.725,3.081,14.501,8.975,19.881,10.668c3.186,1.002,10.337,3.173,13.276,1.571c14.49-7.899-1.958-35.566-6.562-44.487
		C403.305,163.906,400.329,159.194,396.955,154.79z"/>
	<path fill="none" stroke="#000000" stroke-width="4" stroke-miterlimit="10" d="M389.001,236.034
		c-3.563-3.207-6.864-5.656-9.134-6.837c-9.26-4.815-41.594-18.456-38.496,3.517c2.136,15.151,22.973,32.951,35.468,39.755
		c6.337,3.45,17.164,6.969,24.403,3.916C418.245,269.215,401.906,247.651,389.001,236.034z"/>
	<path fill="none" stroke="#000000" stroke-width="4" stroke-miterlimit="10" d="M396.727,304.231
		c-9.364-2.074-23.75-2.011-26.778,7.558c-3.53,11.153,13.273,19.619,21.268,22.58c6.847,2.533,27.27,8.752,32.27,1.578
		c7.51-10.775-13.876-27.248-22.137-30.375C400.056,305.083,398.479,304.62,396.727,304.231z"/>
	<path fill="none" stroke="#000000" stroke-width="4" stroke-miterlimit="10" d="M330.156,394.447
		c-13.668,0.496-32.291,2.511-38.697,15.787c-6.674,13.829,4.826,19.726,16.907,20.505c15.712,1.013,34.88-3.923,44.961-16.943
		c12.416-16.035-6.893-19.764-19.881-19.447C332.39,394.375,331.29,394.405,330.156,394.447z"/>
	<path fill="none" stroke="#000000" stroke-width="4" stroke-miterlimit="10" d="M301.493,460.656
		c-2.528,0.044-4.758,0.172-6.457,0.302c-14.555,1.113-33.04,5.963-41.287,19.286c-5.701,9.21-4.429,20.669,5.601,26.096
		c16.138,8.727,79.846-8.175,73.007-34.317C329.71,461.902,312.681,460.461,301.493,460.656z"/>
	
		<ellipse transform="matrix(0.7 0.7142 -0.7142 0.7 333.273 -318.4775)" stroke="#000000" stroke-width="4" stroke-miterlimit="10" cx="545.684" cy="237.418" rx="14.655" ry="18.103"/>
	
		<ellipse transform="matrix(0.9897 0.143 -0.143 0.9897 42.2337 -81.1435)" stroke="#000000" stroke-width="4" stroke-miterlimit="10" cx="585.751" cy="253.31" rx="14.655" ry="18.103"/>
	
		<ellipse transform="matrix(0.9296 0.3687 -0.3687 0.9296 122.4527 -185.5551)" fill="#FFFFFF" cx="546.776" cy="227.65" rx="6.466" ry="5.603"/>
	
		<ellipse transform="matrix(0.9296 0.3687 -0.3687 0.9296 130.6138 -198.3887)" fill="#FFFFFF" cx="584.439" cy="242.588" rx="6.466" ry="5.603"/>
	
		<ellipse transform="matrix(0.9296 0.3687 -0.3687 0.9296 128.285 -185.6811)" fill="#FFFFFF" cx="550.022" cy="242.848" rx="4.445" ry="4.203"/>
	
		<ellipse transform="matrix(0.9296 0.3687 -0.3687 0.9296 136.6938 -199.5075)" fill="#FFFFFF" cx="590.406" cy="257.939" rx="4.445" ry="4.203"/>
	<path fill="#FFFFFF" stroke="#000000" stroke-width="3" stroke-miterlimit="10" d="M527.871,277.65c0,0,6.019,11.595,9.007,14.701
		c2.139,2.224,7.317,5.943,10.265,6.854c2.868,0.886,9.091,0.84,12.007,0.125c3.565-0.873,12.947-6.921,12.947-6.921"/>
	<g>
		<g>
			<path d="M474.604,350.804c23.21,21.268,52.908,35.19,84.789,34.589c3.22-0.061,3.226-5.061,0-5
				c-30.561,0.577-58.999-12.733-81.253-33.124C475.768,345.095,472.222,348.622,474.604,350.804L474.604,350.804z"/>
		</g>
	</g>
	<g>
		<g>
			<path d="M458.791,386.842c7.568,13.477,23.877,21.995,37.432,28.052c13.62,6.087,30.764,12.168,45.856,8.721
				c3.143-0.718,1.81-5.538-1.329-4.821c-14.107,3.222-30.523-3.087-43.199-8.752c-12.361-5.524-27.553-13.456-34.442-25.724
				C461.53,381.508,457.211,384.028,458.791,386.842L458.791,386.842z"/>
		</g>
	</g>
	<g>
		<g>
			<path d="M445.197,422.607c20.615,21.026,46.369,37.225,76.789,36.053c3.214-0.124,3.226-5.124,0-5
				c-29.145,1.123-53.527-14.469-73.254-34.588C446.472,416.766,442.939,420.304,445.197,422.607L445.197,422.607z"/>
		</g>
	</g>
	<g>
		<g>
			<path d="M435.882,467.137c8.319,8.889,17.749,16.218,29.048,20.892c11.932,4.936,25.215,5.63,37.946,4.784
				c3.2-0.213,3.22-5.214,0-5c-11.613,0.772-23.111,0.123-34.185-3.685c-11.484-3.95-21.079-11.77-29.273-20.526
				C437.21,461.243,433.681,464.786,435.882,467.137L435.882,467.137z"/>
		</g>
	</g>
	<g>
		<g>
			<path d="M430.473,502.664c10.456,13.907,33.232,23.701,50.42,19.1c3.112-0.833,1.79-5.656-1.329-4.821
				c-14.829,3.969-35.698-4.731-44.773-16.802C432.878,497.597,428.533,500.085,430.473,502.664L430.473,502.664z"/>
		</g>
	</g>
	<g>
		<g>
			<path d="M426.342,544.965c8.471,8.604,21.014,13.628,33.02,13.128c3.212-0.134,3.225-5.134,0-5
				c-10.735,0.447-21.897-3.956-29.484-11.664C427.613,539.129,424.079,542.666,426.342,544.965L426.342,544.965z"/>
		</g>
	</g>
	<path fill="none" stroke="#000000" stroke-width="4" stroke-miterlimit="10" d="M750.275,296.895
		c7.744-1.265,15.646-1.538,23.455-0.697c8.3,0.893,29.19,3.279,32.206,13.025c1.226,3.96-5.65,11.208-8.443,14.272
		c-3.786,4.153-13.126,10.786-18.211,13.18c-6.279,2.956-19.972,6.232-26.874,6.962c-5.219,0.552-15.808,0.026-20.974-0.9
		c-5.552-0.995-16.71-3.404-21.788-5.86c-3.007-1.454-9.702-4.776-10.743-7.956c-5.136-15.684,25.804-24.555,35.271-27.895
		C739.403,299.181,744.799,297.79,750.275,296.895z"/>
	<path fill="none" stroke="#000000" stroke-width="4" stroke-miterlimit="10" d="M700.378,361.504
		c4.793,0.107,8.875,0.587,11.337,1.283c10.042,2.841,42.937,15.071,25.619,28.947c-11.94,9.567-39.314,8.246-53.074,4.636
		c-6.979-1.831-17.274-6.691-20.453-13.875C656.342,365.619,683.02,361.117,700.378,361.504z"/>
	<path fill="none" stroke="#000000" stroke-width="4" stroke-miterlimit="10" d="M648.008,405.865
		c8.24,4.908,18.671,14.815,14.317,23.858c-5.075,10.541-23.112,5.187-30.963,1.863c-6.722-2.849-25.855-12.319-24.578-20.97
		c1.917-12.994,28.781-10.329,36.939-6.943C645,404.202,646.466,404.946,648.008,405.865z"/>
	<path fill="none" stroke="#000000" stroke-width="4" stroke-miterlimit="10" d="M634.643,517.183
		c9.612,9.729,21.791,23.962,17.356,38.02c-4.62,14.644-17.035,11.055-26.365,3.342c-12.134-10.032-22.708-26.765-21.124-43.155
		c1.951-20.186,18.566-9.666,27.805-0.533C633.066,515.6,633.845,516.376,634.643,517.183z"/>
	<path fill="none" stroke="#000000" stroke-width="4" stroke-miterlimit="10" d="M610.131,585.039
		c1.811,1.765,3.347,3.387,4.495,4.645c9.835,10.787,19.97,26.989,16.843,42.342c-2.161,10.614-10.942,18.086-21.965,15.162
		c-17.733-4.707-52.535-60.682-29.637-75.029C588.732,566.606,602.119,577.229,610.131,585.039z"/>
	<g>
		<path d="M524.908,279.193c0,0,0.033-0.162,0.119-0.392c0.084-0.233,0.221-0.532,0.409-0.843c0.378-0.619,1-1.212,1.733-1.583
			c0.733-0.371,1.578-0.52,2.302-0.454c0.362,0.033,0.684,0.103,0.922,0.175c0.236,0.069,0.386,0.139,0.386,0.139
			s-0.033,0.163-0.118,0.394c-0.083,0.234-0.22,0.534-0.408,0.845c-0.378,0.62-1,1.211-1.735,1.579
			c-0.735,0.368-1.581,0.515-2.304,0.45c-0.362-0.033-0.683-0.101-0.921-0.173C525.058,279.263,524.908,279.193,524.908,279.193z"/>
	</g>
	<g>
		<path d="M570.473,289.924c0,0,0.163,0.014,0.398,0.071c0.238,0.055,0.546,0.154,0.869,0.303c0.645,0.298,1.287,0.836,1.719,1.507
			c0.432,0.671,0.654,1.478,0.654,2.189c-0.001,0.356-0.04,0.678-0.091,0.917c-0.047,0.237-0.103,0.392-0.103,0.392
			s-0.164-0.013-0.399-0.07c-0.239-0.055-0.547-0.153-0.871-0.301c-0.647-0.297-1.286-0.836-1.715-1.509
			c-0.429-0.673-0.65-1.481-0.65-2.191c0-0.356,0.039-0.677,0.088-0.916C570.418,290.078,570.473,289.924,570.473,289.924z"/>
	</g>
</g>
</svg>
