<?xml version="1.0" encoding="utf-8"?>
<!-- Generator: Adobe Illustrator 17.0.0, SVG Export Plug-In . SVG Version: 6.00 Build 0)  -->
<!DOCTYPE svg PUBLIC "-//W3C//DTD SVG 1.1//EN" "http://www.w3.org/Graphics/SVG/1.1/DTD/svg11.dtd">
<svg version="1.1" xmlns="http://www.w3.org/2000/svg" xmlns:xlink="http://www.w3.org/1999/xlink" x="0px" y="0px" width="1024px"
	 height="768px" viewBox="0 0 1024 768" enable-background="new 0 0 1024 768" xml:space="preserve">
<g id="Capa_2">
	<path fill="none" stroke="#000000" stroke-width="5" stroke-miterlimit="10" d="M193.414,707.26
		c0-21.167,23.079-56.889,32.504-75.843c10.549-21.213,38.685-59.816,48.756-81.26c13.322-28.367,28.513-89.772,41.533-118.279
		c9.828-21.52,33.18-62.926,46.95-82.163c13.497-18.855,44.652-53.482,61.397-69.523c13.212-12.657,41.646-35.919,56.882-46.048
		c11.522-7.659,36.566-19.64,48.756-26.184c9.254-4.968,29.321-12.718,37.019-19.864c17.255-16.019,36.138-60.846,50.562-79.454
		c5.87-7.573,18.708-21.996,26.184-27.99c7.974-6.393,25.833-16.708,35.213-20.767c7.01-3.033,21.431-8.299,28.893-9.932
		c6.648-1.454,20.301-3.228,27.087-2.709c7.206,0.552,22.138,2.983,27.99,7.223c5.425,3.931,11.889,16.38,14.446,22.572
		c2.028,4.911,6.32,19.968,6.32,25.281"/>
	<path fill="none" stroke="#000000" stroke-width="5" stroke-miterlimit="10" d="M726.12,135.729
		c-0.379-5.63,3.778-16.632,6.32-21.669c2.685-5.32,9.289-15.975,14.446-18.961c4.531-2.623,20.767-2.709,20.767-2.709
		s12.691,6.214,15.349,9.932c2.707,3.785,4.185,13.416,4.514,18.058c0.467,6.564-1.406,19.733-2.709,26.184
		c-1.074,5.319-3.865,15.927-6.32,20.767c-2.042,4.026-7.912,11.006-10.835,14.446c-5.065,5.962-21.669,22.572-21.669,22.572
		l6.32-17.155c0,0,3.348-10.828,2.709-14.446c-0.676-3.824-6.03-10.173-9.029-12.64c-2.106-1.733-7.939-2.652-9.932-4.514
		c-2.435-2.276-4.852-8.745-6.32-11.738C728.753,141.859,726.269,137.947,726.12,135.729z"/>
	<path fill="none" stroke="#000000" stroke-width="5" stroke-miterlimit="10" d="M727.926,139.341c0,0-6.747,1.868-8.126,3.612
		c-2.279,2.883-2.499,10.778-2.709,14.446c-0.181,3.163,0.497,9.498,0.903,12.64c0.47,3.644,1.323,11.043,2.709,14.446
		c0.614,1.508,2.243,4.537,3.612,5.417c2.533,1.63,8.73,2.554,11.738,2.709c3.635,0.186,14.446-1.806,14.446-1.806"/>
	<path fill="none" stroke="#000000" stroke-width="5" stroke-miterlimit="10" d="M774.876,172.748c0,0,3.576,28.172,1.806,36.116
		c-0.725,3.253-4.51,8.94-6.32,11.738c-5.324,8.228-17.912,23.334-24.378,30.698c-6.846,7.797-22.708,21.464-28.893,29.795
		c-5.541,7.464-14.076,24.104-18.058,32.504c-8.116,17.12-19.407,53.535-27.99,70.426c-3.262,6.421-10.433,19.115-15.349,24.378
		c-9.153,9.799-43.339,31.601-43.339,31.601l-55.076,36.116c0,0-26.288,17.124-35.213,22.572
		c-6.906,4.216-21.299,11.702-27.99,16.252c-4.518,3.073-12.025,11.663-17.155,13.543c-6.15,2.254-18.963,4.593-25.281,6.32
		c-10.913,2.984-28.925,13.907-37.921,20.767c-13.964,10.648-51.465,46.047-51.465,46.047l-55.979,42.436
		c0,0-41.428,24.589-55.979,31.601c-3.215,1.549-10.442,2.748-13.543,4.514c-7.786,4.436-27.087,23.475-27.087,23.475
		s-5.992,8.089-9.029,8.126c-2.081,0.025-6.32-5.417-6.32-5.417"/>
	<path fill="none" stroke="#000000" stroke-width="5" stroke-miterlimit="10" d="M483.242,259.425c0,0,24.281-14.949,33.407-17.155
		c2.194-0.53,6.944-0.864,9.029,0c1.475,0.611,3.011,3.978,4.514,4.514c2.136,0.763,6.81-1.375,9.029-0.903
		c1.78,0.379,4.551,3.186,6.32,3.612c4.614,1.109,14.231-1.29,18.961-0.903c3.221,0.264,9.591,1.639,12.641,2.709
		c1.429,0.501,3.955,2.316,5.417,2.709c7.208,1.934,23.208-1.701,29.795,1.806c4.264,2.27,10.64,10.645,11.738,15.349
		c1.696,7.267-0.473,22.453-1.806,29.795c-1.645,9.062-7.729,26.542-10.835,35.213c-3.208,8.958-9.655,26.992-14.446,35.213
		c-4.047,6.945-14.06,19.72-19.864,25.281c-6.423,6.154-28.893,20.767-28.893,20.767s-15.12,3.767-19.864,7.223
		c-8.152,5.94-27.99,32.504-27.99,32.504s-21.716,25.664-29.795,33.407c-6.949,6.659-29.795,24.378-29.795,24.378l-20.767,16.252
		c0,0-11.732,9.573-16.252,11.738c-6.053,2.899-19.642,5.39-25.281,9.029c-15.96,10.299-39.629,41.054-54.174,53.271
		c-5.947,4.995-19.196,13.231-25.281,18.058c-6.507,5.162-24.378,22.572-24.378,22.572l-37.921,34.31"/>
	<path fill="none" stroke="#000000" stroke-width="5" stroke-miterlimit="10" d="M436.292,285.609c0,0-13.745,13.957-16.252,19.864
		c-1.51,3.557-0.631,11.668-1.806,15.349c-0.86,2.694-4.075,7.443-5.417,9.932c-1.822,3.377-5.952,9.923-7.223,13.543
		c-1.217,3.467-2.709,14.446-2.709,14.446l6.32,0.903c0,0-8.104,18.634-9.029,25.281c-0.468,3.361,0.903,13.543,0.903,13.543
		l0.903,5.417c0,0-12.599,23.752-13.543,32.504c-0.271,2.509-0.493,8.891,1.806,9.932c2.398,1.086,6.84-3.955,9.029-5.417
		c6.306-4.213,24.378-18.058,24.378-18.058s-3.759,12.661-1.806,16.252c0.965,1.773,5.218,3.377,7.223,3.612
		c3.915,0.457,11.633-2.297,15.349-3.612c6.377-2.255,24.378-11.738,24.378-11.738l22.572-9.029c0,0-11.269,10.049-13.543,14.446
		c-0.83,1.604-1.202,5.875,0,7.223c2.258,2.533,10.16,1.168,13.543,0.903c3.493-0.274,10.281-2.332,13.543-3.612
		c4.042-1.585,20.767-10.835,20.767-10.835"/>
	<path fill="none" stroke="#000000" stroke-width="5" stroke-miterlimit="10" d="M400.176,384.927c0,0-59.627,73.462-77.649,99.318
		c-11.534,16.548-42.436,68.62-42.436,68.62s-17.453,40.893-21.669,55.076c-2.233,7.511-12.985,26.578-6.32,30.698
		c9.956,6.155,28.364-21.025,36.116-29.795c13.644-15.436,44.242-69.523,44.242-69.523s23.062-40.353,31.601-53.271
		c6.946-10.508,29.795-40.63,29.795-40.63"/>
	<line fill="none" stroke="#000000" stroke-width="5" stroke-miterlimit="10" x1="252.102" y1="638.64" x2="200.637" y2="711.774"/>
	<path fill="none" stroke="#000000" stroke-width="5" stroke-miterlimit="10" d="M476.922,434.586l-59.591,61.397l-41.533,48.756
		l-24.378,28.893l-24.378,19.864l-13.543,10.835c0,0-4.093,6.136-6.32,6.32c-1.935,0.16-6.32-4.514-6.32-4.514l-2.709-8.126"/>
	<path fill="none" stroke="#000000" stroke-width="5" stroke-miterlimit="10" d="M418.234,320.822c0,0-37.934,31.84-48.756,44.242
		c-6.298,7.218-16.471,23.555-21.669,31.601c-10.43,16.144-42.436,64.105-42.436,64.105"/>
</g>
<g id="Capa_3">
	
		<ellipse transform="matrix(-0.7581 -0.6522 0.6522 -0.7581 1144.3815 632.7646)" stroke="#000000" stroke-width="5" stroke-miterlimit="10" cx="689.553" cy="104.128" rx="14.898" ry="20.767"/>
	
		<ellipse fill="#FFFFFF" stroke="#FFFFFF" stroke-width="5" stroke-miterlimit="10" cx="699.033" cy="98.71" rx="6.772" ry="7.223"/>
	<g>
		<path d="M421.735,420.541c0,0,1.675-1.329,4.607-3.655c2.948-2.314,7.16-5.62,12.215-9.586
			c5.045-3.977,11.047-8.484,17.413-13.379c0.8-0.608,1.606-1.221,2.418-1.839c0.833-0.599,1.672-1.201,2.517-1.808
			c1.687-1.212,3.395-2.438,5.117-3.675c1.72-1.235,3.454-2.479,5.194-3.729c1.846-1.201,3.637-2.273,5.462-3.418
			c1.8-1.146,3.668-2.22,5.519-3.299c1.849-1.079,3.69-2.153,5.517-3.22c3.668-2.075,7.279-4.118,10.773-6.095
			c7.012-3.901,13.568-7.516,19.206-10.58c11.293-6.094,18.821-10.156,18.821-10.156s-7.342,4.388-18.355,10.97
			c-5.496,3.307-11.884,7.204-18.71,11.403c-3.396,2.123-6.905,4.317-10.471,6.546c-1.761,1.134-3.537,2.277-5.319,3.425
			c-1.782,1.146-3.574,2.283-5.331,3.512c-1.746,1.205-3.574,2.415-5.247,3.611c-1.664,1.31-3.322,2.615-4.966,3.909
			c-1.643,1.293-3.273,2.575-4.883,3.843c-0.805,0.633-1.604,1.262-2.398,1.887c-0.781,0.65-1.556,1.295-2.325,1.935
			c-6.128,5.156-11.895,9.895-16.748,14.078c-4.861,4.172-8.912,7.649-11.748,10.082c-2.827,2.452-4.443,3.853-4.443,3.853
			L421.735,420.541z"/>
	</g>
	<g>
		<path d="M398.698,401.16c0,0,6.238-7.874,15.766-19.542c2.399-2.908,4.997-6.058,7.746-9.389c1.4-1.651,2.837-3.348,4.307-5.082
			c1.471-1.733,3.062-3.471,4.63-5.254c3.224-3.439,6.597-6.983,10.087-10.495c3.471-3.531,7.056-7.059,10.688-10.543
			c1.801-1.755,3.674-3.446,5.499-5.164c1.87-1.68,3.718-3.361,5.622-4.97c0.963-0.794,1.921-1.585,2.875-2.372
			c0.989-0.796,1.954-1.483,2.923-2.223c1.988-1.431,3.955-2.818,5.901-4.141c7.792-5.304,15.189-10.029,21.537-14.071
			c12.711-8.056,21.274-13.277,21.274-13.277s-8.363,5.54-20.757,14.06c-6.186,4.273-13.401,9.271-20.953,14.837
			c-1.892,1.393-3.778,2.832-5.664,4.298c-0.925,0.763-1.915,1.528-2.802,2.301c-0.903,0.804-1.811,1.612-2.723,2.424
			c-1.806,1.645-3.576,3.381-5.358,5.107c-1.747,1.773-3.534,3.511-5.258,5.322c-3.474,3.592-6.904,7.231-10.221,10.867
			c-3.337,3.618-6.529,7.236-9.606,10.774c-1.47,1.804-2.939,3.533-4.331,5.302c-1.391,1.771-2.752,3.504-4.077,5.191
			c-2.611,3.417-5.079,6.647-7.358,9.629c-9.062,11.984-14.984,20.06-14.984,20.06L398.698,401.16z"/>
	</g>
	<g>
		<path d="M489.521,415.97c0,0,4.13-2.989,10.326-7.472c3.098-2.242,6.712-4.857,10.584-7.659c1.936-1.401,3.937-2.849,5.97-4.32
			c0.999-0.726,2.006-1.457,3.016-2.191c1.001-0.782,2.005-1.566,3.01-2.351c16.072-12.554,32.144-25.107,32.144-25.107
			s-15.106,13.701-30.211,27.402c-0.944,0.856-1.888,1.713-2.829,2.566c-0.985,0.833-1.965,1.663-2.938,2.487
			c-1.919,1.617-3.808,3.207-5.636,4.747c-3.656,3.079-7.068,5.953-9.993,8.416c-5.849,4.927-9.749,8.211-9.749,8.211
			L489.521,415.97z"/>
	</g>
</g>
<g id="Capa_4">
	<path fill="none" stroke="#000000" stroke-width="5" stroke-miterlimit="10" d="M476.922,528.487l1.806,14.446
		c0,0,16.299-11.554,22.572-13.543c5.825-1.848,18.65-3.934,24.378-1.806c3.89,1.445,9.411,8.301,11.738,11.738
		c1.927,2.847,3.262,9.962,5.417,12.641c1.218,1.513,5.209,2.922,6.32,4.514c1.445,2.069,2.163,7.433,1.806,9.932
		c-0.357,2.498-4.514,9.029-4.514,9.029l9.029-1.806l10.835-8.126l0.903-11.738c0,0,1.413-10.467,0-13.543
		c-1.466-3.191-8.086-6.945-9.932-9.932c-1.876-3.036-4.514-13.543-4.514-13.543l-19.864-9.029l23.475,7.223l11.738,5.417
		l6.32,4.514l4.514,8.126l-0.903,8.126l-4.514,8.126l-1.806,4.514c0,0,14.074-5.288,17.155-9.029
		c2.996-3.638,5.345-13.345,5.417-18.058c0.054-3.504-1.79-10.55-3.612-13.543c-1.745-2.866-6.879-7.636-9.932-9.029
		c-2.94-1.342-12.641-2.709-12.641-2.709l-11.738-4.514l-34.31,1.806"/>
	<path fill="none" stroke="#000000" stroke-width="5" stroke-miterlimit="10" d="M565.405,546.545"/>
	<path fill="none" stroke="#000000" stroke-width="5" stroke-miterlimit="10" d="M549.153,556.477"/>
	<path fill="none" stroke="#000000" stroke-width="5" stroke-miterlimit="10" d="M585.269,509.526"/>
	<path fill="none" stroke="#000000" stroke-width="5" stroke-miterlimit="10" d="M574.434,524.875"/>
	<line fill="none" stroke="#000000" stroke-width="5" stroke-miterlimit="10" x1="548.25" y1="482.44" x2="556.376" y2="496.886"/>
	<path fill="none" stroke="#000000" stroke-width="5" stroke-miterlimit="10" d="M580.754,503.206c0,0,6.257-20.688,10.835-22.572
		c2.907-1.196,9.16,2.715,11.738,4.514c0.628,0.438,1.513,1.729,2.017,2.305c2.656,3.035,10.624,12.141,10.624,12.141l1.806,18.961
		l-7.223-8.126l-11.738-6.32L580.754,503.206z"/>
	<path fill="none" stroke="#000000" stroke-width="5" stroke-miterlimit="10" d="M603.327,485.148c0-3.208,9.932-8.126,9.932-8.126
		l-2.709-12.64l1.806-24.378"/>
	<path fill="none" stroke="#000000" stroke-width="5" stroke-miterlimit="10" d="M632.219,475.216"/>
	<path fill="none" stroke="#000000" stroke-width="5" stroke-miterlimit="10" d="M613.259,477.022c0,0,14.547-0.018,18.961-1.806
		c2.679-1.085,6.183-6.716,9.029-7.223c2.811-0.501,8.816,1.593,10.835,3.612c2.019,2.019,3.114,8.023,3.612,10.835
		c0.948,5.353,0.481,16.738-1.806,21.669c-1.612,3.475-10.835,10.835-10.835,10.835l-12.641,4.514l8.126-20.767
		c0,0-1.945-3.465-4.514-3.612c-2.427-0.139-6.635-3.186-9.029-3.612c-3.363-0.598-13.543,1.806-13.543,1.806"/>
	<path fill="none" stroke="#000000" stroke-width="5" stroke-miterlimit="10" d="M654.792,497.789c0,6.01,17.055,8.23,19.864,13.543
		c1.477,2.794-0.345,9.499,0,12.64c0.227,2.069,2.262,6.096,1.806,8.126c-0.565,2.511-4.948,5.949-6.32,8.126
		c-1.615,2.562-3.394,8.581-5.417,10.835c-2.51,2.796-12.641,8.126-12.641,8.126l-11.738-1.806c0,0,6.644-5.665,8.126-8.126
		c1.584-2.63,3.43-8.673,3.612-11.738c0.15-2.519-1.719-7.41-1.806-9.932c-0.071-2.043,1.357-6.133,0.903-8.126
		c-0.473-2.076-4.514-5.094-4.514-7.223"/>
	<path fill="none" stroke="#000000" stroke-width="5" stroke-miterlimit="10" d="M478.728,542.933l-27.087,17.155l-27.087,12.641
		l-12.64,4.514c0,0-0.463,9.131,0.903,11.738c2.16,4.122,10.394,9.45,14.446,11.738c5.223,2.948,16.664,7.095,22.572,8.126
		c4.225,0.737,12.879,0.327,17.155,0c2.96-0.226,8.909-0.905,11.738-1.806c1.924-0.612,5.71-2.275,7.223-3.612
		c1.83-1.616,5.417-8.126,5.417-8.126l9.932-15.349l10.835-13.543l18.058-10.835l9.932-8.126"/>
	<path fill="none" stroke="#000000" stroke-width="5" stroke-miterlimit="10" d="M491.368,595.301c0,0-16.223-14.006-22.572-17.155
		c-3.778-1.874-12.074-3.945-16.252-4.514c-4.92-0.671-19.864,0-19.864,0l-17.155,2.709"/>
	<path fill="none" stroke="#000000" stroke-width="5" stroke-miterlimit="10" d="M593.395,537.516l17.155-5.417l13.543,6.32
		l8.126,17.155c0,0-1.843,10.952-0.903,14.446c0.634,2.358,3.976,6.155,5.417,8.126c2.559,3.5,8.369,9.977,10.835,13.543
		c4.028,5.827,12.464,17.577,14.446,24.378c1.959,6.721-0.756,21.188,0.903,27.99c1.363,5.591,6.668,16.026,9.932,20.766
		c3.531,5.129,13.794,12.816,17.155,18.058c2.624,4.093,6.304,13.283,7.223,18.058c0.598,3.103,0,9.48,0,12.641"/>
	<path fill="none" stroke="#000000" stroke-width="5" stroke-miterlimit="10" d="M674.655,536.613l7.223,24.378
		c0,0,1.728,16.51,3.612,21.669c2.43,6.655,10.567,18.45,14.446,24.378c3.808,5.818,11.839,17.198,16.252,22.572
		c2.939,3.579,9.592,10.056,12.64,13.543c4.223,4.831,12.812,14.448,16.252,19.864c3.086,4.858,7.945,15.365,9.932,20.766
		c2.74,7.451,8.126,22.759,8.126,30.698"/>
</g>
</svg>
