<?xml version="1.0" encoding="utf-8"?>
<!-- Generator: Adobe Illustrator 17.0.0, SVG Export Plug-In . SVG Version: 6.00 Build 0)  -->
<!DOCTYPE svg PUBLIC "-//W3C//DTD SVG 1.1//EN" "http://www.w3.org/Graphics/SVG/1.1/DTD/svg11.dtd">
<svg version="1.1" xmlns="http://www.w3.org/2000/svg" xmlns:xlink="http://www.w3.org/1999/xlink" x="0px" y="0px" width="1024px"
	 height="768px" viewBox="0 0 1024 768" enable-background="new 0 0 1024 768" xml:space="preserve">
<g id="Capa_2">
	<g>
		<g>
			<path d="M407.54,317.389c15.56-18.436,37.864-30.011,59.63-39.51c23.532-10.27,48.212-17.678,72.136-26.952
				c13.912-5.393,27.944-10.458,42.633-13.287c14.681-2.827,29.926-1.681,44.781-2.869c13.623-1.089,26.034-4.705,38.125-11.029
				c11.56-6.046,22.556-13.137,33.467-20.267c22.446-14.668,44.716-30.312,69.86-40.082c16.719-6.496,42.048-13.811,57.84-1.144
				c11.5,9.224,12.643,26.18,12.169,39.756c-0.568,16.244-4.21,32.319-8.235,48.006c-2.492,9.715-5.083,19.365-8.758,28.715
				c-5.016,12.763-11.826,24.809-19.291,36.283c-15.106,23.217-33.867,43.936-53.475,63.404
				c-9.587,9.518-19.23,19.113-30.029,27.269c-9.07,6.85-18.542,13.17-28.084,19.337c-61.64,39.839-127.779,73.877-195.384,102.337
				c-36.158,15.222-73.228,28.763-111.348,38.194c-30.125,7.453-62.623,13.258-93.646,8.415c-10.059-1.57-19.757-4.542-28.468-9.898
				c-9.027-5.55-15.938-13.793-21.497-22.69c-6.098-9.76-12.024-21.121-14.339-32.43c-2.366-11.559-0.308-23.919,2.985-35.082
				c5.953-20.18,17.421-38.639,32.352-53.331c10.14-9.978,21.6-18.559,32.879-27.184c12.281-9.392,24.577-18.742,37.132-27.768
				c13.174-9.471,26.582-18.616,40.176-27.473c6.772-4.412,13.607-8.724,20.482-12.973c3.708-2.292,7.438-4.55,11.176-6.793
				c2.444-1.467,5.812-2.705,7.556-5.013c1.706-2.259-1.441-4.277-3.42-3.42c-1.698,0.735-2.929,2.291-3.584,3.96
				c-1.179,3.005,3.657,4.295,4.821,1.329c0.182-0.463,0.836-0.777,1.286-0.972c-1.14-1.14-2.28-2.28-3.42-3.42
				c-0.567,0.75-3.283,1.74-4.156,2.26c-1.607,0.957-3.209,1.922-4.811,2.888c-3.199,1.928-6.382,3.883-9.559,5.847
				c-6.875,4.249-13.686,8.599-20.457,13.01c-13.074,8.517-25.929,17.368-38.614,26.455c-12.569,9.004-24.858,18.37-37.132,27.768
				c-10.748,8.23-21.526,16.431-31.461,25.647c-15.732,14.593-27.005,32.56-34.356,52.671c-3.371,9.221-5.334,18.991-5.75,28.797
				c-0.523,12.316,3.32,22.986,8.486,33.941c8.674,18.394,20.945,35.255,40.304,43.233c14.54,5.992,30.734,7.405,46.33,7.245
				c34.019-0.35,67.923-8.707,100.278-18.588c75.661-23.106,148.125-57.971,217.066-96.451
				c26.161-14.602,52.054-29.904,76.726-46.926c26.274-18.126,48.868-41.083,69.778-65.094
				c17.648-20.265,33.596-42.423,44.593-67.038c7.533-16.861,11.971-35.293,15.718-53.344c5.061-24.377,11.822-66.903-17.448-79.247
				c-19.084-8.049-42.532-0.55-60.481,7.019c-24.303,10.248-46.007,25.68-67.998,40.011c-10.878,7.089-21.909,13.965-33.464,19.906
				c-13.576,6.981-28.086,8.936-43.164,9.559c-14.512,0.599-28.676,0.642-42.905,3.938c-14.538,3.368-28.458,9.022-42.332,14.409
				c-23.043,8.946-46.709,16.051-69.352,26.052c-21.171,9.35-42.747,21.147-57.882,39.08
				C401.939,316.301,405.457,319.857,407.54,317.389L407.54,317.389z"/>
		</g>
	</g>
</g>
<g id="Capa_4">
	<path fill="#FFFFFF" stroke="#000000" stroke-width="4" stroke-miterlimit="10" d="M479.079,446.978c0,0-0.859,9.759-0.378,13.325
		c0.454,3.366,5.138,12.609,5.138,12.609l83.057,34.464l93.332,30.261c0,0,51.748,14.425,69.357,17.652
		c14.617,2.679,44.214,6.489,59.082,6.725c10.309,0.163,37.957-1.71,47.95-4.203c11.333-2.827,33.394-17.652,33.394-17.652"/>
</g>
<g id="Capa_3">
	<path fill="#FFFFFF" stroke="#000000" stroke-width="4" stroke-miterlimit="10" d="M480.414,446.013
		c0,0,75.159,35.524,101.038,45.392c26.971,10.284,83.442,31.758,112.169,39.507c24.467,6.6,73.973,14.736,100.182,15.971
		c19.575,0.923,60.957,1.23,77.919-8.406c5.966-3.389,14.849-15.233,16.269-21.855c1.851-8.632-2.693-27.143-7.706-34.464
		c-13.051-19.06-56.482-41.196-77.063-52.116c-14.443-7.663-44.867-20.506-59.938-26.899c-22.849-9.691-89.907-41.189-89.907-41.189
		s-70.555,14.935-92.476,24.377c-13.922,5.996-39.435,22.703-51.375,31.942C501.561,424.438,480.414,446.013,480.414,446.013z"/>
</g>
<g id="Capa_11">
	<path fill="#FFFFFF" stroke="#000000" stroke-width="2" stroke-miterlimit="10" d="M361.083,470.07
		c4.206,10.913-0.622,22.819-10.784,26.593s-21.809-2.013-26.014-12.926c-4.206-10.913,0.622-22.819,10.784-26.593
		S356.878,459.157,361.083,470.07z"/>
	<path fill="#FFFFFF" stroke="#000000" stroke-width="2" stroke-miterlimit="10" d="M277.249,420.745
		c11.879-0.372,21.791,7.968,22.137,18.628c0.347,10.66-9.002,19.604-20.882,19.976c-11.879,0.372-21.791-7.968-22.137-18.628
		C256.021,430.061,265.37,421.117,277.249,420.745z"/>
	<ellipse stroke="#000000" stroke-width="2" stroke-miterlimit="10" cx="280.606" cy="444.794" rx="13.795" ry="13.106"/>
	<ellipse stroke="#000000" stroke-width="2" stroke-miterlimit="10" cx="346.02" cy="483.764" rx="13.795" ry="13.106"/>
	<g>
		<path d="M277.936,412.466c0,0,0.548-0.179,1.518-0.401c0.969-0.226,2.356-0.488,4.032-0.702c0.838-0.102,1.751-0.175,2.717-0.244
			c0.978-0.027,1.989-0.093,3.082-0.035c0.549,0.022,1.093,0.046,1.67,0.101c0.306,0.048,0.614,0.096,0.923,0.145l0.465,0.083
			l0.233,0.044l0.117,0.022l0.029,0.006l0.103,0.032l0.049,0.015l0.781,0.245c0.263,0.082,0.584,0.22,0.872,0.338
			c0.619,0.244,1.106,0.499,1.649,0.75c1.038,0.544,2.05,1.113,3.004,1.779c0.481,0.324,0.952,0.661,1.405,1.048
			c0.228,0.185,0.453,0.361,0.682,0.588l0.336,0.324l0.164,0.163l0.081,0.081l0.02,0.02l0.105,0.112l0.007,0.01l0.029,0.039
			c0.305,0.447,0.607,0.773,0.899,1.299c0.285,0.497,0.588,0.991,0.817,1.452c0.423,0.892,0.809,1.738,1.106,2.532
			c0.614,1.586,1.005,2.945,1.252,3.91c0.245,0.964,0.333,1.536,0.333,1.536s-0.402-0.418-1.04-1.171
			c-0.649-0.747-1.525-1.84-2.559-3.127c-0.505-0.638-1.052-1.329-1.631-2.061c-0.267-0.313-0.541-0.635-0.822-0.964
			c-0.25-0.312-0.68-0.706-1.022-1.066l-0.034-0.035l-0.009-0.009c-0.089-0.094,0.112,0.118,0.088,0.094l-0.016-0.012l-0.066-0.046
			l-0.131-0.093l-0.258-0.19c-0.157-0.131-0.366-0.259-0.568-0.388c-0.392-0.261-0.823-0.515-1.258-0.777
			c-0.875-0.509-1.792-1.017-2.719-1.48c-0.454-0.222-0.943-0.485-1.346-0.651c-0.221-0.091-0.396-0.192-0.648-0.292l-0.764-0.295
			l-0.588-0.144l-0.65-0.18c-0.493-0.091-0.98-0.181-1.459-0.27c-0.963-0.188-1.955-0.314-2.868-0.488
			c-0.93-0.139-1.809-0.301-2.626-0.445c-1.635-0.297-3.007-0.584-3.97-0.813C278.491,412.634,277.936,412.466,277.936,412.466z"/>
	</g>
	<g>
		<path d="M340.296,445.199c0,0,0.548-0.179,1.518-0.401c0.969-0.226,2.356-0.488,4.032-0.702c0.838-0.102,1.751-0.176,2.717-0.244
			c0.978-0.027,1.989-0.093,3.082-0.034c0.549,0.022,1.093,0.046,1.67,0.101c0.306,0.048,0.614,0.096,0.923,0.145l0.465,0.083
			l0.233,0.044l0.117,0.022l0.029,0.006l0.103,0.032l0.049,0.015l0.781,0.245c0.263,0.082,0.584,0.22,0.872,0.337
			c0.619,0.244,1.106,0.499,1.649,0.75c1.038,0.544,2.05,1.113,3.004,1.779c0.481,0.324,0.952,0.661,1.405,1.048
			c0.228,0.185,0.453,0.361,0.682,0.588l0.336,0.324l0.164,0.163l0.081,0.081l0.02,0.02l0.105,0.112l0.007,0.01l0.029,0.039
			c0.305,0.447,0.607,0.773,0.899,1.299c0.285,0.497,0.588,0.991,0.817,1.452c0.423,0.892,0.809,1.738,1.106,2.532
			c0.614,1.586,1.005,2.945,1.252,3.91c0.245,0.964,0.333,1.536,0.333,1.536s-0.402-0.418-1.04-1.171
			c-0.649-0.747-1.525-1.84-2.559-3.127c-0.505-0.638-1.052-1.329-1.631-2.061c-0.267-0.313-0.541-0.635-0.822-0.964
			c-0.25-0.312-0.68-0.706-1.022-1.066l-0.034-0.035l-0.009-0.009c-0.089-0.094,0.112,0.118,0.088,0.094l-0.016-0.012l-0.066-0.046
			l-0.131-0.093l-0.258-0.19c-0.157-0.131-0.366-0.259-0.568-0.388c-0.392-0.261-0.823-0.515-1.258-0.777
			c-0.875-0.509-1.792-1.017-2.719-1.48c-0.454-0.222-0.943-0.485-1.346-0.651c-0.221-0.091-0.396-0.192-0.648-0.292l-0.764-0.295
			l-0.588-0.144l-0.65-0.18c-0.493-0.091-0.98-0.181-1.459-0.27c-0.963-0.188-1.955-0.314-2.868-0.488
			c-0.93-0.139-1.809-0.301-2.626-0.445c-1.635-0.297-3.007-0.584-3.97-0.813C340.852,445.367,340.296,445.199,340.296,445.199z"/>
	</g>
	<ellipse fill="#FFFFFF" stroke="#000000" stroke-miterlimit="10" cx="278.158" cy="438.241" rx="4.228" ry="3.932"/>
	<ellipse fill="#FFFFFF" stroke="#000000" stroke-miterlimit="10" cx="344.806" cy="476.962" rx="4.228" ry="3.932"/>
</g>
<g id="Capa_5">
	<path fill="none" stroke="#000000" stroke-width="4" stroke-miterlimit="10" d="M334.85,359.433c0,0-39.297-25.467-50.519-36.145
		c-8.763-8.338-26.165-26.443-29.969-37.826c-2.47-7.391-5.553-23.896-2.569-31.102c2.853-6.888,17.103-18.729,23.975-21.855
		c9.137-4.157,30.251-2.899,40.244-1.681c10.418,1.269,30.383,8.232,40.244,11.768c9.225,3.308,27.691,9.892,36.819,13.449
		c9.719,3.787,38.531,15.971,38.531,15.971l18.838,9.246"/>
</g>
<g id="Capa_6">
	<path fill="none" stroke="#000000" stroke-width="4" stroke-miterlimit="10" d="M256.075,248.476c0,0-11.298,17.686-12.844,24.377
		c-1.516,6.561-1.577,20.609,0.856,26.899c2.968,7.672,15.312,19.601,21.406,25.217c4.64,4.276,13.86,12.918,18.838,16.812
		c4.691,3.669,14.858,9.967,19.694,13.449c4.799,3.456,18.838,14.29,18.838,14.29"/>
</g>
<g id="Capa_7">
	<path fill="none" stroke="#000000" stroke-width="4" stroke-miterlimit="10" d="M274.056,406.506c0,0,44.211-3.029,58.225,0.841
		c10.532,2.908,29.334,14.906,37.675,21.855c9.153,7.626,25.2,25.734,30.825,36.145c5.111,9.461,11.074,30.517,11.988,41.189
		c0.811,9.481-1.388,28.745-4.281,37.826c-2.687,8.436-17.125,31.102-17.125,31.102"/>
</g>
<g id="Capa_8">
	<path fill="#FFFFFF" stroke="#000000" stroke-width="4" stroke-miterlimit="10" d="M267.725,507.465
		c0,0-14.031-10.094-17.76-14.782c-4.398-5.528-8.852-19.218-12.659-25.153c-6.208-9.678-20.007-28.449-28.761-35.996
		c-7.747-6.679-25.702-17.414-35.467-20.664c-9.798-3.261-31.088-7.36-41.096-4.787c-6.549,1.683-18.576,9.863-21.875,15.666
		c-3.603,6.338-4.332,21.972-2.286,28.947c2.379,8.11,14.139,21.422,20.486,27.116c6.273,5.628,21.316,13.851,29.012,17.39
		c5.544,2.55,17.319,6.022,23.184,7.745c6.543,1.922,19.733,4.097,26.514,4.904c7.999,0.953,24.298-0.278,32.163,1.44
		c5.469,1.195,18.285,9.333,18.285,9.333L267.725,507.465z"/>
	<path fill="#FFFFFF" stroke="#000000" stroke-width="4" stroke-miterlimit="10" d="M290.842,539.045
		c28.252,22.246,40.295,56.188,66.699,80.379c24.202,22.174,91.106,35.09,93.481-12.955c1.685-34.078-54.581-62.804-83.677-66.834
		c-12.34-1.71-24.797-2.098-37.156-3.54c-10.868-1.268-28.081-6.95-28.081-6.95S294.271,532.408,290.842,539.045z"/>
</g>
<g id="Capa_9">
	<path fill="none" stroke="#000000" stroke-width="4" stroke-miterlimit="10" d="M279.194,502.332
		c-3.445,0.204-9.464,4.413-11.988,6.725c-2.821,2.585-9.038,8.444-11.055,11.674c-2.055,3.288-3.82,9.707-4.379,13.526
		c-0.406,2.775,2.204,7.2,4.379,9.017c2.45,2.048,8.66,2.679,11.855,2.307c3.563-0.415,8.694-1.638,12.044-2.9
		c5.276-1.987,15.686-9.203,15.686-9.203s6.701-8.488,6.127-11.907c-0.571-3.401-4.682-11.326-7.462-13.431
		C290.906,505.494,283.599,502.071,279.194,502.332z"/>
</g>
<g id="Capa_10">
	<path fill="#FFFFFF" stroke="#000000" stroke-width="4" stroke-miterlimit="10" d="M404.763,318.103
		c1.94,9.102,20.703,19.409,28.926,24.027c9.925,5.575,31.835,13.339,43.166,14.853c16.572,2.214,50.724,0.323,66.751-4.369
		c17.376-5.087,51.904-21.018,63.191-34.949c7.257-8.956,12.735-33.295,10.68-44.56c-2.094-11.48-17.48-31.02-26.255-38.881
		c-8.494-7.608-29.554-15.469-40.941-17.038c-13.42-1.849-39.804,2.367-52.511,6.99c-10.549,3.837-30.432,14.577-39.606,20.969
		c-8.476,5.907-24.64,19.235-30.706,27.522C419.939,282.943,402.123,305.721,404.763,318.103z"/>
</g>
<g id="Capa_12">
	<path fill="none" stroke="#000000" stroke-width="4" stroke-miterlimit="10" d="M687.343,206.703c0,0-16.642-10.847-19.705-15.263
		c-2.675-3.857-6.091-13.108-5.823-17.766c0.216-3.755,3.497-11.155,6.306-13.712c3.096-2.817,11.689-5.106,15.873-5.658
		c4.103-0.541,12.455,0.483,16.507,1.318c2.791,0.574,10.783,3.652,10.783,3.652l14.389,5.306l19.966,5.428"/>
	<path fill="#FFFFFF" stroke="#000000" stroke-width="4" stroke-miterlimit="10" d="M785.245,229.42
		c2.116-5.167,10.929-12.859,15.13-16.601c3.065-2.73,9.787-7.544,13.35-9.611c2.957-1.715,9.031-5.493,12.46-5.679
		c2.32-0.126,6.687,1.927,8.9,2.621c9.449,2.962,28.523,9.491,36.491,15.29c6.534,4.756,19.78,16.558,20.915,24.464
		c0.612,4.26-3.885,12.825-7.12,15.727c-4.078,3.658-15.439,6.283-20.915,6.99c-6.633,0.856-26.7-1.747-26.7-1.747l-24.92-6.553
		c0,0-23.613-6.08-28.036-12.232C782.938,239.5,784.041,232.361,785.245,229.42z"/>
</g>
<g id="Capa_13">
	<path fill="#FFFFFF" stroke="#000000" stroke-width="4" stroke-miterlimit="10" d="M719.342,226.344
		c-6.715-16.183-2.112-61.837,0.932-79.054c1.92-10.858,9.006-32.266,15.13-41.502c3.434-5.179,12.245-15.167,18.245-17.038
		c4.394-1.37,14.148,0.547,18.245,2.621c6.574,3.327,15.745,15.383,20.47,20.969c5.246,6.203,14.66,19.452,19.135,26.212
		c3.234,4.885,12.015,20.096,12.015,20.096l-27.145,38.881c0,0-16.609,17.88-23.14,22.717c-4.572,3.386-14.626,9.046-20.025,10.922
		c-4.259,1.48-13.296,3.394-17.8,3.058C729.963,233.819,721.513,231.577,719.342,226.344z"/>
</g>
<g id="Capa_14">
	<path fill="none" stroke="#000000" stroke-width="4" stroke-miterlimit="10" d="M745.639,232.041c0,0-7.904-36.564-9.345-48.929
		c-1.19-10.209-2.82-30.84-1.78-41.065c0.786-7.723,4.984-22.808,7.565-30.144c2.032-5.775,10.235-22.28,10.235-22.28"/>
</g>
<g id="Capa_15">
	<path fill="#FFFFFF" stroke="#000000" stroke-width="3" stroke-miterlimit="10" d="M787.536,229.165c0,0,18.996,7.589,25.53,9.537
		c6.267,1.869,19.12,4.447,25.53,5.767c5.345,1.1,16.065,3.182,21.464,3.992c4.328,0.65,13.025,1.746,17.397,1.996
		c2.425,0.139,9.715,0,9.715,0l3.163-1.774"/>
</g>
<g id="Capa_16">
	<path fill="#FFFFFF" stroke="#000000" stroke-width="3" stroke-miterlimit="10" d="M701.229,197.891c0,0-12.58-6.917-16.719-9.315
		c-2.511-1.455-7.593-4.291-9.941-5.989c-2.418-1.747-11.748-9.094-11.748-9.094"/>
</g>
</svg>
