<?xml version="1.0" encoding="utf-8"?>
<!-- Generator: Adobe Illustrator 17.0.0, SVG Export Plug-In . SVG Version: 6.00 Build 0)  -->
<!DOCTYPE svg PUBLIC "-//W3C//DTD SVG 1.1//EN" "http://www.w3.org/Graphics/SVG/1.1/DTD/svg11.dtd">
<svg version="1.1" xmlns="http://www.w3.org/2000/svg" xmlns:xlink="http://www.w3.org/1999/xlink" x="0px" y="0px" width="1024px"
	 height="768px" viewBox="0 0 1024 768" enable-background="new 0 0 1024 768" xml:space="preserve">
<g id="Capa_2">
	<g>
		<g>
			<path d="M796.592,252.657c-3.685-10.938-2.626-23.605-1.818-34.937c0.758-10.621,1.654-20.862,0.098-31.482
				c-2.701-18.436-10.879-35.139-23.501-48.808c-26.153-28.321-66.737-40.222-103.873-44.493
				c-26.358-3.032-53.232-1.537-79.695-1.253c-28.859,0.31-57.781,1.188-86.623-0.131c-21.598-0.988-46.201-3.4-66.669,5.143
				c-12.743,5.319-25.735,10.757-38.208,16.805c-7.166,3.475-14.706,7.19-20.652,12.588c-6.95,6.309-11.921,15.261-16.402,23.371
				c-10.911,19.746-19.1,41.039-26.911,62.159c-14.912,40.322-22.222,83.626-30.691,125.662
				c-3.328,16.518-7.003,33.477-7.371,50.384c-0.347,15.922,4.311,32.668,9.763,47.496c2.233,6.073,5.004,13.086,10.653,16.751
				c4.819,3.126,11.225,4.166,16.76,5.165c10.136,1.828,20.542,2.712,30.833,3.053c0.799,0.026,1.819-0.478,2.159-1.238
				c1.795-4.022,3.842-7.951,6.209-11.667c1.777-2.789,3.331-4.152,6.573-4.895c2.733-0.627,7.965-1.248,10.332,0.661
				c3.589,2.895,5.878,8.293,7.872,12.366c-0.834-1.704-0.251-0.595-0.165,0.441c0.099,1.185,0.198,2.371,0.296,3.556
				c0.144,1.724,0.287,3.448,0.431,5.172c0.083,1.001,0.691,2.257,1.835,2.411c14.943,2.011,29.885,4.023,44.828,6.034
				c1.202,0.162,2.87-0.272,3.075-1.746c0.57-4.095,1.381-8.163,2.41-12.166c0.63-2.452,1.31-5.439,2.981-7.42
				c2.474-2.932,8.144-4.135,11.764-4.49c6.433-0.632,11.559,6.489,13.092,11.841c0.826,2.885,1.381,5.853,1.915,8.802
				c0.216,1.194,0.407,2.393,0.595,3.593c0.046,0.293,0.382,2.654,0.263,1.763c0.179,1.345,1.001,2.507,2.5,2.5
				c5.641-0.026,11.281-0.052,16.922-0.078c2.656-0.012,6.04-4.989,7.846-6.697c4.274-4.041,8.599-8.02,12.732-12.207
				c8.042-8.146,15.414-17.299,18.841-28.375c3.752-12.128,2.754-25.135,0.421-37.417c-2.539-13.363-7.045-26.278-10.308-39.467
				c-3.119-12.608-3.987-24.856-2.832-37.761c0.886-9.894,5.77-16.681,11.484-24.52c2.399-3.292,9.157-4.297,13.045-5.139
				c6.852-1.484,13.853-2.052,20.663-3.767c21.49-5.411,43.398-11.197,64.173-18.948c19.724-7.359,38.33-17.401,58.277-24.206
				c8.638-2.947,19.66-6.869,28.883-6.2c9.056,0.656,18.051,2.039,26.929,3.921c14.863,3.151,33.303,7.893,43.32,20.255
				c2.031,2.506,5.546-1.055,3.536-3.536c-6.006-7.412-14.937-11.735-23.632-15.165c-11.091-4.375-22.931-6.904-34.685-8.706
				c-5.131-0.787-10.294-1.36-15.468-1.77c-6.079-0.482-13.034,1.593-18.887,3.029c-13.425,3.293-26.229,8.831-38.835,14.401
				c-13.277,5.866-26.443,11.997-40.275,16.474c-14.982,4.849-30.231,9.101-45.43,13.213c-6.791,1.837-13.536,3.501-20.489,4.588
				c-6.302,0.985-12.836,1.788-18.725,4.387c-7.444,3.285-11.38,10.684-15.333,17.548c-3.541,6.15-3.616,13.785-4.037,20.688
				c-0.573,9.419,0.47,18.604,2.408,27.818c4.38,20.827,13.169,40.847,13.3,62.414c0.062,10.255-2.549,19.985-8.098,28.597
				c-5.1,7.914-12.079,14.597-18.879,21.032c-2.708,2.563-5.456,5.084-8.139,7.673c-0.932,0.899-3.953,2.853-1.807,2.843
				c-0.741,0.003-1.483,0.007-2.224,0.01c-4.899,0.022-9.798,0.045-14.698,0.067c0.833,0.833,1.667,1.667,2.5,2.5
				c-0.827-6.207-1.837-12.516-3.88-18.45c-2.16-6.273-9.288-12.05-15.934-12.572c-6.943-0.545-15.92,3.414-18.732,9.946
				c-2.397,5.567-3.464,11.847-4.296,17.825c1.025-0.582,2.05-1.164,3.075-1.746c-14.943-2.011-29.885-4.023-44.828-6.034
				c0.612,0.804,1.224,1.607,1.835,2.411c-0.301-3.615,0.248-8.641-1.367-11.943c-2.313-4.726-5.577-12.494-10.813-14.606
				c-5.774-2.328-15.165-1.641-19.667,2.995c-4.042,4.161-6.679,10.156-9.018,15.396c0.72-0.413,1.439-0.825,2.159-1.238
				c-13.906-0.461-29.059-1.202-42.184-6.112c-9.254-3.462-11.977-16.713-14.549-25.126c-3.179-10.4-5.372-21.142-6.166-32.001
				c-0.771-10.548,1.32-21.453,3.056-31.805c1.921-11.456,4.281-22.835,6.633-34.208c4.434-21.438,8.839-42.875,13.938-64.168
				c4.898-20.454,10.831-40.298,18.347-59.934c8.266-21.596,17.112-43.8,30.246-62.97c10.266-14.983,27.713-21.638,43.879-28.527
				c5.111-2.178,10.268-4.262,15.463-6.231c3.519-1.334,6.661-3.352,10.323-4.494c5.547-1.73,11.373-2.533,17.14-3.077
				c23.365-2.206,47.004,0.768,70.416,0.712c32.772-0.078,65.54-0.689,98.311-0.827c41.412-0.175,84.044,4.79,119.817,27.417
				c19.295,12.204,34.424,30.101,40.715,52.255c3.5,12.326,3.842,25.293,2.456,37.965c-1.397,12.769-2.52,27.622,1.646,39.986
				C792.794,257.025,797.624,255.721,796.592,252.657L796.592,252.657z"/>
		</g>
	</g>
</g>
<g id="Capa_3">
	<path fill="none" stroke="#000000" stroke-width="4" stroke-miterlimit="10" d="M696,102c0,0-11.357,31.89-13,43
		c-1.39,9.398-0.936,28.546,0,38c0.754,7.611,4.276,22.548,6,30c1.107,4.785,5,19,5,19"/>
	<path fill="none" stroke="#000000" stroke-width="4" stroke-miterlimit="10" d="M360,457c0,0,2.584-37.441,7-49
		c4.182-10.946,15.019-36.473,24-44c10.038-8.414,30.086-15.812,43-18c9.641-1.633,36.941,3.462,45,9
		c9.124,6.27,18.337,25.055,20,36c1.593,10.486-2.684,31.925-6,42c-2.308,7.012-14,26-14,26"/>
	<path fill="none" stroke="#000000" stroke-width="4" stroke-miterlimit="10" d="M509,95c0,0,17.171,43.685,20,59
		c2.363,12.793,5.319,39.421,2,52c-1.575,5.97-13,21-13,21l-9,14l7,29l15,20"/>
	<ellipse fill="none" stroke="#000000" stroke-width="4" stroke-miterlimit="10" cx="458" cy="176" rx="42" ry="37.5"/>
	<g>
		<path d="M406,139c0,0,1.123-1.092,3.183-2.888c2.06-1.795,5.043-4.315,8.78-7.14c1.862-1.422,3.905-2.936,6.131-4.449
			c2.224-1.519,4.583-3.114,7.161-4.601c0.646-0.37,1.287-0.759,1.954-1.123c0.68-0.353,1.365-0.708,2.053-1.066
			c1.417-0.685,2.852-1.369,4.526-1.883l0.305-0.103l0.153-0.051l0.076-0.026l0.038-0.013c-0.067,0.015,0.134-0.035,0.126-0.033
			l0.559-0.131l1.121-0.263c0.827-0.143,1.714-0.306,2.53-0.398c1.62-0.189,3.232-0.309,4.833-0.373
			c3.202-0.101,6.369-0.034,9.469,0.173c3.1,0.194,6.131,0.522,9.053,0.917c2.923,0.389,5.729,0.898,8.39,1.466
			c0.358,0.079,0.714,0.158,1.068,0.236c0.317,0.09,0.631,0.179,0.943,0.268c0.629,0.194,1.227,0.314,1.854,0.565
			c1.224,0.457,2.456,0.867,3.527,1.317c2.196,0.851,4.159,1.73,5.895,2.511c1.735,0.782,3.228,1.506,4.453,2.113
			C496.634,125.232,498,126,498,126s-1.525-0.361-4.165-1.042c-2.626-0.682-6.377-1.655-10.879-2.823
			c-1.13-0.309-2.245-0.516-3.42-0.795c-0.566-0.141-1.231-0.235-1.857-0.36c-0.319-0.059-0.64-0.118-0.963-0.178
			c-0.294-0.035-0.59-0.07-0.889-0.105c-2.6-0.304-5.375-0.517-8.238-0.737c-2.865-0.21-5.828-0.367-8.83-0.483
			c-3.001-0.09-6.045-0.143-9.046-0.022c-1.5,0.046-2.985,0.144-4.437,0.298c-0.719,0.081-1.353,0.186-2.046,0.27l-1.128,0.231
			l-0.563,0.115c-0.032,0.007,0.147-0.036,0.057-0.013l-0.03,0.01l-0.06,0.019l-0.12,0.038l-0.239,0.076
			c-2.549,0.758-5.261,2.028-7.782,3.308c-2.539,1.284-5,2.592-7.312,3.877c-2.312,1.303-4.498,2.535-6.515,3.673
			c-4.049,2.302-7.424,4.221-9.786,5.564C407.379,138.257,406,139,406,139z"/>
	</g>
	<path fill="none" stroke="#000000" stroke-width="4" stroke-miterlimit="10" d="M429.078,148.689c0,0-30.017,23.906-38.078,35.311
		c-6.198,8.769-16.174,28.418-18,39c-1.409,8.163-0.577,25.528,3,33c4.504,9.409,20.826,24.036,30,29
		c9.921,5.368,32.72,10.058,44,10c10.359-0.053,31.449-1.989,41-6c7.238-3.04,25-19,25-19"/>
	<polyline fill="none" stroke="#000000" stroke-width="4" stroke-miterlimit="10" points="509,241 494,216 485,204 	"/>
	<ellipse stroke="#000000" stroke-width="4" stroke-miterlimit="10" cx="471" cy="180" rx="27" ry="26"/>
	<ellipse fill="#FFFFFF" stroke="#000000" stroke-width="4" stroke-miterlimit="10" cx="469" cy="169" rx="9.5" ry="9"/>
</g>
<g id="Capa_4">
	<g>
		<g>
			<path d="M316.355,484.907c-0.503,12.185,1.084,24.317,0.772,36.499c-0.295,11.51-3.863,22.036-8.076,32.605
				c-7.284,18.272-16.369,38.497-30.8,52.297c-2.334,2.232,1.206,5.763,3.536,3.536c14.828-14.179,23.907-34.546,31.57-53.226
				c4.224-10.297,7.666-20.573,8.589-31.737c1.099-13.299-1.139-26.652-0.589-39.974
				C321.488,481.682,316.487,481.695,316.355,484.907L316.355,484.907z"/>
		</g>
	</g>
	<g>
		<g>
			<path d="M397.5,494c3.596,34.153,22.185,66.702,43.732,92.768c2.056,2.487,5.573-1.071,3.536-3.536
				c-20.62-24.944-38.824-56.532-42.268-89.232C402.166,490.827,397.162,490.795,397.5,494L397.5,494z"/>
		</g>
	</g>
	<g>
		<g>
			<path d="M278.756,610.605c52.722,31.987,123.762,21.014,165.406-24.063c2.184-2.364-1.343-5.909-3.536-3.536
				c-40.164,43.475-108.465,54.151-159.346,23.281C278.515,604.61,276.004,608.935,278.756,610.605L278.756,610.605z"/>
		</g>
	</g>
	<path fill="none" stroke="#000000" stroke-width="4" stroke-miterlimit="10" d="M362.13,458.276v7.767
		c0,0,1.037,9.339,2.219,12.206c0.684,1.66,3.263,3.894,4.808,4.808c1.6,0.946,4.801,1.757,6.658,1.849
		c3.14,0.157,8.064,0.459,11.096-0.37c2.279-0.623,7.171-3.23,8.507-5.178c1.909-2.783,2.959-15.535,2.959-15.535"/>
	<g>
		<polygon points="371.836,483.797 374.336,464.934 376.836,483.797 		"/>
	</g>
	<g>
		<polygon points="385.152,484.167 387.652,466.043 390.152,484.167 		"/>
	</g>
	<path fill="none" stroke="#000000" stroke-width="4" stroke-miterlimit="10" d="M444.622,466.854v7.767
		c0,0,1.037,9.339,2.219,12.206c0.684,1.66,3.263,3.894,4.808,4.808c1.6,0.946,4.801,1.757,6.658,1.849
		c3.14,0.157,8.064,0.459,11.096-0.37c2.279-0.623,7.171-3.23,8.507-5.178c1.909-2.783,2.959-15.535,2.959-15.535"/>
	<g>
		<polygon points="454.328,492.375 456.828,473.512 459.328,492.375 		"/>
	</g>
	<g>
		<polygon points="467.644,492.745 470.144,474.621 472.644,492.745 		"/>
	</g>
	<g>
		<path d="M312.8,620.878c0,0,2.81-5.637,6.926-14.153c1.022-2.131,2.129-4.44,3.301-6.882c1.15-2.449,2.397-5.023,3.626-7.704
			c1.217-2.684,2.546-5.442,3.769-8.276c0.622-1.415,1.249-2.842,1.879-4.274c0.638-1.432,1.17-2.882,1.762-4.328l0.849-2.14
			l0.733-2.246c0.485-1.495,0.993-2.983,1.397-4.462c0.86-2.954,1.706-5.871,2.459-8.735c0.781-2.85,1.509-5.614,2.181-8.241
			c0.671-2.628,1.305-5.112,1.89-7.405c2.308-9.183,3.764-15.329,3.764-15.329s-1.088,6.22-2.848,15.53
			c-0.449,2.326-0.934,4.847-1.448,7.513c-0.515,2.666-1.079,5.474-1.692,8.375c-0.581,2.901-1.261,5.906-1.959,8.966
			c-0.326,1.542-0.742,3.047-1.138,4.57l-0.599,2.286c-0.254,0.832-0.504,1.536-0.756,2.311c-0.515,1.509-0.983,3.055-1.539,4.532
			c-0.549,1.482-1.096,2.958-1.638,4.423c-1.068,2.942-2.23,5.771-3.295,8.546c-1.076,2.769-2.169,5.416-3.177,7.943
			c-1.028,2.517-2,4.896-2.897,7.092c-3.614,8.77-6.097,14.595-6.097,14.595L312.8,620.878z"/>
	</g>
	<g>
		<path d="M397.598,613.685c0,0,0.027-0.82,0.075-2.254c0.041-1.427,0.104-3.484,0.137-5.941c0.013-1.229,0.026-2.561,0.041-3.97
			c0-1.406,0.019-2.896-0.02-4.422c-0.022-1.532-0.045-3.116-0.142-4.698c-0.053-0.785-0.045-1.623-0.149-2.382l-0.128-1.164
			l-0.064-0.585l-0.032-0.293l-0.016-0.147l-0.008-0.073l-0.004-0.037c-0.017-0.07,0.022,0.074,0.016,0.053l-0.004-0.019
			c-0.19-0.803-0.379-1.606-0.568-2.406c-0.177-0.811-0.446-1.529-0.663-2.295c-0.433-1.503-0.951-3.013-1.45-4.471
			c-0.482-1.462-1.005-2.86-1.483-4.193c-0.492-1.328-0.957-2.584-1.387-3.743c-1.747-4.629-2.987-7.692-2.987-7.692
			s1.578,2.9,3.844,7.311c0.56,1.107,1.167,2.306,1.809,3.574c0.629,1.276,1.31,2.613,1.962,4.026
			c0.666,1.405,1.357,2.851,2.005,4.41c0.315,0.767,0.701,1.554,0.964,2.326c0.279,0.774,0.559,1.551,0.838,2.329
			c0.434,1.82,0.811,3.432,1.043,5.081c0.289,1.641,0.495,3.243,0.695,4.794c0.217,1.555,0.369,3.051,0.531,4.473
			c0.147,1.422,0.287,2.766,0.416,4.006c0.25,2.484,0.422,4.547,0.546,6.004c0.117,1.45,0.184,2.278,0.184,2.278L397.598,613.685z"
			/>
	</g>
</g>
<g id="Capa_5">
	<g>
		<g>
			<path d="M498.245,475.941c11.221-1.131,22.448-2.192,33.498-4.522c11.545-2.435,22.205-6.977,32.672-12.312
				c20.086-10.238,37.989-23.916,54.353-39.339c-1.01,0.13-2.02,0.261-3.03,0.391c4.763,2.319,9.681,4.284,14.597,6.252
				c-0.199-1.523-0.398-3.046-0.597-4.569c-6.457,4.934-12.233,10.765-17.559,16.886c-4.729,5.433-10.552,12.211-11.59,19.608
				c-0.232,1.654,0.639,3.065,2.411,3.165c26.884,1.518,53.906,0.309,80.713,3.223c-0.833-0.833-1.667-1.667-2.5-2.5
				c-0.681,8.167-3.181,16.344-5.623,24.112c1.025-0.582,2.05-1.164,3.075-1.746c-48.211-9.025-97.045-4.668-145.104,3.047
				c-23.089,3.707-46.159,7.537-69.608,7.667c-11.19,0.062-22.157-1.373-33.275-2.305c-9.965-0.835-19.885-1.628-29.785-3.104
				c-3.153-0.47-4.509,4.347-1.329,4.821c9.209,1.373,18.443,2.309,27.725,3.017c10.424,0.795,20.746,2.224,31.212,2.512
				c22.685,0.624,45.235-2.773,67.565-6.362c50.143-8.06,100.856-13.909,151.271-4.472c1.377,0.258,2.641-0.364,3.075-1.746
				c2.584-8.22,5.082-16.805,5.802-25.441c0.122-1.464-1.238-2.363-2.5-2.5c-26.807-2.915-53.828-1.706-80.713-3.223
				c0.804,1.055,1.607,2.11,2.411,3.165c0.982-6.997,6.714-13.278,11.163-18.39c4.728-5.433,9.953-10.735,15.688-15.116
				c1.789-1.367,1.519-3.722-0.597-4.569c-4.516-1.808-9.027-3.617-13.403-5.748c-1.045-0.509-2.161-0.427-3.03,0.391
				c-15.282,14.403-31.831,27.022-50.349,36.99c-10.459,5.63-21.188,10.226-32.762,12.992c-11.103,2.653-22.546,3.585-33.876,4.727
				C495.069,471.261,495.038,476.264,498.245,475.941L498.245,475.941z"/>
		</g>
	</g>
	<g>
		<g>
			<path d="M225.665,449.411c29.279-4.469,60.707-2.815,89.671,3c3.148,0.632,4.489-4.187,1.329-4.821
				c-29.931-6.01-62.091-7.615-92.329-3C221.156,445.075,222.512,449.892,225.665,449.411L225.665,449.411z"/>
		</g>
	</g>
	<g>
		<g>
			<path d="M224.63,479.5c58.668-7.834,115.675,14.57,174,15c3.225,0.024,3.223-4.976,0-5c-58.326-0.43-115.32-22.835-174-15
				C221.483,474.92,221.442,479.926,224.63,479.5L224.63,479.5z"/>
		</g>
	</g>
</g>
<g id="Capa_6">
	<path fill="none" stroke="#000000" stroke-width="4" stroke-miterlimit="10" d="M510.451,241.528c0,0,29.294,5.939,39.207,5.918
		c9.639-0.021,38.097-5.918,38.097-5.918l43.276-7.028l36.988-6.288l22.932-2.589"/>
	<path fill="none" stroke="#000000" stroke-width="4" stroke-miterlimit="10" d="M588.125,96.166c0,0-8.263,30.881-9.617,41.426
		c-1.296,10.093-1.091,30.511-1.11,40.686c-0.015,7.862-0.023,23.615,0.74,31.44c0.792,8.125,5.548,32.179,5.548,32.179"/>
</g>
<g id="Capa_7">
	<path fill="none" stroke="#000000" stroke-width="4" stroke-miterlimit="10" d="M362.5,331.778c0,0,0.461,22.288-0.74,29.59
		c-1.367,8.312-6.168,24.671-9.987,32.179c-4.913,9.66-17.481,27.934-25.891,34.768c-1.22,0.991-4.033,2.542-5.548,2.959
		c-1.874,0.516-6.09,1.352-7.767,0.37c-4.461-2.612-10.113-17.118-11.096-22.193c-2.154-11.12-2.959-42.166-2.959-42.166"/>
</g>
</svg>
