<?xml version="1.0" encoding="utf-8"?>
<!-- Generator: Adobe Illustrator 17.0.0, SVG Export Plug-In . SVG Version: 6.00 Build 0)  -->
<!DOCTYPE svg PUBLIC "-//W3C//DTD SVG 1.1//EN" "http://www.w3.org/Graphics/SVG/1.1/DTD/svg11.dtd">
<svg version="1.1" xmlns="http://www.w3.org/2000/svg" xmlns:xlink="http://www.w3.org/1999/xlink" x="0px" y="0px" width="1024px"
	 height="768px" viewBox="0 0 1024 768" enable-background="new 0 0 1024 768" xml:space="preserve">
<g id="Capa_1">
</g>
<g id="Capa_6">
	<path fill="none" stroke="#000000" stroke-width="4" stroke-miterlimit="10" d="M417.187,99.362
		c28.504-29.141,83.256-21.042,101.595,13.854c26.03,49.53-1.516,104.405-25.733,138.732
		C440.778,326.04,360.429,157.388,417.187,99.362z"/>
	<path fill="none" stroke="#000000" stroke-width="4" stroke-miterlimit="10" d="M432.22,127.805
		c-3.112,1.684-7.146,8.359-7.746,11.847c-0.696,4.043,0.492,13.624,3.873,15.948c2.488,1.71,9.497,1.571,12.075,0
		c3.188-1.943,5.247-10.17,5.468-13.897c0.212-3.586-0.801-11.703-3.645-13.897C440.26,126.274,434.424,126.613,432.22,127.805z"/>
	<path fill="none" stroke="#000000" stroke-width="4" stroke-miterlimit="10" d="M459.929,270.438c0,0,0,3.626,0,4.835
		c0,1.045-0.493,3.258,0,4.179c0.508,0.949,2.511,2.316,3.586,2.388c1.19,0.08,3.246-1.511,4.29-2.089
		c0.616-0.341,2.047-0.877,2.388-1.492c0.257-0.463,0.375-1.744,0-2.119c-0.475-0.475-2.064,0.251-2.686,0
		c-0.788-0.318-2.161-1.558-2.445-2.358c-0.28-0.787,0-3.343,0-3.343"/>
	<path fill="none" stroke="#000000" stroke-width="4" stroke-miterlimit="10" d="M559.115,75.702
		c30.092-18.305,98.515-15.757,114.744,43.516c17.203,62.828-29.458,116.926-66.791,148.846
		C526.49,336.96,477.567,125.307,559.115,75.702z"/>
	<path fill="none" stroke="#000000" stroke-width="4" stroke-miterlimit="10" d="M565.435,290.163c0,0-0.962,4.076-1.282,5.434
		c-0.277,1.174-1.439,3.526-1.108,4.697c0.341,1.207,2.313,3.293,3.546,3.67c1.366,0.417,4.185-0.806,5.554-1.168
		c0.808-0.214,2.618-0.422,3.179-1.021c0.422-0.45,0.899-1.858,0.562-2.382c-0.428-0.664-2.472-0.285-3.131-0.739
		c-0.834-0.574-2.106-2.345-2.225-3.323c-0.117-0.962,0.887-3.757,0.887-3.757"/>
	<path fill="#FFFFFF" stroke="#000000" stroke-width="4" stroke-miterlimit="10" d="M711.861,105.667
		c45.801-21.353,105.782,11.965,111.81,60.462c8.557,68.834-47.376,120.461-90.47,149.704
		C640.188,378.951,620.661,148.186,711.861,105.667z"/>
</g>
<g id="Capa_4">
	<path fill="none" stroke="#000000" stroke-width="4" stroke-miterlimit="10" d="M189.735,182.455
		c22.278-34.138,77.558-36.866,102.347-6.213c35.184,43.507,18.863,102.698,1.8,141.087
		C257.055,400.188,145.375,250.431,189.735,182.455z"/>
	<path fill="none" stroke="#000000" stroke-width="4" stroke-miterlimit="10" d="M210.023,207.423
		c-2.725,2.258-5.379,9.592-5.288,13.129c0.106,4.101,3.138,13.267,6.907,14.887c2.773,1.192,9.621-0.31,11.843-2.353
		c2.749-2.527,3.164-10.998,2.654-14.696c-0.491-3.558-3.067-11.322-6.284-12.92C217.61,204.355,211.952,205.824,210.023,207.423z"
		/>
	<path fill="#FFFFFF" stroke="#000000" stroke-width="4" stroke-miterlimit="10" d="M310.5,106.449
		c38.903-38.162,113.63-27.557,138.659,18.143c35.526,64.864-2.069,136.727-35.121,181.682
		C342.698,403.304,233.035,182.439,310.5,106.449z"/>
	<path fill="none" stroke="#000000" stroke-width="4" stroke-miterlimit="10" d="M331.017,143.698
		c-4.248,2.205-9.753,10.947-10.572,15.514c-0.95,5.295,0.671,17.841,5.286,20.885c3.395,2.239,12.961,2.057,16.48,0
		c4.351-2.544,7.161-13.319,7.462-18.2c0.29-4.696-1.094-15.326-4.975-18.2C341.99,141.693,334.025,142.137,331.017,143.698z"/>
	<path fill="none" stroke="#000000" stroke-width="4" stroke-miterlimit="10" d="M368.834,330.488c0,0,0,4.749,0,6.332
		c0,1.368-0.673,4.266,0,5.472c0.694,1.243,3.427,3.032,4.894,3.127c1.624,0.105,4.431-1.979,5.855-2.736
		c0.84-0.447,2.793-1.148,3.259-1.954c0.35-0.607,0.511-2.284,0-2.775c-0.648-0.622-2.816,0.329-3.666,0
		c-1.075-0.416-2.95-2.04-3.337-3.088c-0.382-1.031,0-4.378,0-4.378"/>
	<path fill="#FFFFFF" stroke="#000000" stroke-width="4" stroke-miterlimit="10" d="M393.187,239.816
		c28.504-29.141,83.256-21.042,101.595,13.854c26.03,49.53-1.516,104.405-25.733,138.732
		C416.778,466.495,336.429,297.843,393.187,239.816z"/>
	<path fill="none" stroke="#000000" stroke-width="4" stroke-miterlimit="10" d="M408.22,268.26
		c-3.112,1.684-7.146,8.359-7.746,11.847c-0.696,4.043,0.492,13.624,3.873,15.948c2.488,1.71,9.497,1.571,12.075,0
		c3.188-1.943,5.247-10.17,5.468-13.897c0.212-3.586-0.801-11.703-3.645-13.897C416.26,266.729,410.424,267.068,408.22,268.26z"/>
	<path fill="none" stroke="#000000" stroke-width="4" stroke-miterlimit="10" d="M435.929,410.893c0,0,0,3.626,0,4.835
		c0,1.045-0.493,3.258,0,4.179c0.508,0.949,2.511,2.316,3.586,2.388c1.19,0.08,3.246-1.511,4.29-2.089
		c0.616-0.341,2.047-0.877,2.388-1.492c0.257-0.463,0.375-1.744,0-2.119c-0.475-0.475-2.064,0.251-2.686,0
		c-0.788-0.318-2.161-1.558-2.445-2.358c-0.28-0.787,0-3.343,0-3.343"/>
	<path fill="#FFFFFF" stroke="#000000" stroke-width="4" stroke-miterlimit="10" d="M463.637,134.182
		c35.336-36.125,103.211-26.086,125.946,17.175c32.268,61.402-1.879,129.429-31.901,171.984
		C492.883,415.19,393.275,206.116,463.637,134.182z"/>
	<path fill="none" stroke="#000000" stroke-width="4" stroke-miterlimit="10" d="M482.273,169.442
		c-3.858,2.087-8.859,10.363-9.603,14.686c-0.863,5.012,0.61,16.889,4.801,19.77c3.084,2.12,11.773,1.947,14.969,0
		c3.952-2.408,6.505-12.608,6.778-17.228c0.263-4.445-0.993-14.508-4.519-17.228C492.24,167.545,485.005,167.964,482.273,169.442z"
		/>
	<path fill="none" stroke="#000000" stroke-width="4" stroke-miterlimit="10" d="M516.623,346.262c0,0,0,4.495,0,5.994
		c0,1.295-0.611,4.039,0,5.18c0.63,1.177,3.113,2.871,4.445,2.96c1.475,0.099,4.024-1.874,5.318-2.59
		c0.763-0.423,2.537-1.087,2.96-1.85c0.318-0.574,0.464-2.163,0-2.627c-0.589-0.589-2.558,0.312-3.33,0
		c-0.976-0.394-2.679-1.931-3.031-2.923c-0.347-0.976,0-4.144,0-4.144"/>
	<path fill="#FFFFFF" stroke="#000000" stroke-width="4" stroke-miterlimit="10" d="M620.968,118.749
		c41.377-26.45,103.434-2.058,115.469,43.884c17.082,65.208-30.168,122.122-67.924,155.825
		C587.019,391.202,538.576,171.417,620.968,118.749z"/>
	<path fill="none" stroke="#000000" stroke-width="4" stroke-miterlimit="10" d="M630.876,156.218
		c-4.111,1.13-10.66,7.868-12.312,11.798c-1.916,4.556-3.127,16.123,0.209,19.77c2.455,2.683,10.719,4.426,14.171,3.283
		c4.27-1.413,8.923-10.509,10.196-14.824c1.224-4.15,2.242-13.953-0.499-17.301C640.729,156.608,633.788,155.418,630.876,156.218z"
		/>
	<path fill="none" stroke="#000000" stroke-width="4" stroke-miterlimit="10" d="M624.614,331.152c0,0-0.986,4.256-1.315,5.675
		c-0.284,1.226-1.465,3.689-1.136,4.904c0.339,1.253,2.318,3.4,3.559,3.777c1.375,0.418,4.221-0.891,5.603-1.286
		c0.815-0.233,2.64-0.472,3.208-1.102c0.427-0.474,0.914-1.945,0.576-2.487c-0.428-0.686-2.49-0.266-3.153-0.73
		c-0.838-0.587-2.113-2.416-2.229-3.433c-0.114-1,0.909-3.923,0.909-3.923"/>
	<path fill="#FFFFFF" stroke="#000000" stroke-width="4" stroke-miterlimit="10" d="M638.705,240.827
		c35.73-19.622,85.781,4.007,93.211,42.722c10.547,54.95-31.728,99.479-64.86,125.307
		C595.545,464.606,567.558,279.9,638.705,240.827z"/>
	<path fill="none" stroke="#000000" stroke-width="4" stroke-miterlimit="10" d="M644.843,272.408
		c-3.467,0.709-9.263,5.928-10.849,9.091c-1.839,3.668-3.48,13.181-0.918,16.385c1.885,2.358,8.633,4.257,11.556,3.502
		c3.615-0.935,7.971-8.211,9.263-11.714c1.243-3.37,2.627-11.433,0.542-14.357C652.981,273.274,647.298,271.906,644.843,272.408z"/>
	<path fill="none" stroke="#000000" stroke-width="4" stroke-miterlimit="10" d="M629.997,416.947c0,0-1.052,3.47-1.402,4.627
		c-0.303,1-1.417,2.975-1.212,3.999c0.211,1.056,1.732,2.944,2.739,3.325c1.116,0.422,3.545-0.505,4.711-0.756
		c0.688-0.148,2.213-0.245,2.718-0.736c0.38-0.369,0.864-1.561,0.615-2.028c-0.317-0.592-2.048-0.358-2.571-0.779
		c-0.661-0.533-1.617-2.118-1.656-2.966c-0.039-0.835,0.969-3.199,0.969-3.199"/>
</g>
<g id="Capa_3">
	<path fill="none" stroke="#000000" stroke-width="4" stroke-miterlimit="10" d="M265.001,341.92c0,0,0.707,3.557,0.942,4.742
		c0.204,1.025,0.151,3.291,0.814,4.099c0.684,0.832,2.914,1.782,3.982,1.643c1.183-0.153,2.889-2.115,3.8-2.885
		c0.537-0.455,1.836-1.259,2.051-1.929c0.162-0.505,0.027-1.784-0.413-2.078c-0.558-0.373-1.975,0.649-2.635,0.524
		c-0.834-0.158-2.423-1.107-2.858-1.836c-0.428-0.718-0.651-3.279-0.651-3.279"/>
	<path fill="#FFFFFF" stroke="#000000" stroke-width="4" stroke-miterlimit="10" d="M748.688,177.466
		c43.01-21.196,100.594,9.179,107.308,55.061c9.53,65.123-42.47,115.246-82.75,143.871
		C686.306,438.183,663.045,219.672,748.688,177.466z"/>
	<path fill="none" stroke="#000000" stroke-width="4" stroke-miterlimit="10" d="M754.254,214.896
		c-4.111,0.652-11.194,6.483-13.222,10.118c-2.352,4.214-4.777,15.308-1.933,19.207c2.092,2.869,9.923,5.453,13.397,4.717
		c4.296-0.91,9.795-9.234,11.496-13.283c1.636-3.895,3.683-13.298,1.385-16.843C763.773,216.339,757.166,214.435,754.254,214.896z"
		/>
	<path fill="none" stroke="#000000" stroke-width="4" stroke-miterlimit="10" d="M729.275,383.974c0,0-1.417,4.023-1.889,5.365
		c-0.408,1.159-1.82,3.422-1.633,4.636c0.193,1.252,1.881,3.55,3.045,4.05c1.289,0.554,4.192-0.409,5.576-0.642
		c0.817-0.138,2.613-0.173,3.232-0.723c0.466-0.414,1.097-1.789,0.828-2.351c-0.341-0.712-2.388-0.527-2.98-1.049
		c-0.75-0.66-1.789-2.573-1.792-3.572c-0.003-0.983,1.306-3.709,1.306-3.709"/>
</g>
<g id="Capa_5">
	<line fill="none" stroke="#000000" stroke-width="4" stroke-miterlimit="10" x1="270.74" y1="352.404" x2="521.068" y2="652"/>
	<line fill="none" stroke="#000000" stroke-width="4" stroke-miterlimit="10" x1="373.728" y1="345.42" x2="521.068" y2="652"/>
	<line fill="none" stroke="#000000" stroke-width="4" stroke-miterlimit="10" x1="439.514" y1="422.294" x2="521.068" y2="652"/>
	<line fill="none" stroke="#000000" stroke-width="4" stroke-miterlimit="10" x1="521.068" y1="360.396" x2="521.068" y2="652"/>
	<line fill="none" stroke="#000000" stroke-width="4" stroke-miterlimit="10" x1="630.122" y1="428.898" x2="521.068" y2="652"/>
	<line fill="none" stroke="#000000" stroke-width="4" stroke-miterlimit="10" x1="728.799" y1="398.025" x2="521.068" y2="652"/>
	<path fill="none" stroke="#000000" stroke-width="4" stroke-miterlimit="10" d="M528.949,658.276
		c-0.094,3.312-2.855,5.922-6.167,5.828l-3.766-0.107c-3.312-0.094-5.922-2.855-5.828-6.167l0,0
		c0.094-3.312,2.855-5.922,6.167-5.828l3.766,0.107C526.433,652.203,529.042,654.964,528.949,658.276L528.949,658.276z"/>
	<line fill="none" stroke="#000000" stroke-width="4" stroke-miterlimit="10" x1="521.068" y1="664.107" x2="521.068" y2="768"/>
</g>
</svg>
