<?xml version="1.0" encoding="utf-8"?>
<!-- Generator: Adobe Illustrator 17.0.0, SVG Export Plug-In . SVG Version: 6.00 Build 0)  -->
<!DOCTYPE svg PUBLIC "-//W3C//DTD SVG 1.1//EN" "http://www.w3.org/Graphics/SVG/1.1/DTD/svg11.dtd">
<svg version="1.1" xmlns="http://www.w3.org/2000/svg" xmlns:xlink="http://www.w3.org/1999/xlink" x="0px" y="0px" width="1024px"
	 height="768px" viewBox="0 0 1024 768" enable-background="new 0 0 1024 768" xml:space="preserve">
<g id="Capa_2">
	<path d="M501.673,352.095c-2.045,0.486-5.732,4.365-5.836,6.464c-0.168,3.417,5.077,9.849,8.17,11.312
		c2.646,1.252,8.959,4.093,11.871,3.787c3.191-0.335,9.383-3.404,11.652-5.672c2.269-2.269,6.995-7.48,5.926-10.504
		c-1.263-3.572-3.438-4.746-7.093-5.746c-2.433-0.666-13.198-0.898-17.507-0.539C508.856,351.197,505.303,351.232,501.673,352.095z"
		/>
	<path fill="none" stroke="#000000" stroke-width="2" stroke-miterlimit="10" d="M580.902,377.495c0,0-5.453,8.891-7.798,11.437
		c-2.379,2.583-7.883,7.07-10.917,8.838c-3.378,1.968-10.742,4.859-14.556,5.718c-3.686,0.83-11.328,1.516-15.076,1.04
		c-3.262-0.415-9.218-4.595-12.477-4.159c-2.322,0.311-5.676,4.205-7.798,5.199c-3.314,1.552-10.38,4.002-14.036,4.159
		c-5.169,0.222-15.396-2.434-20.274-4.159c-4.001-1.414-11.885-5.001-15.076-7.798c-3.931-3.446-11.957-17.155-11.957-17.155"/>
	<g>
		<path d="M475.737,342.651c0,0,0.253-0.161,0.728-0.462c0.479-0.293,1.169-0.751,2.075-1.279c1.803-1.075,4.391-2.589,7.6-4.232
			c1.614-0.811,3.34-1.717,5.28-2.512c0.96-0.412,1.937-0.846,3.048-1.18l0.819-0.271l0.414-0.132l0.026-0.008
			c-0.052,0.009,0.1-0.021,0.094-0.019l0.051-0.009l0.101-0.018l0.203-0.036c0.542-0.095,1.089-0.191,1.64-0.288l0.831-0.146
			l0.881-0.088c0.592-0.055,1.189-0.111,1.789-0.168c1.22-0.142,2.364-0.134,3.568-0.182c2.381-0.062,4.788-0.052,7.184-0.016
			c2.387,0.072,4.774,0.144,7.124,0.215c1.163,0.028,2.316,0.056,3.456,0.083c0.59,0.014,1.176,0.027,1.758,0.041
			c0.569,0.029,1.118,0.042,1.742,0.131c2.407,0.277,4.487,0.773,6.517,1.283c2.014,0.5,3.889,1.051,5.609,1.59
			c3.443,1.061,6.26,2.091,8.222,2.837c1.96,0.751,3.063,1.227,3.063,1.227s-4.684-0.958-11.71-2.395
			c-1.751-0.351-3.651-0.705-5.651-1.069c-1.982-0.352-4.163-0.667-6.213-0.837c-0.488-0.057-1.069-0.049-1.637-0.052l-0.366,0.002
			l-0.436,0.011l-0.876,0.023c-1.177,0.046-2.352,0.044-3.532,0.02c-2.352-0.037-4.741-0.075-7.13-0.113
			c-2.38-0.07-4.751-0.115-7.072-0.088c-1.146,0.042-2.339-0.01-3.415,0.066c-0.549,0.025-1.095,0.051-1.637,0.076l-0.814,0.04
			l-0.836,0.109c-0.555,0.073-1.106,0.145-1.652,0.216l-0.337,0.045l-0.371,0.1l-0.74,0.189c-0.978,0.213-1.961,0.563-2.915,0.893
			c-0.958,0.307-1.878,0.669-2.776,1.009c-0.898,0.337-1.773,0.643-2.599,0.983C480.18,340.887,475.737,342.651,475.737,342.651z"/>
	</g>
	<g>
		<path d="M519.097,400.555c0,0-0.278-1.669-0.696-4.172c-0.209-1.252-0.452-2.712-0.713-4.276c-0.13-0.782-0.265-1.591-0.402-2.412
			c-0.128-0.836-0.296-1.622-0.396-2.524c-0.506-6.756-1.011-13.512-1.011-13.512s1.002,6.693,2.003,13.386
			c0.143,0.771,0.385,1.631,0.57,2.429c0.197,0.81,0.392,1.607,0.58,2.378c0.376,1.543,0.727,2.983,1.028,4.217
			c0.602,2.468,1.003,4.114,1.003,4.114L519.097,400.555z"/>
	</g>
	<g>
		<path d="M573.04,370.221c1.347,0.801,2.599,1.704,3.833,2.627l1.812,1.427l1.763,1.48l-0.306-0.19
			c1.138,0.404,2.271,0.818,3.391,1.268c1.125,0.438,2.231,0.923,3.335,1.415c0.556,0.235,1.096,0.511,1.644,0.768
			c0.549,0.254,1.087,0.534,1.626,0.814c1.078,0.56,2.144,1.149,3.176,1.827c-1.22-0.188-2.407-0.465-3.582-0.772
			c-0.588-0.153-1.175-0.306-1.753-0.485c-0.579-0.176-1.165-0.333-1.735-0.531c-1.149-0.374-2.295-0.755-3.424-1.184
			c-1.133-0.416-2.252-0.869-3.367-1.332l-0.2-0.083l-0.106-0.107l-1.616-1.639l-1.567-1.692
			C574.946,372.676,573.946,371.5,573.04,370.221z"/>
	</g>
	<g>
		<path d="M459.181,372.598c-0.906,1.279-1.906,2.455-2.925,3.611l-1.567,1.692l-1.616,1.639l-0.106,0.107l-0.2,0.083
			c-1.115,0.462-2.234,0.915-3.367,1.332c-1.128,0.429-2.275,0.81-3.423,1.184c-0.57,0.198-1.156,0.355-1.735,0.531
			c-0.578,0.179-1.165,0.332-1.753,0.485c-1.175,0.307-2.362,0.583-3.582,0.772c1.032-0.678,2.098-1.268,3.176-1.827
			c0.539-0.28,1.078-0.56,1.626-0.814c0.548-0.257,1.088-0.533,1.644-0.768c1.104-0.492,2.21-0.978,3.335-1.415
			c1.12-0.45,2.254-0.864,3.391-1.268l-0.306,0.19l1.763-1.48l1.812-1.427C456.582,374.302,457.834,373.398,459.181,372.598z"/>
	</g>
	<ellipse transform="matrix(0.4172 0.9088 -0.9088 0.4172 600.043 -349.291)" cx="572.355" cy="293.193" rx="33.271" ry="22.354"/>
	<ellipse transform="matrix(-0.4895 0.872 -0.872 -0.4895 947.6501 40.9892)" cx="461.826" cy="297.904" rx="33.271" ry="22.354"/>
	<ellipse fill="#FFFFFF" cx="475.201" cy="280.889" rx="8.058" ry="8.318"/>
	<circle fill="#FFFFFF" cx="577.086" cy="279.435" r="8.058"/>
	<path fill="#FFFFFF" stroke="#000000" stroke-width="4" stroke-miterlimit="10" d="M638.023,142.58
		c0,0-29.935-36.549-42.329-33.305c-7.362,1.927-11.355,22.05-13.873,29.176c-2.228,6.304-5.025,24.558-5.025,24.558l-4.861,24.368
		l-2.698,19.408l-5.25,30.495"/>
	<g>
		<line fill="#FFFFFF" x1="503.429" y1="586.044" x2="501.165" y2="561.894"/>
		<polygon points="501.438,586.231 501.165,561.894 505.42,585.858 		"/>
	</g>
	<g>
		<line fill="#FFFFFF" x1="533.617" y1="583.321" x2="531.353" y2="559.171"/>
		<polygon points="531.626,583.508 531.353,559.171 535.608,583.135 		"/>
	</g>
	<path fill="#FFFFFF" stroke="#000000" stroke-width="2" stroke-miterlimit="10" d="M507.203,660.76c0,0,14.04-15.515,16.603-21.886
		c2.821-7.01,2.65-22.718,1.509-30.188c-0.577-3.777-5.283-14.339-5.283-14.339"/>
	<g>
		<line fill="#FFFFFF" x1="634.747" y1="625.289" x2="615.879" y2="639.628"/>
		<polygon points="635.352,626.085 615.879,639.628 634.142,624.492 		"/>
	</g>
	<path fill="#FFFFFF" stroke="#000000" stroke-width="2" stroke-miterlimit="10" d="M586.446,655.477l18.113-9.056
		c0,0,7.831-15.516,9.056-21.132c1.61-7.376,1.802-22.712,0.755-30.188c-1.104-7.878-9.507-30.366-9.507-30.366"/>
	<g>
		<line fill="#FFFFFF" x1="568.333" y1="555.856" x2="580.409" y2="547.555"/>
		<polygon points="567.767,555.032 580.409,547.555 568.9,556.68 		"/>
	</g>
	<g>
		<line fill="#FFFFFF" x1="581.163" y1="568.686" x2="589.465" y2="556.611"/>
		<polygon points="580.339,568.12 589.465,556.611 581.987,569.253 		"/>
	</g>
</g>
<g id="Capa_4">
	<path fill="none" stroke="#000000" stroke-width="3" stroke-miterlimit="10" d="M521.055,424.806
		c-31.657,0-79.251,12.61-108.209-2.628c-30.767-16.19-41.122-42.371-30.87-75.943c8.5-27.835,23.584-51.02,32.905-78.6
		c9.561-28.293,52.707-26.822,76.246-33.918c2.884-0.87,5.474-1.868,7.672-3.065c5.778-3.148,25.896-20.026,25.896-20.026
		s-9.872,21.215-6.715,21.314c4.689,0.147,19.711-16.116,19.711-16.116s-4.833,14.259-1.04,15.596
		c17.939,6.319,46.807,8.704,61.906,12.878c18.548,5.128,21.504,27.429,28.548,41.707c8.954,18.146,13.75,26.383,18.195,47.307
		c6.861,32.294,11.22,63.703-21.834,82.657C592.983,433.447,554.477,424.806,521.055,424.806z"/>
	<path fill="none" stroke="#000000" stroke-width="4" stroke-miterlimit="10" d="M554.734,235.33c0,0,10.788-71.754,17.322-95.004
		c4.708-16.751,16.254-49.921,25.02-64.981c4.87-8.367,15.06-27.896,24.568-29.991c10.867-2.394,30.87,12.905,40.317,18.745
		c13.881,8.58,39.44,29.163,51.026,40.613c6.743,6.664,18.811,21.412,23.938,29.366c6.526,10.123,16.12,32.307,21.418,43.112
		c1.91,3.895,7.915,11.303,7.559,15.62c-0.157,1.9-2.637,5.51-4.41,6.248c-6.183,2.574-20.033-2.471-26.458-4.374
		c-9.73-2.881-28.074-11.764-37.167-16.245c-11.617-5.724-33.964-18.841-45.357-24.993c-4.703-2.539-14.489-10.867-14.489-10.867
		s-19.925,18.551-23.938,25.238c-4.115,6.856-13.08,24.993-13.08,24.993l-11.803,27.492l-7.381,19.756"/>
	<path fill="#FFFFFF" stroke="#000000" stroke-width="4" stroke-miterlimit="10" d="M346.836,192.677
		c0,0,5.286-46.947,17.455-50.954c7.228-2.38,21.509,12.347,27.495,16.964c5.294,4.083,17.557,17.892,17.557,17.892l17.316,17.821
		l12.806,14.831l27.679,29.41"/>
	<path fill="none" stroke="#000000" stroke-width="4" stroke-miterlimit="10" d="M478.206,236.682c0,0-59.09-65.751-77.203-81.725
		c-13.05-11.508-40.76-33.089-56.3-40.974c-8.633-4.38-27.796-15.245-36.917-11.84c-10.425,3.891-18.912,27.601-23.673,37.635
		c-6.996,14.743-17.278,45.907-20.788,61.814c-2.043,9.257-4.166,28.195-4.151,37.659c0.018,12.044,4.011,35.882,5.43,47.833
		c0.512,4.308-0.508,13.79,2.136,17.222c1.164,1.511,5.207,3.194,7.096,2.852c6.59-1.196,15.479-12.955,19.841-18.042
		c6.605-7.703,17.183-25.125,22.385-33.826c6.646-11.116,18.286-34.266,24.511-45.619c2.57-4.686,6.264-16.994,6.264-16.994
		s26.805,4.756,33.807,8.191c7.179,3.522,24.557,13.882,24.557,13.882l24.842,16.674l16.927,12.579"/>
</g>
<g id="Capa_5">
	<path fill="none" stroke="#000000" stroke-width="4" stroke-miterlimit="10" d="M438.906,429.143c0,0-11.725,14.382-15.065,19.576
		c-4.056,6.308-11.13,19.599-14.036,26.513c-2.485,5.911-6.811,18.098-7.798,24.433c-0.68,4.366-1.816,13.647,0,17.675
		c3.065,6.799,16.132,15.642,22.354,19.755c5.043,3.334,16.133,8.383,21.834,10.397c5.796,2.047,17.809,4.999,23.913,5.718
		c3.265,0.385,13.151,0,13.151,0s2.021,13.586,3.968,17.675c1.494,3.138,5.946,8.681,8.606,10.917
		c3.98,3.346,13.137,9.278,18.301,9.877c4.455,0.517,13.411-2.475,17.317-4.679c4.911-2.771,14.081-10.41,16.297-15.596
		c2.91-6.813,1.646-22.409,0-29.632c-1.09-4.78-5.563-13.748-8.499-17.675c-4.293-5.742-14.969-15.816-21.271-19.235
		c-5.8-3.147-19.038-5.501-25.516-6.758c-8.232-1.597-33.282-4.159-33.282-4.159"/>
	<path fill="none" stroke="#000000" stroke-width="4" stroke-miterlimit="10" d="M601.004,424.364l5.826,12.399l-9.869-2.079
		c0,0,12.986,14.603,16.107,20.274c2.875,5.224,5.905,16.972,6.758,22.874c0.484,3.344,0,13.516,0,13.516l-11.433-5.199
		c0,0,1.097,13.009,0,17.155c-0.927,3.505-5.383,9.458-7.39,12.477c-2.51,3.774-7.554,11.402-10.809,14.556
		c-1.118,1.083-5.051,3.639-5.051,3.639l-12.789-14.036"/>
	<path fill="none" stroke="#000000" stroke-width="4" stroke-miterlimit="10" d="M487.171,426.879l-9.021,8.923h11.658
		c0,0-9.756,11.115-11.658,15.596c-1.8,4.242-2.948,18.195-2.948,18.195l11.969-5.199c0,0-3.467,10.65-3.968,14.335
		c-0.633,4.663-0.047,17.674-0.047,17.674"/>
	<path fill="none" stroke="#000000" stroke-width="4" stroke-miterlimit="10" d="M612.476,487.454c0,0,5.133,13.586,6.168,18.302
		c1.457,6.639,4.154,20.351,2.904,27.033c-0.978,5.226-6.124,14.81-9.072,19.235c-2.085,3.129-6,9.862-9.123,11.957
		c-4.241,2.844-14.523,6.189-19.607,5.718c-2.151-0.199-6.31-1.85-8.058-3.119c-2.826-2.051-7.683-7.183-9.764-9.987
		c-1.152-1.552-4.003-4.625-4.099-6.556c-0.172-3.457,3.465-10.02,5.806-12.57c2.553-2.782,11.874-9.334,11.874-9.334"/>
</g>
<g id="Capa_6">
	<path fill="none" stroke="#000000" stroke-width="4" stroke-miterlimit="10" d="M412.865,528.687c0,0-13.351,12.71-17.358,17.358
		c-4.139,4.802-12.254,14.709-15.094,20.377c-2.647,5.283-5.934,16.794-6.792,22.641c-1.041,7.094,0,28.679,0,28.679l2.264,16.603
		c0,0-13.487,7.276-17.358,10.566c-5.302,4.506-16.245,14.429-18.113,21.132c-0.924,3.317,0.779,10.478,2.264,13.585
		c0.98,2.05,4.535,5.088,6.038,6.792c1.327,1.504,3.578,4.981,5.283,6.038c3.151,1.952,10.644,3.475,14.339,3.773
		c4.89,0.395,14.717,0,19.622,0c3.773,0,11.369,0.604,15.094,0c4.711-0.765,13.816-3.96,18.113-6.038
		c5.277-2.552,14.283-10.413,19.622-12.83c9.633-4.36,30.475-8.838,40.754-11.32c6.366-1.538,19.129-4.782,25.66-5.283
		c11.301-0.867,33.977,3.082,45.282,2.264c10.452-0.756,30.284-10.259,40.754-9.811c11.326,0.485,43.018,14.339,43.018,14.339
		s22.005,5.957,29.433,7.547c5.429,1.162,16.496,5.107,21.886,3.773c3.004-0.743,8.095-4.972,9.811-7.547
		c1.624-2.437,3.185-8.396,3.019-11.321c-0.323-5.667-5.306-16.311-8.302-21.132c-2.961-4.764-10.045-14.159-15.094-16.603
		c-4.936-2.39-16.417-1.92-21.886-1.509c-5.204,0.391-20.377,4.528-20.377,4.528s9.215-20.549,9.811-27.924
		c0.432-5.349-1.855-16.12-3.773-21.132c-1.666-4.352-7.274-11.94-9.811-15.849c-3.106-4.784-12.83-18.867-12.83-18.867"/>
	<g>
		<path d="M375.94,632.846c0,0,4.093,0.226,10.202,0.815c3.055,0.305,6.618,0.682,10.429,1.302c1.907,0.319,3.871,0.682,5.879,1.29
			l0.755,0.246c0.325,0.107,0.487,0.204,0.74,0.307c0.463,0.208,0.925,0.393,1.391,0.622c0.924,0.49,1.889,0.952,2.76,1.482
			c1.79,1.02,3.526,2.107,5.207,3.213c1.69,1.094,3.32,2.215,4.89,3.307c3.139,2.188,6.019,4.292,8.468,6.122
			c4.899,3.656,8.09,6.188,8.09,6.188s-3.305-2.383-8.362-5.806c-2.527-1.713-5.497-3.68-8.721-5.713
			c-1.612-1.015-3.284-2.055-5.009-3.062c-1.716-1.019-3.483-2.015-5.276-2.93c-0.894-0.488-1.789-0.861-2.674-1.286
			c-0.453-0.198-0.94-0.368-1.407-0.553c-0.218-0.078-0.509-0.21-0.667-0.242l-0.688-0.188c-1.853-0.47-3.793-0.744-5.663-0.967
			c-3.752-0.435-7.296-0.646-10.33-0.808c-6.076-0.304-10.125-0.341-10.125-0.341L375.94,632.846z"/>
	</g>
	<g>
		<path fill="#FFFFFF" d="M353.999,692.457c0,0,0.666-14.394,2.264-18.867c0.828-2.317,5.283-8.302,5.283-8.302"/>
		<path d="M352.5,692.383c0,0,0.179-1.817,0.512-4.523c0.18-1.354,0.366-2.932,0.633-4.621c0.132-0.844,0.245-1.716,0.414-2.601
			c0.165-0.885,0.302-1.782,0.495-2.68c0.213-0.898,0.379-1.791,0.627-2.672c0.141-0.439,0.28-0.875,0.418-1.306
			c0.08-0.226,0.114-0.401,0.229-0.663l0.295-0.569c0.401-0.744,0.891-1.498,1.334-2.12c0.444-0.645,0.882-1.239,1.291-1.782
			c1.635-2.173,2.797-3.558,2.797-3.558s-1.014,1.5-2.408,3.82c-0.349,0.579-0.72,1.21-1.089,1.887
			c-0.194,0.336-0.377,0.683-0.546,1.034c-0.171,0.356-0.367,0.691-0.51,1.099l-0.234,0.596c-0.042,0.136-0.085,0.392-0.128,0.583
			c-0.086,0.412-0.173,0.828-0.26,1.248c-0.148,0.85-0.22,1.753-0.335,2.63c-0.097,0.885-0.139,1.787-0.211,2.663
			c-0.075,0.876-0.097,1.75-0.14,2.59c-0.089,1.679-0.111,3.256-0.149,4.602c-0.05,2.699-0.04,4.491-0.04,4.491L352.5,692.383z"/>
	</g>
	<g>
		<path fill="#FFFFFF" d="M378.952,693.272c0,0-0.137-13.699,1.461-18.173"/>
		<path d="M377.452,693.281c0,0,0.099-1.153,0.248-2.881c0.169-1.725,0.396-4.02,0.728-6.307c0.14-1.143,0.343-2.285,0.526-3.35
			c0.156-1.067,0.422-2.055,0.603-2.897c0.092-0.421,0.178-0.807,0.307-1.14c0.114-0.333,0.213-0.623,0.294-0.862
			c0.162-0.473,0.254-0.744,0.254-0.744s-0.047,0.284-0.13,0.78c-0.041,0.246-0.091,0.544-0.147,0.886
			c-0.072,0.336-0.093,0.729-0.115,1.157c-0.041,0.857-0.141,1.839-0.121,2.912c-0.007,1.069-0.02,2.202,0.027,3.344
			c0.045,2.275,0.193,4.552,0.306,6.254c0.132,1.699,0.221,2.832,0.221,2.832L377.452,693.281z"/>
	</g>
	<g>
		<path fill="#FFFFFF" d="M665.69,675.099c0,0,9.013-2.771,10.566-5.283c1.488-2.407,0-11.321,0-11.321l-3.019-8.302"/>
		<path d="M665.244,673.667c1.824-0.483,3.669-1.063,5.44-1.725c0.88-0.341,1.76-0.694,2.578-1.108
			c0.4-0.21,0.817-0.419,1.166-0.661c0.189-0.115,0.365-0.235,0.508-0.363l0.235-0.186l0.163-0.183l0.086-0.089l0.022-0.022
			l0.006-0.006l0.003-0.003c0.043-0.078-0.056,0.104-0.045,0.083l0.011-0.02l0.043-0.081l0.17-0.324
			c0.097-0.205,0.104-0.33,0.176-0.498c0.102-0.404,0.19-0.852,0.242-1.31c0.107-0.918,0.147-1.872,0.146-2.829
			c-0.009-1.916-0.133-3.861-0.344-5.779l0.019,0.073l-2.632-8.442l3.405,8.161l0.008,0.02l0.011,0.053
			c0.397,1.934,0.704,3.87,0.899,5.849c0.092,0.99,0.147,1.989,0.123,3.016c-0.012,0.516-0.059,1.034-0.147,1.587
			c-0.072,0.296-0.152,0.657-0.246,0.9l-0.14,0.339l-0.035,0.085l-0.009,0.021l-0.051,0.092l-0.004,0.006l-0.009,0.012l-0.035,0.05
			l-0.141,0.198l-0.293,0.388l-0.308,0.304c-0.206,0.214-0.418,0.389-0.631,0.551c-0.425,0.352-0.861,0.623-1.299,0.908
			c-0.877,0.552-1.773,1.011-2.675,1.46c-1.812,0.877-3.633,1.642-5.526,2.337L665.244,673.667z"/>
	</g>
	<g>
		<polyline fill="#FFFFFF" points="691.349,675.854 692.104,663.024 686.821,647.93 		"/>
		<polygon points="689.852,675.765 691.274,662.975 691.319,663.298 686.821,647.93 692.889,662.749 692.936,662.863 
			692.934,663.073 692.847,675.942 		"/>
	</g>
	<g>
		<path fill="none" d="M691,634"/>
	</g>
	<g>
		<polygon points="691,634 931,636.5 691,639 		"/>
	</g>
	<g>
		<polygon points="373.833,637.167 128.833,634.667 373.833,632.167 		"/>
	</g>
</g>
<g id="Capa_7">
	
		<line fill="none" stroke="#000000" stroke-width="3" stroke-miterlimit="10" x1="503.099" y1="409.571" x2="506.655" y2="420.856"/>
	<line fill="none" stroke="#000000" stroke-miterlimit="10" x1="506.5" y1="420.856" x2="537.726" y2="419.465"/>
	<line fill="none" stroke="#000000" stroke-width="3" stroke-miterlimit="10" x1="539.581" y1="404.625" x2="537.262" y2="419.31"/>
	
		<line fill="none" stroke="#000000" stroke-width="3" stroke-miterlimit="10" x1="520.413" y1="401.224" x2="521.804" y2="419.774"/>
</g>
</svg>
