<?xml version="1.0" encoding="utf-8"?>
<!-- Generator: Adobe Illustrator 17.0.0, SVG Export Plug-In . SVG Version: 6.00 Build 0)  -->
<!DOCTYPE svg PUBLIC "-//W3C//DTD SVG 1.1//EN" "http://www.w3.org/Graphics/SVG/1.1/DTD/svg11.dtd">
<svg version="1.1" id="Capa_2" xmlns="http://www.w3.org/2000/svg" xmlns:xlink="http://www.w3.org/1999/xlink" x="0px" y="0px"
	 width="1024px" height="768px" viewBox="0 0 1024 768" enable-background="new 0 0 1024 768" xml:space="preserve">
<path fill="none" stroke="#000000" stroke-width="5" stroke-miterlimit="10" d="M460.655,143.793c0,0-51.201,4.222-68.103,6.897
	c-16.116,2.55-48.167,9.097-63.793,13.793c-11.959,3.594-35.473,12.343-46.552,18.103c-8.273,4.301-25.409,13.253-31.035,20.69
	c-8.882,11.741-14.87,41.672-18.103,56.034c-2.912,12.935-5.805,39.372-6.897,52.586c-1.03,12.465-1.947,37.495-1.724,50
	c0.219,12.313,1.7,36.948,3.448,49.138c1.722,12.009,8.361,35.445,10.345,47.414c1.487,8.97,3.096,27.121,3.448,36.207
	c0.475,12.277,0.236,36.901-0.862,49.138c-0.839,9.352-4.642,27.784-6.034,37.069c-1.646,10.972-7.265,32.94-6.034,43.966
	c0.613,5.49,3.995,16.646,7.759,20.69c5.978,6.424,23.522,12.034,31.897,14.655c9.401,2.942,28.943,6.87,38.793,6.897
	c7.653,0.021,22.626-3.897,30.172-5.172c6.463-1.093,20.327-0.8,25.862-4.31c2.878-1.825,6.743-7.954,7.759-11.207
	c3.406-10.903,1.188-34.329,0-45.69c-1.192-11.393-8.291-33.435-9.483-44.828c-0.785-7.502,0-30.172,0-30.172l35.345,11.207
	l32.759,5.172l31.897,1.724c0,0,6.073,36.171,5.172,48.276c-0.76,10.217-8.737,29.536-10.345,39.655
	c-1.694,10.662-2.586,43.103-2.586,43.103s17.9,15.081,25,18.103c10.074,4.288,32.154,7.768,43.103,7.759
	c9.638-0.008,28.44-5.22,37.931-6.897c7.536-1.331,30.172-5.172,30.172-5.172s3.179-17.4,3.448-23.276
	c0.178-3.881-0.164-11.695-0.862-15.517c-1.543-8.448-8.328-24.41-10.345-32.759c-2.721-11.262-7.44-34.108-7.759-45.69
	c-0.263-9.54,2.787-28.51,4.31-37.931c0.668-4.131,3.448-16.379,3.448-16.379s27.883-17.134,36.207-24.138
	c9.098-7.656,32.759-34.483,32.759-34.483l12.931-18.966l47.414,16.379c0,0-0.306-8.452-0.862-11.207
	c-0.944-4.676-6.034-18.103-6.034-18.103s13,0.065,17.241,0.862c3.349,0.63,12.931,4.31,12.931,4.31l17.241,50
	c0,0,17.239,38.249,23.276,50.862c3.537,7.39,13.761,21.167,14.655,29.31c0.582,5.3-1.432,16.89-5.172,20.69
	c-2.347,2.384-9.626,3.966-12.931,3.448c-3.544-0.555-9.336-5.435-12.069-7.759c-2.209-1.878-7.759-8.621-7.759-8.621
	s-6.084,4.914-7.759,6.897c-2.624,3.107-8.621,13.793-8.621,13.793l-10.345-6.034l-13.793,0.862c0,0,7.741,25.033,12.931,31.897
	c4.446,5.88,16.857,14.478,23.276,18.103c7.841,4.428,24.775,11.244,33.621,12.931c7.437,1.418,23.142,0.223,30.172-2.586
	c7.689-3.072,21.015-13.977,25.862-20.69c3.633-5.031,7.19-17.238,8.621-23.276c2.25-9.495,4.269-29.035,4.31-38.793
	c0.036-8.449-2.169-25.269-3.448-33.621c-1.465-9.568-5.84-28.444-7.759-37.931c-1.743-8.617-5.526-25.799-6.897-34.483
	c-1.455-9.216-3.267-27.798-4.31-37.069c-1.115-9.91-4.203-29.684-4.31-39.655c-0.107-9.951,3.017-29.713,3.448-39.655
	c0.561-12.919,0.885-38.823,0-51.724c-0.864-12.589-4.751-37.565-6.897-50c-1.983-11.496-9.483-45.69-9.483-45.69
	s-12.608-38.656-19.828-50c-5.566-8.746-20.285-23.782-28.448-30.172c-7.599-5.949-24.568-15.624-33.621-18.966
	c-10.508-3.879-32.775-9.095-43.966-8.621c-10.973,0.465-32.006,8.087-42.241,12.069c-6.737,2.621-19.432,9.627-25.862,12.931
	c-7.803,4.009-31.034,16.379-31.034,16.379s-19.851-8.325-26.724-10.345c-8.232-2.419-25.041-6.967-33.621-6.897
	c-7.948,0.065-23.627,4.015-31.035,6.897c-6.029,2.345-17.553,8.662-22.414,12.931C468.396,132.181,460.655,143.793,460.655,143.793
	z"/>
<path fill="none" stroke="#000000" stroke-width="5" stroke-miterlimit="10" d="M376.172,530.862c0,0,22.519,34.721,25.862,47.414
	c2.031,7.711,0,23.922,0,31.897c0,5.819,0,23.276,0,23.276s12.612,7.281,17.241,8.621c6.242,1.806,19.372,2.263,25.862,2.586
	c2.583,0.129,10.345,0,10.345,0"/>
<path fill="none" stroke="#000000" stroke-width="5" stroke-miterlimit="10" d="M592.552,649.828c0,0,13.847-8.049,17.241-12.069
	c2.923-3.462,5.384-12.521,7.759-16.379c2.576-4.185,8.817-11.833,12.069-15.517c4.236-4.798,14.276-12.973,18.103-18.103
	c3.517-4.715,9.372-15.101,11.207-20.69c2.443-7.442,4.087-23.205,4.31-31.034c0.228-7.997-2.586-31.897-2.586-31.897l-0.862-29.31
	l-2.586-22.414"/>
<path fill="none" stroke="#000000" stroke-width="5" stroke-miterlimit="10" d="M608.069,148.966c0-4.572-7.112-10.56-10.345-13.793
	c-2.371-2.371-12.069-8.621-12.069-8.621"/>
<path fill="none" stroke="#000000" stroke-width="5" stroke-miterlimit="10" d="M460.655,143.793L453.759,180
	c0,0-4.425,24.499-4.31,32.759c0.152,10.912,5.491,32.281,6.897,43.103c1.116,8.592,3.017,25.83,3.448,34.483
	c0.505,10.117-1.405,30.486,0,40.517c0.87,6.215,4.002,18.569,6.897,24.138c2.686,5.167,9.688,15.065,14.655,18.103
	c3.57,2.183,12.199,3.639,16.379,3.448c5.857-0.267,17.566-3.599,22.414-6.897c3.423-2.328,6.422-11.607,10.345-12.931
	c4.21-1.421,12.832,3.767,17.241,4.31c3.209,0.395,10.118,1.593,12.931,0c3.281-1.857,5.484-9.925,7.759-12.931
	c3.036-4.012,9.174-12.66,13.793-14.655c2.77-1.197,12.069,0,12.069,0"/>
<path fill="none" stroke="#000000" stroke-width="5" stroke-miterlimit="10" d="M773.586,122.241c0,0,16.566-6.775,22.414-7.759
	c5.101-0.858,15.731-1.47,20.69,0c4.929,1.461,13.398,7.793,17.241,11.207c5.034,4.471,13.991,14.793,17.241,20.69
	c3.227,5.854,8.57,18.378,9.483,25c1.329,9.645-2.786,29.079-3.448,38.793c-0.617,9.041-1.509,27.147-1.724,36.207
	c-0.164,6.895-0.101,20.69,0,27.586c0.108,7.33,0.493,21.989,0.862,29.31c0.305,6.042,2.401,18.126,1.724,24.138
	c-0.579,5.149-3.236,15.467-6.034,19.828c-1.317,2.052-4.515,6.373-6.897,6.897c-4.262,0.936-18.103-6.034-18.103-6.034"/>
<path fill="none" stroke="#000000" stroke-width="5" stroke-miterlimit="10" d="M823.586,380c0,0,10.378-0.478,13.793,0
	c3.108,0.435,10.179,0.943,12.069,3.448c1.298,1.721,0.766,6.606,0,8.621c-0.922,2.426-4.949,6.043-6.897,7.759
	c-3.723,3.279-16.379,11.207-16.379,11.207"/>
<path fill="none" stroke="#000000" stroke-width="5" stroke-miterlimit="10" d="M685.655,413.621l15.517-11.207l17.241-16.379
	c0,0,15.199,8.53,20.69,10.345c7.065,2.335,22.022,3.673,29.31,5.172c3.687,0.758,11.703,1.114,14.655,3.448
	c1.89,1.495,4.31,6.211,4.31,8.621c0,2.891-2.871,8.594-5.172,10.345c-3.634,2.765-12.792,5.007-17.241,6.034
	c-3.594,0.83-14.655,1.724-14.655,1.724h-15.517c0,0-9.582-3.681-12.931-4.31c-4.241-0.797-17.241-0.862-17.241-0.862
	L685.655,413.621z"/>
<path fill="none" stroke="#000000" stroke-width="5" stroke-miterlimit="10" d="M664.103,439.483c0,0-11.18-3.435-14.655-5.172
	c-3.475-1.738-12.931-8.621-12.931-8.621"/>
<polyline fill="none" stroke="#000000" stroke-width="5" stroke-miterlimit="10" points="582.207,517.069 581.345,505 
	583.069,486.897 "/>
<polyline fill="none" stroke="#000000" stroke-width="5" stroke-miterlimit="10" points="361.517,525.69 362.379,512.759 
	367.552,492.931 "/>
<polyline fill="none" stroke="#000000" stroke-width="5" stroke-miterlimit="10" points="461.517,543.793 462.379,530.862 
	460.655,519.655 "/>
<path fill="none" stroke="#000000" stroke-width="5" stroke-miterlimit="10" d="M251.172,203.276c0,0-20.56,15.015-25.862,21.552
	c-5.223,6.439-12.371,21.639-15.517,29.31c-3.415,8.327-9.079,25.572-10.345,34.483c-1.304,9.178-1.187,27.805-0.862,37.069
	c0.243,6.923,2.586,27.586,2.586,27.586s-13.649,7.777-16.379,12.069c-1.77,2.782-1.94,9.698-2.586,12.931
	c-0.862,4.31-1.863,13.141-3.448,17.241c-1.813,4.689-10.345,17.241-10.345,17.241s6.306,3.64,8.621,4.31
	c4.554,1.318,14.45,1.447,18.966,0c3.531-1.132,9.152-6.332,12.069-8.621c2.07-1.624,6.562-4.397,8.621-6.034
	c2.27-1.805,8.621-7.759,8.621-7.759"/>
<path fill="none" stroke="#000000" stroke-width="5" stroke-miterlimit="10" d="M201.172,353.276l5.172,4.31
	c0,0,4.148,4.55,6.034,5.172c2.873,0.948,12.069-0.862,12.069-0.862"/>
<ellipse transform="matrix(0.9125 0.4092 -0.4092 0.9125 183.925 -272.1068)" stroke="#000000" stroke-width="5" stroke-miterlimit="10" cx="727.897" cy="293.793" rx="23.707" ry="34.914"/>
<ellipse fill="#FFFFFF" stroke="#FFFFFF" stroke-width="5" stroke-miterlimit="10" cx="741.69" cy="282.586" rx="9.483" ry="9.914"/>
<path fill="none" stroke="#000000" stroke-width="5" stroke-miterlimit="10" d="M236.517,645.517c0,0,7.363-12.161,11.207-14.655
	c2.588-1.68,10.823-3.425,13.793-2.586c2.991,0.845,10.474,9.401,12.069,12.069c1.88,3.144,0.408,7.788,1.724,11.207
	c0.958,2.488,2.586,10.345,2.586,10.345"/>
<path fill="none" stroke="#000000" stroke-width="5" stroke-miterlimit="10" d="M289.103,662.759c0,0,2.667-14.119,5.172-18.103
	c1.381-2.197,5.304-6.055,7.759-6.897c3.065-1.05,9.981-0.477,12.931,0.862c2.22,1.008,5.746,4.747,6.897,6.897
	c1.037,1.938,3.707,7.369,4.31,9.483c0.505,1.771,0,8.621,0,8.621"/>
<path fill="none" stroke="#000000" stroke-width="5" stroke-miterlimit="10" d="M342.552,660.172c0,0,1-14.451,2.586-18.966
	c0.833-2.371,3.438-6.802,5.172-8.621c2.145-2.25,7.341-7.694,10.345-6.897c5.589,1.484,10.345,20.69,10.345,20.69"/>
<path fill="none" stroke="#000000" stroke-width="5" stroke-miterlimit="10" d="M464.103,681.724c0,0,5.302-7.654,7.759-9.483
	c2.247-1.673,7.596-4.854,10.345-4.31c2.392,0.473,5.516,4.887,6.897,6.897c1.202,1.75,3.448,7.759,3.448,7.759L496,697.241"/>
<path fill="none" stroke="#000000" stroke-width="5" stroke-miterlimit="10" d="M509.793,697.241l5.172-15.517
	c0,0,5.08-9.101,7.759-11.207c2.36-1.855,8.284-4.992,11.207-4.31c3.713,0.866,8.354,7.955,10.345,11.207
	c2.278,3.722,6.034,16.379,6.034,16.379"/>
<path fill="none" stroke="#000000" stroke-width="5" stroke-miterlimit="10" d="M559.793,693.793L563.241,680
	c0,0,7.433-10.423,11.207-12.069c2.173-0.948,7.432-1.19,9.483,0c3.006,1.744,6.897,12.069,6.897,12.069"/>
<g>
	<polygon points="823.242,359.704 801.172,354.138 823.93,353.744 	"/>
</g>
<g>
	<polygon points="825.691,314.566 803.621,309 826.378,308.606 	"/>
</g>
<g>
	<polygon points="825.691,399.049 803.621,393.483 826.378,393.089 	"/>
</g>
<g>
	<polygon points="830.308,432.058 814.966,432.586 828.934,426.218 	"/>
</g>
<g>
	<polygon points="833.069,467.483 818.414,464.483 833.069,461.483 	"/>
</g>
<g>
	<polygon points="841.839,502.824 824.448,500.69 841.54,496.831 	"/>
</g>
<g>
	<polygon points="847.938,537.303 835.655,535.172 847.51,531.318 	"/>
</g>
<g>
	<polygon points="849.448,571.793 836.517,568.793 849.448,565.793 	"/>
</g>
<g>
	<polygon points="846.921,600.994 832.207,593.793 848.527,595.213 	"/>
</g>
<g>
	<polygon points="828.441,633.06 818.414,619.655 832.524,628.664 	"/>
</g>
<g>
	<polygon points="788.69,648.103 791.69,632.586 794.69,648.103 	"/>
</g>
<g>
	<polygon points="756.326,638.856 765.828,628.276 761.536,641.833 	"/>
</g>
</svg>
