<?xml version="1.0" encoding="utf-8"?>
<!-- Generator: Adobe Illustrator 17.0.0, SVG Export Plug-In . SVG Version: 6.00 Build 0)  -->
<!DOCTYPE svg PUBLIC "-//W3C//DTD SVG 1.1//EN" "http://www.w3.org/Graphics/SVG/1.1/DTD/svg11.dtd">
<svg version="1.1" xmlns="http://www.w3.org/2000/svg" xmlns:xlink="http://www.w3.org/1999/xlink" x="0px" y="0px" width="1024px"
	 height="768px" viewBox="0 0 1024 768" enable-background="new 0 0 1024 768" xml:space="preserve">
<g id="Capa_2">
	<g>
		<g>
			<path d="M141.388,297.101c-11.367-6.9-26.175-9.64-38.955-5.36c-12.01,4.021-21.472,17.418-19.67,30.258
				c1.464,10.429,13.919,13.054,22.563,13.09c10.65,0.044,22.487-3.035,30.942-9.686c2.533-1.992-1.032-5.505-3.536-3.536
				c-6.78,5.333-16.287,7.558-24.722,8.133c-6.792,0.464-17.559-0.159-20.109-7.946c-1.55-4.734,0.877-10.325,2.999-14.455
				c2.882-5.609,8.016-9.416,13.902-11.387c11.066-3.705,24.327-0.703,34.06,5.205C141.629,303.096,144.14,298.771,141.388,297.101
				L141.388,297.101z"/>
		</g>
	</g>
	<g>
		<g>
			<path d="M189.201,303.663c-3.763-1.605-4.771-5.319-6.366-8.764c-1.519-3.281-3.868-5.274-6.742-7.344
				c-5.537-3.987-12.303-5.274-18.956-4.353c-14.89,2.061-23.095,17.203-24.834,30.685c-0.855,6.626-0.856,13.845,1.839,20.09
				c2.002,4.64,6.324,7.211,10.685,9.436c4.152,2.118,21.699,9.357,21.237-1.028c-0.143-3.211-5.143-3.225-5,0
				c0.116,2.604-16.365-4.673-18.194-5.853c-8.784-5.669-6.507-20.4-4.162-28.932c3.05-11.098,12.312-20.304,24.362-19.722
				c6.031,0.291,12.708,4.225,15.449,9.546c2.204,4.28,3.388,8.522,8.16,10.558C189.608,309.231,192.159,304.925,189.201,303.663
				L189.201,303.663z"/>
		</g>
	</g>
	<g>
		<g>
			<path d="M239.189,342.384c0.041-10.341,1.144-22.29-5.029-31.262c-5.186-7.537-13.657-10.695-22.493-11.279
				c-17.953-1.187-35.579,8.46-44.654,23.759c-7.314,12.332-9.378,28.628-3.787,41.998c6.282,15.023,21.393,21.032,36.9,19.596
				c3.183-0.295,3.211-5.297,0-5c-13.407,1.242-25.891-3.07-31.977-15.736c-5.48-11.404-3.356-25.749,2.245-36.641
				c7.094-13.795,21.046-21.694,36.289-22.926c8.595-0.695,17.854,1.482,23.159,8.753c5.788,7.934,4.383,19.48,4.346,28.738
				C234.177,345.609,239.177,345.608,239.189,342.384L239.189,342.384z"/>
		</g>
	</g>
	<g>
		<g>
			<path d="M302.002,377.072c1.922-16.284-5.336-29.902-20.602-36.189c-14.4-5.931-32.398-4.039-46.415,2.031
				c-17.063,7.389-31.812,23.665-35.241,42.155c-2.006,10.822-0.456,22.155,2.139,32.737c2.406,9.813,6.845,19.443,14.765,25.982
				c11.235,9.278,29.535,10.927,40.559,0.676c2.366-2.2-1.178-5.728-3.536-3.536c-9.838,9.148-26,6.104-35.354-2.282
				c-8.026-7.195-11.105-18.561-13.037-28.758c-2.092-11.046-2.278-22.884,2.165-33.398c4.018-9.511,11.947-17.835,20.219-23.834
				c12.589-9.13,30.283-12.201,45.375-9.078c7.151,1.48,13.818,4.788,18.631,10.358c5.485,6.347,6.275,15.15,5.332,23.135
				C296.624,380.27,301.629,380.234,302.002,377.072L302.002,377.072z"/>
		</g>
	</g>
	<g>
		<g>
			<path d="M357.315,406.135c-1.239-10.162-2.54-20.877-10.491-28.185c-6.981-6.417-17.25-8.028-26.372-7.99
				c-20.081,0.083-37.239,10.641-49.205,26.293c-22.585,29.541-28.811,84.133,3.474,109.16c14.157,10.974,34.051,14.62,49.48,4.131
				c2.649-1.801,0.151-6.136-2.524-4.317c-19.932,13.549-45.514,0.607-56.662-18.167c-10.316-17.373-8.517-41.861-3.169-60.478
				c5.719-19.908,18.369-38.234,37.454-47.19c9.572-4.492,21.192-5.533,31.524-3.551c12.264,2.353,18.352,10.783,20.511,22.648
				c0.459,2.523,0.668,5.102,0.978,7.646C352.7,409.293,357.704,409.331,357.315,406.135L357.315,406.135z"/>
		</g>
	</g>
	<g>
		<g>
			<path d="M410.792,407.474c-4.54-1.909-6.459-7.679-10.516-10.465c-2.296-1.577-5.716-2.273-8.393-2.882
				c-4.907-1.116-9.905-1.171-14.865-0.438c-10.01,1.479-18.964,7.21-26.203,14.036c-17.234,16.251-27.1,40.508-30.989,63.488
				c-3.349,19.783-2.779,43.351,10.164,59.84c15.032,19.149,40.873,17.964,62.052,11.556c-0.941-0.383-1.882-0.766-2.823-1.149
				c0.313,0.625,0.625,1.25,0.938,1.875c1.442,2.884,5.755,0.351,4.317-2.524c-0.313-0.625-0.625-1.25-0.938-1.875
				c-0.488-0.975-1.807-1.456-2.823-1.149c-22.828,6.908-49.483,6.621-61.487-17.326c-10.334-20.617-6.513-47.165,0.495-68.15
				c5.761-17.253,15.493-34.965,30.418-45.924c6.313-4.635,13.704-7.786,21.58-8.188c4.035-0.206,8.01,0.404,11.874,1.542
				c7.215,2.125,9.13,9.72,15.871,12.554C412.434,413.544,413.717,408.704,410.792,407.474L410.792,407.474z"/>
		</g>
	</g>
	<g>
		<g>
			<path d="M465.333,408.117c-7.934-7.246-14.706-15.207-26.111-15.98c-10.595-0.718-20.198,6.03-27.533,12.91
				c-15.622,14.653-23.996,34.372-27.933,55.048c-4.003,21.02-4.374,43.28,0.549,64.172c4.446,18.868,16.041,40.479,36.972,43.995
				c17.063,2.866,34.23-8.652,41.093-23.884c1.313-2.915-2.995-5.459-4.317-2.524c-4.763,10.572-13.962,18.331-25.241,21.094
				c-12.404,3.037-23.496-3.332-31.202-12.658c-13.832-16.739-16.244-41.501-15.795-62.336c0.445-20.67,4.14-42.646,14.725-60.668
				c6.121-10.421,14.444-20.372,24.974-26.524c5.211-3.044,11.199-4.355,17.159-3.177c6.023,1.19,10.622,5.98,14.862,10.06
				c1.406,1.353,2.821,2.692,4.262,4.008C464.172,413.822,467.718,410.296,465.333,408.117L465.333,408.117z"/>
		</g>
	</g>
	<g>
		<g>
			<path d="M532.327,402.101c-8.579-5.376-14.655-13.668-25.268-15.17c-11.532-1.632-23.598,3.707-32.932,9.974
				c-10.177,6.832-18.695,16.508-24.15,27.474c-4.132,8.307-5.367,18-6.237,27.131c-2.104,22.097,0.188,45.031,5.505,66.536
				c2.363,9.557,5.616,18.997,10.28,27.687c5.023,9.358,12.857,17.811,20.274,25.323c12.464,12.625,28.015,19.381,45.87,17.026
				c17.251-2.275,30.089-13.07,38.493-27.872c1.594-2.808-2.726-5.327-4.317-2.524c-5.943,10.468-14.031,19.075-25.538,23.253
				c-11.848,4.302-25.264,3.552-36.432-2.23c-10.578-5.477-18.591-15.09-25.996-24.157c-6.674-8.172-11.188-16.734-14.583-26.727
				c-7.283-21.436-9.826-44.847-9.11-67.4c0.313-9.859,1.455-19.795,4.361-29.249c3.89-12.656,14.692-23.634,25.413-30.831
				c8.537-5.731,19.987-10.265,30.401-8.138c8.529,1.743,14.346,9.765,21.443,14.213
				C532.544,408.136,535.051,403.808,532.327,402.101L532.327,402.101z"/>
		</g>
	</g>
	<g>
		<g>
			<path d="M618.115,382.999c-20.635-12.787-46.525-9.437-67.113,1.688c-18.533,10.015-27.693,28.694-30.923,48.844
				c-3.399,21.206-1.012,43.012,2.105,64.098c1.368,9.254,2.743,18.396,6.46,27.055c3.466,8.075,8.323,15.348,14.344,21.74
				c15.6,16.559,39.097,25.393,61.712,23.463c24.362-2.079,44.226-17.657,54.149-39.677c1.313-2.915-2.995-5.459-4.317-2.524
				c-7.747,17.193-21.339,30.301-39.708,35.371c-16.629,4.59-34.776,1.582-49.905-6.307c-16.123-8.407-28.434-22.926-33.981-40.232
				c-3.01-9.392-3.955-19.652-5.207-29.398c-1.409-10.966-2.284-22.006-2.236-33.067c0.094-21.466,4.415-44.788,21.489-59.42
				c18.548-15.895,49.663-20.294,70.607-7.316C618.341,389.02,620.849,384.693,618.115,382.999L618.115,382.999z"/>
		</g>
	</g>
	<g>
		<g>
			<path d="M691.006,348.433c-12.888-0.96-24.489-3.266-37.179,0.643c-7.54,2.323-14.615,5.689-20.566,10.928
				c-6.694,5.892-11.265,14.009-15.332,21.813c-5.114,9.814-10.076,19.846-12.208,30.772c-4.247,21.769,0.012,45.16,7.425,65.757
				c7.094,19.71,18.503,40.963,37.559,51.238c14.066,7.585,30.977,9.746,46.179,4.597c14.233-4.821,22.048-16.729,26.809-30.328
				c1.068-3.051-3.763-4.352-4.821-1.329c-3.682,10.516-9.078,19.787-19.226,25.098c-11.176,5.849-24.427,5.313-36.195,1.833
				c-23.647-6.994-36.705-29.374-44.991-51.108c-8.07-21.169-12.297-45.637-7.158-68.003c2.555-11.122,8.464-21.847,14.042-31.721
				c4.229-7.486,9.381-14.368,16.725-19.018c5.7-3.609,12.394-5.791,18.938-7.234c9.944-2.193,20.042,0.322,29.999,1.064
				C694.224,353.673,694.201,348.671,691.006,348.433L691.006,348.433z"/>
		</g>
	</g>
	<g>
		<g>
			<path d="M724.804,304.162c-19.433,12.876-32.657,31.657-39.191,53.95c-6.425,21.92-5.91,45.34-2.867,67.76
				c2.652,19.538,7.002,39.274,16.909,56.532c9.092,15.839,23.275,27.287,40.354,33.537c20.285,7.423,44.041,8.148,64.644,1.699
				c19.311-6.044,35.063-19.324,46.742-35.559c13.748-19.112,21.94-42.666,26.068-65.674c4.634-25.831,0.29-50.948-10.905-74.533
				c-1.962-4.133-3.781-8.739-7.029-12.037c-2.772-2.815-5.691-5.484-8.663-8.085c-10.666-9.339-22.469-17.546-35.358-23.502
				C787.294,285.212,751.204,287.787,724.804,304.162c-2.733,1.695-0.225,6.022,2.524,4.317
				c22.983-14.256,53.537-17.396,79.011-8.594c18.974,6.556,36.283,19.8,50.214,34.058c2.981,3.051,4.661,8.293,6.477,12.118
				c3.334,7.023,5.957,14.358,7.972,21.86c3.397,12.647,4.089,25.761,2.816,38.757c-2.378,24.278-11.198,49.304-24.56,69.702
				c-11.734,17.913-28.797,31.694-49.546,37.509c-21.355,5.985-46.561,3.524-66.462-6.21c-37.66-18.42-46.162-66.989-47.573-104.757
				c-1.368-36.629,9.875-73.39,41.65-94.444C730.001,306.707,727.5,302.375,724.804,304.162z"/>
		</g>
	</g>
	<path fill="none" stroke="#000000" stroke-width="3" stroke-miterlimit="10" d="M728.741,447.902c0,0,19.581,17.565,27.643,20.622
		c8.543,3.24,27.348,4.173,36.418,3.071c8.506-1.033,25.711-5.703,32.469-10.969c7.824-6.097,21.5-33.347,21.5-33.347"/>
	<g>
		<path d="M841.067,421.137c0.711,0.184,1.32,0.478,1.939,0.76c0.606,0.297,1.177,0.633,1.728,0.989
			c1.103,0.712,2.111,1.528,3.051,2.417l-0.738-0.371c1.167,0.234,2.318,0.559,3.447,0.994c0.563,0.226,1.123,0.47,1.674,0.764
			c0.549,0.303,1.098,0.606,1.624,1.028c-0.643,0.202-1.265,0.286-1.886,0.369c-0.62,0.074-1.23,0.099-1.837,0.106
			c-1.21-0.004-2.4-0.117-3.573-0.322l-0.405-0.071l-0.333-0.3c-0.962-0.865-1.855-1.805-2.653-2.848
			c-0.4-0.521-0.78-1.063-1.124-1.643C841.649,422.414,841.307,421.831,841.067,421.137z"/>
	</g>
	<g>
		<path d="M721.481,450.91c0.458-0.574,0.974-1.01,1.485-1.461c0.518-0.432,1.057-0.817,1.608-1.174
			c1.1-0.717,2.256-1.305,3.451-1.8l-0.639,0.523c0.689-0.971,1.455-1.888,2.313-2.743c0.436-0.422,0.887-0.834,1.38-1.217
			c0.5-0.378,1.001-0.755,1.6-1.064c-0.078,0.67-0.254,1.272-0.431,1.873c-0.185,0.596-0.411,1.163-0.652,1.72
			c-0.497,1.104-1.086,2.144-1.751,3.131l-0.23,0.341l-0.41,0.182c-1.182,0.526-2.404,0.958-3.682,1.262
			c-0.638,0.153-1.288,0.279-1.959,0.357C722.885,450.9,722.213,450.974,721.481,450.91z"/>
	</g>
	<ellipse fill="none" stroke="#000000" stroke-width="3" stroke-miterlimit="10" cx="820.445" cy="373.53" rx="28.52" ry="31.811"/>
	
		<ellipse fill="none" stroke="#000000" stroke-width="3" stroke-miterlimit="10" cx="754.487" cy="379.411" rx="28.52" ry="31.811"/>
	<ellipse stroke="#000000" stroke-width="2" stroke-miterlimit="10" cx="760.113" cy="390.862" rx="17.332" ry="17.551"/>
	<ellipse stroke="#000000" stroke-width="2" stroke-miterlimit="10" cx="825.049" cy="386.821" rx="17.332" ry="17.551"/>
	
		<ellipse fill="#FFFFFF" stroke="#000000" stroke-width="2" stroke-miterlimit="10" cx="791.047" cy="412.8" rx="25.01" ry="19.745"/>
	<circle fill="#FFFFFF" stroke="#000000" stroke-width="2" stroke-miterlimit="10" cx="755.945" cy="382.525" r="5.265"/>
	<circle fill="#FFFFFF" stroke="#000000" stroke-width="2" stroke-miterlimit="10" cx="817.772" cy="378.637" r="5.265"/>
</g>
<g id="Capa_3">
	<path fill="#FFFFFF" stroke="#000000" stroke-width="3" stroke-miterlimit="10" d="M804.21,311.005
		c13.163-17.551,11.847-46.949,13.602-67.571c2.194-25.449-0.878-57.918,19.306-77.224c17.99-17.112,52.214-18.429,71.52-3.949
		c11.408,8.775,34.224,43.877,12.286,53.969c-6.143,3.071-20.622,3.949-26.765,0c-8.775-6.143-8.337-19.306-16.235-26.326
		c-22.378-19.306-38.173,15.796-41.245,31.592c-3.071,16.235-3.071,25.01-4.388,41.684c-0.655,8.299-3.071,24.571-6.582,32.031
		c-3.51,7.459-9.214,20.622-9.214,20.622"/>
	<path fill="#FFFFFF" stroke="#000000" stroke-width="3" stroke-miterlimit="10" d="M756.826,318.674
		c-13.997-18.663-12.597-49.923-14.464-71.852c-2.333-27.061,0.933-61.587-20.529-82.116c-19.129-18.196-55.522-19.596-76.051-4.199
		c-12.131,9.331-36.393,46.657-13.064,57.388c6.532,3.266,21.929,4.199,28.461,0c9.331-6.532,8.865-20.529,17.263-27.994
		c23.795-20.529,40.592,16.797,43.858,33.593c3.266,17.263,3.266,26.594,4.666,44.324c0.697,8.825,3.266,26.128,6.999,34.06
		c3.733,7.932,9.798,21.929,9.798,21.929"/>
</g>
</svg>
