<?xml version="1.0" encoding="utf-8"?>
<!-- Generator: Adobe Illustrator 17.0.0, SVG Export Plug-In . SVG Version: 6.00 Build 0)  -->
<!DOCTYPE svg PUBLIC "-//W3C//DTD SVG 1.1//EN" "http://www.w3.org/Graphics/SVG/1.1/DTD/svg11.dtd">
<svg version="1.1" xmlns="http://www.w3.org/2000/svg" xmlns:xlink="http://www.w3.org/1999/xlink" x="0px" y="0px" width="1024px"
	 height="768px" viewBox="0 0 1024 768" enable-background="new 0 0 1024 768" xml:space="preserve">
<g id="Capa_2">
	<path fill="none" stroke="#000000" stroke-width="4" stroke-miterlimit="10" d="M741.658,493.793c0,0,33.123-23.157,41.379-33.621
		c7.404-9.384,19.008-31.269,20.69-43.103c1.107-7.787-2.253-23.731-5.172-31.034c-2.995-7.493-12.105-21.327-18.103-26.724
		c-5.447-4.901-19.1-10.97-25.862-13.793c-6.039-2.521-18.72-5.918-25-7.759c-6.222-1.823-19.018-4.396-25-6.897
		c-2.762-1.155-8.854-3.438-10.345-6.034c-2.898-5.046,1.942-17.79,0-23.276c-1.943-5.489-11.635-13.125-14.655-18.103
		c-2.804-4.621-7.934-14.466-8.621-19.828c-0.496-3.872,1.724-15.517,1.724-15.517s-9.619,12.267-10.345,17.241
		c-0.404,2.772,0,11.207,0,11.207l-5.172-19.828l1.724-15.517l6.034-15.517c0,0-17.961,9.656-22.414,14.655
		c-3.526,3.958-9.483,18.965-9.483,18.965s-6.434,17.224-6.897,23.276c-0.365,4.771,0.821,14.518,2.586,18.966
		c1.368,3.446,6.286,9.188,8.621,12.069c2.209,2.726,6.933,7.935,9.483,10.345c2.226,2.104,6.778,6.321,9.483,7.759
		c3.974,2.112,13.002,3.664,17.241,5.172c6.372,2.268,25,10.345,25,10.345s22.835,4.44,30.172,6.897
		c6.495,2.174,19.321,7.378,25,11.207c6.193,4.175,17.748,14.262,21.552,20.69c2.956,4.994,6.446,16.625,6.034,22.414
		c-0.465,6.549-6.664,18.701-10.345,24.138c-2.734,4.038-10.149,10.553-13.793,13.793c-3.899,3.467-12.019,10.067-16.379,12.931
		c-5.319,3.494-22.414,12.069-22.414,12.069"/>
	
		<line fill="none" stroke="#000000" stroke-width="4" stroke-miterlimit="10" x1="694.244" y1="324.828" x2="673.554" y2="336.897"/>
	<g>
		<path d="M518.107,579.918c0,0,0.363-6.515,0.907-16.288c0.106-2.442,0.22-5.088,0.341-7.887c0.06-1.4,0.123-2.838,0.186-4.307
			c0.064-1.47,0.055-2.957,0.087-4.478c0.023-1.52,0.046-3.066,0.07-4.63c0.001-0.775,0.047-1.588,0.012-2.345
			c-0.033-0.796-0.067-1.596-0.101-2.399c-0.071-1.605-0.142-3.223-0.214-4.847c-0.111-1.614-0.222-3.235-0.333-4.856
			c-0.181-3.246-0.538-6.481-0.846-9.671c-0.078-0.798-0.156-1.592-0.234-2.383c-0.115-0.782-0.229-1.56-0.343-2.333
			c-0.231-1.548-0.459-3.077-0.684-4.581c-0.297-1.452-0.674-2.951-1.035-4.361c-0.402-1.407-0.795-2.784-1.177-4.125
			c-0.829-2.677-1.595-5.215-2.363-7.54c-3.019-9.317-5.207-15.475-5.207-15.475s2.421,6.067,5.798,15.272
			c0.857,2.297,1.722,4.809,2.655,7.461c0.439,1.343,0.891,2.723,1.352,4.133c0.424,1.428,0.839,2.839,1.215,4.369
			c0.286,1.515,0.577,3.055,0.871,4.614c0.145,0.781,0.291,1.566,0.438,2.356c0.108,0.792,0.217,1.587,0.327,2.386
			c0.433,3.196,0.917,6.44,1.225,9.709c0.175,1.632,0.349,3.265,0.523,4.891c0.134,1.622,0.267,3.238,0.4,4.841
			c0.064,0.801,0.128,1.599,0.192,2.393c0.07,0.833,0.052,1.607,0.082,2.407c0.037,1.586,0.074,3.154,0.11,4.695
			c0.027,1.54,0.092,3.064,0.085,4.54c-0.007,1.476-0.014,2.921-0.021,4.326c-0.014,2.813-0.027,5.472-0.039,7.927
			c-0.17,9.809-0.284,16.348-0.284,16.348L518.107,579.918z"/>
	</g>
	<g>
		<path d="M708.24,585.337c0,0-0.942-0.368-2.592-1.011c-1.643-0.657-3.989-1.585-6.783-2.784c-1.399-0.582-2.906-1.27-4.497-1.988
			c-1.587-0.757-3.258-1.558-4.989-2.612l-0.162-0.094l-0.085-0.057l-0.018-0.014l-0.035-0.027l-0.07-0.054l-0.281-0.217
			l-0.566-0.437c-0.379-0.292-0.76-0.587-1.144-0.883c-0.769-0.586-1.549-1.179-2.294-1.889c-1.495-1.371-3.082-2.709-4.477-4.166
			c-0.717-0.715-1.434-1.431-2.148-2.143c-0.715-0.711-1.369-1.489-2.047-2.222c-0.335-0.371-0.669-0.74-1.002-1.107l-0.249-0.275
			l-0.062-0.069l-0.048-0.056l-0.028-0.036l-0.111-0.145l-0.442-0.58c-0.588-0.771-1.177-1.522-1.709-2.323
			c-1.103-1.565-2.108-3.089-3.048-4.539c-0.952-1.445-1.809-2.836-2.622-4.106c-3.201-5.112-5.248-8.57-5.248-8.57
			s2.259,3.325,5.767,8.222c0.889,1.215,1.829,2.548,2.865,3.925c1.027,1.387,2.12,2.837,3.278,4.283
			c0.556,0.738,1.195,1.456,1.83,2.188l0.477,0.551l0.12,0.138l0.03,0.035c-0.026-0.03,0.014,0.011,0.014,0.011l0.065,0.063
			l0.26,0.254l1.046,1.02c0.709,0.675,1.383,1.386,2.13,2.041c0.745,0.656,1.493,1.315,2.241,1.973
			c1.474,1.359,3.043,2.514,4.536,3.731c0.724,0.618,1.542,1.164,2.35,1.703c0.401,0.272,0.8,0.542,1.195,0.81l0.591,0.401
			l0.294,0.199l0.073,0.05l0.037,0.025l0.018,0.012c-0.024-0.016,0.079,0.053-0.048-0.032l0.15,0.073
			c0.815,0.38,1.533,0.802,2.372,1.13c0.82,0.338,1.622,0.669,2.402,0.992c1.597,0.604,3.099,1.18,4.516,1.669
			c2.814,1.006,5.192,1.779,6.85,2.326c1.663,0.532,2.613,0.836,2.613,0.836L708.24,585.337z"/>
	</g>
	<path fill="none" stroke="#000000" stroke-width="4" stroke-miterlimit="10" d="M686.91,573c0,0-30.596-4.961-39.218-5.069
		c-5.388-0.067-16.179-0.401-21.552,0c-8.693,0.648-34.483,5.172-34.483,5.172"/>
	<path fill="none" stroke="#000000" stroke-width="4" stroke-miterlimit="10" d="M435.623,571.379c0,0-16.298-4.109-21.552-6.034
		c-5.342-1.958-15.839-6.508-20.69-9.483c-6.8-4.17-25-19.828-25-19.828"/>
	<path fill="none" stroke="#000000" stroke-width="4" stroke-miterlimit="10" d="M345.968,470.517l6.034-18.103l5.172,8.621v7.759
		c0,0,11.904-5.359,15.517-7.759c4.966-3.297,13.767-11.428,18.103-15.517c6.099-5.752,23.276-24.138,23.276-24.138l4.31,16.379
		c0,0,16.107-9.592,20.69-13.793c7.12-6.528,24.138-30.172,24.138-30.172l2.586,19.828l43.966-39.655
		c0,0,36.026,28.402,49.138,36.207c10.024,5.967,31.308,15.759,42.241,19.828c11.958,4.45,36.928,10.088,49.138,13.793
		c10.63,3.226,32.112,9.231,42.241,13.793c10.481,4.721,31.347,15.331,39.655,23.276c6.869,6.569,15.291,24.074,20.69,31.897
		c4.554,6.599,18.966,25.862,18.966,25.862l17.241,12.931l18.103,7.759l7.759,0.862l14.655,18.103c0,0,16.478,27.327,20.69,37.069
		c3.678,8.509,10.699,26.089,11.207,35.345c0.301,5.486-1.534,16.81-4.31,21.552c-2.008,3.429-8.268,9.187-12.069,10.345
		c-3.529,1.075-11.119-2.775-14.655-1.724c-1.614,0.479-3.551,3.86-5.172,4.31c-2.731,0.759-8.631-0.541-11.207-1.724
		c-1.806-0.829-4.095-4.739-6.034-5.172c-1.797-0.402-5.063,2.753-6.897,2.586c-2.503-0.228-6.913-3.328-8.621-5.172
		c-1.965-2.122-4.905-7.466-5.172-10.345c-0.29-3.125,1.803-9.397,3.448-12.069c1.999-3.247,10.002-6.727,11.207-10.345
		c2.632-7.901-2.056-25.443-6.034-32.759c-2.549-4.688-10.687-12.389-15.517-14.655c-6.486-3.043-28.448-3.448-28.448-3.448
		l-27.586-4.31l-15.517-4.31c0,0-2.528,11.585-2.586,15.517c-0.071,4.785,0.46,14.679,2.586,18.966
		c1.354,2.73,8.621,8.621,8.621,8.621l8.621,6.034c0,0,1.137,3.891,0.862,5.172c-0.652,3.039-5.458,7.59-6.897,10.345
		c-3.001,5.747-5.444,19.066-9.483,24.138c-3.091,3.881-11.762,9.392-16.379,11.207c-4.057,1.594-12.918,3.143-17.241,2.586
		c-3.256-0.419-8.824-5.669-12.069-5.172c-1.964,0.301-4.201,4.406-6.034,5.172c-2.394,1.001-7.832,1.51-10.345,0.862
		c-2.257-0.582-5.605-4.28-7.759-5.172c-2.031-0.841-6.973-0.27-8.621-1.724c-2.044-1.804-3.012-7.654-3.448-10.345
		c-0.552-3.404-1.235-10.574,0-13.793c1.039-2.707,5.299-7.085,7.759-8.621c3.993-2.493,13.423-4.675,18.103-5.172
		c3.222-0.342,9.755,1.501,12.931,0.862c2.835-0.57,7.739-3.92,10.345-5.172c2.781-1.337,11.207-5.172,11.207-5.172l-10.345,0.862
		c0,0-18.227-4.098-24.138-6.034c-4.868-1.595-14.361-5.513-18.966-7.759c-4.685-2.285-13.907-7.253-18.103-10.345
		c-3.56-2.623-10.284-8.527-12.931-12.069c-2.596-3.474-5.672-11.715-7.759-15.517c-1.209-2.203-5.172-8.621-5.172-8.621
		l-22.414,2.586l-25,2.586L520.106,580l2.586,34.483c0,0,4.91,32.928,6.034,43.966c0.328,3.223,1.922,9.869,0.862,12.931
		c-0.948,2.74-5.274,7.126-7.759,8.621c-3.046,1.832-10.283,2.888-13.793,3.448c-2.987,0.476-9.086,1.364-12.069,0.862
		c-1.619-0.273-4.394-2.634-6.034-2.586c-0.963,0.028-2.51,1.503-3.448,1.724c-1.678,0.396-5.255,0.526-6.897,0
		c-1.766-0.566-4.186-4.165-6.034-4.31c-1.441-0.113-3.734,2.729-5.172,2.586c-2.445-0.242-6.432-3.966-7.759-6.034
		c-2.032-3.168-3.826-10.91-3.448-14.655c0.31-3.07,3.108-8.914,5.172-11.207c2.163-2.403,7.403-6.419,10.345-7.759
		c2.808-1.279,12.069-2.586,12.069-2.586l-18.103-62.069l-31.034-6.034l1.724,25.862c0,0,12.024,54.328,6.897,71.552
		c-0.394,1.323-2.555,3.258-3.448,4.31c-1.876,2.211-5.157,7.34-7.759,8.621c-2.521,1.241-8.415,0.54-11.207,0.862
		c-2.816,0.324-8.513,2.606-11.207,1.724c-1.159-0.379-2.295-3.053-3.448-3.448c-1.643-0.564-5.17,1.057-6.897,0.862
		c-2.507-0.282-6.98-3.135-9.483-3.448c-2.149-0.269-6.603,1.65-8.621,0.862c-2.417-0.944-5.911-5.358-6.897-7.759
		c-1.557-3.793-1.947-12.425-0.862-16.379c0.822-2.997,4.612-8.238,6.897-10.345c1.631-1.504,7.759-4.31,7.759-4.31l9.483-1.724
		L367.52,532.586l-11.207-25l-6.034-20.69L345.968,470.517l-18.966,22.414l-31.897-46.552l-6.897,20.69l-22.414-25
		c0,0-12.802-15.146-16.379-20.69c-4.077-6.317-13.793-26.724-13.793-26.724l-5.172,14.655l-18.966-35.345l-14.655-30.172
		c0,0-8.237-17.082-8.621-23.276c-0.232-3.757,3.448-14.655,3.448-14.655l-10.345,13.793l-1.736-3.322c0,0-4.321-9.649-5.161-13.057
		c-1.452-5.893-3.036-18.086-2.586-24.138c0.38-5.109,3.512-14.981,5.172-19.828c2.128-6.211,10.345-24.138,10.345-24.138h-10.345
		l-11.207,11.207l2.586-38.793c0,0-11.212-10.769-12.931-15.517c-2.568-7.093-2.014-22.903,0-30.172
		c1.677-6.055,8.321-17.283,12.931-21.552c4.597-4.257,16.317-9.768,22.414-11.207c2.098-0.495,8.621,0,8.621,0
		s11.639-13.053,16.379-16.379c6.235-4.375,27.586-12.931,27.586-12.931l-14.655-10.345c0,0,12.542-8.029,17.241-9.483
		c8.482-2.624,26.485-4.023,35.345-3.448c5.739,0.372,17.134,2.894,22.414,5.172c6.421,2.771,23.276,15.517,23.276,15.517
		s17.047-11.155,23.276-13.793c9.051-3.833,28.125-9.674,37.931-10.345c9.974-0.682,29.898,2.994,39.655,5.172
		c5.521,1.233,21.552,6.897,21.552,6.897l18.966,6.897l-19.828,5.172c0,0,30.2,8.533,39.655,12.931
		c6.946,3.231,20.458,10.908,26.034,16.161c6.197,5.837,16.597,19.86,19.655,27.805c1.261,3.274,1.15,10.592,2.586,13.793
		c2.452,5.467,14.655,18.966,14.655,18.966v12.931l-14.655-5.172c0,0,12.2,12.823,14.655,18.103
		c2.406,5.174,3.543,16.76,4.31,22.414c0.727,5.356,2.306,16.178,1.724,21.552c-0.557,5.151-6.034,19.828-6.034,19.828
		l-15.517-22.414c0,0,8.082,23,8.621,31.035c0.422,6.295-2.398,18.779-3.448,25c-0.915,5.418-2.527,16.354-4.31,21.552
		c-1.564,4.558-6.253,13.044-8.621,17.241c-2.379,4.219-10.345,16.379-10.345,16.379l-8.621,10.345"/>
	<path fill="none" stroke="#000000" stroke-width="4" stroke-miterlimit="10" d="M517.52,365.345"/>
	<path fill="none" stroke="#000000" stroke-width="4" stroke-miterlimit="10" d="M434.761,152.414c0,0,16.098-12.956,22.414-15.517
		c6.074-2.464,19.337-4.931,25.862-4.31c6.177,0.587,18.245,4.988,23.276,8.621c5.594,4.039,14.904,15.06,17.241,21.552
		c2.336,6.489,2.202,21.051,0,27.586c-2.16,6.413-11.024,17.414-16.379,21.552c-4.434,3.426-15.259,7.24-20.69,8.621
		c-6.09,1.548-25,2.586-25,2.586"/>
	<path fill="none" stroke="#000000" stroke-width="4" stroke-miterlimit="10" d="M445.968,170.517c0,0,7.298-7.743,10.345-9.483
		c4.5-2.569,14.648-6.173,19.828-6.034c5.043,0.135,15.447,3.281,18.966,6.897c2.852,2.93,5.172,15.517,5.172,15.517
		s-2.276,13.797-5.172,17.241c-3.102,3.688-12.579,7.402-17.241,8.621c-4.384,1.146-18.103,0.862-18.103,0.862"/>
	<polyline fill="none" stroke="#000000" stroke-width="4" stroke-miterlimit="10" points="458.899,254.138 464.071,234.31 
		458.899,200.69 457.175,190.345 470.106,188.621 458.899,178.276 439.071,166.207 431.313,144.655 	"/>
	<path fill="none" stroke="#000000" stroke-width="4" stroke-miterlimit="10" d="M301,371c-6.658,4.64-16.902,4.528-25,4
		c-7.002-0.456-17.841-1.638-24-5c-4.684-2.557-8.879-6.103-11-11c-2.832-6.538-5.377-20.379-5.377-20.379
		s-5.63-17.839-8.621-23.276c-2.742-4.985-11.041-13.124-13.793-18.103c-2.672-4.835-7.473-15.173-7.759-20.69
		c-0.265-5.116,2.919-15.227,5.172-19.828c1.555-3.174,6.145-8.684,8.621-11.207c3.866-3.94,17.241-13.793,17.241-13.793
		s0.331-25.964,1.724-34.483c1.156-7.07,4.561-21.175,7.759-27.586c2.539-5.092,9.58-14.279,13.793-18.103
		c3.941-3.577,12.84-10.414,18.103-11.207c5.066-0.763,15.455,2.503,19.828,5.172c3.651,2.229,12.931,11.207,12.931,11.207
		s23.614-8.707,31.897-9.483c8.412-0.788,26.31-0.788,33.621,3.448c8.953,5.188,20.167,24.066,24.138,33.621
		c4.883,11.749,6.279,37.687,9.483,50c1.03,3.957,3.957,11.613,5.172,15.517c2.534,8.141,9.58,24.233,9.483,32.759
		c-0.09,7.906-4.863,23.756-9.483,30.172c-6.221,8.641-24.97,20.217-34.483,25c-7.064,3.552-22.842,6.52-30.172,9.483L301,371z"/>
	
		<ellipse transform="matrix(-0.8663 0.4996 -0.4996 -0.8663 725.3685 240.8184)" stroke="#000000" stroke-width="4" stroke-miterlimit="10" cx="330.451" cy="217.5" rx="20.69" ry="27.155"/>
	<path stroke="#000000" stroke-width="4" stroke-miterlimit="10" d="M286.485,205.862c0.178,3.563-4.103,10.633-6.034,12.931
		c-2.425,2.886-9.513,6.168-12.931,7.759c-3.235,1.505-9.618,7.357-12.931,6.034c-1.899-0.758-2.259-5.74-2.586-7.759
		c-0.621-3.829-0.543-11.676,0-15.517c0.555-3.923,3.381-11.712,6.035-14.655c2.131-2.363,8.025-6.019,11.207-6.034
		c4.627-0.022,14.087,4.601,16.379,8.621C286.696,199.123,286.377,203.699,286.485,205.862z"/>
	<g>
		<line x1="466.658" y1="577.414" x2="441.658" y2="497.241"/>
		<polygon points="464.748,578.009 441.658,497.241 468.567,576.818 		"/>
	</g>
	<path fill="none" stroke="#000000" stroke-width="3" stroke-miterlimit="10" d="M283.899,185.172c0,0,2.126,7.069,2.586,9.483
		c0.731,3.834,2.621,11.718,1.724,15.517c-1.003,4.247-6.946,10.974-10.197,13.884c-2.514,2.25-8.755,4.722-11.929,5.864
		c-2.706,0.973-8.117,2.134-10.632,3.528c-3.199,1.773-7.674,7.846-10.345,10.345c-1.673,1.565-6.897,6.034-6.897,6.034l-3.448,4.31
		c0,0-1.295,9.075-0.862,12.069c0.264,1.822,1.702,5.282,2.586,6.897c1.553,2.835,5.548,7.986,7.759,10.345
		c1.359,1.45,4.433,3.996,6.034,5.172c1.639,1.204,6.897,4.31,6.897,4.31s8.58-2.857,11.207-4.31
		c2.829-1.565,7.481-6.258,10.345-7.759c2.415-1.265,8.254-1.699,10.345-3.448c2.071-1.733,4.624-6.839,5.172-9.483
		c0.483-2.331,0.437-7.488-0.862-9.483c-1.211-1.859-5.611-3.754-7.759-4.31c-2.921-0.757-9.097-0.523-12.069,0
		C271.07,254.576,263,254,263,254s-5.962,0.16-8.411-0.724c-2.311-0.834-7.028-2.486-9.483-2.586
		c-2.274-0.092-8.948,1.674-8.948,1.674"/>
	<path fill="none" stroke="#000000" stroke-width="4" stroke-miterlimit="10" d="M199.416,129.138L217.577,137l12,7.333l-10,12.667
		c0,0-15.381-5.002-20.667-4.667c-5.841,0.37-18.147,3.595-22,8c-3.594,4.109-5.278,15.908-4.667,21.333
		c0.351,3.112,3.478,8.811,5.333,11.333c1.608,2.185,5.696,5.9,8,7.333c2.733,1.7,12,4.667,12,4.667l12.667,3.333l-4,10.667
		c0,0-14.635-1.926-19.333-3.333c-4.841-1.45-18.529-8.08-18.529-8.08"/>
	<path fill="none" stroke="#000000" stroke-width="4" stroke-miterlimit="10" d="M244.91,141c0,0-12.06,1.171-15.333,3.333
		C224.291,147.826,214.91,165,214.91,165l-2,4.667c0,0,8.464-2.211,11.333-2c1.051,0.077,4,1.333,4,1.333s-12.431,8.092-15.333,12
		c-1.919,2.584-4.667,12-4.667,12l12.667,1.333c0,0-8.761,10.034-10.667,14c-1.786,3.716-4,16-4,16L216.91,223l1.333,13.333"/>
</g>
<g id="Capa_3">
	
		<ellipse fill="#FFFFFF" stroke="#FFFFFF" stroke-width="3" stroke-miterlimit="10" cx="318.753" cy="203.736" rx="6.167" ry="5.965"/>
	
		<ellipse fill="#FFFFFF" stroke="#FFFFFF" stroke-width="3" stroke-miterlimit="10" cx="263.42" cy="200.085" rx="6.167" ry="5.965"/>
	<path fill="none" stroke="#010002" stroke-width="3" stroke-miterlimit="10" d="M342.309,291.184c0,0-2.636,4.61-3.639,6.066
		c-1.716,2.489-5.273,7.438-7.481,9.503c-2.55,2.385-8.331,6.476-11.525,7.885c-4.038,1.782-12.808,3.482-17.186,4.044
		c-4.163,0.534-12.609,0.85-16.782,0.404c-2.999-0.32-8.883-1.826-11.727-2.831c-4.008-1.416-12.672-3.992-15.367-7.279
		c-1.057-1.289-1.414-4.815-1.618-6.47c-0.447-3.628,0.02-4.827,0.202-9.301"/>
	<path fill="none" stroke="#010002" stroke-width="3" stroke-miterlimit="10" d="M257.995,309.179c0,0-6.119,4.368-8.492,5.055
		c-1.846,0.534-5.781,0.47-7.683,0.202c-1.995-0.281-5.803-1.705-7.683-2.426c-3.422-1.312-13.345-6.066-13.345-6.066"/>
	<g>
		<path fill="#010002" d="M354.036,293.813c0,0-0.356,0.093-0.976,0.184c-0.621,0.096-1.506,0.184-2.567,0.214
			c-1.06,0.023-2.295-0.021-3.619-0.198c-0.663-0.09-1.348-0.207-2.051-0.386c-0.705-0.171-1.42-0.401-2.184-0.757
			c-0.188-0.087-0.402-0.23-0.598-0.348l-0.149-0.094l-0.037-0.024l-0.114-0.089l-0.049-0.042l-0.194-0.169
			c-0.238-0.197-0.682-0.691-0.872-0.957c-0.484-0.61-0.824-1.222-1.157-1.819c-0.642-1.194-1.094-2.346-1.427-3.356
			c-0.325-1.013-0.529-1.88-0.643-2.498c-0.117-0.616-0.144-0.984-0.144-0.984s0.264,0.256,0.68,0.72
			c0.419,0.462,0.988,1.132,1.639,1.938c0.623,0.8,1.35,1.733,2.129,2.733c0.381,0.477,0.774,0.982,1.165,1.408
			c0.237,0.257,0.253,0.275,0.532,0.526l0.199,0.164l0.05,0.041l0.012,0.01l0.006,0.005c0.021,0.017-0.163-0.126-0.083-0.064
			l0.018,0.009l0.072,0.038c0.103,0.051,0.173,0.107,0.298,0.163c0.478,0.237,1.071,0.45,1.667,0.655
			c0.615,0.199,1.22,0.395,1.806,0.585c1.196,0.374,2.337,0.736,3.316,1.079c0.979,0.347,1.799,0.665,2.373,0.907
			C353.707,293.647,354.036,293.813,354.036,293.813z"/>
	</g>
	<path fill="none" stroke="#010002" stroke-width="3" stroke-miterlimit="10" d="M248.694,314.841"/>
	<path fill="none" stroke="#010002" stroke-width="3" stroke-miterlimit="10" d="M321.887,314.234"/>
</g>
<g id="Capa_4">
	<g>
		<path d="M488.144,681.254c0,0-1.112-1.994-2.597-5.05c-0.739-1.533-1.578-3.335-2.36-5.348c-0.397-1-0.759-2.074-1.059-3.218
			l-0.195-0.889l-0.111-0.977l-0.005-0.09l0.001-0.013l0.001-0.026l0.003-0.052l0.005-0.104l0.01-0.209l0.021-0.418
			c0.002-0.264,0.075-0.615,0.112-0.917c0.179-1.251,0.505-2.312,0.85-3.412c0.391-1.072,0.788-2.115,1.345-3.076
			c0.243-0.487,0.589-0.942,0.926-1.377l0.062-0.081c0.088-0.097,0.065-0.062,0.103-0.1l0.141-0.123l0.28-0.244
			c0.185-0.162,0.363-0.325,0.583-0.466c0.835-0.608,1.62-1.062,2.345-1.494c2.939-1.646,4.97-2.569,4.97-2.569
			s-1.923,1.15-4.63,3.094c-0.663,0.501-1.388,1.049-2.047,1.644c-0.174,0.133-0.337,0.318-0.503,0.501l-0.251,0.273l-0.126,0.138
			c-0.006,0.007-0.077,0.082-0.029,0.033l-0.043,0.075c-0.233,0.395-0.475,0.784-0.649,1.261c-0.398,0.902-0.663,1.926-0.911,2.951
			c-0.203,1.023-0.396,2.138-0.422,3.11c0,0.254-0.044,0.455-0.014,0.749l0.05,0.756l0.156,0.663l0.242,0.704
			c0.367,0.945,0.801,1.885,1.281,2.782c0.941,1.797,1.942,3.441,2.819,4.835c0.88,1.394,1.645,2.538,2.185,3.333
			c0.543,0.786,0.853,1.235,0.853,1.235L488.144,681.254z"/>
	</g>
	<g>
		<path d="M386.811,678.254c0,0-1.112-1.994-2.597-5.05c-0.739-1.533-1.578-3.335-2.36-5.348c-0.397-1-0.759-2.074-1.059-3.218
			l-0.195-0.889l-0.111-0.977l-0.005-0.09l0.001-0.013l0.001-0.026l0.003-0.052l0.005-0.104l0.01-0.209l0.021-0.418
			c0.002-0.264,0.075-0.615,0.112-0.917c0.179-1.251,0.505-2.313,0.85-3.412c0.391-1.072,0.788-2.115,1.345-3.076
			c0.243-0.487,0.589-0.942,0.926-1.377l0.062-0.081c0.088-0.097,0.065-0.062,0.103-0.1l0.141-0.123l0.28-0.244
			c0.185-0.162,0.363-0.325,0.583-0.466c0.835-0.608,1.62-1.062,2.345-1.494c2.939-1.646,4.97-2.569,4.97-2.569
			s-1.923,1.15-4.63,3.094c-0.663,0.501-1.388,1.049-2.047,1.644c-0.174,0.133-0.337,0.318-0.503,0.501l-0.251,0.273l-0.126,0.138
			c-0.006,0.007-0.077,0.082-0.029,0.033l-0.043,0.075c-0.233,0.395-0.475,0.784-0.649,1.261c-0.398,0.902-0.663,1.926-0.911,2.951
			c-0.203,1.023-0.396,2.138-0.422,3.11c0,0.254-0.044,0.455-0.014,0.749l0.05,0.756l0.156,0.663l0.242,0.704
			c0.367,0.945,0.801,1.885,1.281,2.782c0.941,1.797,1.942,3.441,2.819,4.835c0.88,1.394,1.646,2.538,2.185,3.333
			c0.543,0.786,0.853,1.235,0.853,1.235L386.811,678.254z"/>
	</g>
	<g>
		<path d="M471.144,680.587c0,0-1.112-1.994-2.597-5.05c-0.739-1.533-1.578-3.335-2.36-5.348c-0.397-1-0.759-2.074-1.059-3.218
			l-0.195-0.889l-0.111-0.977l-0.005-0.09l0.001-0.013l0.001-0.026l0.003-0.052l0.005-0.104l0.01-0.209l0.021-0.418
			c0.002-0.264,0.075-0.615,0.112-0.917c0.179-1.251,0.505-2.312,0.85-3.412c0.391-1.072,0.788-2.115,1.345-3.076
			c0.243-0.487,0.589-0.942,0.926-1.377l0.062-0.082c0.088-0.097,0.065-0.062,0.103-0.1l0.141-0.123l0.28-0.244
			c0.185-0.162,0.363-0.325,0.583-0.466c0.835-0.608,1.62-1.062,2.345-1.494c2.939-1.646,4.97-2.569,4.97-2.569
			s-1.923,1.15-4.63,3.094c-0.663,0.501-1.388,1.049-2.047,1.644c-0.174,0.133-0.337,0.318-0.503,0.501l-0.251,0.273l-0.126,0.138
			c-0.006,0.007-0.077,0.082-0.029,0.033l-0.043,0.075c-0.233,0.395-0.475,0.784-0.649,1.261c-0.398,0.902-0.663,1.926-0.911,2.951
			c-0.203,1.023-0.396,2.138-0.422,3.11c0,0.254-0.044,0.455-0.014,0.749l0.05,0.757l0.156,0.663l0.242,0.704
			c0.367,0.945,0.801,1.885,1.281,2.782c0.941,1.797,1.942,3.441,2.819,4.835c0.88,1.394,1.645,2.538,2.185,3.333
			c0.543,0.786,0.853,1.235,0.853,1.235L471.144,680.587z"/>
	</g>
	<g>
		<path d="M404.478,683.254c0,0-1.112-1.994-2.597-5.05c-0.739-1.533-1.578-3.335-2.36-5.348c-0.397-1-0.759-2.074-1.059-3.218
			l-0.195-0.889l-0.111-0.977l-0.005-0.09l0.001-0.013l0.001-0.026l0.003-0.052l0.005-0.104l0.01-0.209l0.021-0.418
			c0.002-0.264,0.075-0.615,0.112-0.917c0.179-1.251,0.505-2.313,0.85-3.412c0.391-1.072,0.788-2.115,1.345-3.076
			c0.243-0.487,0.589-0.942,0.926-1.377l0.062-0.081c0.088-0.097,0.065-0.062,0.103-0.1l0.141-0.123l0.28-0.244
			c0.185-0.162,0.363-0.325,0.583-0.466c0.835-0.608,1.62-1.062,2.345-1.494c2.939-1.646,4.97-2.569,4.97-2.569
			s-1.923,1.15-4.63,3.094c-0.663,0.501-1.388,1.049-2.047,1.644c-0.174,0.133-0.337,0.318-0.503,0.501l-0.251,0.273l-0.126,0.138
			c-0.006,0.007-0.077,0.082-0.029,0.033l-0.043,0.075c-0.233,0.395-0.475,0.784-0.649,1.261c-0.398,0.902-0.663,1.926-0.911,2.951
			c-0.203,1.023-0.396,2.138-0.422,3.11c0,0.254-0.044,0.455-0.014,0.749l0.05,0.756l0.156,0.663l0.242,0.704
			c0.367,0.945,0.801,1.885,1.281,2.782c0.941,1.797,1.942,3.441,2.819,4.835c0.88,1.394,1.646,2.538,2.185,3.333
			c0.543,0.786,0.853,1.235,0.853,1.235L404.478,683.254z"/>
	</g>
	<g>
		<path d="M663.144,681.92c0,0-1.112-1.994-2.597-5.05c-0.739-1.533-1.578-3.335-2.36-5.348c-0.397-1-0.759-2.074-1.059-3.218
			l-0.195-0.889l-0.111-0.977l-0.005-0.09l0.001-0.013l0.001-0.026l0.003-0.052l0.005-0.104l0.01-0.209l0.021-0.418
			c0.002-0.264,0.075-0.615,0.112-0.917c0.179-1.251,0.505-2.313,0.85-3.412c0.391-1.072,0.788-2.115,1.345-3.076
			c0.243-0.487,0.589-0.942,0.926-1.377l0.062-0.081c0.088-0.097,0.065-0.062,0.103-0.1l0.141-0.123l0.28-0.244
			c0.185-0.162,0.363-0.325,0.583-0.466c0.835-0.608,1.62-1.062,2.345-1.494c2.939-1.646,4.97-2.569,4.97-2.569
			s-1.923,1.15-4.63,3.094c-0.663,0.501-1.388,1.049-2.047,1.644c-0.174,0.133-0.337,0.318-0.503,0.501l-0.251,0.273l-0.126,0.138
			c-0.006,0.007-0.077,0.082-0.029,0.033l-0.043,0.075c-0.233,0.395-0.475,0.784-0.649,1.261c-0.398,0.902-0.663,1.926-0.911,2.951
			c-0.203,1.023-0.396,2.138-0.422,3.11c0,0.254-0.044,0.455-0.014,0.749l0.05,0.756l0.156,0.663l0.242,0.704
			c0.367,0.945,0.801,1.885,1.281,2.782c0.941,1.797,1.942,3.441,2.819,4.835c0.88,1.394,1.646,2.538,2.185,3.333
			c0.543,0.786,0.853,1.235,0.853,1.235L663.144,681.92z"/>
	</g>
	<g>
		<path d="M639.811,683.254c0,0-1.112-1.994-2.597-5.05c-0.739-1.533-1.578-3.335-2.36-5.348c-0.397-1-0.759-2.074-1.059-3.218
			l-0.195-0.889l-0.111-0.977l-0.005-0.09l0.001-0.013l0.001-0.026l0.003-0.052l0.005-0.104l0.01-0.209l0.021-0.418
			c0.002-0.264,0.075-0.615,0.112-0.917c0.179-1.251,0.505-2.312,0.85-3.412c0.391-1.072,0.788-2.115,1.345-3.076
			c0.243-0.487,0.589-0.942,0.926-1.377l0.062-0.081c0.088-0.097,0.065-0.062,0.103-0.1l0.141-0.123l0.28-0.244
			c0.185-0.162,0.363-0.325,0.583-0.466c0.835-0.608,1.62-1.062,2.345-1.494c2.939-1.646,4.97-2.569,4.97-2.569
			s-1.923,1.15-4.63,3.094c-0.663,0.501-1.388,1.049-2.047,1.644c-0.174,0.133-0.337,0.318-0.503,0.501l-0.251,0.273l-0.126,0.138
			c-0.006,0.007-0.077,0.082-0.029,0.033l-0.043,0.075c-0.233,0.395-0.475,0.784-0.649,1.261c-0.398,0.902-0.663,1.926-0.911,2.951
			c-0.203,1.023-0.396,2.138-0.422,3.11c0,0.254-0.044,0.455-0.014,0.749l0.05,0.756l0.156,0.663l0.242,0.704
			c0.367,0.945,0.801,1.885,1.281,2.782c0.941,1.797,1.942,3.441,2.819,4.835c0.88,1.394,1.646,2.538,2.185,3.333
			c0.543,0.786,0.853,1.235,0.853,1.235L639.811,683.254z"/>
	</g>
	<g>
		<path d="M827.144,681.92c0,0-1.112-1.994-2.597-5.05c-0.739-1.533-1.578-3.335-2.36-5.348c-0.397-1-0.759-2.074-1.059-3.218
			l-0.195-0.889l-0.111-0.977l-0.005-0.09l0.001-0.013l0.001-0.026l0.003-0.052l0.005-0.104l0.01-0.209l0.021-0.418
			c0.002-0.264,0.075-0.615,0.112-0.917c0.179-1.251,0.505-2.313,0.85-3.412c0.391-1.072,0.788-2.115,1.345-3.076
			c0.243-0.487,0.589-0.942,0.926-1.377l0.062-0.081c0.088-0.097,0.065-0.062,0.103-0.1l0.141-0.123l0.28-0.244
			c0.185-0.162,0.363-0.325,0.583-0.466c0.835-0.608,1.62-1.062,2.345-1.494c2.939-1.646,4.97-2.569,4.97-2.569
			s-1.923,1.15-4.63,3.094c-0.663,0.501-1.388,1.049-2.047,1.644c-0.174,0.133-0.337,0.318-0.503,0.501l-0.251,0.273l-0.126,0.138
			c-0.006,0.007-0.077,0.082-0.029,0.033l-0.043,0.075c-0.233,0.395-0.475,0.784-0.649,1.261c-0.398,0.902-0.663,1.926-0.911,2.951
			c-0.203,1.023-0.396,2.138-0.422,3.11c0,0.254-0.044,0.455-0.014,0.749l0.05,0.756l0.156,0.663l0.242,0.704
			c0.367,0.945,0.801,1.885,1.281,2.782c0.941,1.797,1.942,3.441,2.819,4.835c0.88,1.394,1.646,2.538,2.185,3.333
			c0.543,0.786,0.853,1.235,0.853,1.235L827.144,681.92z"/>
	</g>
	<g>
		<path d="M807.144,680.587c0,0-1.112-1.994-2.597-5.05c-0.739-1.533-1.578-3.335-2.36-5.348c-0.397-1-0.759-2.074-1.059-3.218
			l-0.195-0.889l-0.111-0.977l-0.005-0.09l0.001-0.013l0.001-0.026l0.003-0.052l0.005-0.104l0.01-0.209l0.021-0.418
			c0.002-0.264,0.075-0.615,0.112-0.917c0.179-1.251,0.505-2.312,0.85-3.412c0.391-1.072,0.788-2.115,1.345-3.076
			c0.243-0.487,0.589-0.942,0.926-1.377l0.062-0.082c0.088-0.097,0.065-0.062,0.103-0.1l0.141-0.123l0.28-0.244
			c0.185-0.162,0.363-0.325,0.583-0.466c0.835-0.608,1.62-1.062,2.345-1.494c2.939-1.646,4.97-2.569,4.97-2.569
			s-1.923,1.15-4.63,3.094c-0.663,0.501-1.388,1.049-2.047,1.644c-0.174,0.133-0.337,0.318-0.503,0.501l-0.251,0.273l-0.126,0.138
			c-0.006,0.007-0.077,0.082-0.029,0.033l-0.043,0.075c-0.233,0.395-0.475,0.784-0.649,1.261c-0.398,0.902-0.663,1.926-0.911,2.951
			c-0.203,1.023-0.396,2.138-0.422,3.11c0,0.254-0.044,0.455-0.014,0.749l0.05,0.757l0.156,0.663l0.242,0.704
			c0.367,0.945,0.801,1.885,1.281,2.782c0.941,1.797,1.942,3.441,2.819,4.835c0.88,1.394,1.646,2.538,2.185,3.333
			c0.543,0.786,0.853,1.235,0.853,1.235L807.144,680.587z"/>
	</g>
</g>
</svg>
