<?xml version="1.0" encoding="utf-8"?>
<!-- Generator: Adobe Illustrator 17.0.0, SVG Export Plug-In . SVG Version: 6.00 Build 0)  -->
<!DOCTYPE svg PUBLIC "-//W3C//DTD SVG 1.1//EN" "http://www.w3.org/Graphics/SVG/1.1/DTD/svg11.dtd">
<svg version="1.1" xmlns="http://www.w3.org/2000/svg" xmlns:xlink="http://www.w3.org/1999/xlink" x="0px" y="0px" width="1024px"
	 height="768px" viewBox="0 0 1024 768" enable-background="new 0 0 1024 768" xml:space="preserve">
<g id="Capa_2">
	<path fill="none" stroke="#000000" stroke-width="4" stroke-miterlimit="10" d="M453.759,292.069
		c27.554-5.185,84.225-7.603,112.069-4.31c19.786,2.34,59.205,12.064,76.724,21.552c16.116,8.728,45.315,32.825,55.172,48.276
		c8.694,13.627,16.785,45.959,18.103,62.069c1.231,15.042,1.248,45.548-1.724,60.345c-2.43,12.101-13.429,34.846-20.69,44.828
		c-8.972,12.334-31.752,33.529-44.828,41.379c-12.33,7.403-40.235,16.012-54.31,18.966c-16.29,3.419-49.758,6.059-66.379,5.172
		c-25.833-1.378-77.377-10.224-101.724-18.966c-19.702-7.074-57.713-26.517-73.276-40.517
		c-13.691-12.316-35.554-43.187-42.241-60.345c-4.737-12.155-7.998-38.725-6.897-51.724c0.858-10.121,7.095-29.938,12.069-38.793
		c9.423-16.775,34.887-47.035,50.862-57.759C385.817,309.402,431.119,296.33,453.759,292.069z"/>
	
		<ellipse transform="matrix(0.7727 0.6348 -0.6348 0.7727 312.9333 -134.5159)" fill="#FFFFFF" stroke="#000000" stroke-width="4" stroke-miterlimit="10" cx="344.276" cy="369.655" rx="32.328" ry="33.621"/>
	
		<ellipse transform="matrix(-0.9557 0.2943 -0.2943 -0.9557 892.211 600.4368)" fill="#FFFFFF" stroke="#000000" stroke-width="4" stroke-miterlimit="10" cx="400.931" cy="367.345" rx="32.328" ry="33.621"/>
	<ellipse stroke="#000000" stroke-width="4" stroke-miterlimit="10" cx="389.103" cy="361.897" rx="19.828" ry="18.966"/>
	<ellipse stroke="#000000" stroke-width="4" stroke-miterlimit="10" cx="332.828" cy="363.379" rx="19.828" ry="18.966"/>
	<path fill="#FFFFFF" stroke="#000000" stroke-width="4" stroke-miterlimit="10" d="M320.138,449.828
		c0,0,31.496,16.999,43.103,18.966c8.1,1.373,24.659,3.098,32.759,1.724c8.349-1.416,25.346-8.836,32.759-12.931
		c8.008-4.424,26.724-25,26.724-25"/>
	<g>
		<path fill="#FFFFFF" d="M446.862,419.655c0,0,6.897,15.517,9.483,16.379c3.841,1.28,14.655,6.034,14.655,6.034"/>
		<path d="M446.862,419.655c0,0,0.419,0.411,1.069,1.16c0.658,0.746,1.55,1.828,2.537,3.154c0.991,1.323,2.079,2.891,3.191,4.561
			c0.548,0.822,1.114,1.672,1.69,2.536c0.569,0.83,1.149,1.699,1.69,2.327c0.13,0.15,0.251,0.292,0.33,0.368
			c0.035,0.034,0.066,0.06,0.042,0.045c0,0-0.03-0.017-0.081-0.044l-0.098-0.044l-0.065-0.024l-0.033-0.01l0.065,0.024
			c0.511,0.186,1.01,0.398,1.508,0.601c1.01,0.427,2.042,0.915,2.955,1.385c1.848,0.947,3.509,1.943,4.897,2.876
			c1.39,0.928,2.503,1.796,3.264,2.443c0.765,0.638,1.177,1.058,1.177,1.058s-0.588-0.018-1.575-0.142
			c-0.991-0.112-2.382-0.331-4.006-0.683c-1.624-0.351-3.484-0.837-5.428-1.433c-0.981-0.307-1.921-0.584-2.916-0.93
			c-0.512-0.163-1.031-0.319-1.543-0.503c0.011,0.004-0.058-0.02,0.018,0.006l-0.081-0.029l-0.16-0.063
			c-0.111-0.045-0.209-0.091-0.282-0.131c-0.172-0.089-0.314-0.177-0.429-0.257c-0.249-0.169-0.425-0.319-0.593-0.468
			c-0.322-0.294-0.568-0.558-0.79-0.824c-0.854-1.053-1.451-2.031-2.003-3.033c-0.549-0.992-1.02-1.978-1.435-2.946
			c-0.835-1.932-1.453-3.783-1.896-5.404c-0.445-1.62-0.706-3.01-0.847-4C446.887,420.242,446.862,419.655,446.862,419.655z"/>
	</g>
	<path fill="none" stroke="#000000" stroke-width="4" stroke-miterlimit="10" d="M357.207,328.276c0,0-18.212-39.457-25.862-51.724
		c-8.462-13.569-38.793-50.862-38.793-50.862"/>
	<path fill="none" stroke="#000000" stroke-width="4" stroke-miterlimit="10" d="M396.862,321.379c0,0,1.569-53.828-0.862-71.552
		c-2.273-16.573-17.241-64.655-17.241-64.655"/>
	
		<ellipse fill="none" stroke="#000000" stroke-width="4" stroke-miterlimit="10" cx="283.931" cy="215.345" rx="15.517" ry="14.655"/>
	
		<ellipse fill="none" stroke="#000000" stroke-width="4" stroke-miterlimit="10" cx="373.138" cy="173.931" rx="15.517" ry="14.655"/>
	<path fill="none" stroke="#000000" stroke-width="4" stroke-miterlimit="10" d="M471.862,290.345c0,0,20.792,47.844,25,64.655
		c4.745,18.956,9.509,58.045,9.483,77.586c-0.024,17.376-4.121,52.183-8.621,68.966c-5.452,20.336-32.759,77.586-32.759,77.586"/>
	<path fill="none" stroke="#000000" stroke-width="4" stroke-miterlimit="10" d="M516.828,288.552c0,0,20.792,47.844,25,64.655
		c4.745,18.956,9.51,58.045,9.483,77.586c-0.024,17.376-4.121,52.183-8.621,68.966c-5.452,20.336-35.483,86.276-35.483,86.276"/>
	<path fill="none" stroke="#000000" stroke-width="4" stroke-miterlimit="10" d="M634.793,306.724c0,0,15.619,28.016,19.828,44.828
		c4.745,18.956,9.51,58.045,9.483,77.586c-0.024,17.376-4.121,52.183-8.621,68.966c-5.452,20.336-32.759,77.586-32.759,77.586"/>
	<path fill="none" stroke="#000000" stroke-width="4" stroke-miterlimit="10" d="M582.759,291.517c0,0,20.792,47.844,25,64.655
		c4.745,18.956,9.51,58.045,9.483,77.586c-0.024,17.376-4.121,52.183-8.621,68.966C603.169,523.061,573.138,589,573.138,589"/>
	<polyline fill="none" stroke="#000000" stroke-width="4" stroke-miterlimit="10" points="716.045,466.91 757.237,441.127 
		713.299,403.597 	"/>
</g>
<g id="Capa_3">
	<path fill="none" stroke="#000000" stroke-width="4" stroke-miterlimit="10" d="M493,287c-11.148-39.308-28.776-82.259-18-123
		c3.169-11.982,11.136-38.419,19-48c7.67-9.344,19.892-19.923,31-23.226c16.266-4.836,31.462-4.419,47.052,1.226
		c24.94,9.03,45.909,33.374,58.222,56.774c6.685,12.705,13.767,24.237,17.727,38.232c10.757,38.005,1.198,70.034-1.816,108.391
		c14.535-3.743,27.361-12.643,41.811-16.178c15.205-3.72,32.454-8.861,49.027-7.242c31.167,3.044,61.6,22.078,53.029,59.023
		c-2.368,10.207-9.801,20.12-17.297,26.751C755.498,375.014,731.072,382.571,710,391"/>
</g>
<g id="Capa_4">
	<path fill="none" stroke="#000000" stroke-width="4" stroke-miterlimit="10" d="M775,288c2.055-2.018,2.404-4.05,3.023-6.977
		c8.026-37.964-36.971-53.324-64.996-43.774c-15.505,5.284-26.987,10.763-39.278,22.477C662.69,270.266,656.784,287.403,646,298"/>
	<path fill="none" stroke="#000000" stroke-width="4" stroke-miterlimit="10" d="M471,290
		c-21.134-34.11-42.965-70.883-48.974-111.002c-1.638-10.939-2.456-24.568,0.728-34.998c10.489-34.367,47.323-66.342,84.246-44"/>
</g>
</svg>
